G75*
%MOIN*%
%OFA0B0*%
%FSLAX25Y25*%
%IPPOS*%
%LPD*%
%AMOC8*
5,1,8,0,0,1.08239X$1,22.5*
%
%ADD10C,0.02000*%
D10*
X0045494Y0067000D02*
X0045500Y0067528D01*
X0045520Y0068055D01*
X0045552Y0068582D01*
X0045598Y0069108D01*
X0045656Y0069633D01*
X0045727Y0070156D01*
X0045811Y0070677D01*
X0045907Y0071196D01*
X0046017Y0071712D01*
X0046139Y0072226D01*
X0046273Y0072736D01*
X0046420Y0073243D01*
X0046579Y0073746D01*
X0046751Y0074245D01*
X0046935Y0074740D01*
X0047131Y0075230D01*
X0047339Y0075715D01*
X0047559Y0076195D01*
X0047790Y0076669D01*
X0048033Y0077138D01*
X0048288Y0077600D01*
X0048554Y0078056D01*
X0048831Y0078506D01*
X0049118Y0078948D01*
X0049417Y0079383D01*
X0049726Y0079811D01*
X0050046Y0080231D01*
X0050376Y0080643D01*
X0050715Y0081047D01*
X0051065Y0081443D01*
X0051424Y0081829D01*
X0051793Y0082207D01*
X0052171Y0082576D01*
X0052557Y0082935D01*
X0052953Y0083285D01*
X0053357Y0083624D01*
X0053769Y0083954D01*
X0054189Y0084274D01*
X0054617Y0084583D01*
X0055052Y0084882D01*
X0055494Y0085169D01*
X0055944Y0085446D01*
X0056400Y0085712D01*
X0056862Y0085967D01*
X0057331Y0086210D01*
X0057805Y0086441D01*
X0058285Y0086661D01*
X0058770Y0086869D01*
X0059260Y0087065D01*
X0059755Y0087249D01*
X0060254Y0087421D01*
X0060757Y0087580D01*
X0061264Y0087727D01*
X0061774Y0087861D01*
X0062288Y0087983D01*
X0062804Y0088093D01*
X0063323Y0088189D01*
X0063844Y0088273D01*
X0064367Y0088344D01*
X0064892Y0088402D01*
X0065418Y0088448D01*
X0065945Y0088480D01*
X0066472Y0088500D01*
X0067000Y0088506D01*
X0067528Y0088500D01*
X0068055Y0088480D01*
X0068582Y0088448D01*
X0069108Y0088402D01*
X0069633Y0088344D01*
X0070156Y0088273D01*
X0070677Y0088189D01*
X0071196Y0088093D01*
X0071712Y0087983D01*
X0072226Y0087861D01*
X0072736Y0087727D01*
X0073243Y0087580D01*
X0073746Y0087421D01*
X0074245Y0087249D01*
X0074740Y0087065D01*
X0075230Y0086869D01*
X0075715Y0086661D01*
X0076195Y0086441D01*
X0076669Y0086210D01*
X0077138Y0085967D01*
X0077600Y0085712D01*
X0078056Y0085446D01*
X0078506Y0085169D01*
X0078948Y0084882D01*
X0079383Y0084583D01*
X0079811Y0084274D01*
X0080231Y0083954D01*
X0080643Y0083624D01*
X0081047Y0083285D01*
X0081443Y0082935D01*
X0081829Y0082576D01*
X0082207Y0082207D01*
X0082576Y0081829D01*
X0082935Y0081443D01*
X0083285Y0081047D01*
X0083624Y0080643D01*
X0083954Y0080231D01*
X0084274Y0079811D01*
X0084583Y0079383D01*
X0084882Y0078948D01*
X0085169Y0078506D01*
X0085446Y0078056D01*
X0085712Y0077600D01*
X0085967Y0077138D01*
X0086210Y0076669D01*
X0086441Y0076195D01*
X0086661Y0075715D01*
X0086869Y0075230D01*
X0087065Y0074740D01*
X0087249Y0074245D01*
X0087421Y0073746D01*
X0087580Y0073243D01*
X0087727Y0072736D01*
X0087861Y0072226D01*
X0087983Y0071712D01*
X0088093Y0071196D01*
X0088189Y0070677D01*
X0088273Y0070156D01*
X0088344Y0069633D01*
X0088402Y0069108D01*
X0088448Y0068582D01*
X0088480Y0068055D01*
X0088500Y0067528D01*
X0088506Y0067000D01*
X0088500Y0066472D01*
X0088480Y0065945D01*
X0088448Y0065418D01*
X0088402Y0064892D01*
X0088344Y0064367D01*
X0088273Y0063844D01*
X0088189Y0063323D01*
X0088093Y0062804D01*
X0087983Y0062288D01*
X0087861Y0061774D01*
X0087727Y0061264D01*
X0087580Y0060757D01*
X0087421Y0060254D01*
X0087249Y0059755D01*
X0087065Y0059260D01*
X0086869Y0058770D01*
X0086661Y0058285D01*
X0086441Y0057805D01*
X0086210Y0057331D01*
X0085967Y0056862D01*
X0085712Y0056400D01*
X0085446Y0055944D01*
X0085169Y0055494D01*
X0084882Y0055052D01*
X0084583Y0054617D01*
X0084274Y0054189D01*
X0083954Y0053769D01*
X0083624Y0053357D01*
X0083285Y0052953D01*
X0082935Y0052557D01*
X0082576Y0052171D01*
X0082207Y0051793D01*
X0081829Y0051424D01*
X0081443Y0051065D01*
X0081047Y0050715D01*
X0080643Y0050376D01*
X0080231Y0050046D01*
X0079811Y0049726D01*
X0079383Y0049417D01*
X0078948Y0049118D01*
X0078506Y0048831D01*
X0078056Y0048554D01*
X0077600Y0048288D01*
X0077138Y0048033D01*
X0076669Y0047790D01*
X0076195Y0047559D01*
X0075715Y0047339D01*
X0075230Y0047131D01*
X0074740Y0046935D01*
X0074245Y0046751D01*
X0073746Y0046579D01*
X0073243Y0046420D01*
X0072736Y0046273D01*
X0072226Y0046139D01*
X0071712Y0046017D01*
X0071196Y0045907D01*
X0070677Y0045811D01*
X0070156Y0045727D01*
X0069633Y0045656D01*
X0069108Y0045598D01*
X0068582Y0045552D01*
X0068055Y0045520D01*
X0067528Y0045500D01*
X0067000Y0045494D01*
X0066472Y0045500D01*
X0065945Y0045520D01*
X0065418Y0045552D01*
X0064892Y0045598D01*
X0064367Y0045656D01*
X0063844Y0045727D01*
X0063323Y0045811D01*
X0062804Y0045907D01*
X0062288Y0046017D01*
X0061774Y0046139D01*
X0061264Y0046273D01*
X0060757Y0046420D01*
X0060254Y0046579D01*
X0059755Y0046751D01*
X0059260Y0046935D01*
X0058770Y0047131D01*
X0058285Y0047339D01*
X0057805Y0047559D01*
X0057331Y0047790D01*
X0056862Y0048033D01*
X0056400Y0048288D01*
X0055944Y0048554D01*
X0055494Y0048831D01*
X0055052Y0049118D01*
X0054617Y0049417D01*
X0054189Y0049726D01*
X0053769Y0050046D01*
X0053357Y0050376D01*
X0052953Y0050715D01*
X0052557Y0051065D01*
X0052171Y0051424D01*
X0051793Y0051793D01*
X0051424Y0052171D01*
X0051065Y0052557D01*
X0050715Y0052953D01*
X0050376Y0053357D01*
X0050046Y0053769D01*
X0049726Y0054189D01*
X0049417Y0054617D01*
X0049118Y0055052D01*
X0048831Y0055494D01*
X0048554Y0055944D01*
X0048288Y0056400D01*
X0048033Y0056862D01*
X0047790Y0057331D01*
X0047559Y0057805D01*
X0047339Y0058285D01*
X0047131Y0058770D01*
X0046935Y0059260D01*
X0046751Y0059755D01*
X0046579Y0060254D01*
X0046420Y0060757D01*
X0046273Y0061264D01*
X0046139Y0061774D01*
X0046017Y0062288D01*
X0045907Y0062804D01*
X0045811Y0063323D01*
X0045727Y0063844D01*
X0045656Y0064367D01*
X0045598Y0064892D01*
X0045552Y0065418D01*
X0045520Y0065945D01*
X0045500Y0066472D01*
X0045494Y0067000D01*
X0045787Y0142000D02*
X0045793Y0142521D01*
X0045813Y0143041D01*
X0045844Y0143561D01*
X0045889Y0144079D01*
X0045947Y0144597D01*
X0046017Y0145113D01*
X0046099Y0145627D01*
X0046195Y0146138D01*
X0046302Y0146648D01*
X0046423Y0147154D01*
X0046555Y0147658D01*
X0046700Y0148158D01*
X0046858Y0148654D01*
X0047027Y0149146D01*
X0047208Y0149634D01*
X0047402Y0150118D01*
X0047607Y0150596D01*
X0047824Y0151070D01*
X0048052Y0151538D01*
X0048292Y0152000D01*
X0048543Y0152456D01*
X0048805Y0152906D01*
X0049078Y0153349D01*
X0049362Y0153785D01*
X0049657Y0154215D01*
X0049962Y0154637D01*
X0050277Y0155051D01*
X0050602Y0155457D01*
X0050937Y0155856D01*
X0051282Y0156246D01*
X0051637Y0156627D01*
X0052000Y0157000D01*
X0052373Y0157363D01*
X0052754Y0157718D01*
X0053144Y0158063D01*
X0053543Y0158398D01*
X0053949Y0158723D01*
X0054363Y0159038D01*
X0054785Y0159343D01*
X0055215Y0159638D01*
X0055651Y0159922D01*
X0056094Y0160195D01*
X0056544Y0160457D01*
X0057000Y0160708D01*
X0057462Y0160948D01*
X0057930Y0161176D01*
X0058404Y0161393D01*
X0058882Y0161598D01*
X0059366Y0161792D01*
X0059854Y0161973D01*
X0060346Y0162142D01*
X0060842Y0162300D01*
X0061342Y0162445D01*
X0061846Y0162577D01*
X0062352Y0162698D01*
X0062862Y0162805D01*
X0063373Y0162901D01*
X0063887Y0162983D01*
X0064403Y0163053D01*
X0064921Y0163111D01*
X0065439Y0163156D01*
X0065959Y0163187D01*
X0066479Y0163207D01*
X0067000Y0163213D01*
X0067521Y0163207D01*
X0068041Y0163187D01*
X0068561Y0163156D01*
X0069079Y0163111D01*
X0069597Y0163053D01*
X0070113Y0162983D01*
X0070627Y0162901D01*
X0071138Y0162805D01*
X0071648Y0162698D01*
X0072154Y0162577D01*
X0072658Y0162445D01*
X0073158Y0162300D01*
X0073654Y0162142D01*
X0074146Y0161973D01*
X0074634Y0161792D01*
X0075118Y0161598D01*
X0075596Y0161393D01*
X0076070Y0161176D01*
X0076538Y0160948D01*
X0077000Y0160708D01*
X0077456Y0160457D01*
X0077906Y0160195D01*
X0078349Y0159922D01*
X0078785Y0159638D01*
X0079215Y0159343D01*
X0079637Y0159038D01*
X0080051Y0158723D01*
X0080457Y0158398D01*
X0080856Y0158063D01*
X0081246Y0157718D01*
X0081627Y0157363D01*
X0082000Y0157000D01*
X0082363Y0156627D01*
X0082718Y0156246D01*
X0083063Y0155856D01*
X0083398Y0155457D01*
X0083723Y0155051D01*
X0084038Y0154637D01*
X0084343Y0154215D01*
X0084638Y0153785D01*
X0084922Y0153349D01*
X0085195Y0152906D01*
X0085457Y0152456D01*
X0085708Y0152000D01*
X0085948Y0151538D01*
X0086176Y0151070D01*
X0086393Y0150596D01*
X0086598Y0150118D01*
X0086792Y0149634D01*
X0086973Y0149146D01*
X0087142Y0148654D01*
X0087300Y0148158D01*
X0087445Y0147658D01*
X0087577Y0147154D01*
X0087698Y0146648D01*
X0087805Y0146138D01*
X0087901Y0145627D01*
X0087983Y0145113D01*
X0088053Y0144597D01*
X0088111Y0144079D01*
X0088156Y0143561D01*
X0088187Y0143041D01*
X0088207Y0142521D01*
X0088213Y0142000D01*
X0088207Y0141479D01*
X0088187Y0140959D01*
X0088156Y0140439D01*
X0088111Y0139921D01*
X0088053Y0139403D01*
X0087983Y0138887D01*
X0087901Y0138373D01*
X0087805Y0137862D01*
X0087698Y0137352D01*
X0087577Y0136846D01*
X0087445Y0136342D01*
X0087300Y0135842D01*
X0087142Y0135346D01*
X0086973Y0134854D01*
X0086792Y0134366D01*
X0086598Y0133882D01*
X0086393Y0133404D01*
X0086176Y0132930D01*
X0085948Y0132462D01*
X0085708Y0132000D01*
X0085457Y0131544D01*
X0085195Y0131094D01*
X0084922Y0130651D01*
X0084638Y0130215D01*
X0084343Y0129785D01*
X0084038Y0129363D01*
X0083723Y0128949D01*
X0083398Y0128543D01*
X0083063Y0128144D01*
X0082718Y0127754D01*
X0082363Y0127373D01*
X0082000Y0127000D01*
X0081627Y0126637D01*
X0081246Y0126282D01*
X0080856Y0125937D01*
X0080457Y0125602D01*
X0080051Y0125277D01*
X0079637Y0124962D01*
X0079215Y0124657D01*
X0078785Y0124362D01*
X0078349Y0124078D01*
X0077906Y0123805D01*
X0077456Y0123543D01*
X0077000Y0123292D01*
X0076538Y0123052D01*
X0076070Y0122824D01*
X0075596Y0122607D01*
X0075118Y0122402D01*
X0074634Y0122208D01*
X0074146Y0122027D01*
X0073654Y0121858D01*
X0073158Y0121700D01*
X0072658Y0121555D01*
X0072154Y0121423D01*
X0071648Y0121302D01*
X0071138Y0121195D01*
X0070627Y0121099D01*
X0070113Y0121017D01*
X0069597Y0120947D01*
X0069079Y0120889D01*
X0068561Y0120844D01*
X0068041Y0120813D01*
X0067521Y0120793D01*
X0067000Y0120787D01*
X0066479Y0120793D01*
X0065959Y0120813D01*
X0065439Y0120844D01*
X0064921Y0120889D01*
X0064403Y0120947D01*
X0063887Y0121017D01*
X0063373Y0121099D01*
X0062862Y0121195D01*
X0062352Y0121302D01*
X0061846Y0121423D01*
X0061342Y0121555D01*
X0060842Y0121700D01*
X0060346Y0121858D01*
X0059854Y0122027D01*
X0059366Y0122208D01*
X0058882Y0122402D01*
X0058404Y0122607D01*
X0057930Y0122824D01*
X0057462Y0123052D01*
X0057000Y0123292D01*
X0056544Y0123543D01*
X0056094Y0123805D01*
X0055651Y0124078D01*
X0055215Y0124362D01*
X0054785Y0124657D01*
X0054363Y0124962D01*
X0053949Y0125277D01*
X0053543Y0125602D01*
X0053144Y0125937D01*
X0052754Y0126282D01*
X0052373Y0126637D01*
X0052000Y0127000D01*
X0051637Y0127373D01*
X0051282Y0127754D01*
X0050937Y0128144D01*
X0050602Y0128543D01*
X0050277Y0128949D01*
X0049962Y0129363D01*
X0049657Y0129785D01*
X0049362Y0130215D01*
X0049078Y0130651D01*
X0048805Y0131094D01*
X0048543Y0131544D01*
X0048292Y0132000D01*
X0048052Y0132462D01*
X0047824Y0132930D01*
X0047607Y0133404D01*
X0047402Y0133882D01*
X0047208Y0134366D01*
X0047027Y0134854D01*
X0046858Y0135346D01*
X0046700Y0135842D01*
X0046555Y0136342D01*
X0046423Y0136846D01*
X0046302Y0137352D01*
X0046195Y0137862D01*
X0046099Y0138373D01*
X0046017Y0138887D01*
X0045947Y0139403D01*
X0045889Y0139921D01*
X0045844Y0140439D01*
X0045813Y0140959D01*
X0045793Y0141479D01*
X0045787Y0142000D01*
X0049322Y0142000D02*
X0049327Y0142434D01*
X0049343Y0142867D01*
X0049370Y0143300D01*
X0049407Y0143733D01*
X0049455Y0144164D01*
X0049513Y0144594D01*
X0049582Y0145022D01*
X0049662Y0145449D01*
X0049752Y0145873D01*
X0049852Y0146295D01*
X0049962Y0146715D01*
X0050083Y0147132D01*
X0050214Y0147545D01*
X0050355Y0147956D01*
X0050507Y0148362D01*
X0050668Y0148765D01*
X0050839Y0149164D01*
X0051019Y0149558D01*
X0051210Y0149948D01*
X0051409Y0150333D01*
X0051619Y0150713D01*
X0051837Y0151088D01*
X0052065Y0151458D01*
X0052301Y0151821D01*
X0052547Y0152179D01*
X0052801Y0152531D01*
X0053064Y0152876D01*
X0053335Y0153215D01*
X0053614Y0153547D01*
X0053901Y0153872D01*
X0054197Y0154190D01*
X0054500Y0154500D01*
X0054810Y0154803D01*
X0055128Y0155099D01*
X0055453Y0155386D01*
X0055785Y0155665D01*
X0056124Y0155936D01*
X0056469Y0156199D01*
X0056821Y0156453D01*
X0057179Y0156699D01*
X0057542Y0156935D01*
X0057912Y0157163D01*
X0058287Y0157381D01*
X0058667Y0157591D01*
X0059052Y0157790D01*
X0059442Y0157981D01*
X0059836Y0158161D01*
X0060235Y0158332D01*
X0060638Y0158493D01*
X0061044Y0158645D01*
X0061455Y0158786D01*
X0061868Y0158917D01*
X0062285Y0159038D01*
X0062705Y0159148D01*
X0063127Y0159248D01*
X0063551Y0159338D01*
X0063978Y0159418D01*
X0064406Y0159487D01*
X0064836Y0159545D01*
X0065267Y0159593D01*
X0065700Y0159630D01*
X0066133Y0159657D01*
X0066566Y0159673D01*
X0067000Y0159678D01*
X0067434Y0159673D01*
X0067867Y0159657D01*
X0068300Y0159630D01*
X0068733Y0159593D01*
X0069164Y0159545D01*
X0069594Y0159487D01*
X0070022Y0159418D01*
X0070449Y0159338D01*
X0070873Y0159248D01*
X0071295Y0159148D01*
X0071715Y0159038D01*
X0072132Y0158917D01*
X0072545Y0158786D01*
X0072956Y0158645D01*
X0073362Y0158493D01*
X0073765Y0158332D01*
X0074164Y0158161D01*
X0074558Y0157981D01*
X0074948Y0157790D01*
X0075333Y0157591D01*
X0075713Y0157381D01*
X0076088Y0157163D01*
X0076458Y0156935D01*
X0076821Y0156699D01*
X0077179Y0156453D01*
X0077531Y0156199D01*
X0077876Y0155936D01*
X0078215Y0155665D01*
X0078547Y0155386D01*
X0078872Y0155099D01*
X0079190Y0154803D01*
X0079500Y0154500D01*
X0079803Y0154190D01*
X0080099Y0153872D01*
X0080386Y0153547D01*
X0080665Y0153215D01*
X0080936Y0152876D01*
X0081199Y0152531D01*
X0081453Y0152179D01*
X0081699Y0151821D01*
X0081935Y0151458D01*
X0082163Y0151088D01*
X0082381Y0150713D01*
X0082591Y0150333D01*
X0082790Y0149948D01*
X0082981Y0149558D01*
X0083161Y0149164D01*
X0083332Y0148765D01*
X0083493Y0148362D01*
X0083645Y0147956D01*
X0083786Y0147545D01*
X0083917Y0147132D01*
X0084038Y0146715D01*
X0084148Y0146295D01*
X0084248Y0145873D01*
X0084338Y0145449D01*
X0084418Y0145022D01*
X0084487Y0144594D01*
X0084545Y0144164D01*
X0084593Y0143733D01*
X0084630Y0143300D01*
X0084657Y0142867D01*
X0084673Y0142434D01*
X0084678Y0142000D01*
X0084673Y0141566D01*
X0084657Y0141133D01*
X0084630Y0140700D01*
X0084593Y0140267D01*
X0084545Y0139836D01*
X0084487Y0139406D01*
X0084418Y0138978D01*
X0084338Y0138551D01*
X0084248Y0138127D01*
X0084148Y0137705D01*
X0084038Y0137285D01*
X0083917Y0136868D01*
X0083786Y0136455D01*
X0083645Y0136044D01*
X0083493Y0135638D01*
X0083332Y0135235D01*
X0083161Y0134836D01*
X0082981Y0134442D01*
X0082790Y0134052D01*
X0082591Y0133667D01*
X0082381Y0133287D01*
X0082163Y0132912D01*
X0081935Y0132542D01*
X0081699Y0132179D01*
X0081453Y0131821D01*
X0081199Y0131469D01*
X0080936Y0131124D01*
X0080665Y0130785D01*
X0080386Y0130453D01*
X0080099Y0130128D01*
X0079803Y0129810D01*
X0079500Y0129500D01*
X0079190Y0129197D01*
X0078872Y0128901D01*
X0078547Y0128614D01*
X0078215Y0128335D01*
X0077876Y0128064D01*
X0077531Y0127801D01*
X0077179Y0127547D01*
X0076821Y0127301D01*
X0076458Y0127065D01*
X0076088Y0126837D01*
X0075713Y0126619D01*
X0075333Y0126409D01*
X0074948Y0126210D01*
X0074558Y0126019D01*
X0074164Y0125839D01*
X0073765Y0125668D01*
X0073362Y0125507D01*
X0072956Y0125355D01*
X0072545Y0125214D01*
X0072132Y0125083D01*
X0071715Y0124962D01*
X0071295Y0124852D01*
X0070873Y0124752D01*
X0070449Y0124662D01*
X0070022Y0124582D01*
X0069594Y0124513D01*
X0069164Y0124455D01*
X0068733Y0124407D01*
X0068300Y0124370D01*
X0067867Y0124343D01*
X0067434Y0124327D01*
X0067000Y0124322D01*
X0066566Y0124327D01*
X0066133Y0124343D01*
X0065700Y0124370D01*
X0065267Y0124407D01*
X0064836Y0124455D01*
X0064406Y0124513D01*
X0063978Y0124582D01*
X0063551Y0124662D01*
X0063127Y0124752D01*
X0062705Y0124852D01*
X0062285Y0124962D01*
X0061868Y0125083D01*
X0061455Y0125214D01*
X0061044Y0125355D01*
X0060638Y0125507D01*
X0060235Y0125668D01*
X0059836Y0125839D01*
X0059442Y0126019D01*
X0059052Y0126210D01*
X0058667Y0126409D01*
X0058287Y0126619D01*
X0057912Y0126837D01*
X0057542Y0127065D01*
X0057179Y0127301D01*
X0056821Y0127547D01*
X0056469Y0127801D01*
X0056124Y0128064D01*
X0055785Y0128335D01*
X0055453Y0128614D01*
X0055128Y0128901D01*
X0054810Y0129197D01*
X0054500Y0129500D01*
X0054197Y0129810D01*
X0053901Y0130128D01*
X0053614Y0130453D01*
X0053335Y0130785D01*
X0053064Y0131124D01*
X0052801Y0131469D01*
X0052547Y0131821D01*
X0052301Y0132179D01*
X0052065Y0132542D01*
X0051837Y0132912D01*
X0051619Y0133287D01*
X0051409Y0133667D01*
X0051210Y0134052D01*
X0051019Y0134442D01*
X0050839Y0134836D01*
X0050668Y0135235D01*
X0050507Y0135638D01*
X0050355Y0136044D01*
X0050214Y0136455D01*
X0050083Y0136868D01*
X0049962Y0137285D01*
X0049852Y0137705D01*
X0049752Y0138127D01*
X0049662Y0138551D01*
X0049582Y0138978D01*
X0049513Y0139406D01*
X0049455Y0139836D01*
X0049407Y0140267D01*
X0049370Y0140700D01*
X0049343Y0141133D01*
X0049327Y0141566D01*
X0049322Y0142000D01*
X0043951Y0212000D02*
X0043958Y0212566D01*
X0043979Y0213131D01*
X0044013Y0213696D01*
X0044062Y0214259D01*
X0044124Y0214821D01*
X0044200Y0215382D01*
X0044290Y0215941D01*
X0044394Y0216497D01*
X0044511Y0217050D01*
X0044642Y0217600D01*
X0044786Y0218147D01*
X0044943Y0218691D01*
X0045114Y0219230D01*
X0045298Y0219765D01*
X0045495Y0220295D01*
X0045706Y0220820D01*
X0045928Y0221340D01*
X0046164Y0221855D01*
X0046412Y0222363D01*
X0046673Y0222865D01*
X0046945Y0223361D01*
X0047230Y0223850D01*
X0047527Y0224331D01*
X0047835Y0224805D01*
X0048155Y0225272D01*
X0048487Y0225730D01*
X0048829Y0226180D01*
X0049183Y0226622D01*
X0049547Y0227055D01*
X0049922Y0227479D01*
X0050307Y0227893D01*
X0050702Y0228298D01*
X0051107Y0228693D01*
X0051521Y0229078D01*
X0051945Y0229453D01*
X0052378Y0229817D01*
X0052820Y0230171D01*
X0053270Y0230513D01*
X0053728Y0230845D01*
X0054195Y0231165D01*
X0054669Y0231473D01*
X0055150Y0231770D01*
X0055639Y0232055D01*
X0056135Y0232327D01*
X0056637Y0232588D01*
X0057145Y0232836D01*
X0057660Y0233072D01*
X0058180Y0233294D01*
X0058705Y0233505D01*
X0059235Y0233702D01*
X0059770Y0233886D01*
X0060309Y0234057D01*
X0060853Y0234214D01*
X0061400Y0234358D01*
X0061950Y0234489D01*
X0062503Y0234606D01*
X0063059Y0234710D01*
X0063618Y0234800D01*
X0064179Y0234876D01*
X0064741Y0234938D01*
X0065304Y0234987D01*
X0065869Y0235021D01*
X0066434Y0235042D01*
X0067000Y0235049D01*
X0067566Y0235042D01*
X0068131Y0235021D01*
X0068696Y0234987D01*
X0069259Y0234938D01*
X0069821Y0234876D01*
X0070382Y0234800D01*
X0070941Y0234710D01*
X0071497Y0234606D01*
X0072050Y0234489D01*
X0072600Y0234358D01*
X0073147Y0234214D01*
X0073691Y0234057D01*
X0074230Y0233886D01*
X0074765Y0233702D01*
X0075295Y0233505D01*
X0075820Y0233294D01*
X0076340Y0233072D01*
X0076855Y0232836D01*
X0077363Y0232588D01*
X0077865Y0232327D01*
X0078361Y0232055D01*
X0078850Y0231770D01*
X0079331Y0231473D01*
X0079805Y0231165D01*
X0080272Y0230845D01*
X0080730Y0230513D01*
X0081180Y0230171D01*
X0081622Y0229817D01*
X0082055Y0229453D01*
X0082479Y0229078D01*
X0082893Y0228693D01*
X0083298Y0228298D01*
X0083693Y0227893D01*
X0084078Y0227479D01*
X0084453Y0227055D01*
X0084817Y0226622D01*
X0085171Y0226180D01*
X0085513Y0225730D01*
X0085845Y0225272D01*
X0086165Y0224805D01*
X0086473Y0224331D01*
X0086770Y0223850D01*
X0087055Y0223361D01*
X0087327Y0222865D01*
X0087588Y0222363D01*
X0087836Y0221855D01*
X0088072Y0221340D01*
X0088294Y0220820D01*
X0088505Y0220295D01*
X0088702Y0219765D01*
X0088886Y0219230D01*
X0089057Y0218691D01*
X0089214Y0218147D01*
X0089358Y0217600D01*
X0089489Y0217050D01*
X0089606Y0216497D01*
X0089710Y0215941D01*
X0089800Y0215382D01*
X0089876Y0214821D01*
X0089938Y0214259D01*
X0089987Y0213696D01*
X0090021Y0213131D01*
X0090042Y0212566D01*
X0090049Y0212000D01*
X0090042Y0211434D01*
X0090021Y0210869D01*
X0089987Y0210304D01*
X0089938Y0209741D01*
X0089876Y0209179D01*
X0089800Y0208618D01*
X0089710Y0208059D01*
X0089606Y0207503D01*
X0089489Y0206950D01*
X0089358Y0206400D01*
X0089214Y0205853D01*
X0089057Y0205309D01*
X0088886Y0204770D01*
X0088702Y0204235D01*
X0088505Y0203705D01*
X0088294Y0203180D01*
X0088072Y0202660D01*
X0087836Y0202145D01*
X0087588Y0201637D01*
X0087327Y0201135D01*
X0087055Y0200639D01*
X0086770Y0200150D01*
X0086473Y0199669D01*
X0086165Y0199195D01*
X0085845Y0198728D01*
X0085513Y0198270D01*
X0085171Y0197820D01*
X0084817Y0197378D01*
X0084453Y0196945D01*
X0084078Y0196521D01*
X0083693Y0196107D01*
X0083298Y0195702D01*
X0082893Y0195307D01*
X0082479Y0194922D01*
X0082055Y0194547D01*
X0081622Y0194183D01*
X0081180Y0193829D01*
X0080730Y0193487D01*
X0080272Y0193155D01*
X0079805Y0192835D01*
X0079331Y0192527D01*
X0078850Y0192230D01*
X0078361Y0191945D01*
X0077865Y0191673D01*
X0077363Y0191412D01*
X0076855Y0191164D01*
X0076340Y0190928D01*
X0075820Y0190706D01*
X0075295Y0190495D01*
X0074765Y0190298D01*
X0074230Y0190114D01*
X0073691Y0189943D01*
X0073147Y0189786D01*
X0072600Y0189642D01*
X0072050Y0189511D01*
X0071497Y0189394D01*
X0070941Y0189290D01*
X0070382Y0189200D01*
X0069821Y0189124D01*
X0069259Y0189062D01*
X0068696Y0189013D01*
X0068131Y0188979D01*
X0067566Y0188958D01*
X0067000Y0188951D01*
X0066434Y0188958D01*
X0065869Y0188979D01*
X0065304Y0189013D01*
X0064741Y0189062D01*
X0064179Y0189124D01*
X0063618Y0189200D01*
X0063059Y0189290D01*
X0062503Y0189394D01*
X0061950Y0189511D01*
X0061400Y0189642D01*
X0060853Y0189786D01*
X0060309Y0189943D01*
X0059770Y0190114D01*
X0059235Y0190298D01*
X0058705Y0190495D01*
X0058180Y0190706D01*
X0057660Y0190928D01*
X0057145Y0191164D01*
X0056637Y0191412D01*
X0056135Y0191673D01*
X0055639Y0191945D01*
X0055150Y0192230D01*
X0054669Y0192527D01*
X0054195Y0192835D01*
X0053728Y0193155D01*
X0053270Y0193487D01*
X0052820Y0193829D01*
X0052378Y0194183D01*
X0051945Y0194547D01*
X0051521Y0194922D01*
X0051107Y0195307D01*
X0050702Y0195702D01*
X0050307Y0196107D01*
X0049922Y0196521D01*
X0049547Y0196945D01*
X0049183Y0197378D01*
X0048829Y0197820D01*
X0048487Y0198270D01*
X0048155Y0198728D01*
X0047835Y0199195D01*
X0047527Y0199669D01*
X0047230Y0200150D01*
X0046945Y0200639D01*
X0046673Y0201135D01*
X0046412Y0201637D01*
X0046164Y0202145D01*
X0045928Y0202660D01*
X0045706Y0203180D01*
X0045495Y0203705D01*
X0045298Y0204235D01*
X0045114Y0204770D01*
X0044943Y0205309D01*
X0044786Y0205853D01*
X0044642Y0206400D01*
X0044511Y0206950D01*
X0044394Y0207503D01*
X0044290Y0208059D01*
X0044200Y0208618D01*
X0044124Y0209179D01*
X0044062Y0209741D01*
X0044013Y0210304D01*
X0043979Y0210869D01*
X0043958Y0211434D01*
X0043951Y0212000D01*
X0048972Y0212000D02*
X0048977Y0212442D01*
X0048994Y0212885D01*
X0049021Y0213326D01*
X0049059Y0213767D01*
X0049108Y0214207D01*
X0049167Y0214645D01*
X0049237Y0215082D01*
X0049318Y0215517D01*
X0049410Y0215950D01*
X0049512Y0216380D01*
X0049625Y0216808D01*
X0049748Y0217233D01*
X0049882Y0217655D01*
X0050026Y0218073D01*
X0050180Y0218488D01*
X0050344Y0218899D01*
X0050519Y0219306D01*
X0050703Y0219708D01*
X0050897Y0220106D01*
X0051101Y0220498D01*
X0051314Y0220886D01*
X0051537Y0221268D01*
X0051769Y0221645D01*
X0052010Y0222016D01*
X0052261Y0222381D01*
X0052520Y0222739D01*
X0052788Y0223091D01*
X0053064Y0223437D01*
X0053349Y0223775D01*
X0053642Y0224107D01*
X0053943Y0224431D01*
X0054252Y0224748D01*
X0054569Y0225057D01*
X0054893Y0225358D01*
X0055225Y0225651D01*
X0055563Y0225936D01*
X0055909Y0226212D01*
X0056261Y0226480D01*
X0056619Y0226739D01*
X0056984Y0226990D01*
X0057355Y0227231D01*
X0057732Y0227463D01*
X0058114Y0227686D01*
X0058502Y0227899D01*
X0058894Y0228103D01*
X0059292Y0228297D01*
X0059694Y0228481D01*
X0060101Y0228656D01*
X0060512Y0228820D01*
X0060927Y0228974D01*
X0061345Y0229118D01*
X0061767Y0229252D01*
X0062192Y0229375D01*
X0062620Y0229488D01*
X0063050Y0229590D01*
X0063483Y0229682D01*
X0063918Y0229763D01*
X0064355Y0229833D01*
X0064793Y0229892D01*
X0065233Y0229941D01*
X0065674Y0229979D01*
X0066115Y0230006D01*
X0066558Y0230023D01*
X0067000Y0230028D01*
X0067442Y0230023D01*
X0067885Y0230006D01*
X0068326Y0229979D01*
X0068767Y0229941D01*
X0069207Y0229892D01*
X0069645Y0229833D01*
X0070082Y0229763D01*
X0070517Y0229682D01*
X0070950Y0229590D01*
X0071380Y0229488D01*
X0071808Y0229375D01*
X0072233Y0229252D01*
X0072655Y0229118D01*
X0073073Y0228974D01*
X0073488Y0228820D01*
X0073899Y0228656D01*
X0074306Y0228481D01*
X0074708Y0228297D01*
X0075106Y0228103D01*
X0075498Y0227899D01*
X0075886Y0227686D01*
X0076268Y0227463D01*
X0076645Y0227231D01*
X0077016Y0226990D01*
X0077381Y0226739D01*
X0077739Y0226480D01*
X0078091Y0226212D01*
X0078437Y0225936D01*
X0078775Y0225651D01*
X0079107Y0225358D01*
X0079431Y0225057D01*
X0079748Y0224748D01*
X0080057Y0224431D01*
X0080358Y0224107D01*
X0080651Y0223775D01*
X0080936Y0223437D01*
X0081212Y0223091D01*
X0081480Y0222739D01*
X0081739Y0222381D01*
X0081990Y0222016D01*
X0082231Y0221645D01*
X0082463Y0221268D01*
X0082686Y0220886D01*
X0082899Y0220498D01*
X0083103Y0220106D01*
X0083297Y0219708D01*
X0083481Y0219306D01*
X0083656Y0218899D01*
X0083820Y0218488D01*
X0083974Y0218073D01*
X0084118Y0217655D01*
X0084252Y0217233D01*
X0084375Y0216808D01*
X0084488Y0216380D01*
X0084590Y0215950D01*
X0084682Y0215517D01*
X0084763Y0215082D01*
X0084833Y0214645D01*
X0084892Y0214207D01*
X0084941Y0213767D01*
X0084979Y0213326D01*
X0085006Y0212885D01*
X0085023Y0212442D01*
X0085028Y0212000D01*
X0085023Y0211558D01*
X0085006Y0211115D01*
X0084979Y0210674D01*
X0084941Y0210233D01*
X0084892Y0209793D01*
X0084833Y0209355D01*
X0084763Y0208918D01*
X0084682Y0208483D01*
X0084590Y0208050D01*
X0084488Y0207620D01*
X0084375Y0207192D01*
X0084252Y0206767D01*
X0084118Y0206345D01*
X0083974Y0205927D01*
X0083820Y0205512D01*
X0083656Y0205101D01*
X0083481Y0204694D01*
X0083297Y0204292D01*
X0083103Y0203894D01*
X0082899Y0203502D01*
X0082686Y0203114D01*
X0082463Y0202732D01*
X0082231Y0202355D01*
X0081990Y0201984D01*
X0081739Y0201619D01*
X0081480Y0201261D01*
X0081212Y0200909D01*
X0080936Y0200563D01*
X0080651Y0200225D01*
X0080358Y0199893D01*
X0080057Y0199569D01*
X0079748Y0199252D01*
X0079431Y0198943D01*
X0079107Y0198642D01*
X0078775Y0198349D01*
X0078437Y0198064D01*
X0078091Y0197788D01*
X0077739Y0197520D01*
X0077381Y0197261D01*
X0077016Y0197010D01*
X0076645Y0196769D01*
X0076268Y0196537D01*
X0075886Y0196314D01*
X0075498Y0196101D01*
X0075106Y0195897D01*
X0074708Y0195703D01*
X0074306Y0195519D01*
X0073899Y0195344D01*
X0073488Y0195180D01*
X0073073Y0195026D01*
X0072655Y0194882D01*
X0072233Y0194748D01*
X0071808Y0194625D01*
X0071380Y0194512D01*
X0070950Y0194410D01*
X0070517Y0194318D01*
X0070082Y0194237D01*
X0069645Y0194167D01*
X0069207Y0194108D01*
X0068767Y0194059D01*
X0068326Y0194021D01*
X0067885Y0193994D01*
X0067442Y0193977D01*
X0067000Y0193972D01*
X0066558Y0193977D01*
X0066115Y0193994D01*
X0065674Y0194021D01*
X0065233Y0194059D01*
X0064793Y0194108D01*
X0064355Y0194167D01*
X0063918Y0194237D01*
X0063483Y0194318D01*
X0063050Y0194410D01*
X0062620Y0194512D01*
X0062192Y0194625D01*
X0061767Y0194748D01*
X0061345Y0194882D01*
X0060927Y0195026D01*
X0060512Y0195180D01*
X0060101Y0195344D01*
X0059694Y0195519D01*
X0059292Y0195703D01*
X0058894Y0195897D01*
X0058502Y0196101D01*
X0058114Y0196314D01*
X0057732Y0196537D01*
X0057355Y0196769D01*
X0056984Y0197010D01*
X0056619Y0197261D01*
X0056261Y0197520D01*
X0055909Y0197788D01*
X0055563Y0198064D01*
X0055225Y0198349D01*
X0054893Y0198642D01*
X0054569Y0198943D01*
X0054252Y0199252D01*
X0053943Y0199569D01*
X0053642Y0199893D01*
X0053349Y0200225D01*
X0053064Y0200563D01*
X0052788Y0200909D01*
X0052520Y0201261D01*
X0052261Y0201619D01*
X0052010Y0201984D01*
X0051769Y0202355D01*
X0051537Y0202732D01*
X0051314Y0203114D01*
X0051101Y0203502D01*
X0050897Y0203894D01*
X0050703Y0204292D01*
X0050519Y0204694D01*
X0050344Y0205101D01*
X0050180Y0205512D01*
X0050026Y0205927D01*
X0049882Y0206345D01*
X0049748Y0206767D01*
X0049625Y0207192D01*
X0049512Y0207620D01*
X0049410Y0208050D01*
X0049318Y0208483D01*
X0049237Y0208918D01*
X0049167Y0209355D01*
X0049108Y0209793D01*
X0049059Y0210233D01*
X0049021Y0210674D01*
X0048994Y0211115D01*
X0048977Y0211558D01*
X0048972Y0212000D01*
X0045494Y0282000D02*
X0045500Y0282528D01*
X0045520Y0283055D01*
X0045552Y0283582D01*
X0045598Y0284108D01*
X0045656Y0284633D01*
X0045727Y0285156D01*
X0045811Y0285677D01*
X0045907Y0286196D01*
X0046017Y0286712D01*
X0046139Y0287226D01*
X0046273Y0287736D01*
X0046420Y0288243D01*
X0046579Y0288746D01*
X0046751Y0289245D01*
X0046935Y0289740D01*
X0047131Y0290230D01*
X0047339Y0290715D01*
X0047559Y0291195D01*
X0047790Y0291669D01*
X0048033Y0292138D01*
X0048288Y0292600D01*
X0048554Y0293056D01*
X0048831Y0293506D01*
X0049118Y0293948D01*
X0049417Y0294383D01*
X0049726Y0294811D01*
X0050046Y0295231D01*
X0050376Y0295643D01*
X0050715Y0296047D01*
X0051065Y0296443D01*
X0051424Y0296829D01*
X0051793Y0297207D01*
X0052171Y0297576D01*
X0052557Y0297935D01*
X0052953Y0298285D01*
X0053357Y0298624D01*
X0053769Y0298954D01*
X0054189Y0299274D01*
X0054617Y0299583D01*
X0055052Y0299882D01*
X0055494Y0300169D01*
X0055944Y0300446D01*
X0056400Y0300712D01*
X0056862Y0300967D01*
X0057331Y0301210D01*
X0057805Y0301441D01*
X0058285Y0301661D01*
X0058770Y0301869D01*
X0059260Y0302065D01*
X0059755Y0302249D01*
X0060254Y0302421D01*
X0060757Y0302580D01*
X0061264Y0302727D01*
X0061774Y0302861D01*
X0062288Y0302983D01*
X0062804Y0303093D01*
X0063323Y0303189D01*
X0063844Y0303273D01*
X0064367Y0303344D01*
X0064892Y0303402D01*
X0065418Y0303448D01*
X0065945Y0303480D01*
X0066472Y0303500D01*
X0067000Y0303506D01*
X0067528Y0303500D01*
X0068055Y0303480D01*
X0068582Y0303448D01*
X0069108Y0303402D01*
X0069633Y0303344D01*
X0070156Y0303273D01*
X0070677Y0303189D01*
X0071196Y0303093D01*
X0071712Y0302983D01*
X0072226Y0302861D01*
X0072736Y0302727D01*
X0073243Y0302580D01*
X0073746Y0302421D01*
X0074245Y0302249D01*
X0074740Y0302065D01*
X0075230Y0301869D01*
X0075715Y0301661D01*
X0076195Y0301441D01*
X0076669Y0301210D01*
X0077138Y0300967D01*
X0077600Y0300712D01*
X0078056Y0300446D01*
X0078506Y0300169D01*
X0078948Y0299882D01*
X0079383Y0299583D01*
X0079811Y0299274D01*
X0080231Y0298954D01*
X0080643Y0298624D01*
X0081047Y0298285D01*
X0081443Y0297935D01*
X0081829Y0297576D01*
X0082207Y0297207D01*
X0082576Y0296829D01*
X0082935Y0296443D01*
X0083285Y0296047D01*
X0083624Y0295643D01*
X0083954Y0295231D01*
X0084274Y0294811D01*
X0084583Y0294383D01*
X0084882Y0293948D01*
X0085169Y0293506D01*
X0085446Y0293056D01*
X0085712Y0292600D01*
X0085967Y0292138D01*
X0086210Y0291669D01*
X0086441Y0291195D01*
X0086661Y0290715D01*
X0086869Y0290230D01*
X0087065Y0289740D01*
X0087249Y0289245D01*
X0087421Y0288746D01*
X0087580Y0288243D01*
X0087727Y0287736D01*
X0087861Y0287226D01*
X0087983Y0286712D01*
X0088093Y0286196D01*
X0088189Y0285677D01*
X0088273Y0285156D01*
X0088344Y0284633D01*
X0088402Y0284108D01*
X0088448Y0283582D01*
X0088480Y0283055D01*
X0088500Y0282528D01*
X0088506Y0282000D01*
X0088500Y0281472D01*
X0088480Y0280945D01*
X0088448Y0280418D01*
X0088402Y0279892D01*
X0088344Y0279367D01*
X0088273Y0278844D01*
X0088189Y0278323D01*
X0088093Y0277804D01*
X0087983Y0277288D01*
X0087861Y0276774D01*
X0087727Y0276264D01*
X0087580Y0275757D01*
X0087421Y0275254D01*
X0087249Y0274755D01*
X0087065Y0274260D01*
X0086869Y0273770D01*
X0086661Y0273285D01*
X0086441Y0272805D01*
X0086210Y0272331D01*
X0085967Y0271862D01*
X0085712Y0271400D01*
X0085446Y0270944D01*
X0085169Y0270494D01*
X0084882Y0270052D01*
X0084583Y0269617D01*
X0084274Y0269189D01*
X0083954Y0268769D01*
X0083624Y0268357D01*
X0083285Y0267953D01*
X0082935Y0267557D01*
X0082576Y0267171D01*
X0082207Y0266793D01*
X0081829Y0266424D01*
X0081443Y0266065D01*
X0081047Y0265715D01*
X0080643Y0265376D01*
X0080231Y0265046D01*
X0079811Y0264726D01*
X0079383Y0264417D01*
X0078948Y0264118D01*
X0078506Y0263831D01*
X0078056Y0263554D01*
X0077600Y0263288D01*
X0077138Y0263033D01*
X0076669Y0262790D01*
X0076195Y0262559D01*
X0075715Y0262339D01*
X0075230Y0262131D01*
X0074740Y0261935D01*
X0074245Y0261751D01*
X0073746Y0261579D01*
X0073243Y0261420D01*
X0072736Y0261273D01*
X0072226Y0261139D01*
X0071712Y0261017D01*
X0071196Y0260907D01*
X0070677Y0260811D01*
X0070156Y0260727D01*
X0069633Y0260656D01*
X0069108Y0260598D01*
X0068582Y0260552D01*
X0068055Y0260520D01*
X0067528Y0260500D01*
X0067000Y0260494D01*
X0066472Y0260500D01*
X0065945Y0260520D01*
X0065418Y0260552D01*
X0064892Y0260598D01*
X0064367Y0260656D01*
X0063844Y0260727D01*
X0063323Y0260811D01*
X0062804Y0260907D01*
X0062288Y0261017D01*
X0061774Y0261139D01*
X0061264Y0261273D01*
X0060757Y0261420D01*
X0060254Y0261579D01*
X0059755Y0261751D01*
X0059260Y0261935D01*
X0058770Y0262131D01*
X0058285Y0262339D01*
X0057805Y0262559D01*
X0057331Y0262790D01*
X0056862Y0263033D01*
X0056400Y0263288D01*
X0055944Y0263554D01*
X0055494Y0263831D01*
X0055052Y0264118D01*
X0054617Y0264417D01*
X0054189Y0264726D01*
X0053769Y0265046D01*
X0053357Y0265376D01*
X0052953Y0265715D01*
X0052557Y0266065D01*
X0052171Y0266424D01*
X0051793Y0266793D01*
X0051424Y0267171D01*
X0051065Y0267557D01*
X0050715Y0267953D01*
X0050376Y0268357D01*
X0050046Y0268769D01*
X0049726Y0269189D01*
X0049417Y0269617D01*
X0049118Y0270052D01*
X0048831Y0270494D01*
X0048554Y0270944D01*
X0048288Y0271400D01*
X0048033Y0271862D01*
X0047790Y0272331D01*
X0047559Y0272805D01*
X0047339Y0273285D01*
X0047131Y0273770D01*
X0046935Y0274260D01*
X0046751Y0274755D01*
X0046579Y0275254D01*
X0046420Y0275757D01*
X0046273Y0276264D01*
X0046139Y0276774D01*
X0046017Y0277288D01*
X0045907Y0277804D01*
X0045811Y0278323D01*
X0045727Y0278844D01*
X0045656Y0279367D01*
X0045598Y0279892D01*
X0045552Y0280418D01*
X0045520Y0280945D01*
X0045500Y0281472D01*
X0045494Y0282000D01*
X0049322Y0282000D02*
X0049327Y0282434D01*
X0049343Y0282867D01*
X0049370Y0283300D01*
X0049407Y0283733D01*
X0049455Y0284164D01*
X0049513Y0284594D01*
X0049582Y0285022D01*
X0049662Y0285449D01*
X0049752Y0285873D01*
X0049852Y0286295D01*
X0049962Y0286715D01*
X0050083Y0287132D01*
X0050214Y0287545D01*
X0050355Y0287956D01*
X0050507Y0288362D01*
X0050668Y0288765D01*
X0050839Y0289164D01*
X0051019Y0289558D01*
X0051210Y0289948D01*
X0051409Y0290333D01*
X0051619Y0290713D01*
X0051837Y0291088D01*
X0052065Y0291458D01*
X0052301Y0291821D01*
X0052547Y0292179D01*
X0052801Y0292531D01*
X0053064Y0292876D01*
X0053335Y0293215D01*
X0053614Y0293547D01*
X0053901Y0293872D01*
X0054197Y0294190D01*
X0054500Y0294500D01*
X0054810Y0294803D01*
X0055128Y0295099D01*
X0055453Y0295386D01*
X0055785Y0295665D01*
X0056124Y0295936D01*
X0056469Y0296199D01*
X0056821Y0296453D01*
X0057179Y0296699D01*
X0057542Y0296935D01*
X0057912Y0297163D01*
X0058287Y0297381D01*
X0058667Y0297591D01*
X0059052Y0297790D01*
X0059442Y0297981D01*
X0059836Y0298161D01*
X0060235Y0298332D01*
X0060638Y0298493D01*
X0061044Y0298645D01*
X0061455Y0298786D01*
X0061868Y0298917D01*
X0062285Y0299038D01*
X0062705Y0299148D01*
X0063127Y0299248D01*
X0063551Y0299338D01*
X0063978Y0299418D01*
X0064406Y0299487D01*
X0064836Y0299545D01*
X0065267Y0299593D01*
X0065700Y0299630D01*
X0066133Y0299657D01*
X0066566Y0299673D01*
X0067000Y0299678D01*
X0067434Y0299673D01*
X0067867Y0299657D01*
X0068300Y0299630D01*
X0068733Y0299593D01*
X0069164Y0299545D01*
X0069594Y0299487D01*
X0070022Y0299418D01*
X0070449Y0299338D01*
X0070873Y0299248D01*
X0071295Y0299148D01*
X0071715Y0299038D01*
X0072132Y0298917D01*
X0072545Y0298786D01*
X0072956Y0298645D01*
X0073362Y0298493D01*
X0073765Y0298332D01*
X0074164Y0298161D01*
X0074558Y0297981D01*
X0074948Y0297790D01*
X0075333Y0297591D01*
X0075713Y0297381D01*
X0076088Y0297163D01*
X0076458Y0296935D01*
X0076821Y0296699D01*
X0077179Y0296453D01*
X0077531Y0296199D01*
X0077876Y0295936D01*
X0078215Y0295665D01*
X0078547Y0295386D01*
X0078872Y0295099D01*
X0079190Y0294803D01*
X0079500Y0294500D01*
X0079803Y0294190D01*
X0080099Y0293872D01*
X0080386Y0293547D01*
X0080665Y0293215D01*
X0080936Y0292876D01*
X0081199Y0292531D01*
X0081453Y0292179D01*
X0081699Y0291821D01*
X0081935Y0291458D01*
X0082163Y0291088D01*
X0082381Y0290713D01*
X0082591Y0290333D01*
X0082790Y0289948D01*
X0082981Y0289558D01*
X0083161Y0289164D01*
X0083332Y0288765D01*
X0083493Y0288362D01*
X0083645Y0287956D01*
X0083786Y0287545D01*
X0083917Y0287132D01*
X0084038Y0286715D01*
X0084148Y0286295D01*
X0084248Y0285873D01*
X0084338Y0285449D01*
X0084418Y0285022D01*
X0084487Y0284594D01*
X0084545Y0284164D01*
X0084593Y0283733D01*
X0084630Y0283300D01*
X0084657Y0282867D01*
X0084673Y0282434D01*
X0084678Y0282000D01*
X0084673Y0281566D01*
X0084657Y0281133D01*
X0084630Y0280700D01*
X0084593Y0280267D01*
X0084545Y0279836D01*
X0084487Y0279406D01*
X0084418Y0278978D01*
X0084338Y0278551D01*
X0084248Y0278127D01*
X0084148Y0277705D01*
X0084038Y0277285D01*
X0083917Y0276868D01*
X0083786Y0276455D01*
X0083645Y0276044D01*
X0083493Y0275638D01*
X0083332Y0275235D01*
X0083161Y0274836D01*
X0082981Y0274442D01*
X0082790Y0274052D01*
X0082591Y0273667D01*
X0082381Y0273287D01*
X0082163Y0272912D01*
X0081935Y0272542D01*
X0081699Y0272179D01*
X0081453Y0271821D01*
X0081199Y0271469D01*
X0080936Y0271124D01*
X0080665Y0270785D01*
X0080386Y0270453D01*
X0080099Y0270128D01*
X0079803Y0269810D01*
X0079500Y0269500D01*
X0079190Y0269197D01*
X0078872Y0268901D01*
X0078547Y0268614D01*
X0078215Y0268335D01*
X0077876Y0268064D01*
X0077531Y0267801D01*
X0077179Y0267547D01*
X0076821Y0267301D01*
X0076458Y0267065D01*
X0076088Y0266837D01*
X0075713Y0266619D01*
X0075333Y0266409D01*
X0074948Y0266210D01*
X0074558Y0266019D01*
X0074164Y0265839D01*
X0073765Y0265668D01*
X0073362Y0265507D01*
X0072956Y0265355D01*
X0072545Y0265214D01*
X0072132Y0265083D01*
X0071715Y0264962D01*
X0071295Y0264852D01*
X0070873Y0264752D01*
X0070449Y0264662D01*
X0070022Y0264582D01*
X0069594Y0264513D01*
X0069164Y0264455D01*
X0068733Y0264407D01*
X0068300Y0264370D01*
X0067867Y0264343D01*
X0067434Y0264327D01*
X0067000Y0264322D01*
X0066566Y0264327D01*
X0066133Y0264343D01*
X0065700Y0264370D01*
X0065267Y0264407D01*
X0064836Y0264455D01*
X0064406Y0264513D01*
X0063978Y0264582D01*
X0063551Y0264662D01*
X0063127Y0264752D01*
X0062705Y0264852D01*
X0062285Y0264962D01*
X0061868Y0265083D01*
X0061455Y0265214D01*
X0061044Y0265355D01*
X0060638Y0265507D01*
X0060235Y0265668D01*
X0059836Y0265839D01*
X0059442Y0266019D01*
X0059052Y0266210D01*
X0058667Y0266409D01*
X0058287Y0266619D01*
X0057912Y0266837D01*
X0057542Y0267065D01*
X0057179Y0267301D01*
X0056821Y0267547D01*
X0056469Y0267801D01*
X0056124Y0268064D01*
X0055785Y0268335D01*
X0055453Y0268614D01*
X0055128Y0268901D01*
X0054810Y0269197D01*
X0054500Y0269500D01*
X0054197Y0269810D01*
X0053901Y0270128D01*
X0053614Y0270453D01*
X0053335Y0270785D01*
X0053064Y0271124D01*
X0052801Y0271469D01*
X0052547Y0271821D01*
X0052301Y0272179D01*
X0052065Y0272542D01*
X0051837Y0272912D01*
X0051619Y0273287D01*
X0051409Y0273667D01*
X0051210Y0274052D01*
X0051019Y0274442D01*
X0050839Y0274836D01*
X0050668Y0275235D01*
X0050507Y0275638D01*
X0050355Y0276044D01*
X0050214Y0276455D01*
X0050083Y0276868D01*
X0049962Y0277285D01*
X0049852Y0277705D01*
X0049752Y0278127D01*
X0049662Y0278551D01*
X0049582Y0278978D01*
X0049513Y0279406D01*
X0049455Y0279836D01*
X0049407Y0280267D01*
X0049370Y0280700D01*
X0049343Y0281133D01*
X0049327Y0281566D01*
X0049322Y0282000D01*
X0045494Y0352000D02*
X0045500Y0352528D01*
X0045520Y0353055D01*
X0045552Y0353582D01*
X0045598Y0354108D01*
X0045656Y0354633D01*
X0045727Y0355156D01*
X0045811Y0355677D01*
X0045907Y0356196D01*
X0046017Y0356712D01*
X0046139Y0357226D01*
X0046273Y0357736D01*
X0046420Y0358243D01*
X0046579Y0358746D01*
X0046751Y0359245D01*
X0046935Y0359740D01*
X0047131Y0360230D01*
X0047339Y0360715D01*
X0047559Y0361195D01*
X0047790Y0361669D01*
X0048033Y0362138D01*
X0048288Y0362600D01*
X0048554Y0363056D01*
X0048831Y0363506D01*
X0049118Y0363948D01*
X0049417Y0364383D01*
X0049726Y0364811D01*
X0050046Y0365231D01*
X0050376Y0365643D01*
X0050715Y0366047D01*
X0051065Y0366443D01*
X0051424Y0366829D01*
X0051793Y0367207D01*
X0052171Y0367576D01*
X0052557Y0367935D01*
X0052953Y0368285D01*
X0053357Y0368624D01*
X0053769Y0368954D01*
X0054189Y0369274D01*
X0054617Y0369583D01*
X0055052Y0369882D01*
X0055494Y0370169D01*
X0055944Y0370446D01*
X0056400Y0370712D01*
X0056862Y0370967D01*
X0057331Y0371210D01*
X0057805Y0371441D01*
X0058285Y0371661D01*
X0058770Y0371869D01*
X0059260Y0372065D01*
X0059755Y0372249D01*
X0060254Y0372421D01*
X0060757Y0372580D01*
X0061264Y0372727D01*
X0061774Y0372861D01*
X0062288Y0372983D01*
X0062804Y0373093D01*
X0063323Y0373189D01*
X0063844Y0373273D01*
X0064367Y0373344D01*
X0064892Y0373402D01*
X0065418Y0373448D01*
X0065945Y0373480D01*
X0066472Y0373500D01*
X0067000Y0373506D01*
X0067528Y0373500D01*
X0068055Y0373480D01*
X0068582Y0373448D01*
X0069108Y0373402D01*
X0069633Y0373344D01*
X0070156Y0373273D01*
X0070677Y0373189D01*
X0071196Y0373093D01*
X0071712Y0372983D01*
X0072226Y0372861D01*
X0072736Y0372727D01*
X0073243Y0372580D01*
X0073746Y0372421D01*
X0074245Y0372249D01*
X0074740Y0372065D01*
X0075230Y0371869D01*
X0075715Y0371661D01*
X0076195Y0371441D01*
X0076669Y0371210D01*
X0077138Y0370967D01*
X0077600Y0370712D01*
X0078056Y0370446D01*
X0078506Y0370169D01*
X0078948Y0369882D01*
X0079383Y0369583D01*
X0079811Y0369274D01*
X0080231Y0368954D01*
X0080643Y0368624D01*
X0081047Y0368285D01*
X0081443Y0367935D01*
X0081829Y0367576D01*
X0082207Y0367207D01*
X0082576Y0366829D01*
X0082935Y0366443D01*
X0083285Y0366047D01*
X0083624Y0365643D01*
X0083954Y0365231D01*
X0084274Y0364811D01*
X0084583Y0364383D01*
X0084882Y0363948D01*
X0085169Y0363506D01*
X0085446Y0363056D01*
X0085712Y0362600D01*
X0085967Y0362138D01*
X0086210Y0361669D01*
X0086441Y0361195D01*
X0086661Y0360715D01*
X0086869Y0360230D01*
X0087065Y0359740D01*
X0087249Y0359245D01*
X0087421Y0358746D01*
X0087580Y0358243D01*
X0087727Y0357736D01*
X0087861Y0357226D01*
X0087983Y0356712D01*
X0088093Y0356196D01*
X0088189Y0355677D01*
X0088273Y0355156D01*
X0088344Y0354633D01*
X0088402Y0354108D01*
X0088448Y0353582D01*
X0088480Y0353055D01*
X0088500Y0352528D01*
X0088506Y0352000D01*
X0088500Y0351472D01*
X0088480Y0350945D01*
X0088448Y0350418D01*
X0088402Y0349892D01*
X0088344Y0349367D01*
X0088273Y0348844D01*
X0088189Y0348323D01*
X0088093Y0347804D01*
X0087983Y0347288D01*
X0087861Y0346774D01*
X0087727Y0346264D01*
X0087580Y0345757D01*
X0087421Y0345254D01*
X0087249Y0344755D01*
X0087065Y0344260D01*
X0086869Y0343770D01*
X0086661Y0343285D01*
X0086441Y0342805D01*
X0086210Y0342331D01*
X0085967Y0341862D01*
X0085712Y0341400D01*
X0085446Y0340944D01*
X0085169Y0340494D01*
X0084882Y0340052D01*
X0084583Y0339617D01*
X0084274Y0339189D01*
X0083954Y0338769D01*
X0083624Y0338357D01*
X0083285Y0337953D01*
X0082935Y0337557D01*
X0082576Y0337171D01*
X0082207Y0336793D01*
X0081829Y0336424D01*
X0081443Y0336065D01*
X0081047Y0335715D01*
X0080643Y0335376D01*
X0080231Y0335046D01*
X0079811Y0334726D01*
X0079383Y0334417D01*
X0078948Y0334118D01*
X0078506Y0333831D01*
X0078056Y0333554D01*
X0077600Y0333288D01*
X0077138Y0333033D01*
X0076669Y0332790D01*
X0076195Y0332559D01*
X0075715Y0332339D01*
X0075230Y0332131D01*
X0074740Y0331935D01*
X0074245Y0331751D01*
X0073746Y0331579D01*
X0073243Y0331420D01*
X0072736Y0331273D01*
X0072226Y0331139D01*
X0071712Y0331017D01*
X0071196Y0330907D01*
X0070677Y0330811D01*
X0070156Y0330727D01*
X0069633Y0330656D01*
X0069108Y0330598D01*
X0068582Y0330552D01*
X0068055Y0330520D01*
X0067528Y0330500D01*
X0067000Y0330494D01*
X0066472Y0330500D01*
X0065945Y0330520D01*
X0065418Y0330552D01*
X0064892Y0330598D01*
X0064367Y0330656D01*
X0063844Y0330727D01*
X0063323Y0330811D01*
X0062804Y0330907D01*
X0062288Y0331017D01*
X0061774Y0331139D01*
X0061264Y0331273D01*
X0060757Y0331420D01*
X0060254Y0331579D01*
X0059755Y0331751D01*
X0059260Y0331935D01*
X0058770Y0332131D01*
X0058285Y0332339D01*
X0057805Y0332559D01*
X0057331Y0332790D01*
X0056862Y0333033D01*
X0056400Y0333288D01*
X0055944Y0333554D01*
X0055494Y0333831D01*
X0055052Y0334118D01*
X0054617Y0334417D01*
X0054189Y0334726D01*
X0053769Y0335046D01*
X0053357Y0335376D01*
X0052953Y0335715D01*
X0052557Y0336065D01*
X0052171Y0336424D01*
X0051793Y0336793D01*
X0051424Y0337171D01*
X0051065Y0337557D01*
X0050715Y0337953D01*
X0050376Y0338357D01*
X0050046Y0338769D01*
X0049726Y0339189D01*
X0049417Y0339617D01*
X0049118Y0340052D01*
X0048831Y0340494D01*
X0048554Y0340944D01*
X0048288Y0341400D01*
X0048033Y0341862D01*
X0047790Y0342331D01*
X0047559Y0342805D01*
X0047339Y0343285D01*
X0047131Y0343770D01*
X0046935Y0344260D01*
X0046751Y0344755D01*
X0046579Y0345254D01*
X0046420Y0345757D01*
X0046273Y0346264D01*
X0046139Y0346774D01*
X0046017Y0347288D01*
X0045907Y0347804D01*
X0045811Y0348323D01*
X0045727Y0348844D01*
X0045656Y0349367D01*
X0045598Y0349892D01*
X0045552Y0350418D01*
X0045520Y0350945D01*
X0045500Y0351472D01*
X0045494Y0352000D01*
X0048972Y0352000D02*
X0048977Y0352442D01*
X0048994Y0352885D01*
X0049021Y0353326D01*
X0049059Y0353767D01*
X0049108Y0354207D01*
X0049167Y0354645D01*
X0049237Y0355082D01*
X0049318Y0355517D01*
X0049410Y0355950D01*
X0049512Y0356380D01*
X0049625Y0356808D01*
X0049748Y0357233D01*
X0049882Y0357655D01*
X0050026Y0358073D01*
X0050180Y0358488D01*
X0050344Y0358899D01*
X0050519Y0359306D01*
X0050703Y0359708D01*
X0050897Y0360106D01*
X0051101Y0360498D01*
X0051314Y0360886D01*
X0051537Y0361268D01*
X0051769Y0361645D01*
X0052010Y0362016D01*
X0052261Y0362381D01*
X0052520Y0362739D01*
X0052788Y0363091D01*
X0053064Y0363437D01*
X0053349Y0363775D01*
X0053642Y0364107D01*
X0053943Y0364431D01*
X0054252Y0364748D01*
X0054569Y0365057D01*
X0054893Y0365358D01*
X0055225Y0365651D01*
X0055563Y0365936D01*
X0055909Y0366212D01*
X0056261Y0366480D01*
X0056619Y0366739D01*
X0056984Y0366990D01*
X0057355Y0367231D01*
X0057732Y0367463D01*
X0058114Y0367686D01*
X0058502Y0367899D01*
X0058894Y0368103D01*
X0059292Y0368297D01*
X0059694Y0368481D01*
X0060101Y0368656D01*
X0060512Y0368820D01*
X0060927Y0368974D01*
X0061345Y0369118D01*
X0061767Y0369252D01*
X0062192Y0369375D01*
X0062620Y0369488D01*
X0063050Y0369590D01*
X0063483Y0369682D01*
X0063918Y0369763D01*
X0064355Y0369833D01*
X0064793Y0369892D01*
X0065233Y0369941D01*
X0065674Y0369979D01*
X0066115Y0370006D01*
X0066558Y0370023D01*
X0067000Y0370028D01*
X0067442Y0370023D01*
X0067885Y0370006D01*
X0068326Y0369979D01*
X0068767Y0369941D01*
X0069207Y0369892D01*
X0069645Y0369833D01*
X0070082Y0369763D01*
X0070517Y0369682D01*
X0070950Y0369590D01*
X0071380Y0369488D01*
X0071808Y0369375D01*
X0072233Y0369252D01*
X0072655Y0369118D01*
X0073073Y0368974D01*
X0073488Y0368820D01*
X0073899Y0368656D01*
X0074306Y0368481D01*
X0074708Y0368297D01*
X0075106Y0368103D01*
X0075498Y0367899D01*
X0075886Y0367686D01*
X0076268Y0367463D01*
X0076645Y0367231D01*
X0077016Y0366990D01*
X0077381Y0366739D01*
X0077739Y0366480D01*
X0078091Y0366212D01*
X0078437Y0365936D01*
X0078775Y0365651D01*
X0079107Y0365358D01*
X0079431Y0365057D01*
X0079748Y0364748D01*
X0080057Y0364431D01*
X0080358Y0364107D01*
X0080651Y0363775D01*
X0080936Y0363437D01*
X0081212Y0363091D01*
X0081480Y0362739D01*
X0081739Y0362381D01*
X0081990Y0362016D01*
X0082231Y0361645D01*
X0082463Y0361268D01*
X0082686Y0360886D01*
X0082899Y0360498D01*
X0083103Y0360106D01*
X0083297Y0359708D01*
X0083481Y0359306D01*
X0083656Y0358899D01*
X0083820Y0358488D01*
X0083974Y0358073D01*
X0084118Y0357655D01*
X0084252Y0357233D01*
X0084375Y0356808D01*
X0084488Y0356380D01*
X0084590Y0355950D01*
X0084682Y0355517D01*
X0084763Y0355082D01*
X0084833Y0354645D01*
X0084892Y0354207D01*
X0084941Y0353767D01*
X0084979Y0353326D01*
X0085006Y0352885D01*
X0085023Y0352442D01*
X0085028Y0352000D01*
X0085023Y0351558D01*
X0085006Y0351115D01*
X0084979Y0350674D01*
X0084941Y0350233D01*
X0084892Y0349793D01*
X0084833Y0349355D01*
X0084763Y0348918D01*
X0084682Y0348483D01*
X0084590Y0348050D01*
X0084488Y0347620D01*
X0084375Y0347192D01*
X0084252Y0346767D01*
X0084118Y0346345D01*
X0083974Y0345927D01*
X0083820Y0345512D01*
X0083656Y0345101D01*
X0083481Y0344694D01*
X0083297Y0344292D01*
X0083103Y0343894D01*
X0082899Y0343502D01*
X0082686Y0343114D01*
X0082463Y0342732D01*
X0082231Y0342355D01*
X0081990Y0341984D01*
X0081739Y0341619D01*
X0081480Y0341261D01*
X0081212Y0340909D01*
X0080936Y0340563D01*
X0080651Y0340225D01*
X0080358Y0339893D01*
X0080057Y0339569D01*
X0079748Y0339252D01*
X0079431Y0338943D01*
X0079107Y0338642D01*
X0078775Y0338349D01*
X0078437Y0338064D01*
X0078091Y0337788D01*
X0077739Y0337520D01*
X0077381Y0337261D01*
X0077016Y0337010D01*
X0076645Y0336769D01*
X0076268Y0336537D01*
X0075886Y0336314D01*
X0075498Y0336101D01*
X0075106Y0335897D01*
X0074708Y0335703D01*
X0074306Y0335519D01*
X0073899Y0335344D01*
X0073488Y0335180D01*
X0073073Y0335026D01*
X0072655Y0334882D01*
X0072233Y0334748D01*
X0071808Y0334625D01*
X0071380Y0334512D01*
X0070950Y0334410D01*
X0070517Y0334318D01*
X0070082Y0334237D01*
X0069645Y0334167D01*
X0069207Y0334108D01*
X0068767Y0334059D01*
X0068326Y0334021D01*
X0067885Y0333994D01*
X0067442Y0333977D01*
X0067000Y0333972D01*
X0066558Y0333977D01*
X0066115Y0333994D01*
X0065674Y0334021D01*
X0065233Y0334059D01*
X0064793Y0334108D01*
X0064355Y0334167D01*
X0063918Y0334237D01*
X0063483Y0334318D01*
X0063050Y0334410D01*
X0062620Y0334512D01*
X0062192Y0334625D01*
X0061767Y0334748D01*
X0061345Y0334882D01*
X0060927Y0335026D01*
X0060512Y0335180D01*
X0060101Y0335344D01*
X0059694Y0335519D01*
X0059292Y0335703D01*
X0058894Y0335897D01*
X0058502Y0336101D01*
X0058114Y0336314D01*
X0057732Y0336537D01*
X0057355Y0336769D01*
X0056984Y0337010D01*
X0056619Y0337261D01*
X0056261Y0337520D01*
X0055909Y0337788D01*
X0055563Y0338064D01*
X0055225Y0338349D01*
X0054893Y0338642D01*
X0054569Y0338943D01*
X0054252Y0339252D01*
X0053943Y0339569D01*
X0053642Y0339893D01*
X0053349Y0340225D01*
X0053064Y0340563D01*
X0052788Y0340909D01*
X0052520Y0341261D01*
X0052261Y0341619D01*
X0052010Y0341984D01*
X0051769Y0342355D01*
X0051537Y0342732D01*
X0051314Y0343114D01*
X0051101Y0343502D01*
X0050897Y0343894D01*
X0050703Y0344292D01*
X0050519Y0344694D01*
X0050344Y0345101D01*
X0050180Y0345512D01*
X0050026Y0345927D01*
X0049882Y0346345D01*
X0049748Y0346767D01*
X0049625Y0347192D01*
X0049512Y0347620D01*
X0049410Y0348050D01*
X0049318Y0348483D01*
X0049237Y0348918D01*
X0049167Y0349355D01*
X0049108Y0349793D01*
X0049059Y0350233D01*
X0049021Y0350674D01*
X0048994Y0351115D01*
X0048977Y0351558D01*
X0048972Y0352000D01*
X0046844Y0422000D02*
X0046850Y0422495D01*
X0046868Y0422989D01*
X0046899Y0423483D01*
X0046941Y0423976D01*
X0046996Y0424467D01*
X0047062Y0424957D01*
X0047141Y0425446D01*
X0047231Y0425932D01*
X0047334Y0426416D01*
X0047448Y0426898D01*
X0047574Y0427376D01*
X0047712Y0427851D01*
X0047861Y0428323D01*
X0048022Y0428790D01*
X0048195Y0429254D01*
X0048378Y0429713D01*
X0048573Y0430168D01*
X0048779Y0430618D01*
X0048996Y0431062D01*
X0049224Y0431501D01*
X0049463Y0431935D01*
X0049712Y0432362D01*
X0049971Y0432783D01*
X0050241Y0433198D01*
X0050521Y0433606D01*
X0050811Y0434007D01*
X0051110Y0434401D01*
X0051419Y0434787D01*
X0051738Y0435165D01*
X0052065Y0435536D01*
X0052402Y0435898D01*
X0052748Y0436252D01*
X0053102Y0436598D01*
X0053464Y0436935D01*
X0053835Y0437262D01*
X0054213Y0437581D01*
X0054599Y0437890D01*
X0054993Y0438189D01*
X0055394Y0438479D01*
X0055802Y0438759D01*
X0056217Y0439029D01*
X0056638Y0439288D01*
X0057065Y0439537D01*
X0057499Y0439776D01*
X0057938Y0440004D01*
X0058382Y0440221D01*
X0058832Y0440427D01*
X0059287Y0440622D01*
X0059746Y0440805D01*
X0060210Y0440978D01*
X0060677Y0441139D01*
X0061149Y0441288D01*
X0061624Y0441426D01*
X0062102Y0441552D01*
X0062584Y0441666D01*
X0063068Y0441769D01*
X0063554Y0441859D01*
X0064043Y0441938D01*
X0064533Y0442004D01*
X0065024Y0442059D01*
X0065517Y0442101D01*
X0066011Y0442132D01*
X0066505Y0442150D01*
X0067000Y0442156D01*
X0067495Y0442150D01*
X0067989Y0442132D01*
X0068483Y0442101D01*
X0068976Y0442059D01*
X0069467Y0442004D01*
X0069957Y0441938D01*
X0070446Y0441859D01*
X0070932Y0441769D01*
X0071416Y0441666D01*
X0071898Y0441552D01*
X0072376Y0441426D01*
X0072851Y0441288D01*
X0073323Y0441139D01*
X0073790Y0440978D01*
X0074254Y0440805D01*
X0074713Y0440622D01*
X0075168Y0440427D01*
X0075618Y0440221D01*
X0076062Y0440004D01*
X0076501Y0439776D01*
X0076935Y0439537D01*
X0077362Y0439288D01*
X0077783Y0439029D01*
X0078198Y0438759D01*
X0078606Y0438479D01*
X0079007Y0438189D01*
X0079401Y0437890D01*
X0079787Y0437581D01*
X0080165Y0437262D01*
X0080536Y0436935D01*
X0080898Y0436598D01*
X0081252Y0436252D01*
X0081598Y0435898D01*
X0081935Y0435536D01*
X0082262Y0435165D01*
X0082581Y0434787D01*
X0082890Y0434401D01*
X0083189Y0434007D01*
X0083479Y0433606D01*
X0083759Y0433198D01*
X0084029Y0432783D01*
X0084288Y0432362D01*
X0084537Y0431935D01*
X0084776Y0431501D01*
X0085004Y0431062D01*
X0085221Y0430618D01*
X0085427Y0430168D01*
X0085622Y0429713D01*
X0085805Y0429254D01*
X0085978Y0428790D01*
X0086139Y0428323D01*
X0086288Y0427851D01*
X0086426Y0427376D01*
X0086552Y0426898D01*
X0086666Y0426416D01*
X0086769Y0425932D01*
X0086859Y0425446D01*
X0086938Y0424957D01*
X0087004Y0424467D01*
X0087059Y0423976D01*
X0087101Y0423483D01*
X0087132Y0422989D01*
X0087150Y0422495D01*
X0087156Y0422000D01*
X0087150Y0421505D01*
X0087132Y0421011D01*
X0087101Y0420517D01*
X0087059Y0420024D01*
X0087004Y0419533D01*
X0086938Y0419043D01*
X0086859Y0418554D01*
X0086769Y0418068D01*
X0086666Y0417584D01*
X0086552Y0417102D01*
X0086426Y0416624D01*
X0086288Y0416149D01*
X0086139Y0415677D01*
X0085978Y0415210D01*
X0085805Y0414746D01*
X0085622Y0414287D01*
X0085427Y0413832D01*
X0085221Y0413382D01*
X0085004Y0412938D01*
X0084776Y0412499D01*
X0084537Y0412065D01*
X0084288Y0411638D01*
X0084029Y0411217D01*
X0083759Y0410802D01*
X0083479Y0410394D01*
X0083189Y0409993D01*
X0082890Y0409599D01*
X0082581Y0409213D01*
X0082262Y0408835D01*
X0081935Y0408464D01*
X0081598Y0408102D01*
X0081252Y0407748D01*
X0080898Y0407402D01*
X0080536Y0407065D01*
X0080165Y0406738D01*
X0079787Y0406419D01*
X0079401Y0406110D01*
X0079007Y0405811D01*
X0078606Y0405521D01*
X0078198Y0405241D01*
X0077783Y0404971D01*
X0077362Y0404712D01*
X0076935Y0404463D01*
X0076501Y0404224D01*
X0076062Y0403996D01*
X0075618Y0403779D01*
X0075168Y0403573D01*
X0074713Y0403378D01*
X0074254Y0403195D01*
X0073790Y0403022D01*
X0073323Y0402861D01*
X0072851Y0402712D01*
X0072376Y0402574D01*
X0071898Y0402448D01*
X0071416Y0402334D01*
X0070932Y0402231D01*
X0070446Y0402141D01*
X0069957Y0402062D01*
X0069467Y0401996D01*
X0068976Y0401941D01*
X0068483Y0401899D01*
X0067989Y0401868D01*
X0067495Y0401850D01*
X0067000Y0401844D01*
X0066505Y0401850D01*
X0066011Y0401868D01*
X0065517Y0401899D01*
X0065024Y0401941D01*
X0064533Y0401996D01*
X0064043Y0402062D01*
X0063554Y0402141D01*
X0063068Y0402231D01*
X0062584Y0402334D01*
X0062102Y0402448D01*
X0061624Y0402574D01*
X0061149Y0402712D01*
X0060677Y0402861D01*
X0060210Y0403022D01*
X0059746Y0403195D01*
X0059287Y0403378D01*
X0058832Y0403573D01*
X0058382Y0403779D01*
X0057938Y0403996D01*
X0057499Y0404224D01*
X0057065Y0404463D01*
X0056638Y0404712D01*
X0056217Y0404971D01*
X0055802Y0405241D01*
X0055394Y0405521D01*
X0054993Y0405811D01*
X0054599Y0406110D01*
X0054213Y0406419D01*
X0053835Y0406738D01*
X0053464Y0407065D01*
X0053102Y0407402D01*
X0052748Y0407748D01*
X0052402Y0408102D01*
X0052065Y0408464D01*
X0051738Y0408835D01*
X0051419Y0409213D01*
X0051110Y0409599D01*
X0050811Y0409993D01*
X0050521Y0410394D01*
X0050241Y0410802D01*
X0049971Y0411217D01*
X0049712Y0411638D01*
X0049463Y0412065D01*
X0049224Y0412499D01*
X0048996Y0412938D01*
X0048779Y0413382D01*
X0048573Y0413832D01*
X0048378Y0414287D01*
X0048195Y0414746D01*
X0048022Y0415210D01*
X0047861Y0415677D01*
X0047712Y0416149D01*
X0047574Y0416624D01*
X0047448Y0417102D01*
X0047334Y0417584D01*
X0047231Y0418068D01*
X0047141Y0418554D01*
X0047062Y0419043D01*
X0046996Y0419533D01*
X0046941Y0420024D01*
X0046899Y0420517D01*
X0046868Y0421011D01*
X0046850Y0421505D01*
X0046844Y0422000D01*
M02*
