G75*
%MOIN*%
%OFA0B0*%
%FSLAX25Y25*%
%IPPOS*%
%LPD*%
%AMOC8*
5,1,8,0,0,1.08239X$1,22.5*
%
%ADD10C,0.02000*%
%ADD11C,0.20000*%
%ADD12C,0.02500*%
%ADD13C,0.00800*%
%ADD14C,0.00700*%
D10*
X0012000Y0017000D02*
X0023571Y0017000D01*
X0029571Y0017000D02*
X0041143Y0017000D01*
X0047143Y0017000D02*
X0058714Y0017000D01*
X0064714Y0017000D02*
X0076286Y0017000D01*
X0082286Y0017000D02*
X0093857Y0017000D01*
X0099857Y0017000D02*
X0111429Y0017000D01*
X0117429Y0017000D02*
X0129000Y0017000D01*
X0135000Y0017000D02*
X0146571Y0017000D01*
X0152571Y0017000D02*
X0164143Y0017000D01*
X0170143Y0017000D02*
X0181714Y0017000D01*
X0187714Y0017000D02*
X0199286Y0017000D01*
X0205286Y0017000D02*
X0216857Y0017000D01*
X0222857Y0017000D02*
X0234429Y0017000D01*
X0240429Y0017000D02*
X0252000Y0017000D01*
X0104500Y0079500D02*
X0104500Y0084500D01*
X0104500Y0088500D02*
X0104500Y0093500D01*
X0104500Y0097500D02*
X0104500Y0102500D01*
X0104500Y0106500D02*
X0104500Y0111500D01*
X0104500Y0115500D02*
X0104500Y0120500D01*
X0104500Y0124500D02*
X0104500Y0129500D01*
X0104500Y0152000D02*
X0104500Y0157000D01*
X0104500Y0161000D02*
X0104500Y0166000D01*
X0104500Y0170000D02*
X0104500Y0175000D01*
X0104500Y0179000D02*
X0104500Y0184000D01*
X0104500Y0188000D02*
X0104500Y0193000D01*
X0104500Y0197000D02*
X0104500Y0202000D01*
X0104500Y0224500D02*
X0104500Y0229083D01*
X0104500Y0233083D02*
X0104500Y0237667D01*
X0104500Y0241667D02*
X0104500Y0246250D01*
X0104500Y0250250D02*
X0104500Y0254833D01*
X0104500Y0258833D02*
X0104500Y0263417D01*
X0104500Y0267417D02*
X0104500Y0272000D01*
X0104500Y0294500D02*
X0104500Y0299083D01*
X0104500Y0303083D02*
X0104500Y0307667D01*
X0104500Y0311667D02*
X0104500Y0316250D01*
X0104500Y0320250D02*
X0104500Y0324833D01*
X0104500Y0328833D02*
X0104500Y0333417D01*
X0104500Y0337417D02*
X0104500Y0342000D01*
X0104500Y0364500D02*
X0104500Y0368667D01*
X0104500Y0372667D02*
X0104500Y0376833D01*
X0104500Y0380833D02*
X0104500Y0385000D01*
X0104500Y0389000D02*
X0104500Y0393167D01*
X0104500Y0397167D02*
X0104500Y0401333D01*
X0104500Y0405333D02*
X0104500Y0409500D01*
X0138000Y0446000D02*
X0143338Y0446000D01*
X0140669Y0446000D02*
X0140669Y0454007D01*
X0138000Y0451338D01*
X0136192Y0474500D02*
X0147577Y0474500D01*
X0153577Y0474500D02*
X0164962Y0474500D01*
X0170962Y0474500D02*
X0182346Y0474500D01*
X0188346Y0474500D02*
X0199731Y0474500D01*
X0205731Y0474500D02*
X0217115Y0474500D01*
X0223115Y0474500D02*
X0234500Y0474500D01*
X0224003Y0454007D02*
X0221334Y0454007D01*
X0220000Y0452672D01*
X0224003Y0454007D02*
X0225338Y0452672D01*
X0225338Y0451338D01*
X0220000Y0446000D01*
X0225338Y0446000D01*
X0292000Y0447334D02*
X0293334Y0446000D01*
X0296003Y0446000D01*
X0297338Y0447334D01*
X0297338Y0448669D01*
X0296003Y0450003D01*
X0294669Y0450003D01*
X0296003Y0450003D02*
X0297338Y0451338D01*
X0297338Y0452672D01*
X0296003Y0454007D01*
X0293334Y0454007D01*
X0292000Y0452672D01*
X0368000Y0450003D02*
X0373338Y0450003D01*
X0372003Y0446000D02*
X0372003Y0454007D01*
X0368000Y0450003D01*
X0432000Y0474500D02*
X0444727Y0474500D01*
X0450727Y0474500D02*
X0463455Y0474500D01*
X0469455Y0474500D02*
X0482182Y0474500D01*
X0488182Y0474500D02*
X0500909Y0474500D01*
X0506909Y0474500D02*
X0519636Y0474500D01*
X0525636Y0474500D02*
X0538364Y0474500D01*
X0544364Y0474500D02*
X0557091Y0474500D01*
X0563091Y0474500D02*
X0575818Y0474500D01*
X0581818Y0474500D02*
X0594545Y0474500D01*
X0600545Y0474500D02*
X0613273Y0474500D01*
X0619273Y0474500D02*
X0632000Y0474500D01*
X0598254Y0459507D02*
X0592916Y0459507D01*
X0595585Y0459507D02*
X0595585Y0451500D01*
X0589046Y0452834D02*
X0589046Y0459507D01*
X0583708Y0459507D02*
X0583708Y0452834D01*
X0585042Y0451500D01*
X0587711Y0451500D01*
X0589046Y0452834D01*
X0579838Y0452834D02*
X0579838Y0458172D01*
X0578503Y0459507D01*
X0575834Y0459507D01*
X0574500Y0458172D01*
X0574500Y0452834D01*
X0575834Y0451500D01*
X0578503Y0451500D01*
X0579838Y0452834D01*
X0528338Y0453007D02*
X0525669Y0451672D01*
X0523000Y0449003D01*
X0527003Y0449003D01*
X0528338Y0447669D01*
X0528338Y0446334D01*
X0527003Y0445000D01*
X0524334Y0445000D01*
X0523000Y0446334D01*
X0523000Y0449003D01*
X0453338Y0450003D02*
X0453338Y0447334D01*
X0452003Y0446000D01*
X0449334Y0446000D01*
X0448000Y0447334D01*
X0448000Y0450003D02*
X0450669Y0451338D01*
X0452003Y0451338D01*
X0453338Y0450003D01*
X0453338Y0454007D02*
X0448000Y0454007D01*
X0448000Y0450003D01*
X0130192Y0474500D02*
X0118808Y0474500D01*
X0112808Y0474500D02*
X0101423Y0474500D01*
X0095423Y0474500D02*
X0084038Y0474500D01*
X0078038Y0474500D02*
X0066654Y0474500D01*
X0060654Y0474500D02*
X0049269Y0474500D01*
X0043269Y0474500D02*
X0031885Y0474500D01*
X0025885Y0474500D02*
X0014500Y0474500D01*
X0059000Y0459507D02*
X0061669Y0459507D01*
X0060334Y0459507D02*
X0060334Y0451500D01*
X0059000Y0451500D02*
X0061669Y0451500D01*
X0065139Y0451500D02*
X0065139Y0459507D01*
X0070476Y0451500D01*
X0070476Y0459507D01*
X0033338Y0421338D02*
X0030669Y0424007D01*
X0028000Y0421338D01*
X0028000Y0416000D01*
X0028000Y0420003D02*
X0033338Y0420003D01*
X0033338Y0421338D02*
X0033338Y0416000D01*
X0003000Y0422000D02*
X0003000Y0423000D01*
X0028000Y0353007D02*
X0032003Y0353007D01*
X0033338Y0351672D01*
X0033338Y0350338D01*
X0032003Y0349003D01*
X0028000Y0349003D01*
X0028000Y0345000D02*
X0032003Y0345000D01*
X0033338Y0346334D01*
X0033338Y0347669D01*
X0032003Y0349003D01*
X0028000Y0345000D02*
X0028000Y0353007D01*
X0030334Y0284007D02*
X0029000Y0282672D01*
X0029000Y0277334D01*
X0030334Y0276000D01*
X0033003Y0276000D01*
X0034338Y0277334D01*
X0034338Y0282672D02*
X0033003Y0284007D01*
X0030334Y0284007D01*
X0032003Y0213007D02*
X0028000Y0213007D01*
X0028000Y0205000D01*
X0032003Y0205000D01*
X0033338Y0206334D01*
X0033338Y0211672D01*
X0032003Y0213007D01*
X0033338Y0143007D02*
X0028000Y0143007D01*
X0028000Y0135000D01*
X0033338Y0135000D01*
X0030669Y0139003D02*
X0028000Y0139003D01*
X0002000Y0140000D02*
X0002000Y0142000D01*
X0028000Y0069007D02*
X0033338Y0069007D01*
X0030669Y0065003D02*
X0028000Y0065003D01*
X0028000Y0061000D02*
X0028000Y0069007D01*
X0422000Y0017000D02*
X0434000Y0017000D01*
X0440000Y0017000D02*
X0452000Y0017000D01*
X0458000Y0017000D02*
X0470000Y0017000D01*
X0476000Y0017000D02*
X0488000Y0017000D01*
X0494000Y0017000D02*
X0506000Y0017000D01*
X0512000Y0017000D02*
X0524000Y0017000D01*
X0530000Y0017000D02*
X0542000Y0017000D01*
X0548000Y0017000D02*
X0560000Y0017000D01*
X0566000Y0017000D02*
X0578000Y0017000D01*
X0584000Y0017000D02*
X0596000Y0017000D01*
X0602000Y0017000D02*
X0614000Y0017000D01*
X0620000Y0017000D02*
X0632000Y0017000D01*
D11*
X0586000Y0142000D02*
X0141000Y0142000D01*
X0067000Y0067000D02*
X0066000Y0067000D01*
X0067000Y0067000D02*
X0067000Y0422000D01*
X0142000Y0422000D02*
X0144000Y0422000D01*
X0223000Y0422000D01*
X0586000Y0422000D01*
X0578000Y0282000D02*
X0140000Y0282000D01*
D12*
X0143000Y0212000D02*
X0223000Y0212000D01*
X0528000Y0212000D01*
X0528000Y0065000D01*
X0526000Y0065000D01*
X0586000Y0067000D02*
X0586000Y0423000D01*
X0528000Y0423000D01*
X0528000Y0212000D01*
X0527000Y0352000D02*
X0527000Y0353000D01*
X0454000Y0353000D01*
X0454000Y0068000D01*
X0457000Y0068000D01*
X0373000Y0065000D02*
X0372000Y0065000D01*
X0372000Y0420000D01*
X0303000Y0424000D02*
X0298000Y0424000D01*
X0298000Y0353000D01*
X0144000Y0353000D01*
X0144000Y0067000D01*
X0298000Y0067000D01*
X0298000Y0353000D01*
X0297000Y0351000D02*
X0301000Y0351000D01*
X0301000Y0353000D01*
X0453000Y0353000D01*
X0453000Y0420000D01*
X0528000Y0423000D02*
X0142000Y0423000D01*
X0144000Y0422000D02*
X0144000Y0353000D01*
X0223000Y0422000D02*
X0223000Y0212000D01*
X0223000Y0210000D02*
X0226000Y0210000D01*
X0223000Y0210000D02*
X0223000Y0065000D01*
X0298000Y0067000D02*
X0586000Y0067000D01*
X0454000Y0353000D02*
X0454000Y0355000D01*
X0297000Y0351000D02*
X0297000Y0425000D01*
D13*
X0300370Y0019108D02*
X0297301Y0017573D01*
X0294231Y0014504D01*
X0298835Y0014504D01*
X0300370Y0012969D01*
X0300370Y0011435D01*
X0298835Y0009900D01*
X0295766Y0009900D01*
X0294231Y0011435D01*
X0294231Y0014504D01*
X0281954Y0016039D02*
X0275816Y0009900D01*
X0281954Y0009900D02*
X0275816Y0016039D01*
X0263539Y0019108D02*
X0260469Y0017573D01*
X0257400Y0014504D01*
X0262004Y0014504D01*
X0263539Y0012969D01*
X0263539Y0011435D01*
X0262004Y0009900D01*
X0258935Y0009900D01*
X0257400Y0011435D01*
X0257400Y0014504D01*
X0312647Y0009900D02*
X0312647Y0019108D01*
X0315716Y0016039D01*
X0318786Y0019108D01*
X0318786Y0009900D01*
X0321855Y0009900D02*
X0321855Y0016039D01*
X0324924Y0019108D01*
X0327994Y0016039D01*
X0327994Y0009900D01*
X0327994Y0014504D02*
X0321855Y0014504D01*
X0331063Y0019108D02*
X0337201Y0019108D01*
X0334132Y0019108D02*
X0334132Y0009900D01*
X0340271Y0009900D02*
X0340271Y0019108D01*
X0344875Y0019108D01*
X0346409Y0017573D01*
X0346409Y0014504D01*
X0344875Y0012969D01*
X0340271Y0012969D01*
X0343340Y0012969D02*
X0346409Y0009900D01*
X0349479Y0009900D02*
X0352548Y0009900D01*
X0351013Y0009900D02*
X0351013Y0019108D01*
X0349479Y0019108D02*
X0352548Y0019108D01*
X0355617Y0019108D02*
X0361756Y0009900D01*
X0355617Y0009900D02*
X0361756Y0019108D01*
X0374033Y0019108D02*
X0374033Y0009900D01*
X0380171Y0009900D02*
X0380171Y0019108D01*
X0377102Y0016039D01*
X0374033Y0019108D01*
X0383241Y0019108D02*
X0386310Y0019108D01*
X0384775Y0019108D02*
X0384775Y0009900D01*
X0383241Y0009900D02*
X0386310Y0009900D01*
X0389379Y0009900D02*
X0395518Y0019108D01*
X0398587Y0019108D02*
X0398587Y0009900D01*
X0404726Y0009900D01*
X0407795Y0009900D02*
X0407795Y0019108D01*
X0412399Y0019108D01*
X0413934Y0017573D01*
X0413934Y0014504D01*
X0412399Y0012969D01*
X0407795Y0012969D01*
X0410864Y0012969D02*
X0413934Y0009900D01*
X0404726Y0019108D02*
X0398587Y0019108D01*
X0398587Y0014504D02*
X0401656Y0014504D01*
X0395518Y0009900D02*
X0389379Y0019108D01*
D14*
X0395923Y0467350D02*
X0400077Y0467350D01*
X0401461Y0468735D01*
X0401461Y0474273D01*
X0400077Y0475657D01*
X0395923Y0475657D01*
X0395923Y0467350D01*
X0376600Y0467350D02*
X0373831Y0470119D01*
X0375216Y0470119D02*
X0371062Y0470119D01*
X0371062Y0467350D02*
X0371062Y0475657D01*
X0375216Y0475657D01*
X0376600Y0474273D01*
X0376600Y0471504D01*
X0375216Y0470119D01*
X0360026Y0475657D02*
X0354488Y0467350D01*
X0346201Y0467350D02*
X0351739Y0475657D01*
X0335161Y0472888D02*
X0333777Y0472888D01*
X0331008Y0470119D01*
X0331008Y0467350D02*
X0331008Y0472888D01*
X0319972Y0471504D02*
X0318587Y0472888D01*
X0315818Y0472888D01*
X0314434Y0471504D01*
X0314434Y0468735D01*
X0315818Y0467350D01*
X0318587Y0467350D01*
X0319972Y0468735D01*
X0319972Y0471504D01*
X0303398Y0472888D02*
X0299244Y0472888D01*
X0297860Y0471504D01*
X0297860Y0468735D01*
X0299244Y0467350D01*
X0303398Y0467350D01*
X0303398Y0475657D01*
X0286823Y0471504D02*
X0286823Y0467350D01*
X0286823Y0471504D02*
X0285439Y0472888D01*
X0281285Y0472888D01*
X0281285Y0467350D01*
X0270249Y0468735D02*
X0270249Y0471504D01*
X0268865Y0472888D01*
X0266096Y0472888D01*
X0264711Y0471504D01*
X0264711Y0468735D01*
X0266096Y0467350D01*
X0268865Y0467350D01*
X0270249Y0468735D01*
X0245388Y0467350D02*
X0241235Y0467350D01*
X0239850Y0468735D01*
X0239850Y0471504D01*
X0241235Y0472888D01*
X0245388Y0472888D01*
X0420785Y0470119D02*
X0426323Y0475657D01*
X0420785Y0475657D02*
X0420785Y0467350D01*
X0422169Y0471504D02*
X0426323Y0467350D01*
M02*
