G75*
%MOIN*%
%OFA0B0*%
%FSLAX25Y25*%
%IPPOS*%
%LPD*%
%AMOC8*
5,1,8,0,0,1.08239X$1,22.5*
%
%ADD10C,0.12611*%
%ADD11C,0.20485*%
%ADD12C,0.25209*%
D10*
X0013000Y0017000D03*
X0013000Y0474000D03*
X0631000Y0474000D03*
X0631000Y0017000D03*
D11*
X0585047Y0067134D03*
X0584654Y0141937D03*
X0585047Y0211622D03*
X0585047Y0211622D03*
X0584654Y0282094D03*
X0585047Y0352173D03*
X0585047Y0421858D03*
X0066937Y0422252D03*
X0066937Y0352173D03*
X0066937Y0282094D03*
X0066937Y0212016D03*
X0066937Y0141937D03*
X0066937Y0067134D03*
D12*
X0142134Y0066740D03*
X0222055Y0066740D03*
X0297252Y0066740D03*
X0372055Y0066740D03*
X0451976Y0066740D03*
X0527173Y0066740D03*
X0527173Y0141543D03*
X0451976Y0141543D03*
X0372055Y0141543D03*
X0297252Y0141543D03*
X0222055Y0141543D03*
X0142134Y0141543D03*
X0142134Y0212016D03*
X0222055Y0212016D03*
X0297252Y0212016D03*
X0372055Y0212016D03*
X0451976Y0212016D03*
X0526780Y0212016D03*
X0526780Y0282488D03*
X0451583Y0282488D03*
X0371661Y0282488D03*
X0296858Y0282488D03*
X0221661Y0282488D03*
X0141740Y0282488D03*
X0142134Y0352173D03*
X0222055Y0352173D03*
X0297252Y0352173D03*
X0372055Y0352173D03*
X0451976Y0352173D03*
X0527173Y0352173D03*
X0527173Y0422252D03*
X0451976Y0422252D03*
X0372055Y0422252D03*
X0297252Y0422252D03*
X0222055Y0422252D03*
X0142134Y0422252D03*
M02*
