%
M48
M72
T01C0.11811
T02C0.19685
T03C0.24409
%
T01
X13000Y17000
X13000Y474000
X631000Y474000
X631000Y17000
T02
X585047Y67134
X584654Y141937
X585047Y211622
X585047Y211622
X584654Y282094
X585047Y352173
X585047Y421858
X66937Y422252
X66937Y352173
X66937Y282094
X66937Y212016
X66937Y141937
X66937Y67134
T03
X142134Y66740
X222055Y66740
X297252Y66740
X372055Y66740
X451976Y66740
X527173Y66740
X527173Y141543
X451976Y141543
X372055Y141543
X297252Y141543
X222055Y141543
X142134Y141543
X142134Y212016
X222055Y212016
X297252Y212016
X372055Y212016
X451976Y212016
X526780Y212016
X526780Y282488
X451583Y282488
X371661Y282488
X296858Y282488
X221661Y282488
X141740Y282488
X142134Y352173
X222055Y352173
X297252Y352173
X372055Y352173
X451976Y352173
X527173Y352173
X527173Y422252
X451976Y422252
X372055Y422252
X297252Y422252
X222055Y422252
X142134Y422252
M30
