G75*
%MOIN*%
%OFA0B0*%
%FSLAX25Y25*%
%IPPOS*%
%LPD*%
%AMOC8*
5,1,8,0,0,1.08239X$1,22.5*
%
%ADD10C,0.00000*%
%ADD11OC8,0.07800*%
%ADD12C,0.09461*%
%ADD13C,0.00200*%
%ADD14R,0.04737X0.05131*%
%ADD15R,0.05131X0.04737*%
%ADD16R,0.09461X0.03162*%
%ADD17OC8,0.06000*%
%ADD18R,0.06312X0.04737*%
%ADD19R,0.08200X0.08200*%
%ADD20OC8,0.10800*%
%ADD21R,0.09461X0.06312*%
%ADD22OC8,0.08200*%
%ADD23C,0.03975*%
%ADD24C,0.03778*%
D10*
X0001600Y0011082D02*
X0002850Y0479793D01*
X0595301Y0479793D01*
X0595301Y0011082D01*
X0001600Y0011082D01*
X0037269Y0066082D02*
X0037271Y0066213D01*
X0037277Y0066345D01*
X0037287Y0066476D01*
X0037301Y0066607D01*
X0037319Y0066737D01*
X0037341Y0066866D01*
X0037366Y0066995D01*
X0037396Y0067123D01*
X0037430Y0067250D01*
X0037467Y0067377D01*
X0037508Y0067501D01*
X0037553Y0067625D01*
X0037602Y0067747D01*
X0037654Y0067868D01*
X0037710Y0067986D01*
X0037770Y0068104D01*
X0037833Y0068219D01*
X0037900Y0068332D01*
X0037970Y0068444D01*
X0038043Y0068553D01*
X0038119Y0068659D01*
X0038199Y0068764D01*
X0038282Y0068866D01*
X0038368Y0068965D01*
X0038457Y0069062D01*
X0038549Y0069156D01*
X0038644Y0069247D01*
X0038741Y0069336D01*
X0038841Y0069421D01*
X0038944Y0069503D01*
X0039049Y0069582D01*
X0039156Y0069658D01*
X0039266Y0069730D01*
X0039378Y0069799D01*
X0039492Y0069865D01*
X0039607Y0069927D01*
X0039725Y0069986D01*
X0039844Y0070041D01*
X0039965Y0070093D01*
X0040088Y0070140D01*
X0040212Y0070184D01*
X0040337Y0070225D01*
X0040463Y0070261D01*
X0040591Y0070294D01*
X0040719Y0070322D01*
X0040848Y0070347D01*
X0040978Y0070368D01*
X0041108Y0070385D01*
X0041239Y0070398D01*
X0041370Y0070407D01*
X0041501Y0070412D01*
X0041633Y0070413D01*
X0041764Y0070410D01*
X0041896Y0070403D01*
X0042027Y0070392D01*
X0042157Y0070377D01*
X0042287Y0070358D01*
X0042417Y0070335D01*
X0042545Y0070309D01*
X0042673Y0070278D01*
X0042800Y0070243D01*
X0042926Y0070205D01*
X0043050Y0070163D01*
X0043174Y0070117D01*
X0043295Y0070067D01*
X0043415Y0070014D01*
X0043534Y0069957D01*
X0043651Y0069897D01*
X0043765Y0069833D01*
X0043878Y0069765D01*
X0043989Y0069694D01*
X0044098Y0069620D01*
X0044204Y0069543D01*
X0044308Y0069462D01*
X0044409Y0069379D01*
X0044508Y0069292D01*
X0044604Y0069202D01*
X0044697Y0069109D01*
X0044788Y0069014D01*
X0044875Y0068916D01*
X0044960Y0068815D01*
X0045041Y0068712D01*
X0045119Y0068606D01*
X0045194Y0068498D01*
X0045266Y0068388D01*
X0045334Y0068276D01*
X0045399Y0068162D01*
X0045460Y0068045D01*
X0045518Y0067927D01*
X0045572Y0067807D01*
X0045623Y0067686D01*
X0045670Y0067563D01*
X0045713Y0067439D01*
X0045752Y0067314D01*
X0045788Y0067187D01*
X0045819Y0067059D01*
X0045847Y0066931D01*
X0045871Y0066802D01*
X0045891Y0066672D01*
X0045907Y0066541D01*
X0045919Y0066410D01*
X0045927Y0066279D01*
X0045931Y0066148D01*
X0045931Y0066016D01*
X0045927Y0065885D01*
X0045919Y0065754D01*
X0045907Y0065623D01*
X0045891Y0065492D01*
X0045871Y0065362D01*
X0045847Y0065233D01*
X0045819Y0065105D01*
X0045788Y0064977D01*
X0045752Y0064850D01*
X0045713Y0064725D01*
X0045670Y0064601D01*
X0045623Y0064478D01*
X0045572Y0064357D01*
X0045518Y0064237D01*
X0045460Y0064119D01*
X0045399Y0064002D01*
X0045334Y0063888D01*
X0045266Y0063776D01*
X0045194Y0063666D01*
X0045119Y0063558D01*
X0045041Y0063452D01*
X0044960Y0063349D01*
X0044875Y0063248D01*
X0044788Y0063150D01*
X0044697Y0063055D01*
X0044604Y0062962D01*
X0044508Y0062872D01*
X0044409Y0062785D01*
X0044308Y0062702D01*
X0044204Y0062621D01*
X0044098Y0062544D01*
X0043989Y0062470D01*
X0043878Y0062399D01*
X0043766Y0062331D01*
X0043651Y0062267D01*
X0043534Y0062207D01*
X0043415Y0062150D01*
X0043295Y0062097D01*
X0043174Y0062047D01*
X0043050Y0062001D01*
X0042926Y0061959D01*
X0042800Y0061921D01*
X0042673Y0061886D01*
X0042545Y0061855D01*
X0042417Y0061829D01*
X0042287Y0061806D01*
X0042157Y0061787D01*
X0042027Y0061772D01*
X0041896Y0061761D01*
X0041764Y0061754D01*
X0041633Y0061751D01*
X0041501Y0061752D01*
X0041370Y0061757D01*
X0041239Y0061766D01*
X0041108Y0061779D01*
X0040978Y0061796D01*
X0040848Y0061817D01*
X0040719Y0061842D01*
X0040591Y0061870D01*
X0040463Y0061903D01*
X0040337Y0061939D01*
X0040212Y0061980D01*
X0040088Y0062024D01*
X0039965Y0062071D01*
X0039844Y0062123D01*
X0039725Y0062178D01*
X0039607Y0062237D01*
X0039492Y0062299D01*
X0039378Y0062365D01*
X0039266Y0062434D01*
X0039156Y0062506D01*
X0039049Y0062582D01*
X0038944Y0062661D01*
X0038841Y0062743D01*
X0038741Y0062828D01*
X0038644Y0062917D01*
X0038549Y0063008D01*
X0038457Y0063102D01*
X0038368Y0063199D01*
X0038282Y0063298D01*
X0038199Y0063400D01*
X0038119Y0063505D01*
X0038043Y0063611D01*
X0037970Y0063720D01*
X0037900Y0063832D01*
X0037833Y0063945D01*
X0037770Y0064060D01*
X0037710Y0064178D01*
X0037654Y0064296D01*
X0037602Y0064417D01*
X0037553Y0064539D01*
X0037508Y0064663D01*
X0037467Y0064787D01*
X0037430Y0064914D01*
X0037396Y0065041D01*
X0037366Y0065169D01*
X0037341Y0065298D01*
X0037319Y0065427D01*
X0037301Y0065557D01*
X0037287Y0065688D01*
X0037277Y0065819D01*
X0037271Y0065951D01*
X0037269Y0066082D01*
X0037269Y0146082D02*
X0037271Y0146213D01*
X0037277Y0146345D01*
X0037287Y0146476D01*
X0037301Y0146607D01*
X0037319Y0146737D01*
X0037341Y0146866D01*
X0037366Y0146995D01*
X0037396Y0147123D01*
X0037430Y0147250D01*
X0037467Y0147377D01*
X0037508Y0147501D01*
X0037553Y0147625D01*
X0037602Y0147747D01*
X0037654Y0147868D01*
X0037710Y0147986D01*
X0037770Y0148104D01*
X0037833Y0148219D01*
X0037900Y0148332D01*
X0037970Y0148444D01*
X0038043Y0148553D01*
X0038119Y0148659D01*
X0038199Y0148764D01*
X0038282Y0148866D01*
X0038368Y0148965D01*
X0038457Y0149062D01*
X0038549Y0149156D01*
X0038644Y0149247D01*
X0038741Y0149336D01*
X0038841Y0149421D01*
X0038944Y0149503D01*
X0039049Y0149582D01*
X0039156Y0149658D01*
X0039266Y0149730D01*
X0039378Y0149799D01*
X0039492Y0149865D01*
X0039607Y0149927D01*
X0039725Y0149986D01*
X0039844Y0150041D01*
X0039965Y0150093D01*
X0040088Y0150140D01*
X0040212Y0150184D01*
X0040337Y0150225D01*
X0040463Y0150261D01*
X0040591Y0150294D01*
X0040719Y0150322D01*
X0040848Y0150347D01*
X0040978Y0150368D01*
X0041108Y0150385D01*
X0041239Y0150398D01*
X0041370Y0150407D01*
X0041501Y0150412D01*
X0041633Y0150413D01*
X0041764Y0150410D01*
X0041896Y0150403D01*
X0042027Y0150392D01*
X0042157Y0150377D01*
X0042287Y0150358D01*
X0042417Y0150335D01*
X0042545Y0150309D01*
X0042673Y0150278D01*
X0042800Y0150243D01*
X0042926Y0150205D01*
X0043050Y0150163D01*
X0043174Y0150117D01*
X0043295Y0150067D01*
X0043415Y0150014D01*
X0043534Y0149957D01*
X0043651Y0149897D01*
X0043765Y0149833D01*
X0043878Y0149765D01*
X0043989Y0149694D01*
X0044098Y0149620D01*
X0044204Y0149543D01*
X0044308Y0149462D01*
X0044409Y0149379D01*
X0044508Y0149292D01*
X0044604Y0149202D01*
X0044697Y0149109D01*
X0044788Y0149014D01*
X0044875Y0148916D01*
X0044960Y0148815D01*
X0045041Y0148712D01*
X0045119Y0148606D01*
X0045194Y0148498D01*
X0045266Y0148388D01*
X0045334Y0148276D01*
X0045399Y0148162D01*
X0045460Y0148045D01*
X0045518Y0147927D01*
X0045572Y0147807D01*
X0045623Y0147686D01*
X0045670Y0147563D01*
X0045713Y0147439D01*
X0045752Y0147314D01*
X0045788Y0147187D01*
X0045819Y0147059D01*
X0045847Y0146931D01*
X0045871Y0146802D01*
X0045891Y0146672D01*
X0045907Y0146541D01*
X0045919Y0146410D01*
X0045927Y0146279D01*
X0045931Y0146148D01*
X0045931Y0146016D01*
X0045927Y0145885D01*
X0045919Y0145754D01*
X0045907Y0145623D01*
X0045891Y0145492D01*
X0045871Y0145362D01*
X0045847Y0145233D01*
X0045819Y0145105D01*
X0045788Y0144977D01*
X0045752Y0144850D01*
X0045713Y0144725D01*
X0045670Y0144601D01*
X0045623Y0144478D01*
X0045572Y0144357D01*
X0045518Y0144237D01*
X0045460Y0144119D01*
X0045399Y0144002D01*
X0045334Y0143888D01*
X0045266Y0143776D01*
X0045194Y0143666D01*
X0045119Y0143558D01*
X0045041Y0143452D01*
X0044960Y0143349D01*
X0044875Y0143248D01*
X0044788Y0143150D01*
X0044697Y0143055D01*
X0044604Y0142962D01*
X0044508Y0142872D01*
X0044409Y0142785D01*
X0044308Y0142702D01*
X0044204Y0142621D01*
X0044098Y0142544D01*
X0043989Y0142470D01*
X0043878Y0142399D01*
X0043766Y0142331D01*
X0043651Y0142267D01*
X0043534Y0142207D01*
X0043415Y0142150D01*
X0043295Y0142097D01*
X0043174Y0142047D01*
X0043050Y0142001D01*
X0042926Y0141959D01*
X0042800Y0141921D01*
X0042673Y0141886D01*
X0042545Y0141855D01*
X0042417Y0141829D01*
X0042287Y0141806D01*
X0042157Y0141787D01*
X0042027Y0141772D01*
X0041896Y0141761D01*
X0041764Y0141754D01*
X0041633Y0141751D01*
X0041501Y0141752D01*
X0041370Y0141757D01*
X0041239Y0141766D01*
X0041108Y0141779D01*
X0040978Y0141796D01*
X0040848Y0141817D01*
X0040719Y0141842D01*
X0040591Y0141870D01*
X0040463Y0141903D01*
X0040337Y0141939D01*
X0040212Y0141980D01*
X0040088Y0142024D01*
X0039965Y0142071D01*
X0039844Y0142123D01*
X0039725Y0142178D01*
X0039607Y0142237D01*
X0039492Y0142299D01*
X0039378Y0142365D01*
X0039266Y0142434D01*
X0039156Y0142506D01*
X0039049Y0142582D01*
X0038944Y0142661D01*
X0038841Y0142743D01*
X0038741Y0142828D01*
X0038644Y0142917D01*
X0038549Y0143008D01*
X0038457Y0143102D01*
X0038368Y0143199D01*
X0038282Y0143298D01*
X0038199Y0143400D01*
X0038119Y0143505D01*
X0038043Y0143611D01*
X0037970Y0143720D01*
X0037900Y0143832D01*
X0037833Y0143945D01*
X0037770Y0144060D01*
X0037710Y0144178D01*
X0037654Y0144296D01*
X0037602Y0144417D01*
X0037553Y0144539D01*
X0037508Y0144663D01*
X0037467Y0144787D01*
X0037430Y0144914D01*
X0037396Y0145041D01*
X0037366Y0145169D01*
X0037341Y0145298D01*
X0037319Y0145427D01*
X0037301Y0145557D01*
X0037287Y0145688D01*
X0037277Y0145819D01*
X0037271Y0145951D01*
X0037269Y0146082D01*
X0037269Y0221082D02*
X0037271Y0221213D01*
X0037277Y0221345D01*
X0037287Y0221476D01*
X0037301Y0221607D01*
X0037319Y0221737D01*
X0037341Y0221866D01*
X0037366Y0221995D01*
X0037396Y0222123D01*
X0037430Y0222250D01*
X0037467Y0222377D01*
X0037508Y0222501D01*
X0037553Y0222625D01*
X0037602Y0222747D01*
X0037654Y0222868D01*
X0037710Y0222986D01*
X0037770Y0223104D01*
X0037833Y0223219D01*
X0037900Y0223332D01*
X0037970Y0223444D01*
X0038043Y0223553D01*
X0038119Y0223659D01*
X0038199Y0223764D01*
X0038282Y0223866D01*
X0038368Y0223965D01*
X0038457Y0224062D01*
X0038549Y0224156D01*
X0038644Y0224247D01*
X0038741Y0224336D01*
X0038841Y0224421D01*
X0038944Y0224503D01*
X0039049Y0224582D01*
X0039156Y0224658D01*
X0039266Y0224730D01*
X0039378Y0224799D01*
X0039492Y0224865D01*
X0039607Y0224927D01*
X0039725Y0224986D01*
X0039844Y0225041D01*
X0039965Y0225093D01*
X0040088Y0225140D01*
X0040212Y0225184D01*
X0040337Y0225225D01*
X0040463Y0225261D01*
X0040591Y0225294D01*
X0040719Y0225322D01*
X0040848Y0225347D01*
X0040978Y0225368D01*
X0041108Y0225385D01*
X0041239Y0225398D01*
X0041370Y0225407D01*
X0041501Y0225412D01*
X0041633Y0225413D01*
X0041764Y0225410D01*
X0041896Y0225403D01*
X0042027Y0225392D01*
X0042157Y0225377D01*
X0042287Y0225358D01*
X0042417Y0225335D01*
X0042545Y0225309D01*
X0042673Y0225278D01*
X0042800Y0225243D01*
X0042926Y0225205D01*
X0043050Y0225163D01*
X0043174Y0225117D01*
X0043295Y0225067D01*
X0043415Y0225014D01*
X0043534Y0224957D01*
X0043651Y0224897D01*
X0043765Y0224833D01*
X0043878Y0224765D01*
X0043989Y0224694D01*
X0044098Y0224620D01*
X0044204Y0224543D01*
X0044308Y0224462D01*
X0044409Y0224379D01*
X0044508Y0224292D01*
X0044604Y0224202D01*
X0044697Y0224109D01*
X0044788Y0224014D01*
X0044875Y0223916D01*
X0044960Y0223815D01*
X0045041Y0223712D01*
X0045119Y0223606D01*
X0045194Y0223498D01*
X0045266Y0223388D01*
X0045334Y0223276D01*
X0045399Y0223162D01*
X0045460Y0223045D01*
X0045518Y0222927D01*
X0045572Y0222807D01*
X0045623Y0222686D01*
X0045670Y0222563D01*
X0045713Y0222439D01*
X0045752Y0222314D01*
X0045788Y0222187D01*
X0045819Y0222059D01*
X0045847Y0221931D01*
X0045871Y0221802D01*
X0045891Y0221672D01*
X0045907Y0221541D01*
X0045919Y0221410D01*
X0045927Y0221279D01*
X0045931Y0221148D01*
X0045931Y0221016D01*
X0045927Y0220885D01*
X0045919Y0220754D01*
X0045907Y0220623D01*
X0045891Y0220492D01*
X0045871Y0220362D01*
X0045847Y0220233D01*
X0045819Y0220105D01*
X0045788Y0219977D01*
X0045752Y0219850D01*
X0045713Y0219725D01*
X0045670Y0219601D01*
X0045623Y0219478D01*
X0045572Y0219357D01*
X0045518Y0219237D01*
X0045460Y0219119D01*
X0045399Y0219002D01*
X0045334Y0218888D01*
X0045266Y0218776D01*
X0045194Y0218666D01*
X0045119Y0218558D01*
X0045041Y0218452D01*
X0044960Y0218349D01*
X0044875Y0218248D01*
X0044788Y0218150D01*
X0044697Y0218055D01*
X0044604Y0217962D01*
X0044508Y0217872D01*
X0044409Y0217785D01*
X0044308Y0217702D01*
X0044204Y0217621D01*
X0044098Y0217544D01*
X0043989Y0217470D01*
X0043878Y0217399D01*
X0043766Y0217331D01*
X0043651Y0217267D01*
X0043534Y0217207D01*
X0043415Y0217150D01*
X0043295Y0217097D01*
X0043174Y0217047D01*
X0043050Y0217001D01*
X0042926Y0216959D01*
X0042800Y0216921D01*
X0042673Y0216886D01*
X0042545Y0216855D01*
X0042417Y0216829D01*
X0042287Y0216806D01*
X0042157Y0216787D01*
X0042027Y0216772D01*
X0041896Y0216761D01*
X0041764Y0216754D01*
X0041633Y0216751D01*
X0041501Y0216752D01*
X0041370Y0216757D01*
X0041239Y0216766D01*
X0041108Y0216779D01*
X0040978Y0216796D01*
X0040848Y0216817D01*
X0040719Y0216842D01*
X0040591Y0216870D01*
X0040463Y0216903D01*
X0040337Y0216939D01*
X0040212Y0216980D01*
X0040088Y0217024D01*
X0039965Y0217071D01*
X0039844Y0217123D01*
X0039725Y0217178D01*
X0039607Y0217237D01*
X0039492Y0217299D01*
X0039378Y0217365D01*
X0039266Y0217434D01*
X0039156Y0217506D01*
X0039049Y0217582D01*
X0038944Y0217661D01*
X0038841Y0217743D01*
X0038741Y0217828D01*
X0038644Y0217917D01*
X0038549Y0218008D01*
X0038457Y0218102D01*
X0038368Y0218199D01*
X0038282Y0218298D01*
X0038199Y0218400D01*
X0038119Y0218505D01*
X0038043Y0218611D01*
X0037970Y0218720D01*
X0037900Y0218832D01*
X0037833Y0218945D01*
X0037770Y0219060D01*
X0037710Y0219178D01*
X0037654Y0219296D01*
X0037602Y0219417D01*
X0037553Y0219539D01*
X0037508Y0219663D01*
X0037467Y0219787D01*
X0037430Y0219914D01*
X0037396Y0220041D01*
X0037366Y0220169D01*
X0037341Y0220298D01*
X0037319Y0220427D01*
X0037301Y0220557D01*
X0037287Y0220688D01*
X0037277Y0220819D01*
X0037271Y0220951D01*
X0037269Y0221082D01*
X0037269Y0296082D02*
X0037271Y0296213D01*
X0037277Y0296345D01*
X0037287Y0296476D01*
X0037301Y0296607D01*
X0037319Y0296737D01*
X0037341Y0296866D01*
X0037366Y0296995D01*
X0037396Y0297123D01*
X0037430Y0297250D01*
X0037467Y0297377D01*
X0037508Y0297501D01*
X0037553Y0297625D01*
X0037602Y0297747D01*
X0037654Y0297868D01*
X0037710Y0297986D01*
X0037770Y0298104D01*
X0037833Y0298219D01*
X0037900Y0298332D01*
X0037970Y0298444D01*
X0038043Y0298553D01*
X0038119Y0298659D01*
X0038199Y0298764D01*
X0038282Y0298866D01*
X0038368Y0298965D01*
X0038457Y0299062D01*
X0038549Y0299156D01*
X0038644Y0299247D01*
X0038741Y0299336D01*
X0038841Y0299421D01*
X0038944Y0299503D01*
X0039049Y0299582D01*
X0039156Y0299658D01*
X0039266Y0299730D01*
X0039378Y0299799D01*
X0039492Y0299865D01*
X0039607Y0299927D01*
X0039725Y0299986D01*
X0039844Y0300041D01*
X0039965Y0300093D01*
X0040088Y0300140D01*
X0040212Y0300184D01*
X0040337Y0300225D01*
X0040463Y0300261D01*
X0040591Y0300294D01*
X0040719Y0300322D01*
X0040848Y0300347D01*
X0040978Y0300368D01*
X0041108Y0300385D01*
X0041239Y0300398D01*
X0041370Y0300407D01*
X0041501Y0300412D01*
X0041633Y0300413D01*
X0041764Y0300410D01*
X0041896Y0300403D01*
X0042027Y0300392D01*
X0042157Y0300377D01*
X0042287Y0300358D01*
X0042417Y0300335D01*
X0042545Y0300309D01*
X0042673Y0300278D01*
X0042800Y0300243D01*
X0042926Y0300205D01*
X0043050Y0300163D01*
X0043174Y0300117D01*
X0043295Y0300067D01*
X0043415Y0300014D01*
X0043534Y0299957D01*
X0043651Y0299897D01*
X0043765Y0299833D01*
X0043878Y0299765D01*
X0043989Y0299694D01*
X0044098Y0299620D01*
X0044204Y0299543D01*
X0044308Y0299462D01*
X0044409Y0299379D01*
X0044508Y0299292D01*
X0044604Y0299202D01*
X0044697Y0299109D01*
X0044788Y0299014D01*
X0044875Y0298916D01*
X0044960Y0298815D01*
X0045041Y0298712D01*
X0045119Y0298606D01*
X0045194Y0298498D01*
X0045266Y0298388D01*
X0045334Y0298276D01*
X0045399Y0298162D01*
X0045460Y0298045D01*
X0045518Y0297927D01*
X0045572Y0297807D01*
X0045623Y0297686D01*
X0045670Y0297563D01*
X0045713Y0297439D01*
X0045752Y0297314D01*
X0045788Y0297187D01*
X0045819Y0297059D01*
X0045847Y0296931D01*
X0045871Y0296802D01*
X0045891Y0296672D01*
X0045907Y0296541D01*
X0045919Y0296410D01*
X0045927Y0296279D01*
X0045931Y0296148D01*
X0045931Y0296016D01*
X0045927Y0295885D01*
X0045919Y0295754D01*
X0045907Y0295623D01*
X0045891Y0295492D01*
X0045871Y0295362D01*
X0045847Y0295233D01*
X0045819Y0295105D01*
X0045788Y0294977D01*
X0045752Y0294850D01*
X0045713Y0294725D01*
X0045670Y0294601D01*
X0045623Y0294478D01*
X0045572Y0294357D01*
X0045518Y0294237D01*
X0045460Y0294119D01*
X0045399Y0294002D01*
X0045334Y0293888D01*
X0045266Y0293776D01*
X0045194Y0293666D01*
X0045119Y0293558D01*
X0045041Y0293452D01*
X0044960Y0293349D01*
X0044875Y0293248D01*
X0044788Y0293150D01*
X0044697Y0293055D01*
X0044604Y0292962D01*
X0044508Y0292872D01*
X0044409Y0292785D01*
X0044308Y0292702D01*
X0044204Y0292621D01*
X0044098Y0292544D01*
X0043989Y0292470D01*
X0043878Y0292399D01*
X0043766Y0292331D01*
X0043651Y0292267D01*
X0043534Y0292207D01*
X0043415Y0292150D01*
X0043295Y0292097D01*
X0043174Y0292047D01*
X0043050Y0292001D01*
X0042926Y0291959D01*
X0042800Y0291921D01*
X0042673Y0291886D01*
X0042545Y0291855D01*
X0042417Y0291829D01*
X0042287Y0291806D01*
X0042157Y0291787D01*
X0042027Y0291772D01*
X0041896Y0291761D01*
X0041764Y0291754D01*
X0041633Y0291751D01*
X0041501Y0291752D01*
X0041370Y0291757D01*
X0041239Y0291766D01*
X0041108Y0291779D01*
X0040978Y0291796D01*
X0040848Y0291817D01*
X0040719Y0291842D01*
X0040591Y0291870D01*
X0040463Y0291903D01*
X0040337Y0291939D01*
X0040212Y0291980D01*
X0040088Y0292024D01*
X0039965Y0292071D01*
X0039844Y0292123D01*
X0039725Y0292178D01*
X0039607Y0292237D01*
X0039492Y0292299D01*
X0039378Y0292365D01*
X0039266Y0292434D01*
X0039156Y0292506D01*
X0039049Y0292582D01*
X0038944Y0292661D01*
X0038841Y0292743D01*
X0038741Y0292828D01*
X0038644Y0292917D01*
X0038549Y0293008D01*
X0038457Y0293102D01*
X0038368Y0293199D01*
X0038282Y0293298D01*
X0038199Y0293400D01*
X0038119Y0293505D01*
X0038043Y0293611D01*
X0037970Y0293720D01*
X0037900Y0293832D01*
X0037833Y0293945D01*
X0037770Y0294060D01*
X0037710Y0294178D01*
X0037654Y0294296D01*
X0037602Y0294417D01*
X0037553Y0294539D01*
X0037508Y0294663D01*
X0037467Y0294787D01*
X0037430Y0294914D01*
X0037396Y0295041D01*
X0037366Y0295169D01*
X0037341Y0295298D01*
X0037319Y0295427D01*
X0037301Y0295557D01*
X0037287Y0295688D01*
X0037277Y0295819D01*
X0037271Y0295951D01*
X0037269Y0296082D01*
X0037269Y0371082D02*
X0037271Y0371213D01*
X0037277Y0371345D01*
X0037287Y0371476D01*
X0037301Y0371607D01*
X0037319Y0371737D01*
X0037341Y0371866D01*
X0037366Y0371995D01*
X0037396Y0372123D01*
X0037430Y0372250D01*
X0037467Y0372377D01*
X0037508Y0372501D01*
X0037553Y0372625D01*
X0037602Y0372747D01*
X0037654Y0372868D01*
X0037710Y0372986D01*
X0037770Y0373104D01*
X0037833Y0373219D01*
X0037900Y0373332D01*
X0037970Y0373444D01*
X0038043Y0373553D01*
X0038119Y0373659D01*
X0038199Y0373764D01*
X0038282Y0373866D01*
X0038368Y0373965D01*
X0038457Y0374062D01*
X0038549Y0374156D01*
X0038644Y0374247D01*
X0038741Y0374336D01*
X0038841Y0374421D01*
X0038944Y0374503D01*
X0039049Y0374582D01*
X0039156Y0374658D01*
X0039266Y0374730D01*
X0039378Y0374799D01*
X0039492Y0374865D01*
X0039607Y0374927D01*
X0039725Y0374986D01*
X0039844Y0375041D01*
X0039965Y0375093D01*
X0040088Y0375140D01*
X0040212Y0375184D01*
X0040337Y0375225D01*
X0040463Y0375261D01*
X0040591Y0375294D01*
X0040719Y0375322D01*
X0040848Y0375347D01*
X0040978Y0375368D01*
X0041108Y0375385D01*
X0041239Y0375398D01*
X0041370Y0375407D01*
X0041501Y0375412D01*
X0041633Y0375413D01*
X0041764Y0375410D01*
X0041896Y0375403D01*
X0042027Y0375392D01*
X0042157Y0375377D01*
X0042287Y0375358D01*
X0042417Y0375335D01*
X0042545Y0375309D01*
X0042673Y0375278D01*
X0042800Y0375243D01*
X0042926Y0375205D01*
X0043050Y0375163D01*
X0043174Y0375117D01*
X0043295Y0375067D01*
X0043415Y0375014D01*
X0043534Y0374957D01*
X0043651Y0374897D01*
X0043765Y0374833D01*
X0043878Y0374765D01*
X0043989Y0374694D01*
X0044098Y0374620D01*
X0044204Y0374543D01*
X0044308Y0374462D01*
X0044409Y0374379D01*
X0044508Y0374292D01*
X0044604Y0374202D01*
X0044697Y0374109D01*
X0044788Y0374014D01*
X0044875Y0373916D01*
X0044960Y0373815D01*
X0045041Y0373712D01*
X0045119Y0373606D01*
X0045194Y0373498D01*
X0045266Y0373388D01*
X0045334Y0373276D01*
X0045399Y0373162D01*
X0045460Y0373045D01*
X0045518Y0372927D01*
X0045572Y0372807D01*
X0045623Y0372686D01*
X0045670Y0372563D01*
X0045713Y0372439D01*
X0045752Y0372314D01*
X0045788Y0372187D01*
X0045819Y0372059D01*
X0045847Y0371931D01*
X0045871Y0371802D01*
X0045891Y0371672D01*
X0045907Y0371541D01*
X0045919Y0371410D01*
X0045927Y0371279D01*
X0045931Y0371148D01*
X0045931Y0371016D01*
X0045927Y0370885D01*
X0045919Y0370754D01*
X0045907Y0370623D01*
X0045891Y0370492D01*
X0045871Y0370362D01*
X0045847Y0370233D01*
X0045819Y0370105D01*
X0045788Y0369977D01*
X0045752Y0369850D01*
X0045713Y0369725D01*
X0045670Y0369601D01*
X0045623Y0369478D01*
X0045572Y0369357D01*
X0045518Y0369237D01*
X0045460Y0369119D01*
X0045399Y0369002D01*
X0045334Y0368888D01*
X0045266Y0368776D01*
X0045194Y0368666D01*
X0045119Y0368558D01*
X0045041Y0368452D01*
X0044960Y0368349D01*
X0044875Y0368248D01*
X0044788Y0368150D01*
X0044697Y0368055D01*
X0044604Y0367962D01*
X0044508Y0367872D01*
X0044409Y0367785D01*
X0044308Y0367702D01*
X0044204Y0367621D01*
X0044098Y0367544D01*
X0043989Y0367470D01*
X0043878Y0367399D01*
X0043766Y0367331D01*
X0043651Y0367267D01*
X0043534Y0367207D01*
X0043415Y0367150D01*
X0043295Y0367097D01*
X0043174Y0367047D01*
X0043050Y0367001D01*
X0042926Y0366959D01*
X0042800Y0366921D01*
X0042673Y0366886D01*
X0042545Y0366855D01*
X0042417Y0366829D01*
X0042287Y0366806D01*
X0042157Y0366787D01*
X0042027Y0366772D01*
X0041896Y0366761D01*
X0041764Y0366754D01*
X0041633Y0366751D01*
X0041501Y0366752D01*
X0041370Y0366757D01*
X0041239Y0366766D01*
X0041108Y0366779D01*
X0040978Y0366796D01*
X0040848Y0366817D01*
X0040719Y0366842D01*
X0040591Y0366870D01*
X0040463Y0366903D01*
X0040337Y0366939D01*
X0040212Y0366980D01*
X0040088Y0367024D01*
X0039965Y0367071D01*
X0039844Y0367123D01*
X0039725Y0367178D01*
X0039607Y0367237D01*
X0039492Y0367299D01*
X0039378Y0367365D01*
X0039266Y0367434D01*
X0039156Y0367506D01*
X0039049Y0367582D01*
X0038944Y0367661D01*
X0038841Y0367743D01*
X0038741Y0367828D01*
X0038644Y0367917D01*
X0038549Y0368008D01*
X0038457Y0368102D01*
X0038368Y0368199D01*
X0038282Y0368298D01*
X0038199Y0368400D01*
X0038119Y0368505D01*
X0038043Y0368611D01*
X0037970Y0368720D01*
X0037900Y0368832D01*
X0037833Y0368945D01*
X0037770Y0369060D01*
X0037710Y0369178D01*
X0037654Y0369296D01*
X0037602Y0369417D01*
X0037553Y0369539D01*
X0037508Y0369663D01*
X0037467Y0369787D01*
X0037430Y0369914D01*
X0037396Y0370041D01*
X0037366Y0370169D01*
X0037341Y0370298D01*
X0037319Y0370427D01*
X0037301Y0370557D01*
X0037287Y0370688D01*
X0037277Y0370819D01*
X0037271Y0370951D01*
X0037269Y0371082D01*
X0037269Y0446082D02*
X0037271Y0446213D01*
X0037277Y0446345D01*
X0037287Y0446476D01*
X0037301Y0446607D01*
X0037319Y0446737D01*
X0037341Y0446866D01*
X0037366Y0446995D01*
X0037396Y0447123D01*
X0037430Y0447250D01*
X0037467Y0447377D01*
X0037508Y0447501D01*
X0037553Y0447625D01*
X0037602Y0447747D01*
X0037654Y0447868D01*
X0037710Y0447986D01*
X0037770Y0448104D01*
X0037833Y0448219D01*
X0037900Y0448332D01*
X0037970Y0448444D01*
X0038043Y0448553D01*
X0038119Y0448659D01*
X0038199Y0448764D01*
X0038282Y0448866D01*
X0038368Y0448965D01*
X0038457Y0449062D01*
X0038549Y0449156D01*
X0038644Y0449247D01*
X0038741Y0449336D01*
X0038841Y0449421D01*
X0038944Y0449503D01*
X0039049Y0449582D01*
X0039156Y0449658D01*
X0039266Y0449730D01*
X0039378Y0449799D01*
X0039492Y0449865D01*
X0039607Y0449927D01*
X0039725Y0449986D01*
X0039844Y0450041D01*
X0039965Y0450093D01*
X0040088Y0450140D01*
X0040212Y0450184D01*
X0040337Y0450225D01*
X0040463Y0450261D01*
X0040591Y0450294D01*
X0040719Y0450322D01*
X0040848Y0450347D01*
X0040978Y0450368D01*
X0041108Y0450385D01*
X0041239Y0450398D01*
X0041370Y0450407D01*
X0041501Y0450412D01*
X0041633Y0450413D01*
X0041764Y0450410D01*
X0041896Y0450403D01*
X0042027Y0450392D01*
X0042157Y0450377D01*
X0042287Y0450358D01*
X0042417Y0450335D01*
X0042545Y0450309D01*
X0042673Y0450278D01*
X0042800Y0450243D01*
X0042926Y0450205D01*
X0043050Y0450163D01*
X0043174Y0450117D01*
X0043295Y0450067D01*
X0043415Y0450014D01*
X0043534Y0449957D01*
X0043651Y0449897D01*
X0043765Y0449833D01*
X0043878Y0449765D01*
X0043989Y0449694D01*
X0044098Y0449620D01*
X0044204Y0449543D01*
X0044308Y0449462D01*
X0044409Y0449379D01*
X0044508Y0449292D01*
X0044604Y0449202D01*
X0044697Y0449109D01*
X0044788Y0449014D01*
X0044875Y0448916D01*
X0044960Y0448815D01*
X0045041Y0448712D01*
X0045119Y0448606D01*
X0045194Y0448498D01*
X0045266Y0448388D01*
X0045334Y0448276D01*
X0045399Y0448162D01*
X0045460Y0448045D01*
X0045518Y0447927D01*
X0045572Y0447807D01*
X0045623Y0447686D01*
X0045670Y0447563D01*
X0045713Y0447439D01*
X0045752Y0447314D01*
X0045788Y0447187D01*
X0045819Y0447059D01*
X0045847Y0446931D01*
X0045871Y0446802D01*
X0045891Y0446672D01*
X0045907Y0446541D01*
X0045919Y0446410D01*
X0045927Y0446279D01*
X0045931Y0446148D01*
X0045931Y0446016D01*
X0045927Y0445885D01*
X0045919Y0445754D01*
X0045907Y0445623D01*
X0045891Y0445492D01*
X0045871Y0445362D01*
X0045847Y0445233D01*
X0045819Y0445105D01*
X0045788Y0444977D01*
X0045752Y0444850D01*
X0045713Y0444725D01*
X0045670Y0444601D01*
X0045623Y0444478D01*
X0045572Y0444357D01*
X0045518Y0444237D01*
X0045460Y0444119D01*
X0045399Y0444002D01*
X0045334Y0443888D01*
X0045266Y0443776D01*
X0045194Y0443666D01*
X0045119Y0443558D01*
X0045041Y0443452D01*
X0044960Y0443349D01*
X0044875Y0443248D01*
X0044788Y0443150D01*
X0044697Y0443055D01*
X0044604Y0442962D01*
X0044508Y0442872D01*
X0044409Y0442785D01*
X0044308Y0442702D01*
X0044204Y0442621D01*
X0044098Y0442544D01*
X0043989Y0442470D01*
X0043878Y0442399D01*
X0043766Y0442331D01*
X0043651Y0442267D01*
X0043534Y0442207D01*
X0043415Y0442150D01*
X0043295Y0442097D01*
X0043174Y0442047D01*
X0043050Y0442001D01*
X0042926Y0441959D01*
X0042800Y0441921D01*
X0042673Y0441886D01*
X0042545Y0441855D01*
X0042417Y0441829D01*
X0042287Y0441806D01*
X0042157Y0441787D01*
X0042027Y0441772D01*
X0041896Y0441761D01*
X0041764Y0441754D01*
X0041633Y0441751D01*
X0041501Y0441752D01*
X0041370Y0441757D01*
X0041239Y0441766D01*
X0041108Y0441779D01*
X0040978Y0441796D01*
X0040848Y0441817D01*
X0040719Y0441842D01*
X0040591Y0441870D01*
X0040463Y0441903D01*
X0040337Y0441939D01*
X0040212Y0441980D01*
X0040088Y0442024D01*
X0039965Y0442071D01*
X0039844Y0442123D01*
X0039725Y0442178D01*
X0039607Y0442237D01*
X0039492Y0442299D01*
X0039378Y0442365D01*
X0039266Y0442434D01*
X0039156Y0442506D01*
X0039049Y0442582D01*
X0038944Y0442661D01*
X0038841Y0442743D01*
X0038741Y0442828D01*
X0038644Y0442917D01*
X0038549Y0443008D01*
X0038457Y0443102D01*
X0038368Y0443199D01*
X0038282Y0443298D01*
X0038199Y0443400D01*
X0038119Y0443505D01*
X0038043Y0443611D01*
X0037970Y0443720D01*
X0037900Y0443832D01*
X0037833Y0443945D01*
X0037770Y0444060D01*
X0037710Y0444178D01*
X0037654Y0444296D01*
X0037602Y0444417D01*
X0037553Y0444539D01*
X0037508Y0444663D01*
X0037467Y0444787D01*
X0037430Y0444914D01*
X0037396Y0445041D01*
X0037366Y0445169D01*
X0037341Y0445298D01*
X0037319Y0445427D01*
X0037301Y0445557D01*
X0037287Y0445688D01*
X0037277Y0445819D01*
X0037271Y0445951D01*
X0037269Y0446082D01*
X0555117Y0445713D02*
X0555119Y0445844D01*
X0555125Y0445976D01*
X0555135Y0446107D01*
X0555149Y0446238D01*
X0555167Y0446368D01*
X0555189Y0446497D01*
X0555214Y0446626D01*
X0555244Y0446754D01*
X0555278Y0446881D01*
X0555315Y0447008D01*
X0555356Y0447132D01*
X0555401Y0447256D01*
X0555450Y0447378D01*
X0555502Y0447499D01*
X0555558Y0447617D01*
X0555618Y0447735D01*
X0555681Y0447850D01*
X0555748Y0447963D01*
X0555818Y0448075D01*
X0555891Y0448184D01*
X0555967Y0448290D01*
X0556047Y0448395D01*
X0556130Y0448497D01*
X0556216Y0448596D01*
X0556305Y0448693D01*
X0556397Y0448787D01*
X0556492Y0448878D01*
X0556589Y0448967D01*
X0556689Y0449052D01*
X0556792Y0449134D01*
X0556897Y0449213D01*
X0557004Y0449289D01*
X0557114Y0449361D01*
X0557226Y0449430D01*
X0557340Y0449496D01*
X0557455Y0449558D01*
X0557573Y0449617D01*
X0557692Y0449672D01*
X0557813Y0449724D01*
X0557936Y0449771D01*
X0558060Y0449815D01*
X0558185Y0449856D01*
X0558311Y0449892D01*
X0558439Y0449925D01*
X0558567Y0449953D01*
X0558696Y0449978D01*
X0558826Y0449999D01*
X0558956Y0450016D01*
X0559087Y0450029D01*
X0559218Y0450038D01*
X0559349Y0450043D01*
X0559481Y0450044D01*
X0559612Y0450041D01*
X0559744Y0450034D01*
X0559875Y0450023D01*
X0560005Y0450008D01*
X0560135Y0449989D01*
X0560265Y0449966D01*
X0560393Y0449940D01*
X0560521Y0449909D01*
X0560648Y0449874D01*
X0560774Y0449836D01*
X0560898Y0449794D01*
X0561022Y0449748D01*
X0561143Y0449698D01*
X0561263Y0449645D01*
X0561382Y0449588D01*
X0561499Y0449528D01*
X0561613Y0449464D01*
X0561726Y0449396D01*
X0561837Y0449325D01*
X0561946Y0449251D01*
X0562052Y0449174D01*
X0562156Y0449093D01*
X0562257Y0449010D01*
X0562356Y0448923D01*
X0562452Y0448833D01*
X0562545Y0448740D01*
X0562636Y0448645D01*
X0562723Y0448547D01*
X0562808Y0448446D01*
X0562889Y0448343D01*
X0562967Y0448237D01*
X0563042Y0448129D01*
X0563114Y0448019D01*
X0563182Y0447907D01*
X0563247Y0447793D01*
X0563308Y0447676D01*
X0563366Y0447558D01*
X0563420Y0447438D01*
X0563471Y0447317D01*
X0563518Y0447194D01*
X0563561Y0447070D01*
X0563600Y0446945D01*
X0563636Y0446818D01*
X0563667Y0446690D01*
X0563695Y0446562D01*
X0563719Y0446433D01*
X0563739Y0446303D01*
X0563755Y0446172D01*
X0563767Y0446041D01*
X0563775Y0445910D01*
X0563779Y0445779D01*
X0563779Y0445647D01*
X0563775Y0445516D01*
X0563767Y0445385D01*
X0563755Y0445254D01*
X0563739Y0445123D01*
X0563719Y0444993D01*
X0563695Y0444864D01*
X0563667Y0444736D01*
X0563636Y0444608D01*
X0563600Y0444481D01*
X0563561Y0444356D01*
X0563518Y0444232D01*
X0563471Y0444109D01*
X0563420Y0443988D01*
X0563366Y0443868D01*
X0563308Y0443750D01*
X0563247Y0443633D01*
X0563182Y0443519D01*
X0563114Y0443407D01*
X0563042Y0443297D01*
X0562967Y0443189D01*
X0562889Y0443083D01*
X0562808Y0442980D01*
X0562723Y0442879D01*
X0562636Y0442781D01*
X0562545Y0442686D01*
X0562452Y0442593D01*
X0562356Y0442503D01*
X0562257Y0442416D01*
X0562156Y0442333D01*
X0562052Y0442252D01*
X0561946Y0442175D01*
X0561837Y0442101D01*
X0561726Y0442030D01*
X0561614Y0441962D01*
X0561499Y0441898D01*
X0561382Y0441838D01*
X0561263Y0441781D01*
X0561143Y0441728D01*
X0561022Y0441678D01*
X0560898Y0441632D01*
X0560774Y0441590D01*
X0560648Y0441552D01*
X0560521Y0441517D01*
X0560393Y0441486D01*
X0560265Y0441460D01*
X0560135Y0441437D01*
X0560005Y0441418D01*
X0559875Y0441403D01*
X0559744Y0441392D01*
X0559612Y0441385D01*
X0559481Y0441382D01*
X0559349Y0441383D01*
X0559218Y0441388D01*
X0559087Y0441397D01*
X0558956Y0441410D01*
X0558826Y0441427D01*
X0558696Y0441448D01*
X0558567Y0441473D01*
X0558439Y0441501D01*
X0558311Y0441534D01*
X0558185Y0441570D01*
X0558060Y0441611D01*
X0557936Y0441655D01*
X0557813Y0441702D01*
X0557692Y0441754D01*
X0557573Y0441809D01*
X0557455Y0441868D01*
X0557340Y0441930D01*
X0557226Y0441996D01*
X0557114Y0442065D01*
X0557004Y0442137D01*
X0556897Y0442213D01*
X0556792Y0442292D01*
X0556689Y0442374D01*
X0556589Y0442459D01*
X0556492Y0442548D01*
X0556397Y0442639D01*
X0556305Y0442733D01*
X0556216Y0442830D01*
X0556130Y0442929D01*
X0556047Y0443031D01*
X0555967Y0443136D01*
X0555891Y0443242D01*
X0555818Y0443351D01*
X0555748Y0443463D01*
X0555681Y0443576D01*
X0555618Y0443691D01*
X0555558Y0443809D01*
X0555502Y0443927D01*
X0555450Y0444048D01*
X0555401Y0444170D01*
X0555356Y0444294D01*
X0555315Y0444418D01*
X0555278Y0444545D01*
X0555244Y0444672D01*
X0555214Y0444800D01*
X0555189Y0444929D01*
X0555167Y0445058D01*
X0555149Y0445188D01*
X0555135Y0445319D01*
X0555125Y0445450D01*
X0555119Y0445582D01*
X0555117Y0445713D01*
X0555273Y0371865D02*
X0555275Y0371996D01*
X0555281Y0372128D01*
X0555291Y0372259D01*
X0555305Y0372390D01*
X0555323Y0372520D01*
X0555345Y0372649D01*
X0555370Y0372778D01*
X0555400Y0372906D01*
X0555434Y0373033D01*
X0555471Y0373160D01*
X0555512Y0373284D01*
X0555557Y0373408D01*
X0555606Y0373530D01*
X0555658Y0373651D01*
X0555714Y0373769D01*
X0555774Y0373887D01*
X0555837Y0374002D01*
X0555904Y0374115D01*
X0555974Y0374227D01*
X0556047Y0374336D01*
X0556123Y0374442D01*
X0556203Y0374547D01*
X0556286Y0374649D01*
X0556372Y0374748D01*
X0556461Y0374845D01*
X0556553Y0374939D01*
X0556648Y0375030D01*
X0556745Y0375119D01*
X0556845Y0375204D01*
X0556948Y0375286D01*
X0557053Y0375365D01*
X0557160Y0375441D01*
X0557270Y0375513D01*
X0557382Y0375582D01*
X0557496Y0375648D01*
X0557611Y0375710D01*
X0557729Y0375769D01*
X0557848Y0375824D01*
X0557969Y0375876D01*
X0558092Y0375923D01*
X0558216Y0375967D01*
X0558341Y0376008D01*
X0558467Y0376044D01*
X0558595Y0376077D01*
X0558723Y0376105D01*
X0558852Y0376130D01*
X0558982Y0376151D01*
X0559112Y0376168D01*
X0559243Y0376181D01*
X0559374Y0376190D01*
X0559505Y0376195D01*
X0559637Y0376196D01*
X0559768Y0376193D01*
X0559900Y0376186D01*
X0560031Y0376175D01*
X0560161Y0376160D01*
X0560291Y0376141D01*
X0560421Y0376118D01*
X0560549Y0376092D01*
X0560677Y0376061D01*
X0560804Y0376026D01*
X0560930Y0375988D01*
X0561054Y0375946D01*
X0561178Y0375900D01*
X0561299Y0375850D01*
X0561419Y0375797D01*
X0561538Y0375740D01*
X0561655Y0375680D01*
X0561769Y0375616D01*
X0561882Y0375548D01*
X0561993Y0375477D01*
X0562102Y0375403D01*
X0562208Y0375326D01*
X0562312Y0375245D01*
X0562413Y0375162D01*
X0562512Y0375075D01*
X0562608Y0374985D01*
X0562701Y0374892D01*
X0562792Y0374797D01*
X0562879Y0374699D01*
X0562964Y0374598D01*
X0563045Y0374495D01*
X0563123Y0374389D01*
X0563198Y0374281D01*
X0563270Y0374171D01*
X0563338Y0374059D01*
X0563403Y0373945D01*
X0563464Y0373828D01*
X0563522Y0373710D01*
X0563576Y0373590D01*
X0563627Y0373469D01*
X0563674Y0373346D01*
X0563717Y0373222D01*
X0563756Y0373097D01*
X0563792Y0372970D01*
X0563823Y0372842D01*
X0563851Y0372714D01*
X0563875Y0372585D01*
X0563895Y0372455D01*
X0563911Y0372324D01*
X0563923Y0372193D01*
X0563931Y0372062D01*
X0563935Y0371931D01*
X0563935Y0371799D01*
X0563931Y0371668D01*
X0563923Y0371537D01*
X0563911Y0371406D01*
X0563895Y0371275D01*
X0563875Y0371145D01*
X0563851Y0371016D01*
X0563823Y0370888D01*
X0563792Y0370760D01*
X0563756Y0370633D01*
X0563717Y0370508D01*
X0563674Y0370384D01*
X0563627Y0370261D01*
X0563576Y0370140D01*
X0563522Y0370020D01*
X0563464Y0369902D01*
X0563403Y0369785D01*
X0563338Y0369671D01*
X0563270Y0369559D01*
X0563198Y0369449D01*
X0563123Y0369341D01*
X0563045Y0369235D01*
X0562964Y0369132D01*
X0562879Y0369031D01*
X0562792Y0368933D01*
X0562701Y0368838D01*
X0562608Y0368745D01*
X0562512Y0368655D01*
X0562413Y0368568D01*
X0562312Y0368485D01*
X0562208Y0368404D01*
X0562102Y0368327D01*
X0561993Y0368253D01*
X0561882Y0368182D01*
X0561770Y0368114D01*
X0561655Y0368050D01*
X0561538Y0367990D01*
X0561419Y0367933D01*
X0561299Y0367880D01*
X0561178Y0367830D01*
X0561054Y0367784D01*
X0560930Y0367742D01*
X0560804Y0367704D01*
X0560677Y0367669D01*
X0560549Y0367638D01*
X0560421Y0367612D01*
X0560291Y0367589D01*
X0560161Y0367570D01*
X0560031Y0367555D01*
X0559900Y0367544D01*
X0559768Y0367537D01*
X0559637Y0367534D01*
X0559505Y0367535D01*
X0559374Y0367540D01*
X0559243Y0367549D01*
X0559112Y0367562D01*
X0558982Y0367579D01*
X0558852Y0367600D01*
X0558723Y0367625D01*
X0558595Y0367653D01*
X0558467Y0367686D01*
X0558341Y0367722D01*
X0558216Y0367763D01*
X0558092Y0367807D01*
X0557969Y0367854D01*
X0557848Y0367906D01*
X0557729Y0367961D01*
X0557611Y0368020D01*
X0557496Y0368082D01*
X0557382Y0368148D01*
X0557270Y0368217D01*
X0557160Y0368289D01*
X0557053Y0368365D01*
X0556948Y0368444D01*
X0556845Y0368526D01*
X0556745Y0368611D01*
X0556648Y0368700D01*
X0556553Y0368791D01*
X0556461Y0368885D01*
X0556372Y0368982D01*
X0556286Y0369081D01*
X0556203Y0369183D01*
X0556123Y0369288D01*
X0556047Y0369394D01*
X0555974Y0369503D01*
X0555904Y0369615D01*
X0555837Y0369728D01*
X0555774Y0369843D01*
X0555714Y0369961D01*
X0555658Y0370079D01*
X0555606Y0370200D01*
X0555557Y0370322D01*
X0555512Y0370446D01*
X0555471Y0370570D01*
X0555434Y0370697D01*
X0555400Y0370824D01*
X0555370Y0370952D01*
X0555345Y0371081D01*
X0555323Y0371210D01*
X0555305Y0371340D01*
X0555291Y0371471D01*
X0555281Y0371602D01*
X0555275Y0371734D01*
X0555273Y0371865D01*
X0555273Y0296315D02*
X0555275Y0296446D01*
X0555281Y0296578D01*
X0555291Y0296709D01*
X0555305Y0296840D01*
X0555323Y0296970D01*
X0555345Y0297099D01*
X0555370Y0297228D01*
X0555400Y0297356D01*
X0555434Y0297483D01*
X0555471Y0297610D01*
X0555512Y0297734D01*
X0555557Y0297858D01*
X0555606Y0297980D01*
X0555658Y0298101D01*
X0555714Y0298219D01*
X0555774Y0298337D01*
X0555837Y0298452D01*
X0555904Y0298565D01*
X0555974Y0298677D01*
X0556047Y0298786D01*
X0556123Y0298892D01*
X0556203Y0298997D01*
X0556286Y0299099D01*
X0556372Y0299198D01*
X0556461Y0299295D01*
X0556553Y0299389D01*
X0556648Y0299480D01*
X0556745Y0299569D01*
X0556845Y0299654D01*
X0556948Y0299736D01*
X0557053Y0299815D01*
X0557160Y0299891D01*
X0557270Y0299963D01*
X0557382Y0300032D01*
X0557496Y0300098D01*
X0557611Y0300160D01*
X0557729Y0300219D01*
X0557848Y0300274D01*
X0557969Y0300326D01*
X0558092Y0300373D01*
X0558216Y0300417D01*
X0558341Y0300458D01*
X0558467Y0300494D01*
X0558595Y0300527D01*
X0558723Y0300555D01*
X0558852Y0300580D01*
X0558982Y0300601D01*
X0559112Y0300618D01*
X0559243Y0300631D01*
X0559374Y0300640D01*
X0559505Y0300645D01*
X0559637Y0300646D01*
X0559768Y0300643D01*
X0559900Y0300636D01*
X0560031Y0300625D01*
X0560161Y0300610D01*
X0560291Y0300591D01*
X0560421Y0300568D01*
X0560549Y0300542D01*
X0560677Y0300511D01*
X0560804Y0300476D01*
X0560930Y0300438D01*
X0561054Y0300396D01*
X0561178Y0300350D01*
X0561299Y0300300D01*
X0561419Y0300247D01*
X0561538Y0300190D01*
X0561655Y0300130D01*
X0561769Y0300066D01*
X0561882Y0299998D01*
X0561993Y0299927D01*
X0562102Y0299853D01*
X0562208Y0299776D01*
X0562312Y0299695D01*
X0562413Y0299612D01*
X0562512Y0299525D01*
X0562608Y0299435D01*
X0562701Y0299342D01*
X0562792Y0299247D01*
X0562879Y0299149D01*
X0562964Y0299048D01*
X0563045Y0298945D01*
X0563123Y0298839D01*
X0563198Y0298731D01*
X0563270Y0298621D01*
X0563338Y0298509D01*
X0563403Y0298395D01*
X0563464Y0298278D01*
X0563522Y0298160D01*
X0563576Y0298040D01*
X0563627Y0297919D01*
X0563674Y0297796D01*
X0563717Y0297672D01*
X0563756Y0297547D01*
X0563792Y0297420D01*
X0563823Y0297292D01*
X0563851Y0297164D01*
X0563875Y0297035D01*
X0563895Y0296905D01*
X0563911Y0296774D01*
X0563923Y0296643D01*
X0563931Y0296512D01*
X0563935Y0296381D01*
X0563935Y0296249D01*
X0563931Y0296118D01*
X0563923Y0295987D01*
X0563911Y0295856D01*
X0563895Y0295725D01*
X0563875Y0295595D01*
X0563851Y0295466D01*
X0563823Y0295338D01*
X0563792Y0295210D01*
X0563756Y0295083D01*
X0563717Y0294958D01*
X0563674Y0294834D01*
X0563627Y0294711D01*
X0563576Y0294590D01*
X0563522Y0294470D01*
X0563464Y0294352D01*
X0563403Y0294235D01*
X0563338Y0294121D01*
X0563270Y0294009D01*
X0563198Y0293899D01*
X0563123Y0293791D01*
X0563045Y0293685D01*
X0562964Y0293582D01*
X0562879Y0293481D01*
X0562792Y0293383D01*
X0562701Y0293288D01*
X0562608Y0293195D01*
X0562512Y0293105D01*
X0562413Y0293018D01*
X0562312Y0292935D01*
X0562208Y0292854D01*
X0562102Y0292777D01*
X0561993Y0292703D01*
X0561882Y0292632D01*
X0561770Y0292564D01*
X0561655Y0292500D01*
X0561538Y0292440D01*
X0561419Y0292383D01*
X0561299Y0292330D01*
X0561178Y0292280D01*
X0561054Y0292234D01*
X0560930Y0292192D01*
X0560804Y0292154D01*
X0560677Y0292119D01*
X0560549Y0292088D01*
X0560421Y0292062D01*
X0560291Y0292039D01*
X0560161Y0292020D01*
X0560031Y0292005D01*
X0559900Y0291994D01*
X0559768Y0291987D01*
X0559637Y0291984D01*
X0559505Y0291985D01*
X0559374Y0291990D01*
X0559243Y0291999D01*
X0559112Y0292012D01*
X0558982Y0292029D01*
X0558852Y0292050D01*
X0558723Y0292075D01*
X0558595Y0292103D01*
X0558467Y0292136D01*
X0558341Y0292172D01*
X0558216Y0292213D01*
X0558092Y0292257D01*
X0557969Y0292304D01*
X0557848Y0292356D01*
X0557729Y0292411D01*
X0557611Y0292470D01*
X0557496Y0292532D01*
X0557382Y0292598D01*
X0557270Y0292667D01*
X0557160Y0292739D01*
X0557053Y0292815D01*
X0556948Y0292894D01*
X0556845Y0292976D01*
X0556745Y0293061D01*
X0556648Y0293150D01*
X0556553Y0293241D01*
X0556461Y0293335D01*
X0556372Y0293432D01*
X0556286Y0293531D01*
X0556203Y0293633D01*
X0556123Y0293738D01*
X0556047Y0293844D01*
X0555974Y0293953D01*
X0555904Y0294065D01*
X0555837Y0294178D01*
X0555774Y0294293D01*
X0555714Y0294411D01*
X0555658Y0294529D01*
X0555606Y0294650D01*
X0555557Y0294772D01*
X0555512Y0294896D01*
X0555471Y0295020D01*
X0555434Y0295147D01*
X0555400Y0295274D01*
X0555370Y0295402D01*
X0555345Y0295531D01*
X0555323Y0295660D01*
X0555305Y0295790D01*
X0555291Y0295921D01*
X0555281Y0296052D01*
X0555275Y0296184D01*
X0555273Y0296315D01*
X0555273Y0220638D02*
X0555275Y0220769D01*
X0555281Y0220901D01*
X0555291Y0221032D01*
X0555305Y0221163D01*
X0555323Y0221293D01*
X0555345Y0221422D01*
X0555370Y0221551D01*
X0555400Y0221679D01*
X0555434Y0221806D01*
X0555471Y0221933D01*
X0555512Y0222057D01*
X0555557Y0222181D01*
X0555606Y0222303D01*
X0555658Y0222424D01*
X0555714Y0222542D01*
X0555774Y0222660D01*
X0555837Y0222775D01*
X0555904Y0222888D01*
X0555974Y0223000D01*
X0556047Y0223109D01*
X0556123Y0223215D01*
X0556203Y0223320D01*
X0556286Y0223422D01*
X0556372Y0223521D01*
X0556461Y0223618D01*
X0556553Y0223712D01*
X0556648Y0223803D01*
X0556745Y0223892D01*
X0556845Y0223977D01*
X0556948Y0224059D01*
X0557053Y0224138D01*
X0557160Y0224214D01*
X0557270Y0224286D01*
X0557382Y0224355D01*
X0557496Y0224421D01*
X0557611Y0224483D01*
X0557729Y0224542D01*
X0557848Y0224597D01*
X0557969Y0224649D01*
X0558092Y0224696D01*
X0558216Y0224740D01*
X0558341Y0224781D01*
X0558467Y0224817D01*
X0558595Y0224850D01*
X0558723Y0224878D01*
X0558852Y0224903D01*
X0558982Y0224924D01*
X0559112Y0224941D01*
X0559243Y0224954D01*
X0559374Y0224963D01*
X0559505Y0224968D01*
X0559637Y0224969D01*
X0559768Y0224966D01*
X0559900Y0224959D01*
X0560031Y0224948D01*
X0560161Y0224933D01*
X0560291Y0224914D01*
X0560421Y0224891D01*
X0560549Y0224865D01*
X0560677Y0224834D01*
X0560804Y0224799D01*
X0560930Y0224761D01*
X0561054Y0224719D01*
X0561178Y0224673D01*
X0561299Y0224623D01*
X0561419Y0224570D01*
X0561538Y0224513D01*
X0561655Y0224453D01*
X0561769Y0224389D01*
X0561882Y0224321D01*
X0561993Y0224250D01*
X0562102Y0224176D01*
X0562208Y0224099D01*
X0562312Y0224018D01*
X0562413Y0223935D01*
X0562512Y0223848D01*
X0562608Y0223758D01*
X0562701Y0223665D01*
X0562792Y0223570D01*
X0562879Y0223472D01*
X0562964Y0223371D01*
X0563045Y0223268D01*
X0563123Y0223162D01*
X0563198Y0223054D01*
X0563270Y0222944D01*
X0563338Y0222832D01*
X0563403Y0222718D01*
X0563464Y0222601D01*
X0563522Y0222483D01*
X0563576Y0222363D01*
X0563627Y0222242D01*
X0563674Y0222119D01*
X0563717Y0221995D01*
X0563756Y0221870D01*
X0563792Y0221743D01*
X0563823Y0221615D01*
X0563851Y0221487D01*
X0563875Y0221358D01*
X0563895Y0221228D01*
X0563911Y0221097D01*
X0563923Y0220966D01*
X0563931Y0220835D01*
X0563935Y0220704D01*
X0563935Y0220572D01*
X0563931Y0220441D01*
X0563923Y0220310D01*
X0563911Y0220179D01*
X0563895Y0220048D01*
X0563875Y0219918D01*
X0563851Y0219789D01*
X0563823Y0219661D01*
X0563792Y0219533D01*
X0563756Y0219406D01*
X0563717Y0219281D01*
X0563674Y0219157D01*
X0563627Y0219034D01*
X0563576Y0218913D01*
X0563522Y0218793D01*
X0563464Y0218675D01*
X0563403Y0218558D01*
X0563338Y0218444D01*
X0563270Y0218332D01*
X0563198Y0218222D01*
X0563123Y0218114D01*
X0563045Y0218008D01*
X0562964Y0217905D01*
X0562879Y0217804D01*
X0562792Y0217706D01*
X0562701Y0217611D01*
X0562608Y0217518D01*
X0562512Y0217428D01*
X0562413Y0217341D01*
X0562312Y0217258D01*
X0562208Y0217177D01*
X0562102Y0217100D01*
X0561993Y0217026D01*
X0561882Y0216955D01*
X0561770Y0216887D01*
X0561655Y0216823D01*
X0561538Y0216763D01*
X0561419Y0216706D01*
X0561299Y0216653D01*
X0561178Y0216603D01*
X0561054Y0216557D01*
X0560930Y0216515D01*
X0560804Y0216477D01*
X0560677Y0216442D01*
X0560549Y0216411D01*
X0560421Y0216385D01*
X0560291Y0216362D01*
X0560161Y0216343D01*
X0560031Y0216328D01*
X0559900Y0216317D01*
X0559768Y0216310D01*
X0559637Y0216307D01*
X0559505Y0216308D01*
X0559374Y0216313D01*
X0559243Y0216322D01*
X0559112Y0216335D01*
X0558982Y0216352D01*
X0558852Y0216373D01*
X0558723Y0216398D01*
X0558595Y0216426D01*
X0558467Y0216459D01*
X0558341Y0216495D01*
X0558216Y0216536D01*
X0558092Y0216580D01*
X0557969Y0216627D01*
X0557848Y0216679D01*
X0557729Y0216734D01*
X0557611Y0216793D01*
X0557496Y0216855D01*
X0557382Y0216921D01*
X0557270Y0216990D01*
X0557160Y0217062D01*
X0557053Y0217138D01*
X0556948Y0217217D01*
X0556845Y0217299D01*
X0556745Y0217384D01*
X0556648Y0217473D01*
X0556553Y0217564D01*
X0556461Y0217658D01*
X0556372Y0217755D01*
X0556286Y0217854D01*
X0556203Y0217956D01*
X0556123Y0218061D01*
X0556047Y0218167D01*
X0555974Y0218276D01*
X0555904Y0218388D01*
X0555837Y0218501D01*
X0555774Y0218616D01*
X0555714Y0218734D01*
X0555658Y0218852D01*
X0555606Y0218973D01*
X0555557Y0219095D01*
X0555512Y0219219D01*
X0555471Y0219343D01*
X0555434Y0219470D01*
X0555400Y0219597D01*
X0555370Y0219725D01*
X0555345Y0219854D01*
X0555323Y0219983D01*
X0555305Y0220113D01*
X0555291Y0220244D01*
X0555281Y0220375D01*
X0555275Y0220507D01*
X0555273Y0220638D01*
X0555400Y0145850D02*
X0555402Y0145981D01*
X0555408Y0146113D01*
X0555418Y0146244D01*
X0555432Y0146375D01*
X0555450Y0146505D01*
X0555472Y0146634D01*
X0555497Y0146763D01*
X0555527Y0146891D01*
X0555561Y0147018D01*
X0555598Y0147145D01*
X0555639Y0147269D01*
X0555684Y0147393D01*
X0555733Y0147515D01*
X0555785Y0147636D01*
X0555841Y0147754D01*
X0555901Y0147872D01*
X0555964Y0147987D01*
X0556031Y0148100D01*
X0556101Y0148212D01*
X0556174Y0148321D01*
X0556250Y0148427D01*
X0556330Y0148532D01*
X0556413Y0148634D01*
X0556499Y0148733D01*
X0556588Y0148830D01*
X0556680Y0148924D01*
X0556775Y0149015D01*
X0556872Y0149104D01*
X0556972Y0149189D01*
X0557075Y0149271D01*
X0557180Y0149350D01*
X0557287Y0149426D01*
X0557397Y0149498D01*
X0557509Y0149567D01*
X0557623Y0149633D01*
X0557738Y0149695D01*
X0557856Y0149754D01*
X0557975Y0149809D01*
X0558096Y0149861D01*
X0558219Y0149908D01*
X0558343Y0149952D01*
X0558468Y0149993D01*
X0558594Y0150029D01*
X0558722Y0150062D01*
X0558850Y0150090D01*
X0558979Y0150115D01*
X0559109Y0150136D01*
X0559239Y0150153D01*
X0559370Y0150166D01*
X0559501Y0150175D01*
X0559632Y0150180D01*
X0559764Y0150181D01*
X0559895Y0150178D01*
X0560027Y0150171D01*
X0560158Y0150160D01*
X0560288Y0150145D01*
X0560418Y0150126D01*
X0560548Y0150103D01*
X0560676Y0150077D01*
X0560804Y0150046D01*
X0560931Y0150011D01*
X0561057Y0149973D01*
X0561181Y0149931D01*
X0561305Y0149885D01*
X0561426Y0149835D01*
X0561546Y0149782D01*
X0561665Y0149725D01*
X0561782Y0149665D01*
X0561896Y0149601D01*
X0562009Y0149533D01*
X0562120Y0149462D01*
X0562229Y0149388D01*
X0562335Y0149311D01*
X0562439Y0149230D01*
X0562540Y0149147D01*
X0562639Y0149060D01*
X0562735Y0148970D01*
X0562828Y0148877D01*
X0562919Y0148782D01*
X0563006Y0148684D01*
X0563091Y0148583D01*
X0563172Y0148480D01*
X0563250Y0148374D01*
X0563325Y0148266D01*
X0563397Y0148156D01*
X0563465Y0148044D01*
X0563530Y0147930D01*
X0563591Y0147813D01*
X0563649Y0147695D01*
X0563703Y0147575D01*
X0563754Y0147454D01*
X0563801Y0147331D01*
X0563844Y0147207D01*
X0563883Y0147082D01*
X0563919Y0146955D01*
X0563950Y0146827D01*
X0563978Y0146699D01*
X0564002Y0146570D01*
X0564022Y0146440D01*
X0564038Y0146309D01*
X0564050Y0146178D01*
X0564058Y0146047D01*
X0564062Y0145916D01*
X0564062Y0145784D01*
X0564058Y0145653D01*
X0564050Y0145522D01*
X0564038Y0145391D01*
X0564022Y0145260D01*
X0564002Y0145130D01*
X0563978Y0145001D01*
X0563950Y0144873D01*
X0563919Y0144745D01*
X0563883Y0144618D01*
X0563844Y0144493D01*
X0563801Y0144369D01*
X0563754Y0144246D01*
X0563703Y0144125D01*
X0563649Y0144005D01*
X0563591Y0143887D01*
X0563530Y0143770D01*
X0563465Y0143656D01*
X0563397Y0143544D01*
X0563325Y0143434D01*
X0563250Y0143326D01*
X0563172Y0143220D01*
X0563091Y0143117D01*
X0563006Y0143016D01*
X0562919Y0142918D01*
X0562828Y0142823D01*
X0562735Y0142730D01*
X0562639Y0142640D01*
X0562540Y0142553D01*
X0562439Y0142470D01*
X0562335Y0142389D01*
X0562229Y0142312D01*
X0562120Y0142238D01*
X0562009Y0142167D01*
X0561897Y0142099D01*
X0561782Y0142035D01*
X0561665Y0141975D01*
X0561546Y0141918D01*
X0561426Y0141865D01*
X0561305Y0141815D01*
X0561181Y0141769D01*
X0561057Y0141727D01*
X0560931Y0141689D01*
X0560804Y0141654D01*
X0560676Y0141623D01*
X0560548Y0141597D01*
X0560418Y0141574D01*
X0560288Y0141555D01*
X0560158Y0141540D01*
X0560027Y0141529D01*
X0559895Y0141522D01*
X0559764Y0141519D01*
X0559632Y0141520D01*
X0559501Y0141525D01*
X0559370Y0141534D01*
X0559239Y0141547D01*
X0559109Y0141564D01*
X0558979Y0141585D01*
X0558850Y0141610D01*
X0558722Y0141638D01*
X0558594Y0141671D01*
X0558468Y0141707D01*
X0558343Y0141748D01*
X0558219Y0141792D01*
X0558096Y0141839D01*
X0557975Y0141891D01*
X0557856Y0141946D01*
X0557738Y0142005D01*
X0557623Y0142067D01*
X0557509Y0142133D01*
X0557397Y0142202D01*
X0557287Y0142274D01*
X0557180Y0142350D01*
X0557075Y0142429D01*
X0556972Y0142511D01*
X0556872Y0142596D01*
X0556775Y0142685D01*
X0556680Y0142776D01*
X0556588Y0142870D01*
X0556499Y0142967D01*
X0556413Y0143066D01*
X0556330Y0143168D01*
X0556250Y0143273D01*
X0556174Y0143379D01*
X0556101Y0143488D01*
X0556031Y0143600D01*
X0555964Y0143713D01*
X0555901Y0143828D01*
X0555841Y0143946D01*
X0555785Y0144064D01*
X0555733Y0144185D01*
X0555684Y0144307D01*
X0555639Y0144431D01*
X0555598Y0144555D01*
X0555561Y0144682D01*
X0555527Y0144809D01*
X0555497Y0144937D01*
X0555472Y0145066D01*
X0555450Y0145195D01*
X0555432Y0145325D01*
X0555418Y0145456D01*
X0555408Y0145587D01*
X0555402Y0145719D01*
X0555400Y0145850D01*
X0555400Y0070681D02*
X0555402Y0070812D01*
X0555408Y0070944D01*
X0555418Y0071075D01*
X0555432Y0071206D01*
X0555450Y0071336D01*
X0555472Y0071465D01*
X0555497Y0071594D01*
X0555527Y0071722D01*
X0555561Y0071849D01*
X0555598Y0071976D01*
X0555639Y0072100D01*
X0555684Y0072224D01*
X0555733Y0072346D01*
X0555785Y0072467D01*
X0555841Y0072585D01*
X0555901Y0072703D01*
X0555964Y0072818D01*
X0556031Y0072931D01*
X0556101Y0073043D01*
X0556174Y0073152D01*
X0556250Y0073258D01*
X0556330Y0073363D01*
X0556413Y0073465D01*
X0556499Y0073564D01*
X0556588Y0073661D01*
X0556680Y0073755D01*
X0556775Y0073846D01*
X0556872Y0073935D01*
X0556972Y0074020D01*
X0557075Y0074102D01*
X0557180Y0074181D01*
X0557287Y0074257D01*
X0557397Y0074329D01*
X0557509Y0074398D01*
X0557623Y0074464D01*
X0557738Y0074526D01*
X0557856Y0074585D01*
X0557975Y0074640D01*
X0558096Y0074692D01*
X0558219Y0074739D01*
X0558343Y0074783D01*
X0558468Y0074824D01*
X0558594Y0074860D01*
X0558722Y0074893D01*
X0558850Y0074921D01*
X0558979Y0074946D01*
X0559109Y0074967D01*
X0559239Y0074984D01*
X0559370Y0074997D01*
X0559501Y0075006D01*
X0559632Y0075011D01*
X0559764Y0075012D01*
X0559895Y0075009D01*
X0560027Y0075002D01*
X0560158Y0074991D01*
X0560288Y0074976D01*
X0560418Y0074957D01*
X0560548Y0074934D01*
X0560676Y0074908D01*
X0560804Y0074877D01*
X0560931Y0074842D01*
X0561057Y0074804D01*
X0561181Y0074762D01*
X0561305Y0074716D01*
X0561426Y0074666D01*
X0561546Y0074613D01*
X0561665Y0074556D01*
X0561782Y0074496D01*
X0561896Y0074432D01*
X0562009Y0074364D01*
X0562120Y0074293D01*
X0562229Y0074219D01*
X0562335Y0074142D01*
X0562439Y0074061D01*
X0562540Y0073978D01*
X0562639Y0073891D01*
X0562735Y0073801D01*
X0562828Y0073708D01*
X0562919Y0073613D01*
X0563006Y0073515D01*
X0563091Y0073414D01*
X0563172Y0073311D01*
X0563250Y0073205D01*
X0563325Y0073097D01*
X0563397Y0072987D01*
X0563465Y0072875D01*
X0563530Y0072761D01*
X0563591Y0072644D01*
X0563649Y0072526D01*
X0563703Y0072406D01*
X0563754Y0072285D01*
X0563801Y0072162D01*
X0563844Y0072038D01*
X0563883Y0071913D01*
X0563919Y0071786D01*
X0563950Y0071658D01*
X0563978Y0071530D01*
X0564002Y0071401D01*
X0564022Y0071271D01*
X0564038Y0071140D01*
X0564050Y0071009D01*
X0564058Y0070878D01*
X0564062Y0070747D01*
X0564062Y0070615D01*
X0564058Y0070484D01*
X0564050Y0070353D01*
X0564038Y0070222D01*
X0564022Y0070091D01*
X0564002Y0069961D01*
X0563978Y0069832D01*
X0563950Y0069704D01*
X0563919Y0069576D01*
X0563883Y0069449D01*
X0563844Y0069324D01*
X0563801Y0069200D01*
X0563754Y0069077D01*
X0563703Y0068956D01*
X0563649Y0068836D01*
X0563591Y0068718D01*
X0563530Y0068601D01*
X0563465Y0068487D01*
X0563397Y0068375D01*
X0563325Y0068265D01*
X0563250Y0068157D01*
X0563172Y0068051D01*
X0563091Y0067948D01*
X0563006Y0067847D01*
X0562919Y0067749D01*
X0562828Y0067654D01*
X0562735Y0067561D01*
X0562639Y0067471D01*
X0562540Y0067384D01*
X0562439Y0067301D01*
X0562335Y0067220D01*
X0562229Y0067143D01*
X0562120Y0067069D01*
X0562009Y0066998D01*
X0561897Y0066930D01*
X0561782Y0066866D01*
X0561665Y0066806D01*
X0561546Y0066749D01*
X0561426Y0066696D01*
X0561305Y0066646D01*
X0561181Y0066600D01*
X0561057Y0066558D01*
X0560931Y0066520D01*
X0560804Y0066485D01*
X0560676Y0066454D01*
X0560548Y0066428D01*
X0560418Y0066405D01*
X0560288Y0066386D01*
X0560158Y0066371D01*
X0560027Y0066360D01*
X0559895Y0066353D01*
X0559764Y0066350D01*
X0559632Y0066351D01*
X0559501Y0066356D01*
X0559370Y0066365D01*
X0559239Y0066378D01*
X0559109Y0066395D01*
X0558979Y0066416D01*
X0558850Y0066441D01*
X0558722Y0066469D01*
X0558594Y0066502D01*
X0558468Y0066538D01*
X0558343Y0066579D01*
X0558219Y0066623D01*
X0558096Y0066670D01*
X0557975Y0066722D01*
X0557856Y0066777D01*
X0557738Y0066836D01*
X0557623Y0066898D01*
X0557509Y0066964D01*
X0557397Y0067033D01*
X0557287Y0067105D01*
X0557180Y0067181D01*
X0557075Y0067260D01*
X0556972Y0067342D01*
X0556872Y0067427D01*
X0556775Y0067516D01*
X0556680Y0067607D01*
X0556588Y0067701D01*
X0556499Y0067798D01*
X0556413Y0067897D01*
X0556330Y0067999D01*
X0556250Y0068104D01*
X0556174Y0068210D01*
X0556101Y0068319D01*
X0556031Y0068431D01*
X0555964Y0068544D01*
X0555901Y0068659D01*
X0555841Y0068777D01*
X0555785Y0068895D01*
X0555733Y0069016D01*
X0555684Y0069138D01*
X0555639Y0069262D01*
X0555598Y0069386D01*
X0555561Y0069513D01*
X0555527Y0069640D01*
X0555497Y0069768D01*
X0555472Y0069897D01*
X0555450Y0070026D01*
X0555432Y0070156D01*
X0555418Y0070287D01*
X0555408Y0070418D01*
X0555402Y0070550D01*
X0555400Y0070681D01*
D11*
X0547231Y0070681D03*
X0537231Y0070681D03*
X0577231Y0070681D03*
X0577231Y0145850D03*
X0547231Y0145850D03*
X0537231Y0145850D03*
X0537104Y0220638D03*
X0547104Y0220638D03*
X0577104Y0220638D03*
X0577104Y0296315D03*
X0547104Y0296315D03*
X0537104Y0296315D03*
X0537104Y0371865D03*
X0547104Y0371865D03*
X0577104Y0371865D03*
X0576948Y0445713D03*
X0546948Y0445713D03*
X0536948Y0445713D03*
X0064100Y0446082D03*
X0054100Y0446082D03*
X0024100Y0446082D03*
X0024100Y0371082D03*
X0054100Y0371082D03*
X0064100Y0371082D03*
X0064100Y0296082D03*
X0054100Y0296082D03*
X0024100Y0296082D03*
X0024100Y0221082D03*
X0054100Y0221082D03*
X0064100Y0221082D03*
X0064100Y0146082D03*
X0054100Y0146082D03*
X0024100Y0146082D03*
X0024100Y0066082D03*
X0054100Y0066082D03*
X0064100Y0066082D03*
D12*
X0041600Y0066082D03*
X0041600Y0146082D03*
X0041600Y0221082D03*
X0041600Y0296082D03*
X0041600Y0371082D03*
X0041600Y0446082D03*
X0559448Y0445713D03*
X0559604Y0371865D03*
X0559604Y0296315D03*
X0559604Y0220638D03*
X0559731Y0145850D03*
X0559731Y0070681D03*
D13*
X0505470Y0102783D02*
X0497730Y0102783D01*
X0497730Y0114382D01*
X0505470Y0114382D01*
X0505470Y0102783D01*
X0430470Y0102783D02*
X0422730Y0102783D01*
X0422730Y0114382D01*
X0430470Y0114382D01*
X0430470Y0102783D01*
X0350470Y0102783D02*
X0342730Y0102783D01*
X0342730Y0114382D01*
X0350470Y0114382D01*
X0350470Y0102783D01*
X0275470Y0102783D02*
X0267730Y0102783D01*
X0267730Y0114382D01*
X0275470Y0114382D01*
X0275470Y0102783D01*
X0200470Y0102783D02*
X0192730Y0102783D01*
X0192730Y0114382D01*
X0200470Y0114382D01*
X0200470Y0102783D01*
X0181720Y0102783D02*
X0173980Y0102783D01*
X0173980Y0114382D01*
X0181720Y0114382D01*
X0181720Y0102783D01*
X0181720Y0115283D02*
X0173980Y0115283D01*
X0173980Y0126882D01*
X0181720Y0126882D01*
X0181720Y0115283D01*
X0170470Y0130283D02*
X0162730Y0130283D01*
X0162730Y0141882D01*
X0170470Y0141882D01*
X0170470Y0130283D01*
X0140470Y0125632D02*
X0140470Y0114033D01*
X0132730Y0114033D01*
X0132730Y0125632D01*
X0140470Y0125632D01*
X0140470Y0113132D02*
X0132730Y0113132D01*
X0132730Y0101533D01*
X0140470Y0101533D01*
X0140470Y0113132D01*
X0141480Y0103132D02*
X0149220Y0103132D01*
X0149220Y0091533D01*
X0141480Y0091533D01*
X0141480Y0103132D01*
X0117399Y0102212D02*
X0105801Y0102212D01*
X0105801Y0109952D01*
X0117399Y0109952D01*
X0117399Y0102212D01*
X0162730Y0060632D02*
X0170470Y0060632D01*
X0170470Y0049033D01*
X0162730Y0049033D01*
X0162730Y0060632D01*
X0172730Y0046882D02*
X0180470Y0046882D01*
X0180470Y0035283D01*
X0172730Y0035283D01*
X0172730Y0046882D01*
X0172730Y0034382D02*
X0180470Y0034382D01*
X0180470Y0022783D01*
X0172730Y0022783D01*
X0172730Y0034382D01*
X0150470Y0024382D02*
X0142730Y0024382D01*
X0142730Y0012783D01*
X0150470Y0012783D01*
X0150470Y0024382D01*
X0140470Y0021533D02*
X0140470Y0033132D01*
X0132730Y0033132D01*
X0132730Y0021533D01*
X0140470Y0021533D01*
X0140470Y0034033D02*
X0132730Y0034033D01*
X0132730Y0045632D01*
X0140470Y0045632D01*
X0140470Y0034033D01*
X0117399Y0029952D02*
X0117399Y0022212D01*
X0105801Y0022212D01*
X0105801Y0029952D01*
X0117399Y0029952D01*
X0192730Y0034382D02*
X0192730Y0022783D01*
X0200470Y0022783D01*
X0200470Y0034382D01*
X0192730Y0034382D01*
X0267730Y0033132D02*
X0267730Y0021533D01*
X0275470Y0021533D01*
X0275470Y0033132D01*
X0267730Y0033132D01*
X0342730Y0033132D02*
X0342730Y0021533D01*
X0350470Y0021533D01*
X0350470Y0033132D01*
X0342730Y0033132D01*
X0422730Y0033132D02*
X0422730Y0021533D01*
X0430470Y0021533D01*
X0430470Y0033132D01*
X0422730Y0033132D01*
X0497730Y0034382D02*
X0497730Y0022783D01*
X0505470Y0022783D01*
X0505470Y0034382D01*
X0497730Y0034382D01*
X0497730Y0177783D02*
X0505470Y0177783D01*
X0505470Y0189382D01*
X0497730Y0189382D01*
X0497730Y0177783D01*
X0430470Y0177783D02*
X0422730Y0177783D01*
X0422730Y0189382D01*
X0430470Y0189382D01*
X0430470Y0177783D01*
X0350470Y0177783D02*
X0342730Y0177783D01*
X0342730Y0189382D01*
X0350470Y0189382D01*
X0350470Y0177783D01*
X0275470Y0177783D02*
X0267730Y0177783D01*
X0267730Y0189382D01*
X0275470Y0189382D01*
X0275470Y0177783D01*
X0200470Y0177783D02*
X0192730Y0177783D01*
X0192730Y0189382D01*
X0200470Y0189382D01*
X0200470Y0177783D01*
X0181720Y0179033D02*
X0181720Y0190632D01*
X0173980Y0190632D01*
X0173980Y0179033D01*
X0181720Y0179033D01*
X0181720Y0191533D02*
X0173980Y0191533D01*
X0173980Y0203132D01*
X0181720Y0203132D01*
X0181720Y0191533D01*
X0170470Y0204033D02*
X0162730Y0204033D01*
X0162730Y0215632D01*
X0170470Y0215632D01*
X0170470Y0204033D01*
X0140470Y0200632D02*
X0140470Y0189033D01*
X0132730Y0189033D01*
X0132730Y0200632D01*
X0140470Y0200632D01*
X0140470Y0188132D02*
X0132730Y0188132D01*
X0132730Y0176533D01*
X0140470Y0176533D01*
X0140470Y0188132D01*
X0142730Y0178132D02*
X0150470Y0178132D01*
X0150470Y0166533D01*
X0142730Y0166533D01*
X0142730Y0178132D01*
X0117399Y0177212D02*
X0105801Y0177212D01*
X0105801Y0184952D01*
X0117399Y0184952D01*
X0117399Y0177212D01*
X0042399Y0184712D02*
X0030801Y0184712D01*
X0030801Y0192452D01*
X0042399Y0192452D01*
X0042399Y0184712D01*
X0105801Y0252212D02*
X0105801Y0259952D01*
X0117399Y0259952D01*
X0117399Y0252212D01*
X0105801Y0252212D01*
X0132730Y0250283D02*
X0132730Y0261882D01*
X0140470Y0261882D01*
X0140470Y0250283D01*
X0132730Y0250283D01*
X0142730Y0253132D02*
X0150470Y0253132D01*
X0150470Y0241533D01*
X0142730Y0241533D01*
X0142730Y0253132D01*
X0140470Y0262783D02*
X0132730Y0262783D01*
X0132730Y0274382D01*
X0140470Y0274382D01*
X0140470Y0262783D01*
X0162730Y0279033D02*
X0162730Y0290632D01*
X0170470Y0290632D01*
X0170470Y0279033D01*
X0162730Y0279033D01*
X0173980Y0278132D02*
X0173980Y0266533D01*
X0181720Y0266533D01*
X0181720Y0278132D01*
X0173980Y0278132D01*
X0173980Y0265632D02*
X0181720Y0265632D01*
X0181720Y0254033D01*
X0173980Y0254033D01*
X0173980Y0265632D01*
X0192730Y0264382D02*
X0192730Y0252783D01*
X0200470Y0252783D01*
X0200470Y0264382D01*
X0192730Y0264382D01*
X0150470Y0315283D02*
X0142730Y0315283D01*
X0142730Y0326882D01*
X0150470Y0326882D01*
X0150470Y0315283D01*
X0140470Y0327783D02*
X0132730Y0327783D01*
X0132730Y0339382D01*
X0140470Y0339382D01*
X0140470Y0327783D01*
X0140470Y0339033D02*
X0132730Y0339033D01*
X0132730Y0350632D01*
X0140470Y0350632D01*
X0140470Y0339033D01*
X0117399Y0334952D02*
X0117399Y0327212D01*
X0105801Y0327212D01*
X0105801Y0334952D01*
X0117399Y0334952D01*
X0163980Y0356533D02*
X0163980Y0368132D01*
X0171720Y0368132D01*
X0171720Y0356533D01*
X0163980Y0356533D01*
X0172730Y0353132D02*
X0180470Y0353132D01*
X0180470Y0341533D01*
X0172730Y0341533D01*
X0172730Y0353132D01*
X0172730Y0340632D02*
X0180470Y0340632D01*
X0180470Y0329033D01*
X0172730Y0329033D01*
X0172730Y0340632D01*
X0192730Y0339382D02*
X0192730Y0327783D01*
X0200470Y0327783D01*
X0200470Y0339382D01*
X0192730Y0339382D01*
X0192730Y0402783D02*
X0200470Y0402783D01*
X0200470Y0414382D01*
X0192730Y0414382D01*
X0192730Y0402783D01*
X0180470Y0410283D02*
X0172730Y0410283D01*
X0172730Y0421882D01*
X0180470Y0421882D01*
X0180470Y0410283D01*
X0180470Y0422783D02*
X0172730Y0422783D01*
X0172730Y0434382D01*
X0180470Y0434382D01*
X0180470Y0422783D01*
X0169899Y0432212D02*
X0169899Y0439952D01*
X0158301Y0439952D01*
X0158301Y0432212D01*
X0169899Y0432212D01*
X0144899Y0409952D02*
X0144899Y0402212D01*
X0133301Y0402212D01*
X0133301Y0409952D01*
X0144899Y0409952D01*
X0140470Y0410283D02*
X0132730Y0410283D01*
X0132730Y0421882D01*
X0140470Y0421882D01*
X0140470Y0410283D01*
X0140470Y0422783D02*
X0132730Y0422783D01*
X0132730Y0434382D01*
X0140470Y0434382D01*
X0140470Y0422783D01*
X0117399Y0409952D02*
X0117399Y0402212D01*
X0105801Y0402212D01*
X0105801Y0409952D01*
X0117399Y0409952D01*
X0041149Y0409712D02*
X0029551Y0409712D01*
X0029551Y0417452D01*
X0041149Y0417452D01*
X0041149Y0409712D01*
X0043649Y0341202D02*
X0032051Y0341202D01*
X0032051Y0333462D01*
X0043649Y0333462D01*
X0043649Y0341202D01*
X0041149Y0266202D02*
X0029551Y0266202D01*
X0029551Y0258462D01*
X0041149Y0258462D01*
X0041149Y0266202D01*
X0041149Y0116202D02*
X0029551Y0116202D01*
X0029551Y0108462D01*
X0041149Y0108462D01*
X0041149Y0116202D01*
X0041149Y0032452D02*
X0029551Y0032452D01*
X0029551Y0024712D01*
X0041149Y0024712D01*
X0041149Y0032452D01*
X0267730Y0252783D02*
X0275470Y0252783D01*
X0275470Y0264382D01*
X0267730Y0264382D01*
X0267730Y0252783D01*
X0342730Y0252783D02*
X0350470Y0252783D01*
X0350470Y0264382D01*
X0342730Y0264382D01*
X0342730Y0252783D01*
X0422730Y0252783D02*
X0430470Y0252783D01*
X0430470Y0264382D01*
X0422730Y0264382D01*
X0422730Y0252783D01*
X0497730Y0252783D02*
X0505470Y0252783D01*
X0505470Y0264382D01*
X0497730Y0264382D01*
X0497730Y0252783D01*
X0497730Y0327783D02*
X0505470Y0327783D01*
X0505470Y0339382D01*
X0497730Y0339382D01*
X0497730Y0327783D01*
X0430470Y0327783D02*
X0422730Y0327783D01*
X0422730Y0339382D01*
X0430470Y0339382D01*
X0430470Y0327783D01*
X0350470Y0327783D02*
X0342730Y0327783D01*
X0342730Y0339382D01*
X0350470Y0339382D01*
X0350470Y0327783D01*
X0275470Y0327783D02*
X0267730Y0327783D01*
X0267730Y0339382D01*
X0275470Y0339382D01*
X0275470Y0327783D01*
X0275470Y0402783D02*
X0267730Y0402783D01*
X0267730Y0414382D01*
X0275470Y0414382D01*
X0275470Y0402783D01*
X0342730Y0402783D02*
X0350470Y0402783D01*
X0350470Y0414382D01*
X0342730Y0414382D01*
X0342730Y0402783D01*
X0422730Y0402783D02*
X0430470Y0402783D01*
X0430470Y0414382D01*
X0422730Y0414382D01*
X0422730Y0402783D01*
X0497730Y0402783D02*
X0505470Y0402783D01*
X0505470Y0414382D01*
X0497730Y0414382D01*
X0497730Y0402783D01*
D14*
X0176600Y0412736D03*
X0176600Y0419429D03*
X0114946Y0406082D03*
X0108254Y0406082D03*
X0167850Y0365679D03*
X0167850Y0358986D03*
X0176600Y0350679D03*
X0176600Y0343986D03*
X0146600Y0324429D03*
X0146600Y0317736D03*
X0114946Y0331082D03*
X0108254Y0331082D03*
X0166600Y0288179D03*
X0166600Y0281486D03*
X0177850Y0275679D03*
X0177850Y0268986D03*
X0146600Y0250679D03*
X0146600Y0243986D03*
X0114946Y0256082D03*
X0108254Y0256082D03*
X0166600Y0213179D03*
X0166600Y0206486D03*
X0177850Y0200679D03*
X0177850Y0193986D03*
X0146600Y0175679D03*
X0146600Y0168986D03*
X0114946Y0181082D03*
X0108254Y0181082D03*
X0166600Y0139429D03*
X0166600Y0132736D03*
X0177850Y0124429D03*
X0177850Y0117736D03*
X0145350Y0100679D03*
X0145350Y0093986D03*
X0114946Y0106082D03*
X0108254Y0106082D03*
X0166600Y0058179D03*
X0166600Y0051486D03*
X0176600Y0044429D03*
X0176600Y0037736D03*
X0146600Y0021929D03*
X0146600Y0015236D03*
X0114946Y0026082D03*
X0108254Y0026082D03*
X0038696Y0028582D03*
X0032004Y0028582D03*
X0032004Y0112332D03*
X0038696Y0112332D03*
X0039946Y0188582D03*
X0033254Y0188582D03*
X0032004Y0262332D03*
X0038696Y0262332D03*
X0041196Y0337332D03*
X0034504Y0337332D03*
X0032004Y0413582D03*
X0038696Y0413582D03*
D15*
X0135754Y0406082D03*
X0142446Y0406082D03*
X0136600Y0412736D03*
X0136600Y0419429D03*
X0136600Y0425236D03*
X0136600Y0431929D03*
X0160754Y0436082D03*
X0167446Y0436082D03*
X0176600Y0431929D03*
X0176600Y0425236D03*
X0196600Y0411929D03*
X0196600Y0405236D03*
X0136600Y0348179D03*
X0136600Y0341486D03*
X0136600Y0336929D03*
X0136600Y0330236D03*
X0176600Y0331486D03*
X0176600Y0338179D03*
X0196600Y0336929D03*
X0196600Y0330236D03*
X0136600Y0271929D03*
X0136600Y0265236D03*
X0136600Y0259429D03*
X0136600Y0252736D03*
X0177850Y0256486D03*
X0177850Y0263179D03*
X0196600Y0261929D03*
X0196600Y0255236D03*
X0136600Y0198179D03*
X0136600Y0191486D03*
X0136600Y0185679D03*
X0136600Y0178986D03*
X0177850Y0181486D03*
X0177850Y0188179D03*
X0196600Y0186929D03*
X0196600Y0180236D03*
X0136600Y0123179D03*
X0136600Y0116486D03*
X0136600Y0110679D03*
X0136600Y0103986D03*
X0177850Y0105236D03*
X0177850Y0111929D03*
X0196600Y0111929D03*
X0196600Y0105236D03*
X0271600Y0105236D03*
X0271600Y0111929D03*
X0346600Y0111929D03*
X0346600Y0105236D03*
X0426600Y0105236D03*
X0426600Y0111929D03*
X0501600Y0111929D03*
X0501600Y0105236D03*
X0501600Y0031929D03*
X0501600Y0025236D03*
X0426600Y0023986D03*
X0426600Y0030679D03*
X0346600Y0030679D03*
X0346600Y0023986D03*
X0271600Y0023986D03*
X0271600Y0030679D03*
X0196600Y0031929D03*
X0196600Y0025236D03*
X0176600Y0025236D03*
X0176600Y0031929D03*
X0136600Y0030679D03*
X0136600Y0036486D03*
X0136600Y0043179D03*
X0136600Y0023986D03*
X0271600Y0180236D03*
X0271600Y0186929D03*
X0346600Y0186929D03*
X0346600Y0180236D03*
X0426600Y0180236D03*
X0426600Y0186929D03*
X0501600Y0186929D03*
X0501600Y0180236D03*
X0501600Y0255236D03*
X0501600Y0261929D03*
X0426600Y0261929D03*
X0426600Y0255236D03*
X0346600Y0255236D03*
X0346600Y0261929D03*
X0271600Y0261929D03*
X0271600Y0255236D03*
X0271600Y0330236D03*
X0271600Y0336929D03*
X0346600Y0336929D03*
X0346600Y0330236D03*
X0426600Y0330236D03*
X0426600Y0336929D03*
X0501600Y0336929D03*
X0501600Y0330236D03*
X0501600Y0405236D03*
X0501600Y0411929D03*
X0426600Y0411929D03*
X0426600Y0405236D03*
X0346600Y0405236D03*
X0346600Y0411929D03*
X0271600Y0411929D03*
X0271600Y0405236D03*
D16*
X0166836Y0413582D03*
X0166836Y0418582D03*
X0166836Y0423582D03*
X0166836Y0428582D03*
X0146364Y0428582D03*
X0146364Y0423582D03*
X0146364Y0418582D03*
X0146364Y0413582D03*
X0146364Y0348582D03*
X0146364Y0343582D03*
X0146364Y0338582D03*
X0146364Y0333582D03*
X0166836Y0333582D03*
X0166836Y0338582D03*
X0166836Y0343582D03*
X0166836Y0348582D03*
X0166836Y0273582D03*
X0166836Y0268582D03*
X0166836Y0263582D03*
X0166836Y0258582D03*
X0146364Y0258582D03*
X0146364Y0263582D03*
X0146364Y0268582D03*
X0146364Y0273582D03*
X0146364Y0198582D03*
X0146364Y0193582D03*
X0146364Y0188582D03*
X0146364Y0183582D03*
X0166836Y0183582D03*
X0166836Y0188582D03*
X0166836Y0193582D03*
X0166836Y0198582D03*
X0166836Y0123582D03*
X0166836Y0118582D03*
X0166836Y0113582D03*
X0166836Y0108582D03*
X0146364Y0108582D03*
X0146364Y0113582D03*
X0146364Y0118582D03*
X0146364Y0123582D03*
X0146364Y0043582D03*
X0146364Y0038582D03*
X0146364Y0033582D03*
X0146364Y0028582D03*
X0166836Y0028582D03*
X0166836Y0033582D03*
X0166836Y0038582D03*
X0166836Y0043582D03*
D17*
X0082850Y0064832D03*
X0072850Y0064832D03*
X0074100Y0144832D03*
X0084100Y0144832D03*
X0086600Y0219832D03*
X0076600Y0219832D03*
X0074100Y0294832D03*
X0084100Y0294832D03*
X0082850Y0369832D03*
X0072850Y0369832D03*
X0074100Y0444832D03*
X0084100Y0444832D03*
D18*
X0040931Y0422332D03*
X0032269Y0418592D03*
X0032269Y0426073D03*
X0034769Y0351073D03*
X0034769Y0343592D03*
X0043431Y0347332D03*
X0032269Y0276073D03*
X0040931Y0272332D03*
X0032269Y0268592D03*
X0033519Y0201073D03*
X0033519Y0193592D03*
X0042181Y0197332D03*
X0032269Y0126073D03*
X0040931Y0122332D03*
X0032269Y0118592D03*
X0032269Y0046073D03*
X0040931Y0042332D03*
X0032269Y0038592D03*
D19*
X0106757Y0038523D03*
X0116600Y0038523D03*
X0126443Y0038523D03*
X0186757Y0038523D03*
X0196600Y0038523D03*
X0206443Y0038523D03*
X0261757Y0038523D03*
X0271600Y0038523D03*
X0281443Y0038523D03*
X0336757Y0038523D03*
X0346600Y0038523D03*
X0356443Y0038523D03*
X0416757Y0038523D03*
X0426600Y0038523D03*
X0436443Y0038523D03*
X0491757Y0038523D03*
X0501600Y0038523D03*
X0511443Y0038523D03*
X0511443Y0118523D03*
X0501600Y0118523D03*
X0491757Y0118523D03*
X0436443Y0118523D03*
X0426600Y0118523D03*
X0416757Y0118523D03*
X0356443Y0118523D03*
X0346600Y0118523D03*
X0336757Y0118523D03*
X0281443Y0118523D03*
X0271600Y0118523D03*
X0261757Y0118523D03*
X0206443Y0118523D03*
X0196600Y0118523D03*
X0186757Y0118523D03*
X0126443Y0118523D03*
X0116600Y0118523D03*
X0106757Y0118523D03*
X0106757Y0193523D03*
X0116600Y0193523D03*
X0126443Y0193523D03*
X0186757Y0193523D03*
X0196600Y0193523D03*
X0206443Y0193523D03*
X0261757Y0193523D03*
X0271600Y0193523D03*
X0281443Y0193523D03*
X0336757Y0193523D03*
X0346600Y0193523D03*
X0356443Y0193523D03*
X0416757Y0193523D03*
X0426600Y0193523D03*
X0436443Y0193523D03*
X0491757Y0193523D03*
X0501600Y0193523D03*
X0511443Y0193523D03*
X0511443Y0268523D03*
X0501600Y0268523D03*
X0491757Y0268523D03*
X0436443Y0268523D03*
X0426600Y0268523D03*
X0416757Y0268523D03*
X0356443Y0268523D03*
X0346600Y0268523D03*
X0336757Y0268523D03*
X0281443Y0268523D03*
X0271600Y0268523D03*
X0261757Y0268523D03*
X0206443Y0268523D03*
X0196600Y0268523D03*
X0186757Y0268523D03*
X0126443Y0268523D03*
X0116600Y0268523D03*
X0106757Y0268523D03*
X0106757Y0343523D03*
X0116600Y0343523D03*
X0126443Y0343523D03*
X0186757Y0343523D03*
X0196600Y0343523D03*
X0206443Y0343523D03*
X0261757Y0343523D03*
X0271600Y0343523D03*
X0281443Y0343523D03*
X0336757Y0343523D03*
X0346600Y0343523D03*
X0356443Y0343523D03*
X0416757Y0343523D03*
X0426600Y0343523D03*
X0436443Y0343523D03*
X0491757Y0343523D03*
X0501600Y0343523D03*
X0511443Y0343523D03*
X0511443Y0418523D03*
X0501600Y0418523D03*
X0491757Y0418523D03*
X0436443Y0418523D03*
X0426600Y0418523D03*
X0416757Y0418523D03*
X0356443Y0418523D03*
X0346600Y0418523D03*
X0336757Y0418523D03*
X0281443Y0418523D03*
X0271600Y0418523D03*
X0261757Y0418523D03*
X0206443Y0418523D03*
X0196600Y0418523D03*
X0186757Y0418523D03*
X0126443Y0418523D03*
X0116600Y0418523D03*
X0106757Y0418523D03*
D20*
X0098096Y0446082D03*
X0135104Y0446082D03*
X0178096Y0446082D03*
X0215104Y0446082D03*
X0253096Y0446082D03*
X0290104Y0446082D03*
X0328096Y0446082D03*
X0365104Y0446082D03*
X0408096Y0446082D03*
X0445104Y0446082D03*
X0483096Y0446082D03*
X0520104Y0446082D03*
X0520104Y0371082D03*
X0483096Y0371082D03*
X0445104Y0371082D03*
X0408096Y0371082D03*
X0365104Y0371082D03*
X0328096Y0371082D03*
X0290104Y0371082D03*
X0253096Y0371082D03*
X0215104Y0371082D03*
X0178096Y0371082D03*
X0135104Y0371082D03*
X0098096Y0371082D03*
X0098096Y0296082D03*
X0135104Y0296082D03*
X0178096Y0296082D03*
X0215104Y0296082D03*
X0253096Y0296082D03*
X0290104Y0296082D03*
X0328096Y0296082D03*
X0365104Y0296082D03*
X0408096Y0296082D03*
X0445104Y0296082D03*
X0483096Y0296082D03*
X0520104Y0296082D03*
X0520104Y0221082D03*
X0483096Y0221082D03*
X0445104Y0221082D03*
X0408096Y0221082D03*
X0365104Y0221082D03*
X0328096Y0221082D03*
X0290104Y0221082D03*
X0253096Y0221082D03*
X0215104Y0221082D03*
X0178096Y0221082D03*
X0135104Y0221082D03*
X0098096Y0221082D03*
X0098096Y0146082D03*
X0135104Y0146082D03*
X0178096Y0146082D03*
X0215104Y0146082D03*
X0253096Y0146082D03*
X0290104Y0146082D03*
X0328096Y0146082D03*
X0365104Y0146082D03*
X0408096Y0146082D03*
X0445104Y0146082D03*
X0483096Y0146082D03*
X0520104Y0146082D03*
X0520104Y0066082D03*
X0483096Y0066082D03*
X0445104Y0066082D03*
X0408096Y0066082D03*
X0365104Y0066082D03*
X0328096Y0066082D03*
X0290104Y0066082D03*
X0253096Y0066082D03*
X0215104Y0066082D03*
X0178096Y0066082D03*
X0135104Y0066082D03*
X0098096Y0066082D03*
D21*
X0560301Y0041082D03*
X0572899Y0041082D03*
X0576649Y0116082D03*
X0564051Y0116082D03*
X0562801Y0191082D03*
X0575399Y0191082D03*
X0579149Y0266082D03*
X0566551Y0266082D03*
X0565301Y0341082D03*
X0577899Y0341082D03*
X0576649Y0416082D03*
X0564051Y0416082D03*
D22*
X0469739Y0429184D03*
X0459739Y0429184D03*
X0459739Y0439184D03*
X0469739Y0439184D03*
X0469739Y0449184D03*
X0459739Y0449184D03*
X0459739Y0459184D03*
X0469739Y0459184D03*
X0469739Y0469184D03*
X0459739Y0469184D03*
D23*
X0159100Y0423582D03*
X0157850Y0431082D03*
X0160350Y0201082D03*
D24*
X0156600Y0186082D03*
X0156600Y0216082D03*
X0186600Y0247332D03*
X0204100Y0248582D03*
X0156600Y0261082D03*
X0156600Y0291082D03*
X0125350Y0249832D03*
X0125350Y0181082D03*
X0156600Y0136082D03*
X0146600Y0131082D03*
X0125350Y0101082D03*
X0176600Y0056082D03*
X0156600Y0046082D03*
X0143360Y0047842D03*
X0136600Y0051082D03*
X0126600Y0021082D03*
X0201600Y0021082D03*
X0187850Y0096082D03*
X0257850Y0131082D03*
X0280350Y0169832D03*
X0280350Y0179832D03*
X0339100Y0132332D03*
X0354100Y0096082D03*
X0447850Y0109832D03*
X0447850Y0127332D03*
X0506600Y0101082D03*
X0446600Y0046082D03*
X0446600Y0033582D03*
X0506600Y0176082D03*
X0445350Y0184832D03*
X0445350Y0198582D03*
X0506600Y0251082D03*
X0444100Y0259832D03*
X0444100Y0276082D03*
X0506600Y0326082D03*
X0446600Y0338582D03*
X0446600Y0349832D03*
X0366600Y0349832D03*
X0366600Y0338582D03*
X0367850Y0274832D03*
X0367850Y0261082D03*
X0291600Y0263582D03*
X0291600Y0274832D03*
X0290350Y0337332D03*
X0290350Y0351082D03*
X0211600Y0331082D03*
X0211600Y0321082D03*
X0156600Y0341082D03*
X0161600Y0366082D03*
X0152850Y0407332D03*
X0146600Y0406082D03*
X0132759Y0411940D03*
X0121600Y0406082D03*
X0156600Y0419832D03*
X0171600Y0441082D03*
X0186600Y0426082D03*
X0192850Y0176082D03*
X0204100Y0176082D03*
M02*
