G75*
%MOIN*%
%OFA0B0*%
%FSLAX25Y25*%
%IPPOS*%
%LPD*%
%AMOC8*
5,1,8,0,0,1.08239X$1,22.5*
%
%ADD10C,0.00400*%
%ADD11C,0.00300*%
%ADD12R,0.01772X0.02756*%
%ADD13R,0.01575X0.02756*%
%ADD14C,0.00000*%
%ADD15C,0.01000*%
%ADD16R,0.03346X0.02953*%
%ADD17R,0.05315X0.03543*%
%ADD18R,0.02953X0.03346*%
%ADD19R,0.03543X0.05315*%
%ADD20R,0.02756X0.01772*%
%ADD21R,0.02756X0.01575*%
D10*
X0078032Y0077363D02*
X0082363Y0073032D01*
X0094568Y0073032D01*
X0094568Y0077954D01*
X0093104Y0078287D02*
X0091221Y0078287D01*
X0091221Y0077889D02*
X0092940Y0077889D01*
X0092993Y0077954D02*
X0091221Y0075788D01*
X0091221Y0086812D01*
X0091221Y0087009D01*
X0092993Y0084646D01*
X0093583Y0082678D01*
X0093583Y0079725D01*
X0092993Y0077954D01*
X0092614Y0077490D02*
X0091221Y0077490D01*
X0091221Y0077092D02*
X0092288Y0077092D01*
X0091962Y0076693D02*
X0091221Y0076693D01*
X0091221Y0076295D02*
X0091636Y0076295D01*
X0091310Y0075896D02*
X0091221Y0075896D01*
X0091024Y0075394D02*
X0091024Y0087206D01*
X0091221Y0086656D02*
X0091486Y0086656D01*
X0091221Y0086257D02*
X0091785Y0086257D01*
X0092084Y0085859D02*
X0091221Y0085859D01*
X0091221Y0085460D02*
X0092383Y0085460D01*
X0092681Y0085062D02*
X0091221Y0085062D01*
X0091221Y0084663D02*
X0092980Y0084663D01*
X0093107Y0084265D02*
X0091221Y0084265D01*
X0091221Y0083866D02*
X0093227Y0083866D01*
X0093347Y0083468D02*
X0091221Y0083468D01*
X0091221Y0083069D02*
X0093466Y0083069D01*
X0093583Y0082671D02*
X0091221Y0082671D01*
X0091221Y0082272D02*
X0093583Y0082272D01*
X0093583Y0081874D02*
X0091221Y0081874D01*
X0091221Y0081475D02*
X0093583Y0081475D01*
X0093583Y0081077D02*
X0091221Y0081077D01*
X0091221Y0080678D02*
X0093583Y0080678D01*
X0093583Y0080280D02*
X0091221Y0080280D01*
X0091221Y0079881D02*
X0093583Y0079881D01*
X0093503Y0079483D02*
X0091221Y0079483D01*
X0091221Y0079084D02*
X0093370Y0079084D01*
X0093237Y0078686D02*
X0091221Y0078686D01*
X0093189Y0084646D02*
X0093106Y0084813D01*
X0093019Y0084977D01*
X0092927Y0085140D01*
X0092832Y0085300D01*
X0092733Y0085457D01*
X0092630Y0085612D01*
X0092523Y0085765D01*
X0092412Y0085915D01*
X0092298Y0086062D01*
X0092181Y0086207D01*
X0092060Y0086348D01*
X0091935Y0086487D01*
X0091808Y0086622D01*
X0091677Y0086755D01*
X0091542Y0086884D01*
X0091405Y0087010D01*
X0091265Y0087132D01*
X0091121Y0087251D01*
X0090975Y0087367D01*
X0090826Y0087478D01*
X0090675Y0087587D01*
X0090521Y0087691D01*
X0090364Y0087792D01*
X0090205Y0087889D01*
X0090044Y0087982D01*
X0089880Y0088071D01*
X0089714Y0088156D01*
X0089547Y0088237D01*
X0089377Y0088314D01*
X0089205Y0088387D01*
X0089032Y0088455D01*
X0088857Y0088519D01*
X0088681Y0088579D01*
X0088503Y0088635D01*
X0088324Y0088687D01*
X0088144Y0088734D01*
X0087963Y0088776D01*
X0087781Y0088815D01*
X0087597Y0088848D01*
X0087414Y0088878D01*
X0087229Y0088902D01*
X0087044Y0088923D01*
X0086858Y0088939D01*
X0086672Y0088950D01*
X0086486Y0088957D01*
X0086300Y0088959D01*
X0086114Y0088957D01*
X0085928Y0088950D01*
X0085742Y0088939D01*
X0085556Y0088923D01*
X0085371Y0088902D01*
X0085186Y0088878D01*
X0085003Y0088848D01*
X0084819Y0088815D01*
X0084637Y0088776D01*
X0084456Y0088734D01*
X0084276Y0088687D01*
X0084097Y0088635D01*
X0083919Y0088579D01*
X0083743Y0088519D01*
X0083568Y0088455D01*
X0083395Y0088387D01*
X0083223Y0088314D01*
X0083053Y0088237D01*
X0082886Y0088156D01*
X0082720Y0088071D01*
X0082556Y0087982D01*
X0082395Y0087889D01*
X0082236Y0087792D01*
X0082079Y0087691D01*
X0081925Y0087587D01*
X0081774Y0087478D01*
X0081625Y0087367D01*
X0081479Y0087251D01*
X0081335Y0087132D01*
X0081195Y0087010D01*
X0081058Y0086884D01*
X0080923Y0086755D01*
X0080792Y0086622D01*
X0080665Y0086487D01*
X0080540Y0086348D01*
X0080419Y0086207D01*
X0080302Y0086062D01*
X0080188Y0085915D01*
X0080077Y0085765D01*
X0079970Y0085612D01*
X0079867Y0085457D01*
X0079768Y0085300D01*
X0079673Y0085140D01*
X0079581Y0084977D01*
X0079494Y0084813D01*
X0079411Y0084646D01*
X0078032Y0085237D02*
X0082363Y0089568D01*
X0094568Y0089568D01*
X0094568Y0084646D01*
X0094568Y0089568D02*
X0094568Y0073032D01*
X0082363Y0073032D01*
X0078032Y0077363D01*
X0078032Y0085237D01*
X0082363Y0089568D01*
X0094568Y0089568D01*
X0078623Y0081300D02*
X0078625Y0081488D01*
X0078632Y0081677D01*
X0078644Y0081865D01*
X0078660Y0082052D01*
X0078681Y0082240D01*
X0078706Y0082426D01*
X0078736Y0082612D01*
X0078771Y0082798D01*
X0078810Y0082982D01*
X0078853Y0083165D01*
X0078901Y0083348D01*
X0078954Y0083529D01*
X0079010Y0083708D01*
X0079072Y0083886D01*
X0079137Y0084063D01*
X0079207Y0084238D01*
X0079282Y0084411D01*
X0079360Y0084582D01*
X0079443Y0084752D01*
X0079529Y0084919D01*
X0079620Y0085084D01*
X0079715Y0085247D01*
X0079814Y0085407D01*
X0079917Y0085565D01*
X0080023Y0085720D01*
X0080134Y0085873D01*
X0080248Y0086023D01*
X0080366Y0086170D01*
X0080487Y0086314D01*
X0080612Y0086456D01*
X0080740Y0086594D01*
X0080872Y0086728D01*
X0081006Y0086860D01*
X0081144Y0086988D01*
X0081286Y0087113D01*
X0081430Y0087234D01*
X0081577Y0087352D01*
X0081727Y0087466D01*
X0081880Y0087577D01*
X0082035Y0087683D01*
X0082193Y0087786D01*
X0082353Y0087885D01*
X0082516Y0087980D01*
X0082681Y0088071D01*
X0082848Y0088157D01*
X0083018Y0088240D01*
X0083189Y0088318D01*
X0083362Y0088393D01*
X0083537Y0088463D01*
X0083714Y0088528D01*
X0083892Y0088590D01*
X0084071Y0088646D01*
X0084252Y0088699D01*
X0084435Y0088747D01*
X0084618Y0088790D01*
X0084802Y0088829D01*
X0084988Y0088864D01*
X0085174Y0088894D01*
X0085360Y0088919D01*
X0085548Y0088940D01*
X0085735Y0088956D01*
X0085923Y0088968D01*
X0086112Y0088975D01*
X0086300Y0088977D01*
X0086488Y0088975D01*
X0086677Y0088968D01*
X0086865Y0088956D01*
X0087052Y0088940D01*
X0087240Y0088919D01*
X0087426Y0088894D01*
X0087612Y0088864D01*
X0087798Y0088829D01*
X0087982Y0088790D01*
X0088165Y0088747D01*
X0088348Y0088699D01*
X0088529Y0088646D01*
X0088708Y0088590D01*
X0088886Y0088528D01*
X0089063Y0088463D01*
X0089238Y0088393D01*
X0089411Y0088318D01*
X0089582Y0088240D01*
X0089752Y0088157D01*
X0089919Y0088071D01*
X0090084Y0087980D01*
X0090247Y0087885D01*
X0090407Y0087786D01*
X0090565Y0087683D01*
X0090720Y0087577D01*
X0090873Y0087466D01*
X0091023Y0087352D01*
X0091170Y0087234D01*
X0091314Y0087113D01*
X0091456Y0086988D01*
X0091594Y0086860D01*
X0091728Y0086728D01*
X0091860Y0086594D01*
X0091988Y0086456D01*
X0092113Y0086314D01*
X0092234Y0086170D01*
X0092352Y0086023D01*
X0092466Y0085873D01*
X0092577Y0085720D01*
X0092683Y0085565D01*
X0092786Y0085407D01*
X0092885Y0085247D01*
X0092980Y0085084D01*
X0093071Y0084919D01*
X0093157Y0084752D01*
X0093240Y0084582D01*
X0093318Y0084411D01*
X0093393Y0084238D01*
X0093463Y0084063D01*
X0093528Y0083886D01*
X0093590Y0083708D01*
X0093646Y0083529D01*
X0093699Y0083348D01*
X0093747Y0083165D01*
X0093790Y0082982D01*
X0093829Y0082798D01*
X0093864Y0082612D01*
X0093894Y0082426D01*
X0093919Y0082240D01*
X0093940Y0082052D01*
X0093956Y0081865D01*
X0093968Y0081677D01*
X0093975Y0081488D01*
X0093977Y0081300D01*
X0093975Y0081112D01*
X0093968Y0080923D01*
X0093956Y0080735D01*
X0093940Y0080548D01*
X0093919Y0080360D01*
X0093894Y0080174D01*
X0093864Y0079988D01*
X0093829Y0079802D01*
X0093790Y0079618D01*
X0093747Y0079435D01*
X0093699Y0079252D01*
X0093646Y0079071D01*
X0093590Y0078892D01*
X0093528Y0078714D01*
X0093463Y0078537D01*
X0093393Y0078362D01*
X0093318Y0078189D01*
X0093240Y0078018D01*
X0093157Y0077848D01*
X0093071Y0077681D01*
X0092980Y0077516D01*
X0092885Y0077353D01*
X0092786Y0077193D01*
X0092683Y0077035D01*
X0092577Y0076880D01*
X0092466Y0076727D01*
X0092352Y0076577D01*
X0092234Y0076430D01*
X0092113Y0076286D01*
X0091988Y0076144D01*
X0091860Y0076006D01*
X0091728Y0075872D01*
X0091594Y0075740D01*
X0091456Y0075612D01*
X0091314Y0075487D01*
X0091170Y0075366D01*
X0091023Y0075248D01*
X0090873Y0075134D01*
X0090720Y0075023D01*
X0090565Y0074917D01*
X0090407Y0074814D01*
X0090247Y0074715D01*
X0090084Y0074620D01*
X0089919Y0074529D01*
X0089752Y0074443D01*
X0089582Y0074360D01*
X0089411Y0074282D01*
X0089238Y0074207D01*
X0089063Y0074137D01*
X0088886Y0074072D01*
X0088708Y0074010D01*
X0088529Y0073954D01*
X0088348Y0073901D01*
X0088165Y0073853D01*
X0087982Y0073810D01*
X0087798Y0073771D01*
X0087612Y0073736D01*
X0087426Y0073706D01*
X0087240Y0073681D01*
X0087052Y0073660D01*
X0086865Y0073644D01*
X0086677Y0073632D01*
X0086488Y0073625D01*
X0086300Y0073623D01*
X0086112Y0073625D01*
X0085923Y0073632D01*
X0085735Y0073644D01*
X0085548Y0073660D01*
X0085360Y0073681D01*
X0085174Y0073706D01*
X0084988Y0073736D01*
X0084802Y0073771D01*
X0084618Y0073810D01*
X0084435Y0073853D01*
X0084252Y0073901D01*
X0084071Y0073954D01*
X0083892Y0074010D01*
X0083714Y0074072D01*
X0083537Y0074137D01*
X0083362Y0074207D01*
X0083189Y0074282D01*
X0083018Y0074360D01*
X0082848Y0074443D01*
X0082681Y0074529D01*
X0082516Y0074620D01*
X0082353Y0074715D01*
X0082193Y0074814D01*
X0082035Y0074917D01*
X0081880Y0075023D01*
X0081727Y0075134D01*
X0081577Y0075248D01*
X0081430Y0075366D01*
X0081286Y0075487D01*
X0081144Y0075612D01*
X0081006Y0075740D01*
X0080872Y0075872D01*
X0080740Y0076006D01*
X0080612Y0076144D01*
X0080487Y0076286D01*
X0080366Y0076430D01*
X0080248Y0076577D01*
X0080134Y0076727D01*
X0080023Y0076880D01*
X0079917Y0077035D01*
X0079814Y0077193D01*
X0079715Y0077353D01*
X0079620Y0077516D01*
X0079529Y0077681D01*
X0079443Y0077848D01*
X0079360Y0078018D01*
X0079282Y0078189D01*
X0079207Y0078362D01*
X0079137Y0078537D01*
X0079072Y0078714D01*
X0079010Y0078892D01*
X0078954Y0079071D01*
X0078901Y0079252D01*
X0078853Y0079435D01*
X0078810Y0079618D01*
X0078771Y0079802D01*
X0078736Y0079988D01*
X0078706Y0080174D01*
X0078681Y0080360D01*
X0078660Y0080548D01*
X0078644Y0080735D01*
X0078632Y0080923D01*
X0078625Y0081112D01*
X0078623Y0081300D01*
X0079411Y0077954D02*
X0079494Y0077787D01*
X0079581Y0077623D01*
X0079673Y0077460D01*
X0079768Y0077300D01*
X0079867Y0077143D01*
X0079970Y0076988D01*
X0080077Y0076835D01*
X0080188Y0076685D01*
X0080302Y0076538D01*
X0080419Y0076393D01*
X0080540Y0076252D01*
X0080665Y0076113D01*
X0080792Y0075978D01*
X0080923Y0075845D01*
X0081058Y0075716D01*
X0081195Y0075590D01*
X0081335Y0075468D01*
X0081479Y0075349D01*
X0081625Y0075233D01*
X0081774Y0075122D01*
X0081925Y0075013D01*
X0082079Y0074909D01*
X0082236Y0074808D01*
X0082395Y0074711D01*
X0082556Y0074618D01*
X0082720Y0074529D01*
X0082886Y0074444D01*
X0083053Y0074363D01*
X0083223Y0074286D01*
X0083395Y0074213D01*
X0083568Y0074145D01*
X0083743Y0074081D01*
X0083919Y0074021D01*
X0084097Y0073965D01*
X0084276Y0073913D01*
X0084456Y0073866D01*
X0084637Y0073824D01*
X0084819Y0073785D01*
X0085003Y0073752D01*
X0085186Y0073722D01*
X0085371Y0073698D01*
X0085556Y0073677D01*
X0085742Y0073661D01*
X0085928Y0073650D01*
X0086114Y0073643D01*
X0086300Y0073641D01*
X0086486Y0073643D01*
X0086672Y0073650D01*
X0086858Y0073661D01*
X0087044Y0073677D01*
X0087229Y0073698D01*
X0087414Y0073722D01*
X0087597Y0073752D01*
X0087781Y0073785D01*
X0087963Y0073824D01*
X0088144Y0073866D01*
X0088324Y0073913D01*
X0088503Y0073965D01*
X0088681Y0074021D01*
X0088857Y0074081D01*
X0089032Y0074145D01*
X0089205Y0074213D01*
X0089377Y0074286D01*
X0089547Y0074363D01*
X0089714Y0074444D01*
X0089880Y0074529D01*
X0090044Y0074618D01*
X0090205Y0074711D01*
X0090364Y0074808D01*
X0090521Y0074909D01*
X0090675Y0075013D01*
X0090826Y0075122D01*
X0090975Y0075233D01*
X0091121Y0075349D01*
X0091265Y0075468D01*
X0091405Y0075590D01*
X0091542Y0075716D01*
X0091677Y0075845D01*
X0091808Y0075978D01*
X0091935Y0076113D01*
X0092060Y0076252D01*
X0092181Y0076393D01*
X0092298Y0076538D01*
X0092412Y0076685D01*
X0092523Y0076835D01*
X0092630Y0076988D01*
X0092733Y0077143D01*
X0092832Y0077300D01*
X0092927Y0077460D01*
X0093019Y0077623D01*
X0093106Y0077787D01*
X0093189Y0077954D01*
X0094568Y0148032D02*
X0082363Y0148032D01*
X0078032Y0152363D01*
X0082363Y0148032D01*
X0094568Y0148032D01*
X0094568Y0152954D01*
X0093210Y0153606D02*
X0091221Y0153606D01*
X0091221Y0154004D02*
X0093343Y0154004D01*
X0093476Y0154403D02*
X0091221Y0154403D01*
X0091221Y0154801D02*
X0093583Y0154801D01*
X0093583Y0154725D02*
X0092993Y0152954D01*
X0091221Y0150788D01*
X0091221Y0161812D01*
X0091221Y0162009D01*
X0092993Y0159646D01*
X0093583Y0157678D01*
X0093583Y0154725D01*
X0093583Y0155200D02*
X0091221Y0155200D01*
X0091221Y0155598D02*
X0093583Y0155598D01*
X0093583Y0155997D02*
X0091221Y0155997D01*
X0091221Y0156395D02*
X0093583Y0156395D01*
X0093583Y0156794D02*
X0091221Y0156794D01*
X0091221Y0157192D02*
X0093583Y0157192D01*
X0093583Y0157591D02*
X0091221Y0157591D01*
X0091221Y0157989D02*
X0093490Y0157989D01*
X0093370Y0158388D02*
X0091221Y0158388D01*
X0091221Y0158786D02*
X0093251Y0158786D01*
X0093131Y0159185D02*
X0091221Y0159185D01*
X0091221Y0159583D02*
X0093012Y0159583D01*
X0092741Y0159982D02*
X0091221Y0159982D01*
X0091221Y0160380D02*
X0092442Y0160380D01*
X0092144Y0160779D02*
X0091221Y0160779D01*
X0091221Y0161177D02*
X0091845Y0161177D01*
X0091546Y0161576D02*
X0091221Y0161576D01*
X0091221Y0161974D02*
X0091247Y0161974D01*
X0091024Y0162206D02*
X0091024Y0150394D01*
X0091221Y0150816D02*
X0091244Y0150816D01*
X0091221Y0151215D02*
X0091570Y0151215D01*
X0091896Y0151613D02*
X0091221Y0151613D01*
X0091221Y0152012D02*
X0092222Y0152012D01*
X0092548Y0152410D02*
X0091221Y0152410D01*
X0091221Y0152809D02*
X0092874Y0152809D01*
X0093077Y0153207D02*
X0091221Y0153207D01*
X0093189Y0159646D02*
X0093106Y0159813D01*
X0093019Y0159977D01*
X0092927Y0160140D01*
X0092832Y0160300D01*
X0092733Y0160457D01*
X0092630Y0160612D01*
X0092523Y0160765D01*
X0092412Y0160915D01*
X0092298Y0161062D01*
X0092181Y0161207D01*
X0092060Y0161348D01*
X0091935Y0161487D01*
X0091808Y0161622D01*
X0091677Y0161755D01*
X0091542Y0161884D01*
X0091405Y0162010D01*
X0091265Y0162132D01*
X0091121Y0162251D01*
X0090975Y0162367D01*
X0090826Y0162478D01*
X0090675Y0162587D01*
X0090521Y0162691D01*
X0090364Y0162792D01*
X0090205Y0162889D01*
X0090044Y0162982D01*
X0089880Y0163071D01*
X0089714Y0163156D01*
X0089547Y0163237D01*
X0089377Y0163314D01*
X0089205Y0163387D01*
X0089032Y0163455D01*
X0088857Y0163519D01*
X0088681Y0163579D01*
X0088503Y0163635D01*
X0088324Y0163687D01*
X0088144Y0163734D01*
X0087963Y0163776D01*
X0087781Y0163815D01*
X0087597Y0163848D01*
X0087414Y0163878D01*
X0087229Y0163902D01*
X0087044Y0163923D01*
X0086858Y0163939D01*
X0086672Y0163950D01*
X0086486Y0163957D01*
X0086300Y0163959D01*
X0086114Y0163957D01*
X0085928Y0163950D01*
X0085742Y0163939D01*
X0085556Y0163923D01*
X0085371Y0163902D01*
X0085186Y0163878D01*
X0085003Y0163848D01*
X0084819Y0163815D01*
X0084637Y0163776D01*
X0084456Y0163734D01*
X0084276Y0163687D01*
X0084097Y0163635D01*
X0083919Y0163579D01*
X0083743Y0163519D01*
X0083568Y0163455D01*
X0083395Y0163387D01*
X0083223Y0163314D01*
X0083053Y0163237D01*
X0082886Y0163156D01*
X0082720Y0163071D01*
X0082556Y0162982D01*
X0082395Y0162889D01*
X0082236Y0162792D01*
X0082079Y0162691D01*
X0081925Y0162587D01*
X0081774Y0162478D01*
X0081625Y0162367D01*
X0081479Y0162251D01*
X0081335Y0162132D01*
X0081195Y0162010D01*
X0081058Y0161884D01*
X0080923Y0161755D01*
X0080792Y0161622D01*
X0080665Y0161487D01*
X0080540Y0161348D01*
X0080419Y0161207D01*
X0080302Y0161062D01*
X0080188Y0160915D01*
X0080077Y0160765D01*
X0079970Y0160612D01*
X0079867Y0160457D01*
X0079768Y0160300D01*
X0079673Y0160140D01*
X0079581Y0159977D01*
X0079494Y0159813D01*
X0079411Y0159646D01*
X0078032Y0160237D02*
X0082363Y0164568D01*
X0094568Y0164568D01*
X0094568Y0159646D01*
X0094568Y0164568D02*
X0094568Y0148032D01*
X0078623Y0156300D02*
X0078625Y0156488D01*
X0078632Y0156677D01*
X0078644Y0156865D01*
X0078660Y0157052D01*
X0078681Y0157240D01*
X0078706Y0157426D01*
X0078736Y0157612D01*
X0078771Y0157798D01*
X0078810Y0157982D01*
X0078853Y0158165D01*
X0078901Y0158348D01*
X0078954Y0158529D01*
X0079010Y0158708D01*
X0079072Y0158886D01*
X0079137Y0159063D01*
X0079207Y0159238D01*
X0079282Y0159411D01*
X0079360Y0159582D01*
X0079443Y0159752D01*
X0079529Y0159919D01*
X0079620Y0160084D01*
X0079715Y0160247D01*
X0079814Y0160407D01*
X0079917Y0160565D01*
X0080023Y0160720D01*
X0080134Y0160873D01*
X0080248Y0161023D01*
X0080366Y0161170D01*
X0080487Y0161314D01*
X0080612Y0161456D01*
X0080740Y0161594D01*
X0080872Y0161728D01*
X0081006Y0161860D01*
X0081144Y0161988D01*
X0081286Y0162113D01*
X0081430Y0162234D01*
X0081577Y0162352D01*
X0081727Y0162466D01*
X0081880Y0162577D01*
X0082035Y0162683D01*
X0082193Y0162786D01*
X0082353Y0162885D01*
X0082516Y0162980D01*
X0082681Y0163071D01*
X0082848Y0163157D01*
X0083018Y0163240D01*
X0083189Y0163318D01*
X0083362Y0163393D01*
X0083537Y0163463D01*
X0083714Y0163528D01*
X0083892Y0163590D01*
X0084071Y0163646D01*
X0084252Y0163699D01*
X0084435Y0163747D01*
X0084618Y0163790D01*
X0084802Y0163829D01*
X0084988Y0163864D01*
X0085174Y0163894D01*
X0085360Y0163919D01*
X0085548Y0163940D01*
X0085735Y0163956D01*
X0085923Y0163968D01*
X0086112Y0163975D01*
X0086300Y0163977D01*
X0086488Y0163975D01*
X0086677Y0163968D01*
X0086865Y0163956D01*
X0087052Y0163940D01*
X0087240Y0163919D01*
X0087426Y0163894D01*
X0087612Y0163864D01*
X0087798Y0163829D01*
X0087982Y0163790D01*
X0088165Y0163747D01*
X0088348Y0163699D01*
X0088529Y0163646D01*
X0088708Y0163590D01*
X0088886Y0163528D01*
X0089063Y0163463D01*
X0089238Y0163393D01*
X0089411Y0163318D01*
X0089582Y0163240D01*
X0089752Y0163157D01*
X0089919Y0163071D01*
X0090084Y0162980D01*
X0090247Y0162885D01*
X0090407Y0162786D01*
X0090565Y0162683D01*
X0090720Y0162577D01*
X0090873Y0162466D01*
X0091023Y0162352D01*
X0091170Y0162234D01*
X0091314Y0162113D01*
X0091456Y0161988D01*
X0091594Y0161860D01*
X0091728Y0161728D01*
X0091860Y0161594D01*
X0091988Y0161456D01*
X0092113Y0161314D01*
X0092234Y0161170D01*
X0092352Y0161023D01*
X0092466Y0160873D01*
X0092577Y0160720D01*
X0092683Y0160565D01*
X0092786Y0160407D01*
X0092885Y0160247D01*
X0092980Y0160084D01*
X0093071Y0159919D01*
X0093157Y0159752D01*
X0093240Y0159582D01*
X0093318Y0159411D01*
X0093393Y0159238D01*
X0093463Y0159063D01*
X0093528Y0158886D01*
X0093590Y0158708D01*
X0093646Y0158529D01*
X0093699Y0158348D01*
X0093747Y0158165D01*
X0093790Y0157982D01*
X0093829Y0157798D01*
X0093864Y0157612D01*
X0093894Y0157426D01*
X0093919Y0157240D01*
X0093940Y0157052D01*
X0093956Y0156865D01*
X0093968Y0156677D01*
X0093975Y0156488D01*
X0093977Y0156300D01*
X0093975Y0156112D01*
X0093968Y0155923D01*
X0093956Y0155735D01*
X0093940Y0155548D01*
X0093919Y0155360D01*
X0093894Y0155174D01*
X0093864Y0154988D01*
X0093829Y0154802D01*
X0093790Y0154618D01*
X0093747Y0154435D01*
X0093699Y0154252D01*
X0093646Y0154071D01*
X0093590Y0153892D01*
X0093528Y0153714D01*
X0093463Y0153537D01*
X0093393Y0153362D01*
X0093318Y0153189D01*
X0093240Y0153018D01*
X0093157Y0152848D01*
X0093071Y0152681D01*
X0092980Y0152516D01*
X0092885Y0152353D01*
X0092786Y0152193D01*
X0092683Y0152035D01*
X0092577Y0151880D01*
X0092466Y0151727D01*
X0092352Y0151577D01*
X0092234Y0151430D01*
X0092113Y0151286D01*
X0091988Y0151144D01*
X0091860Y0151006D01*
X0091728Y0150872D01*
X0091594Y0150740D01*
X0091456Y0150612D01*
X0091314Y0150487D01*
X0091170Y0150366D01*
X0091023Y0150248D01*
X0090873Y0150134D01*
X0090720Y0150023D01*
X0090565Y0149917D01*
X0090407Y0149814D01*
X0090247Y0149715D01*
X0090084Y0149620D01*
X0089919Y0149529D01*
X0089752Y0149443D01*
X0089582Y0149360D01*
X0089411Y0149282D01*
X0089238Y0149207D01*
X0089063Y0149137D01*
X0088886Y0149072D01*
X0088708Y0149010D01*
X0088529Y0148954D01*
X0088348Y0148901D01*
X0088165Y0148853D01*
X0087982Y0148810D01*
X0087798Y0148771D01*
X0087612Y0148736D01*
X0087426Y0148706D01*
X0087240Y0148681D01*
X0087052Y0148660D01*
X0086865Y0148644D01*
X0086677Y0148632D01*
X0086488Y0148625D01*
X0086300Y0148623D01*
X0086112Y0148625D01*
X0085923Y0148632D01*
X0085735Y0148644D01*
X0085548Y0148660D01*
X0085360Y0148681D01*
X0085174Y0148706D01*
X0084988Y0148736D01*
X0084802Y0148771D01*
X0084618Y0148810D01*
X0084435Y0148853D01*
X0084252Y0148901D01*
X0084071Y0148954D01*
X0083892Y0149010D01*
X0083714Y0149072D01*
X0083537Y0149137D01*
X0083362Y0149207D01*
X0083189Y0149282D01*
X0083018Y0149360D01*
X0082848Y0149443D01*
X0082681Y0149529D01*
X0082516Y0149620D01*
X0082353Y0149715D01*
X0082193Y0149814D01*
X0082035Y0149917D01*
X0081880Y0150023D01*
X0081727Y0150134D01*
X0081577Y0150248D01*
X0081430Y0150366D01*
X0081286Y0150487D01*
X0081144Y0150612D01*
X0081006Y0150740D01*
X0080872Y0150872D01*
X0080740Y0151006D01*
X0080612Y0151144D01*
X0080487Y0151286D01*
X0080366Y0151430D01*
X0080248Y0151577D01*
X0080134Y0151727D01*
X0080023Y0151880D01*
X0079917Y0152035D01*
X0079814Y0152193D01*
X0079715Y0152353D01*
X0079620Y0152516D01*
X0079529Y0152681D01*
X0079443Y0152848D01*
X0079360Y0153018D01*
X0079282Y0153189D01*
X0079207Y0153362D01*
X0079137Y0153537D01*
X0079072Y0153714D01*
X0079010Y0153892D01*
X0078954Y0154071D01*
X0078901Y0154252D01*
X0078853Y0154435D01*
X0078810Y0154618D01*
X0078771Y0154802D01*
X0078736Y0154988D01*
X0078706Y0155174D01*
X0078681Y0155360D01*
X0078660Y0155548D01*
X0078644Y0155735D01*
X0078632Y0155923D01*
X0078625Y0156112D01*
X0078623Y0156300D01*
X0078032Y0160237D02*
X0078032Y0152363D01*
X0078032Y0160237D02*
X0082363Y0164568D01*
X0094568Y0164568D01*
X0093189Y0152954D02*
X0093106Y0152787D01*
X0093019Y0152623D01*
X0092927Y0152460D01*
X0092832Y0152300D01*
X0092733Y0152143D01*
X0092630Y0151988D01*
X0092523Y0151835D01*
X0092412Y0151685D01*
X0092298Y0151538D01*
X0092181Y0151393D01*
X0092060Y0151252D01*
X0091935Y0151113D01*
X0091808Y0150978D01*
X0091677Y0150845D01*
X0091542Y0150716D01*
X0091405Y0150590D01*
X0091265Y0150468D01*
X0091121Y0150349D01*
X0090975Y0150233D01*
X0090826Y0150122D01*
X0090675Y0150013D01*
X0090521Y0149909D01*
X0090364Y0149808D01*
X0090205Y0149711D01*
X0090044Y0149618D01*
X0089880Y0149529D01*
X0089714Y0149444D01*
X0089547Y0149363D01*
X0089377Y0149286D01*
X0089205Y0149213D01*
X0089032Y0149145D01*
X0088857Y0149081D01*
X0088681Y0149021D01*
X0088503Y0148965D01*
X0088324Y0148913D01*
X0088144Y0148866D01*
X0087963Y0148824D01*
X0087781Y0148785D01*
X0087597Y0148752D01*
X0087414Y0148722D01*
X0087229Y0148698D01*
X0087044Y0148677D01*
X0086858Y0148661D01*
X0086672Y0148650D01*
X0086486Y0148643D01*
X0086300Y0148641D01*
X0086114Y0148643D01*
X0085928Y0148650D01*
X0085742Y0148661D01*
X0085556Y0148677D01*
X0085371Y0148698D01*
X0085186Y0148722D01*
X0085003Y0148752D01*
X0084819Y0148785D01*
X0084637Y0148824D01*
X0084456Y0148866D01*
X0084276Y0148913D01*
X0084097Y0148965D01*
X0083919Y0149021D01*
X0083743Y0149081D01*
X0083568Y0149145D01*
X0083395Y0149213D01*
X0083223Y0149286D01*
X0083053Y0149363D01*
X0082886Y0149444D01*
X0082720Y0149529D01*
X0082556Y0149618D01*
X0082395Y0149711D01*
X0082236Y0149808D01*
X0082079Y0149909D01*
X0081925Y0150013D01*
X0081774Y0150122D01*
X0081625Y0150233D01*
X0081479Y0150349D01*
X0081335Y0150468D01*
X0081195Y0150590D01*
X0081058Y0150716D01*
X0080923Y0150845D01*
X0080792Y0150978D01*
X0080665Y0151113D01*
X0080540Y0151252D01*
X0080419Y0151393D01*
X0080302Y0151538D01*
X0080188Y0151685D01*
X0080077Y0151835D01*
X0079970Y0151988D01*
X0079867Y0152143D01*
X0079768Y0152300D01*
X0079673Y0152460D01*
X0079581Y0152623D01*
X0079494Y0152787D01*
X0079411Y0152954D01*
X0082363Y0223032D02*
X0094568Y0223032D01*
X0094568Y0227954D01*
X0093184Y0228526D02*
X0091221Y0228526D01*
X0091221Y0228924D02*
X0093317Y0228924D01*
X0093449Y0229323D02*
X0091221Y0229323D01*
X0091221Y0229721D02*
X0093582Y0229721D01*
X0093583Y0229725D02*
X0092993Y0227954D01*
X0091221Y0225788D01*
X0091221Y0236812D01*
X0091221Y0237009D01*
X0092993Y0234646D01*
X0093583Y0232678D01*
X0093583Y0229725D01*
X0093583Y0230120D02*
X0091221Y0230120D01*
X0091221Y0230518D02*
X0093583Y0230518D01*
X0093583Y0230917D02*
X0091221Y0230917D01*
X0091221Y0231315D02*
X0093583Y0231315D01*
X0093583Y0231714D02*
X0091221Y0231714D01*
X0091221Y0232112D02*
X0093583Y0232112D01*
X0093583Y0232511D02*
X0091221Y0232511D01*
X0091221Y0232910D02*
X0093514Y0232910D01*
X0093394Y0233308D02*
X0091221Y0233308D01*
X0091221Y0233707D02*
X0093275Y0233707D01*
X0093155Y0234105D02*
X0091221Y0234105D01*
X0091221Y0234504D02*
X0093036Y0234504D01*
X0092801Y0234902D02*
X0091221Y0234902D01*
X0091221Y0235301D02*
X0092502Y0235301D01*
X0092203Y0235699D02*
X0091221Y0235699D01*
X0091221Y0236098D02*
X0091905Y0236098D01*
X0091606Y0236496D02*
X0091221Y0236496D01*
X0091221Y0236895D02*
X0091307Y0236895D01*
X0091024Y0237206D02*
X0091024Y0225394D01*
X0091221Y0226135D02*
X0091505Y0226135D01*
X0091221Y0226533D02*
X0091831Y0226533D01*
X0092157Y0226932D02*
X0091221Y0226932D01*
X0091221Y0227330D02*
X0092483Y0227330D01*
X0092809Y0227729D02*
X0091221Y0227729D01*
X0091221Y0228127D02*
X0093051Y0228127D01*
X0094568Y0223032D02*
X0094568Y0239568D01*
X0082363Y0239568D01*
X0078032Y0235237D01*
X0078032Y0227363D01*
X0082363Y0223032D01*
X0094568Y0223032D01*
X0093189Y0234646D02*
X0093106Y0234813D01*
X0093019Y0234977D01*
X0092927Y0235140D01*
X0092832Y0235300D01*
X0092733Y0235457D01*
X0092630Y0235612D01*
X0092523Y0235765D01*
X0092412Y0235915D01*
X0092298Y0236062D01*
X0092181Y0236207D01*
X0092060Y0236348D01*
X0091935Y0236487D01*
X0091808Y0236622D01*
X0091677Y0236755D01*
X0091542Y0236884D01*
X0091405Y0237010D01*
X0091265Y0237132D01*
X0091121Y0237251D01*
X0090975Y0237367D01*
X0090826Y0237478D01*
X0090675Y0237587D01*
X0090521Y0237691D01*
X0090364Y0237792D01*
X0090205Y0237889D01*
X0090044Y0237982D01*
X0089880Y0238071D01*
X0089714Y0238156D01*
X0089547Y0238237D01*
X0089377Y0238314D01*
X0089205Y0238387D01*
X0089032Y0238455D01*
X0088857Y0238519D01*
X0088681Y0238579D01*
X0088503Y0238635D01*
X0088324Y0238687D01*
X0088144Y0238734D01*
X0087963Y0238776D01*
X0087781Y0238815D01*
X0087597Y0238848D01*
X0087414Y0238878D01*
X0087229Y0238902D01*
X0087044Y0238923D01*
X0086858Y0238939D01*
X0086672Y0238950D01*
X0086486Y0238957D01*
X0086300Y0238959D01*
X0086114Y0238957D01*
X0085928Y0238950D01*
X0085742Y0238939D01*
X0085556Y0238923D01*
X0085371Y0238902D01*
X0085186Y0238878D01*
X0085003Y0238848D01*
X0084819Y0238815D01*
X0084637Y0238776D01*
X0084456Y0238734D01*
X0084276Y0238687D01*
X0084097Y0238635D01*
X0083919Y0238579D01*
X0083743Y0238519D01*
X0083568Y0238455D01*
X0083395Y0238387D01*
X0083223Y0238314D01*
X0083053Y0238237D01*
X0082886Y0238156D01*
X0082720Y0238071D01*
X0082556Y0237982D01*
X0082395Y0237889D01*
X0082236Y0237792D01*
X0082079Y0237691D01*
X0081925Y0237587D01*
X0081774Y0237478D01*
X0081625Y0237367D01*
X0081479Y0237251D01*
X0081335Y0237132D01*
X0081195Y0237010D01*
X0081058Y0236884D01*
X0080923Y0236755D01*
X0080792Y0236622D01*
X0080665Y0236487D01*
X0080540Y0236348D01*
X0080419Y0236207D01*
X0080302Y0236062D01*
X0080188Y0235915D01*
X0080077Y0235765D01*
X0079970Y0235612D01*
X0079867Y0235457D01*
X0079768Y0235300D01*
X0079673Y0235140D01*
X0079581Y0234977D01*
X0079494Y0234813D01*
X0079411Y0234646D01*
X0078032Y0235237D02*
X0082363Y0239568D01*
X0094568Y0239568D01*
X0094568Y0234646D01*
X0078623Y0231300D02*
X0078625Y0231488D01*
X0078632Y0231677D01*
X0078644Y0231865D01*
X0078660Y0232052D01*
X0078681Y0232240D01*
X0078706Y0232426D01*
X0078736Y0232612D01*
X0078771Y0232798D01*
X0078810Y0232982D01*
X0078853Y0233165D01*
X0078901Y0233348D01*
X0078954Y0233529D01*
X0079010Y0233708D01*
X0079072Y0233886D01*
X0079137Y0234063D01*
X0079207Y0234238D01*
X0079282Y0234411D01*
X0079360Y0234582D01*
X0079443Y0234752D01*
X0079529Y0234919D01*
X0079620Y0235084D01*
X0079715Y0235247D01*
X0079814Y0235407D01*
X0079917Y0235565D01*
X0080023Y0235720D01*
X0080134Y0235873D01*
X0080248Y0236023D01*
X0080366Y0236170D01*
X0080487Y0236314D01*
X0080612Y0236456D01*
X0080740Y0236594D01*
X0080872Y0236728D01*
X0081006Y0236860D01*
X0081144Y0236988D01*
X0081286Y0237113D01*
X0081430Y0237234D01*
X0081577Y0237352D01*
X0081727Y0237466D01*
X0081880Y0237577D01*
X0082035Y0237683D01*
X0082193Y0237786D01*
X0082353Y0237885D01*
X0082516Y0237980D01*
X0082681Y0238071D01*
X0082848Y0238157D01*
X0083018Y0238240D01*
X0083189Y0238318D01*
X0083362Y0238393D01*
X0083537Y0238463D01*
X0083714Y0238528D01*
X0083892Y0238590D01*
X0084071Y0238646D01*
X0084252Y0238699D01*
X0084435Y0238747D01*
X0084618Y0238790D01*
X0084802Y0238829D01*
X0084988Y0238864D01*
X0085174Y0238894D01*
X0085360Y0238919D01*
X0085548Y0238940D01*
X0085735Y0238956D01*
X0085923Y0238968D01*
X0086112Y0238975D01*
X0086300Y0238977D01*
X0086488Y0238975D01*
X0086677Y0238968D01*
X0086865Y0238956D01*
X0087052Y0238940D01*
X0087240Y0238919D01*
X0087426Y0238894D01*
X0087612Y0238864D01*
X0087798Y0238829D01*
X0087982Y0238790D01*
X0088165Y0238747D01*
X0088348Y0238699D01*
X0088529Y0238646D01*
X0088708Y0238590D01*
X0088886Y0238528D01*
X0089063Y0238463D01*
X0089238Y0238393D01*
X0089411Y0238318D01*
X0089582Y0238240D01*
X0089752Y0238157D01*
X0089919Y0238071D01*
X0090084Y0237980D01*
X0090247Y0237885D01*
X0090407Y0237786D01*
X0090565Y0237683D01*
X0090720Y0237577D01*
X0090873Y0237466D01*
X0091023Y0237352D01*
X0091170Y0237234D01*
X0091314Y0237113D01*
X0091456Y0236988D01*
X0091594Y0236860D01*
X0091728Y0236728D01*
X0091860Y0236594D01*
X0091988Y0236456D01*
X0092113Y0236314D01*
X0092234Y0236170D01*
X0092352Y0236023D01*
X0092466Y0235873D01*
X0092577Y0235720D01*
X0092683Y0235565D01*
X0092786Y0235407D01*
X0092885Y0235247D01*
X0092980Y0235084D01*
X0093071Y0234919D01*
X0093157Y0234752D01*
X0093240Y0234582D01*
X0093318Y0234411D01*
X0093393Y0234238D01*
X0093463Y0234063D01*
X0093528Y0233886D01*
X0093590Y0233708D01*
X0093646Y0233529D01*
X0093699Y0233348D01*
X0093747Y0233165D01*
X0093790Y0232982D01*
X0093829Y0232798D01*
X0093864Y0232612D01*
X0093894Y0232426D01*
X0093919Y0232240D01*
X0093940Y0232052D01*
X0093956Y0231865D01*
X0093968Y0231677D01*
X0093975Y0231488D01*
X0093977Y0231300D01*
X0093975Y0231112D01*
X0093968Y0230923D01*
X0093956Y0230735D01*
X0093940Y0230548D01*
X0093919Y0230360D01*
X0093894Y0230174D01*
X0093864Y0229988D01*
X0093829Y0229802D01*
X0093790Y0229618D01*
X0093747Y0229435D01*
X0093699Y0229252D01*
X0093646Y0229071D01*
X0093590Y0228892D01*
X0093528Y0228714D01*
X0093463Y0228537D01*
X0093393Y0228362D01*
X0093318Y0228189D01*
X0093240Y0228018D01*
X0093157Y0227848D01*
X0093071Y0227681D01*
X0092980Y0227516D01*
X0092885Y0227353D01*
X0092786Y0227193D01*
X0092683Y0227035D01*
X0092577Y0226880D01*
X0092466Y0226727D01*
X0092352Y0226577D01*
X0092234Y0226430D01*
X0092113Y0226286D01*
X0091988Y0226144D01*
X0091860Y0226006D01*
X0091728Y0225872D01*
X0091594Y0225740D01*
X0091456Y0225612D01*
X0091314Y0225487D01*
X0091170Y0225366D01*
X0091023Y0225248D01*
X0090873Y0225134D01*
X0090720Y0225023D01*
X0090565Y0224917D01*
X0090407Y0224814D01*
X0090247Y0224715D01*
X0090084Y0224620D01*
X0089919Y0224529D01*
X0089752Y0224443D01*
X0089582Y0224360D01*
X0089411Y0224282D01*
X0089238Y0224207D01*
X0089063Y0224137D01*
X0088886Y0224072D01*
X0088708Y0224010D01*
X0088529Y0223954D01*
X0088348Y0223901D01*
X0088165Y0223853D01*
X0087982Y0223810D01*
X0087798Y0223771D01*
X0087612Y0223736D01*
X0087426Y0223706D01*
X0087240Y0223681D01*
X0087052Y0223660D01*
X0086865Y0223644D01*
X0086677Y0223632D01*
X0086488Y0223625D01*
X0086300Y0223623D01*
X0086112Y0223625D01*
X0085923Y0223632D01*
X0085735Y0223644D01*
X0085548Y0223660D01*
X0085360Y0223681D01*
X0085174Y0223706D01*
X0084988Y0223736D01*
X0084802Y0223771D01*
X0084618Y0223810D01*
X0084435Y0223853D01*
X0084252Y0223901D01*
X0084071Y0223954D01*
X0083892Y0224010D01*
X0083714Y0224072D01*
X0083537Y0224137D01*
X0083362Y0224207D01*
X0083189Y0224282D01*
X0083018Y0224360D01*
X0082848Y0224443D01*
X0082681Y0224529D01*
X0082516Y0224620D01*
X0082353Y0224715D01*
X0082193Y0224814D01*
X0082035Y0224917D01*
X0081880Y0225023D01*
X0081727Y0225134D01*
X0081577Y0225248D01*
X0081430Y0225366D01*
X0081286Y0225487D01*
X0081144Y0225612D01*
X0081006Y0225740D01*
X0080872Y0225872D01*
X0080740Y0226006D01*
X0080612Y0226144D01*
X0080487Y0226286D01*
X0080366Y0226430D01*
X0080248Y0226577D01*
X0080134Y0226727D01*
X0080023Y0226880D01*
X0079917Y0227035D01*
X0079814Y0227193D01*
X0079715Y0227353D01*
X0079620Y0227516D01*
X0079529Y0227681D01*
X0079443Y0227848D01*
X0079360Y0228018D01*
X0079282Y0228189D01*
X0079207Y0228362D01*
X0079137Y0228537D01*
X0079072Y0228714D01*
X0079010Y0228892D01*
X0078954Y0229071D01*
X0078901Y0229252D01*
X0078853Y0229435D01*
X0078810Y0229618D01*
X0078771Y0229802D01*
X0078736Y0229988D01*
X0078706Y0230174D01*
X0078681Y0230360D01*
X0078660Y0230548D01*
X0078644Y0230735D01*
X0078632Y0230923D01*
X0078625Y0231112D01*
X0078623Y0231300D01*
X0078032Y0227363D02*
X0082363Y0223032D01*
X0079411Y0227954D02*
X0079494Y0227787D01*
X0079581Y0227623D01*
X0079673Y0227460D01*
X0079768Y0227300D01*
X0079867Y0227143D01*
X0079970Y0226988D01*
X0080077Y0226835D01*
X0080188Y0226685D01*
X0080302Y0226538D01*
X0080419Y0226393D01*
X0080540Y0226252D01*
X0080665Y0226113D01*
X0080792Y0225978D01*
X0080923Y0225845D01*
X0081058Y0225716D01*
X0081195Y0225590D01*
X0081335Y0225468D01*
X0081479Y0225349D01*
X0081625Y0225233D01*
X0081774Y0225122D01*
X0081925Y0225013D01*
X0082079Y0224909D01*
X0082236Y0224808D01*
X0082395Y0224711D01*
X0082556Y0224618D01*
X0082720Y0224529D01*
X0082886Y0224444D01*
X0083053Y0224363D01*
X0083223Y0224286D01*
X0083395Y0224213D01*
X0083568Y0224145D01*
X0083743Y0224081D01*
X0083919Y0224021D01*
X0084097Y0223965D01*
X0084276Y0223913D01*
X0084456Y0223866D01*
X0084637Y0223824D01*
X0084819Y0223785D01*
X0085003Y0223752D01*
X0085186Y0223722D01*
X0085371Y0223698D01*
X0085556Y0223677D01*
X0085742Y0223661D01*
X0085928Y0223650D01*
X0086114Y0223643D01*
X0086300Y0223641D01*
X0086486Y0223643D01*
X0086672Y0223650D01*
X0086858Y0223661D01*
X0087044Y0223677D01*
X0087229Y0223698D01*
X0087414Y0223722D01*
X0087597Y0223752D01*
X0087781Y0223785D01*
X0087963Y0223824D01*
X0088144Y0223866D01*
X0088324Y0223913D01*
X0088503Y0223965D01*
X0088681Y0224021D01*
X0088857Y0224081D01*
X0089032Y0224145D01*
X0089205Y0224213D01*
X0089377Y0224286D01*
X0089547Y0224363D01*
X0089714Y0224444D01*
X0089880Y0224529D01*
X0090044Y0224618D01*
X0090205Y0224711D01*
X0090364Y0224808D01*
X0090521Y0224909D01*
X0090675Y0225013D01*
X0090826Y0225122D01*
X0090975Y0225233D01*
X0091121Y0225349D01*
X0091265Y0225468D01*
X0091405Y0225590D01*
X0091542Y0225716D01*
X0091677Y0225845D01*
X0091808Y0225978D01*
X0091935Y0226113D01*
X0092060Y0226252D01*
X0092181Y0226393D01*
X0092298Y0226538D01*
X0092412Y0226685D01*
X0092523Y0226835D01*
X0092630Y0226988D01*
X0092733Y0227143D01*
X0092832Y0227300D01*
X0092927Y0227460D01*
X0093019Y0227623D01*
X0093106Y0227787D01*
X0093189Y0227954D01*
X0094568Y0298032D02*
X0082363Y0298032D01*
X0078032Y0302363D01*
X0082363Y0298032D01*
X0094568Y0298032D01*
X0094568Y0302954D01*
X0093157Y0303446D02*
X0091221Y0303446D01*
X0091221Y0303048D02*
X0093024Y0303048D01*
X0092993Y0302954D02*
X0091221Y0300788D01*
X0091221Y0311812D01*
X0091221Y0312009D01*
X0092993Y0309646D01*
X0093583Y0307678D01*
X0093583Y0304725D01*
X0092993Y0302954D01*
X0092744Y0302649D02*
X0091221Y0302649D01*
X0091221Y0302250D02*
X0092418Y0302250D01*
X0092092Y0301852D02*
X0091221Y0301852D01*
X0091221Y0301453D02*
X0091766Y0301453D01*
X0091440Y0301055D02*
X0091221Y0301055D01*
X0091024Y0300394D02*
X0091024Y0312206D01*
X0091221Y0311815D02*
X0091367Y0311815D01*
X0091221Y0311416D02*
X0091666Y0311416D01*
X0091964Y0311018D02*
X0091221Y0311018D01*
X0091221Y0310619D02*
X0092263Y0310619D01*
X0092562Y0310221D02*
X0091221Y0310221D01*
X0091221Y0309822D02*
X0092861Y0309822D01*
X0093060Y0309424D02*
X0091221Y0309424D01*
X0091221Y0309025D02*
X0093179Y0309025D01*
X0093299Y0308627D02*
X0091221Y0308627D01*
X0091221Y0308228D02*
X0093418Y0308228D01*
X0093538Y0307830D02*
X0091221Y0307830D01*
X0091221Y0307431D02*
X0093583Y0307431D01*
X0093583Y0307033D02*
X0091221Y0307033D01*
X0091221Y0306634D02*
X0093583Y0306634D01*
X0093583Y0306236D02*
X0091221Y0306236D01*
X0091221Y0305837D02*
X0093583Y0305837D01*
X0093583Y0305439D02*
X0091221Y0305439D01*
X0091221Y0305040D02*
X0093583Y0305040D01*
X0093556Y0304642D02*
X0091221Y0304642D01*
X0091221Y0304243D02*
X0093423Y0304243D01*
X0093290Y0303845D02*
X0091221Y0303845D01*
X0093189Y0309646D02*
X0093106Y0309813D01*
X0093019Y0309977D01*
X0092927Y0310140D01*
X0092832Y0310300D01*
X0092733Y0310457D01*
X0092630Y0310612D01*
X0092523Y0310765D01*
X0092412Y0310915D01*
X0092298Y0311062D01*
X0092181Y0311207D01*
X0092060Y0311348D01*
X0091935Y0311487D01*
X0091808Y0311622D01*
X0091677Y0311755D01*
X0091542Y0311884D01*
X0091405Y0312010D01*
X0091265Y0312132D01*
X0091121Y0312251D01*
X0090975Y0312367D01*
X0090826Y0312478D01*
X0090675Y0312587D01*
X0090521Y0312691D01*
X0090364Y0312792D01*
X0090205Y0312889D01*
X0090044Y0312982D01*
X0089880Y0313071D01*
X0089714Y0313156D01*
X0089547Y0313237D01*
X0089377Y0313314D01*
X0089205Y0313387D01*
X0089032Y0313455D01*
X0088857Y0313519D01*
X0088681Y0313579D01*
X0088503Y0313635D01*
X0088324Y0313687D01*
X0088144Y0313734D01*
X0087963Y0313776D01*
X0087781Y0313815D01*
X0087597Y0313848D01*
X0087414Y0313878D01*
X0087229Y0313902D01*
X0087044Y0313923D01*
X0086858Y0313939D01*
X0086672Y0313950D01*
X0086486Y0313957D01*
X0086300Y0313959D01*
X0086114Y0313957D01*
X0085928Y0313950D01*
X0085742Y0313939D01*
X0085556Y0313923D01*
X0085371Y0313902D01*
X0085186Y0313878D01*
X0085003Y0313848D01*
X0084819Y0313815D01*
X0084637Y0313776D01*
X0084456Y0313734D01*
X0084276Y0313687D01*
X0084097Y0313635D01*
X0083919Y0313579D01*
X0083743Y0313519D01*
X0083568Y0313455D01*
X0083395Y0313387D01*
X0083223Y0313314D01*
X0083053Y0313237D01*
X0082886Y0313156D01*
X0082720Y0313071D01*
X0082556Y0312982D01*
X0082395Y0312889D01*
X0082236Y0312792D01*
X0082079Y0312691D01*
X0081925Y0312587D01*
X0081774Y0312478D01*
X0081625Y0312367D01*
X0081479Y0312251D01*
X0081335Y0312132D01*
X0081195Y0312010D01*
X0081058Y0311884D01*
X0080923Y0311755D01*
X0080792Y0311622D01*
X0080665Y0311487D01*
X0080540Y0311348D01*
X0080419Y0311207D01*
X0080302Y0311062D01*
X0080188Y0310915D01*
X0080077Y0310765D01*
X0079970Y0310612D01*
X0079867Y0310457D01*
X0079768Y0310300D01*
X0079673Y0310140D01*
X0079581Y0309977D01*
X0079494Y0309813D01*
X0079411Y0309646D01*
X0078032Y0310237D02*
X0082363Y0314568D01*
X0094568Y0314568D01*
X0094568Y0309646D01*
X0094568Y0314568D02*
X0094568Y0298032D01*
X0078623Y0306300D02*
X0078625Y0306488D01*
X0078632Y0306677D01*
X0078644Y0306865D01*
X0078660Y0307052D01*
X0078681Y0307240D01*
X0078706Y0307426D01*
X0078736Y0307612D01*
X0078771Y0307798D01*
X0078810Y0307982D01*
X0078853Y0308165D01*
X0078901Y0308348D01*
X0078954Y0308529D01*
X0079010Y0308708D01*
X0079072Y0308886D01*
X0079137Y0309063D01*
X0079207Y0309238D01*
X0079282Y0309411D01*
X0079360Y0309582D01*
X0079443Y0309752D01*
X0079529Y0309919D01*
X0079620Y0310084D01*
X0079715Y0310247D01*
X0079814Y0310407D01*
X0079917Y0310565D01*
X0080023Y0310720D01*
X0080134Y0310873D01*
X0080248Y0311023D01*
X0080366Y0311170D01*
X0080487Y0311314D01*
X0080612Y0311456D01*
X0080740Y0311594D01*
X0080872Y0311728D01*
X0081006Y0311860D01*
X0081144Y0311988D01*
X0081286Y0312113D01*
X0081430Y0312234D01*
X0081577Y0312352D01*
X0081727Y0312466D01*
X0081880Y0312577D01*
X0082035Y0312683D01*
X0082193Y0312786D01*
X0082353Y0312885D01*
X0082516Y0312980D01*
X0082681Y0313071D01*
X0082848Y0313157D01*
X0083018Y0313240D01*
X0083189Y0313318D01*
X0083362Y0313393D01*
X0083537Y0313463D01*
X0083714Y0313528D01*
X0083892Y0313590D01*
X0084071Y0313646D01*
X0084252Y0313699D01*
X0084435Y0313747D01*
X0084618Y0313790D01*
X0084802Y0313829D01*
X0084988Y0313864D01*
X0085174Y0313894D01*
X0085360Y0313919D01*
X0085548Y0313940D01*
X0085735Y0313956D01*
X0085923Y0313968D01*
X0086112Y0313975D01*
X0086300Y0313977D01*
X0086488Y0313975D01*
X0086677Y0313968D01*
X0086865Y0313956D01*
X0087052Y0313940D01*
X0087240Y0313919D01*
X0087426Y0313894D01*
X0087612Y0313864D01*
X0087798Y0313829D01*
X0087982Y0313790D01*
X0088165Y0313747D01*
X0088348Y0313699D01*
X0088529Y0313646D01*
X0088708Y0313590D01*
X0088886Y0313528D01*
X0089063Y0313463D01*
X0089238Y0313393D01*
X0089411Y0313318D01*
X0089582Y0313240D01*
X0089752Y0313157D01*
X0089919Y0313071D01*
X0090084Y0312980D01*
X0090247Y0312885D01*
X0090407Y0312786D01*
X0090565Y0312683D01*
X0090720Y0312577D01*
X0090873Y0312466D01*
X0091023Y0312352D01*
X0091170Y0312234D01*
X0091314Y0312113D01*
X0091456Y0311988D01*
X0091594Y0311860D01*
X0091728Y0311728D01*
X0091860Y0311594D01*
X0091988Y0311456D01*
X0092113Y0311314D01*
X0092234Y0311170D01*
X0092352Y0311023D01*
X0092466Y0310873D01*
X0092577Y0310720D01*
X0092683Y0310565D01*
X0092786Y0310407D01*
X0092885Y0310247D01*
X0092980Y0310084D01*
X0093071Y0309919D01*
X0093157Y0309752D01*
X0093240Y0309582D01*
X0093318Y0309411D01*
X0093393Y0309238D01*
X0093463Y0309063D01*
X0093528Y0308886D01*
X0093590Y0308708D01*
X0093646Y0308529D01*
X0093699Y0308348D01*
X0093747Y0308165D01*
X0093790Y0307982D01*
X0093829Y0307798D01*
X0093864Y0307612D01*
X0093894Y0307426D01*
X0093919Y0307240D01*
X0093940Y0307052D01*
X0093956Y0306865D01*
X0093968Y0306677D01*
X0093975Y0306488D01*
X0093977Y0306300D01*
X0093975Y0306112D01*
X0093968Y0305923D01*
X0093956Y0305735D01*
X0093940Y0305548D01*
X0093919Y0305360D01*
X0093894Y0305174D01*
X0093864Y0304988D01*
X0093829Y0304802D01*
X0093790Y0304618D01*
X0093747Y0304435D01*
X0093699Y0304252D01*
X0093646Y0304071D01*
X0093590Y0303892D01*
X0093528Y0303714D01*
X0093463Y0303537D01*
X0093393Y0303362D01*
X0093318Y0303189D01*
X0093240Y0303018D01*
X0093157Y0302848D01*
X0093071Y0302681D01*
X0092980Y0302516D01*
X0092885Y0302353D01*
X0092786Y0302193D01*
X0092683Y0302035D01*
X0092577Y0301880D01*
X0092466Y0301727D01*
X0092352Y0301577D01*
X0092234Y0301430D01*
X0092113Y0301286D01*
X0091988Y0301144D01*
X0091860Y0301006D01*
X0091728Y0300872D01*
X0091594Y0300740D01*
X0091456Y0300612D01*
X0091314Y0300487D01*
X0091170Y0300366D01*
X0091023Y0300248D01*
X0090873Y0300134D01*
X0090720Y0300023D01*
X0090565Y0299917D01*
X0090407Y0299814D01*
X0090247Y0299715D01*
X0090084Y0299620D01*
X0089919Y0299529D01*
X0089752Y0299443D01*
X0089582Y0299360D01*
X0089411Y0299282D01*
X0089238Y0299207D01*
X0089063Y0299137D01*
X0088886Y0299072D01*
X0088708Y0299010D01*
X0088529Y0298954D01*
X0088348Y0298901D01*
X0088165Y0298853D01*
X0087982Y0298810D01*
X0087798Y0298771D01*
X0087612Y0298736D01*
X0087426Y0298706D01*
X0087240Y0298681D01*
X0087052Y0298660D01*
X0086865Y0298644D01*
X0086677Y0298632D01*
X0086488Y0298625D01*
X0086300Y0298623D01*
X0086112Y0298625D01*
X0085923Y0298632D01*
X0085735Y0298644D01*
X0085548Y0298660D01*
X0085360Y0298681D01*
X0085174Y0298706D01*
X0084988Y0298736D01*
X0084802Y0298771D01*
X0084618Y0298810D01*
X0084435Y0298853D01*
X0084252Y0298901D01*
X0084071Y0298954D01*
X0083892Y0299010D01*
X0083714Y0299072D01*
X0083537Y0299137D01*
X0083362Y0299207D01*
X0083189Y0299282D01*
X0083018Y0299360D01*
X0082848Y0299443D01*
X0082681Y0299529D01*
X0082516Y0299620D01*
X0082353Y0299715D01*
X0082193Y0299814D01*
X0082035Y0299917D01*
X0081880Y0300023D01*
X0081727Y0300134D01*
X0081577Y0300248D01*
X0081430Y0300366D01*
X0081286Y0300487D01*
X0081144Y0300612D01*
X0081006Y0300740D01*
X0080872Y0300872D01*
X0080740Y0301006D01*
X0080612Y0301144D01*
X0080487Y0301286D01*
X0080366Y0301430D01*
X0080248Y0301577D01*
X0080134Y0301727D01*
X0080023Y0301880D01*
X0079917Y0302035D01*
X0079814Y0302193D01*
X0079715Y0302353D01*
X0079620Y0302516D01*
X0079529Y0302681D01*
X0079443Y0302848D01*
X0079360Y0303018D01*
X0079282Y0303189D01*
X0079207Y0303362D01*
X0079137Y0303537D01*
X0079072Y0303714D01*
X0079010Y0303892D01*
X0078954Y0304071D01*
X0078901Y0304252D01*
X0078853Y0304435D01*
X0078810Y0304618D01*
X0078771Y0304802D01*
X0078736Y0304988D01*
X0078706Y0305174D01*
X0078681Y0305360D01*
X0078660Y0305548D01*
X0078644Y0305735D01*
X0078632Y0305923D01*
X0078625Y0306112D01*
X0078623Y0306300D01*
X0078032Y0310237D02*
X0078032Y0302363D01*
X0078032Y0310237D02*
X0082363Y0314568D01*
X0094568Y0314568D01*
X0093189Y0302954D02*
X0093106Y0302787D01*
X0093019Y0302623D01*
X0092927Y0302460D01*
X0092832Y0302300D01*
X0092733Y0302143D01*
X0092630Y0301988D01*
X0092523Y0301835D01*
X0092412Y0301685D01*
X0092298Y0301538D01*
X0092181Y0301393D01*
X0092060Y0301252D01*
X0091935Y0301113D01*
X0091808Y0300978D01*
X0091677Y0300845D01*
X0091542Y0300716D01*
X0091405Y0300590D01*
X0091265Y0300468D01*
X0091121Y0300349D01*
X0090975Y0300233D01*
X0090826Y0300122D01*
X0090675Y0300013D01*
X0090521Y0299909D01*
X0090364Y0299808D01*
X0090205Y0299711D01*
X0090044Y0299618D01*
X0089880Y0299529D01*
X0089714Y0299444D01*
X0089547Y0299363D01*
X0089377Y0299286D01*
X0089205Y0299213D01*
X0089032Y0299145D01*
X0088857Y0299081D01*
X0088681Y0299021D01*
X0088503Y0298965D01*
X0088324Y0298913D01*
X0088144Y0298866D01*
X0087963Y0298824D01*
X0087781Y0298785D01*
X0087597Y0298752D01*
X0087414Y0298722D01*
X0087229Y0298698D01*
X0087044Y0298677D01*
X0086858Y0298661D01*
X0086672Y0298650D01*
X0086486Y0298643D01*
X0086300Y0298641D01*
X0086114Y0298643D01*
X0085928Y0298650D01*
X0085742Y0298661D01*
X0085556Y0298677D01*
X0085371Y0298698D01*
X0085186Y0298722D01*
X0085003Y0298752D01*
X0084819Y0298785D01*
X0084637Y0298824D01*
X0084456Y0298866D01*
X0084276Y0298913D01*
X0084097Y0298965D01*
X0083919Y0299021D01*
X0083743Y0299081D01*
X0083568Y0299145D01*
X0083395Y0299213D01*
X0083223Y0299286D01*
X0083053Y0299363D01*
X0082886Y0299444D01*
X0082720Y0299529D01*
X0082556Y0299618D01*
X0082395Y0299711D01*
X0082236Y0299808D01*
X0082079Y0299909D01*
X0081925Y0300013D01*
X0081774Y0300122D01*
X0081625Y0300233D01*
X0081479Y0300349D01*
X0081335Y0300468D01*
X0081195Y0300590D01*
X0081058Y0300716D01*
X0080923Y0300845D01*
X0080792Y0300978D01*
X0080665Y0301113D01*
X0080540Y0301252D01*
X0080419Y0301393D01*
X0080302Y0301538D01*
X0080188Y0301685D01*
X0080077Y0301835D01*
X0079970Y0301988D01*
X0079867Y0302143D01*
X0079768Y0302300D01*
X0079673Y0302460D01*
X0079581Y0302623D01*
X0079494Y0302787D01*
X0079411Y0302954D01*
X0082363Y0378032D02*
X0094568Y0378032D01*
X0094568Y0382954D01*
X0093191Y0383547D02*
X0091221Y0383547D01*
X0091221Y0383945D02*
X0093323Y0383945D01*
X0093456Y0384344D02*
X0091221Y0384344D01*
X0091221Y0384742D02*
X0093583Y0384742D01*
X0093583Y0384725D02*
X0092993Y0382954D01*
X0091221Y0380788D01*
X0091221Y0391812D01*
X0091221Y0392009D01*
X0092993Y0389646D01*
X0093583Y0387678D01*
X0093583Y0384725D01*
X0093583Y0385141D02*
X0091221Y0385141D01*
X0091221Y0385539D02*
X0093583Y0385539D01*
X0093583Y0385938D02*
X0091221Y0385938D01*
X0091221Y0386336D02*
X0093583Y0386336D01*
X0093583Y0386735D02*
X0091221Y0386735D01*
X0091221Y0387133D02*
X0093583Y0387133D01*
X0093583Y0387532D02*
X0091221Y0387532D01*
X0091221Y0387930D02*
X0093508Y0387930D01*
X0093388Y0388329D02*
X0091221Y0388329D01*
X0091221Y0388727D02*
X0093269Y0388727D01*
X0093149Y0389126D02*
X0091221Y0389126D01*
X0091221Y0389524D02*
X0093030Y0389524D01*
X0092786Y0389923D02*
X0091221Y0389923D01*
X0091221Y0390321D02*
X0092487Y0390321D01*
X0092188Y0390720D02*
X0091221Y0390720D01*
X0091221Y0391119D02*
X0091889Y0391119D01*
X0091590Y0391517D02*
X0091221Y0391517D01*
X0091221Y0391916D02*
X0091291Y0391916D01*
X0091024Y0392206D02*
X0091024Y0380394D01*
X0091221Y0381156D02*
X0091522Y0381156D01*
X0091221Y0381554D02*
X0091848Y0381554D01*
X0092174Y0381953D02*
X0091221Y0381953D01*
X0091221Y0382351D02*
X0092500Y0382351D01*
X0092826Y0382750D02*
X0091221Y0382750D01*
X0091221Y0383148D02*
X0093058Y0383148D01*
X0094568Y0378032D02*
X0094568Y0394568D01*
X0082363Y0394568D01*
X0078032Y0390237D01*
X0078032Y0382363D01*
X0082363Y0378032D01*
X0094568Y0378032D01*
X0093189Y0389646D02*
X0093106Y0389813D01*
X0093019Y0389977D01*
X0092927Y0390140D01*
X0092832Y0390300D01*
X0092733Y0390457D01*
X0092630Y0390612D01*
X0092523Y0390765D01*
X0092412Y0390915D01*
X0092298Y0391062D01*
X0092181Y0391207D01*
X0092060Y0391348D01*
X0091935Y0391487D01*
X0091808Y0391622D01*
X0091677Y0391755D01*
X0091542Y0391884D01*
X0091405Y0392010D01*
X0091265Y0392132D01*
X0091121Y0392251D01*
X0090975Y0392367D01*
X0090826Y0392478D01*
X0090675Y0392587D01*
X0090521Y0392691D01*
X0090364Y0392792D01*
X0090205Y0392889D01*
X0090044Y0392982D01*
X0089880Y0393071D01*
X0089714Y0393156D01*
X0089547Y0393237D01*
X0089377Y0393314D01*
X0089205Y0393387D01*
X0089032Y0393455D01*
X0088857Y0393519D01*
X0088681Y0393579D01*
X0088503Y0393635D01*
X0088324Y0393687D01*
X0088144Y0393734D01*
X0087963Y0393776D01*
X0087781Y0393815D01*
X0087597Y0393848D01*
X0087414Y0393878D01*
X0087229Y0393902D01*
X0087044Y0393923D01*
X0086858Y0393939D01*
X0086672Y0393950D01*
X0086486Y0393957D01*
X0086300Y0393959D01*
X0086114Y0393957D01*
X0085928Y0393950D01*
X0085742Y0393939D01*
X0085556Y0393923D01*
X0085371Y0393902D01*
X0085186Y0393878D01*
X0085003Y0393848D01*
X0084819Y0393815D01*
X0084637Y0393776D01*
X0084456Y0393734D01*
X0084276Y0393687D01*
X0084097Y0393635D01*
X0083919Y0393579D01*
X0083743Y0393519D01*
X0083568Y0393455D01*
X0083395Y0393387D01*
X0083223Y0393314D01*
X0083053Y0393237D01*
X0082886Y0393156D01*
X0082720Y0393071D01*
X0082556Y0392982D01*
X0082395Y0392889D01*
X0082236Y0392792D01*
X0082079Y0392691D01*
X0081925Y0392587D01*
X0081774Y0392478D01*
X0081625Y0392367D01*
X0081479Y0392251D01*
X0081335Y0392132D01*
X0081195Y0392010D01*
X0081058Y0391884D01*
X0080923Y0391755D01*
X0080792Y0391622D01*
X0080665Y0391487D01*
X0080540Y0391348D01*
X0080419Y0391207D01*
X0080302Y0391062D01*
X0080188Y0390915D01*
X0080077Y0390765D01*
X0079970Y0390612D01*
X0079867Y0390457D01*
X0079768Y0390300D01*
X0079673Y0390140D01*
X0079581Y0389977D01*
X0079494Y0389813D01*
X0079411Y0389646D01*
X0078032Y0390237D02*
X0082363Y0394568D01*
X0094568Y0394568D01*
X0094568Y0389646D01*
X0078623Y0386300D02*
X0078625Y0386488D01*
X0078632Y0386677D01*
X0078644Y0386865D01*
X0078660Y0387052D01*
X0078681Y0387240D01*
X0078706Y0387426D01*
X0078736Y0387612D01*
X0078771Y0387798D01*
X0078810Y0387982D01*
X0078853Y0388165D01*
X0078901Y0388348D01*
X0078954Y0388529D01*
X0079010Y0388708D01*
X0079072Y0388886D01*
X0079137Y0389063D01*
X0079207Y0389238D01*
X0079282Y0389411D01*
X0079360Y0389582D01*
X0079443Y0389752D01*
X0079529Y0389919D01*
X0079620Y0390084D01*
X0079715Y0390247D01*
X0079814Y0390407D01*
X0079917Y0390565D01*
X0080023Y0390720D01*
X0080134Y0390873D01*
X0080248Y0391023D01*
X0080366Y0391170D01*
X0080487Y0391314D01*
X0080612Y0391456D01*
X0080740Y0391594D01*
X0080872Y0391728D01*
X0081006Y0391860D01*
X0081144Y0391988D01*
X0081286Y0392113D01*
X0081430Y0392234D01*
X0081577Y0392352D01*
X0081727Y0392466D01*
X0081880Y0392577D01*
X0082035Y0392683D01*
X0082193Y0392786D01*
X0082353Y0392885D01*
X0082516Y0392980D01*
X0082681Y0393071D01*
X0082848Y0393157D01*
X0083018Y0393240D01*
X0083189Y0393318D01*
X0083362Y0393393D01*
X0083537Y0393463D01*
X0083714Y0393528D01*
X0083892Y0393590D01*
X0084071Y0393646D01*
X0084252Y0393699D01*
X0084435Y0393747D01*
X0084618Y0393790D01*
X0084802Y0393829D01*
X0084988Y0393864D01*
X0085174Y0393894D01*
X0085360Y0393919D01*
X0085548Y0393940D01*
X0085735Y0393956D01*
X0085923Y0393968D01*
X0086112Y0393975D01*
X0086300Y0393977D01*
X0086488Y0393975D01*
X0086677Y0393968D01*
X0086865Y0393956D01*
X0087052Y0393940D01*
X0087240Y0393919D01*
X0087426Y0393894D01*
X0087612Y0393864D01*
X0087798Y0393829D01*
X0087982Y0393790D01*
X0088165Y0393747D01*
X0088348Y0393699D01*
X0088529Y0393646D01*
X0088708Y0393590D01*
X0088886Y0393528D01*
X0089063Y0393463D01*
X0089238Y0393393D01*
X0089411Y0393318D01*
X0089582Y0393240D01*
X0089752Y0393157D01*
X0089919Y0393071D01*
X0090084Y0392980D01*
X0090247Y0392885D01*
X0090407Y0392786D01*
X0090565Y0392683D01*
X0090720Y0392577D01*
X0090873Y0392466D01*
X0091023Y0392352D01*
X0091170Y0392234D01*
X0091314Y0392113D01*
X0091456Y0391988D01*
X0091594Y0391860D01*
X0091728Y0391728D01*
X0091860Y0391594D01*
X0091988Y0391456D01*
X0092113Y0391314D01*
X0092234Y0391170D01*
X0092352Y0391023D01*
X0092466Y0390873D01*
X0092577Y0390720D01*
X0092683Y0390565D01*
X0092786Y0390407D01*
X0092885Y0390247D01*
X0092980Y0390084D01*
X0093071Y0389919D01*
X0093157Y0389752D01*
X0093240Y0389582D01*
X0093318Y0389411D01*
X0093393Y0389238D01*
X0093463Y0389063D01*
X0093528Y0388886D01*
X0093590Y0388708D01*
X0093646Y0388529D01*
X0093699Y0388348D01*
X0093747Y0388165D01*
X0093790Y0387982D01*
X0093829Y0387798D01*
X0093864Y0387612D01*
X0093894Y0387426D01*
X0093919Y0387240D01*
X0093940Y0387052D01*
X0093956Y0386865D01*
X0093968Y0386677D01*
X0093975Y0386488D01*
X0093977Y0386300D01*
X0093975Y0386112D01*
X0093968Y0385923D01*
X0093956Y0385735D01*
X0093940Y0385548D01*
X0093919Y0385360D01*
X0093894Y0385174D01*
X0093864Y0384988D01*
X0093829Y0384802D01*
X0093790Y0384618D01*
X0093747Y0384435D01*
X0093699Y0384252D01*
X0093646Y0384071D01*
X0093590Y0383892D01*
X0093528Y0383714D01*
X0093463Y0383537D01*
X0093393Y0383362D01*
X0093318Y0383189D01*
X0093240Y0383018D01*
X0093157Y0382848D01*
X0093071Y0382681D01*
X0092980Y0382516D01*
X0092885Y0382353D01*
X0092786Y0382193D01*
X0092683Y0382035D01*
X0092577Y0381880D01*
X0092466Y0381727D01*
X0092352Y0381577D01*
X0092234Y0381430D01*
X0092113Y0381286D01*
X0091988Y0381144D01*
X0091860Y0381006D01*
X0091728Y0380872D01*
X0091594Y0380740D01*
X0091456Y0380612D01*
X0091314Y0380487D01*
X0091170Y0380366D01*
X0091023Y0380248D01*
X0090873Y0380134D01*
X0090720Y0380023D01*
X0090565Y0379917D01*
X0090407Y0379814D01*
X0090247Y0379715D01*
X0090084Y0379620D01*
X0089919Y0379529D01*
X0089752Y0379443D01*
X0089582Y0379360D01*
X0089411Y0379282D01*
X0089238Y0379207D01*
X0089063Y0379137D01*
X0088886Y0379072D01*
X0088708Y0379010D01*
X0088529Y0378954D01*
X0088348Y0378901D01*
X0088165Y0378853D01*
X0087982Y0378810D01*
X0087798Y0378771D01*
X0087612Y0378736D01*
X0087426Y0378706D01*
X0087240Y0378681D01*
X0087052Y0378660D01*
X0086865Y0378644D01*
X0086677Y0378632D01*
X0086488Y0378625D01*
X0086300Y0378623D01*
X0086112Y0378625D01*
X0085923Y0378632D01*
X0085735Y0378644D01*
X0085548Y0378660D01*
X0085360Y0378681D01*
X0085174Y0378706D01*
X0084988Y0378736D01*
X0084802Y0378771D01*
X0084618Y0378810D01*
X0084435Y0378853D01*
X0084252Y0378901D01*
X0084071Y0378954D01*
X0083892Y0379010D01*
X0083714Y0379072D01*
X0083537Y0379137D01*
X0083362Y0379207D01*
X0083189Y0379282D01*
X0083018Y0379360D01*
X0082848Y0379443D01*
X0082681Y0379529D01*
X0082516Y0379620D01*
X0082353Y0379715D01*
X0082193Y0379814D01*
X0082035Y0379917D01*
X0081880Y0380023D01*
X0081727Y0380134D01*
X0081577Y0380248D01*
X0081430Y0380366D01*
X0081286Y0380487D01*
X0081144Y0380612D01*
X0081006Y0380740D01*
X0080872Y0380872D01*
X0080740Y0381006D01*
X0080612Y0381144D01*
X0080487Y0381286D01*
X0080366Y0381430D01*
X0080248Y0381577D01*
X0080134Y0381727D01*
X0080023Y0381880D01*
X0079917Y0382035D01*
X0079814Y0382193D01*
X0079715Y0382353D01*
X0079620Y0382516D01*
X0079529Y0382681D01*
X0079443Y0382848D01*
X0079360Y0383018D01*
X0079282Y0383189D01*
X0079207Y0383362D01*
X0079137Y0383537D01*
X0079072Y0383714D01*
X0079010Y0383892D01*
X0078954Y0384071D01*
X0078901Y0384252D01*
X0078853Y0384435D01*
X0078810Y0384618D01*
X0078771Y0384802D01*
X0078736Y0384988D01*
X0078706Y0385174D01*
X0078681Y0385360D01*
X0078660Y0385548D01*
X0078644Y0385735D01*
X0078632Y0385923D01*
X0078625Y0386112D01*
X0078623Y0386300D01*
X0078032Y0382363D02*
X0082363Y0378032D01*
X0079411Y0382954D02*
X0079494Y0382787D01*
X0079581Y0382623D01*
X0079673Y0382460D01*
X0079768Y0382300D01*
X0079867Y0382143D01*
X0079970Y0381988D01*
X0080077Y0381835D01*
X0080188Y0381685D01*
X0080302Y0381538D01*
X0080419Y0381393D01*
X0080540Y0381252D01*
X0080665Y0381113D01*
X0080792Y0380978D01*
X0080923Y0380845D01*
X0081058Y0380716D01*
X0081195Y0380590D01*
X0081335Y0380468D01*
X0081479Y0380349D01*
X0081625Y0380233D01*
X0081774Y0380122D01*
X0081925Y0380013D01*
X0082079Y0379909D01*
X0082236Y0379808D01*
X0082395Y0379711D01*
X0082556Y0379618D01*
X0082720Y0379529D01*
X0082886Y0379444D01*
X0083053Y0379363D01*
X0083223Y0379286D01*
X0083395Y0379213D01*
X0083568Y0379145D01*
X0083743Y0379081D01*
X0083919Y0379021D01*
X0084097Y0378965D01*
X0084276Y0378913D01*
X0084456Y0378866D01*
X0084637Y0378824D01*
X0084819Y0378785D01*
X0085003Y0378752D01*
X0085186Y0378722D01*
X0085371Y0378698D01*
X0085556Y0378677D01*
X0085742Y0378661D01*
X0085928Y0378650D01*
X0086114Y0378643D01*
X0086300Y0378641D01*
X0086486Y0378643D01*
X0086672Y0378650D01*
X0086858Y0378661D01*
X0087044Y0378677D01*
X0087229Y0378698D01*
X0087414Y0378722D01*
X0087597Y0378752D01*
X0087781Y0378785D01*
X0087963Y0378824D01*
X0088144Y0378866D01*
X0088324Y0378913D01*
X0088503Y0378965D01*
X0088681Y0379021D01*
X0088857Y0379081D01*
X0089032Y0379145D01*
X0089205Y0379213D01*
X0089377Y0379286D01*
X0089547Y0379363D01*
X0089714Y0379444D01*
X0089880Y0379529D01*
X0090044Y0379618D01*
X0090205Y0379711D01*
X0090364Y0379808D01*
X0090521Y0379909D01*
X0090675Y0380013D01*
X0090826Y0380122D01*
X0090975Y0380233D01*
X0091121Y0380349D01*
X0091265Y0380468D01*
X0091405Y0380590D01*
X0091542Y0380716D01*
X0091677Y0380845D01*
X0091808Y0380978D01*
X0091935Y0381113D01*
X0092060Y0381252D01*
X0092181Y0381393D01*
X0092298Y0381538D01*
X0092412Y0381685D01*
X0092523Y0381835D01*
X0092630Y0381988D01*
X0092733Y0382143D01*
X0092832Y0382300D01*
X0092927Y0382460D01*
X0093019Y0382623D01*
X0093106Y0382787D01*
X0093189Y0382954D01*
X0094568Y0448032D02*
X0082363Y0448032D01*
X0078032Y0452363D01*
X0082363Y0448032D01*
X0094568Y0448032D01*
X0094568Y0452954D01*
X0093104Y0453286D02*
X0091221Y0453286D01*
X0091221Y0452888D02*
X0092939Y0452888D01*
X0092993Y0452954D02*
X0091221Y0450788D01*
X0091221Y0461812D01*
X0091221Y0462009D01*
X0092993Y0459646D01*
X0093583Y0457678D01*
X0093583Y0454725D01*
X0092993Y0452954D01*
X0092613Y0452489D02*
X0091221Y0452489D01*
X0091221Y0452091D02*
X0092287Y0452091D01*
X0091961Y0451692D02*
X0091221Y0451692D01*
X0091221Y0451294D02*
X0091635Y0451294D01*
X0091309Y0450895D02*
X0091221Y0450895D01*
X0091024Y0450394D02*
X0091024Y0462206D01*
X0091221Y0461655D02*
X0091486Y0461655D01*
X0091221Y0461256D02*
X0091785Y0461256D01*
X0092084Y0460858D02*
X0091221Y0460858D01*
X0091221Y0460459D02*
X0092383Y0460459D01*
X0092682Y0460061D02*
X0091221Y0460061D01*
X0091221Y0459662D02*
X0092981Y0459662D01*
X0093108Y0459264D02*
X0091221Y0459264D01*
X0091221Y0458865D02*
X0093227Y0458865D01*
X0093347Y0458467D02*
X0091221Y0458467D01*
X0091221Y0458068D02*
X0093466Y0458068D01*
X0093583Y0457670D02*
X0091221Y0457670D01*
X0091221Y0457271D02*
X0093583Y0457271D01*
X0093583Y0456873D02*
X0091221Y0456873D01*
X0091221Y0456474D02*
X0093583Y0456474D01*
X0093583Y0456076D02*
X0091221Y0456076D01*
X0091221Y0455677D02*
X0093583Y0455677D01*
X0093583Y0455279D02*
X0091221Y0455279D01*
X0091221Y0454880D02*
X0093583Y0454880D01*
X0093502Y0454482D02*
X0091221Y0454482D01*
X0091221Y0454083D02*
X0093370Y0454083D01*
X0093237Y0453685D02*
X0091221Y0453685D01*
X0093189Y0459646D02*
X0093106Y0459813D01*
X0093019Y0459977D01*
X0092927Y0460140D01*
X0092832Y0460300D01*
X0092733Y0460457D01*
X0092630Y0460612D01*
X0092523Y0460765D01*
X0092412Y0460915D01*
X0092298Y0461062D01*
X0092181Y0461207D01*
X0092060Y0461348D01*
X0091935Y0461487D01*
X0091808Y0461622D01*
X0091677Y0461755D01*
X0091542Y0461884D01*
X0091405Y0462010D01*
X0091265Y0462132D01*
X0091121Y0462251D01*
X0090975Y0462367D01*
X0090826Y0462478D01*
X0090675Y0462587D01*
X0090521Y0462691D01*
X0090364Y0462792D01*
X0090205Y0462889D01*
X0090044Y0462982D01*
X0089880Y0463071D01*
X0089714Y0463156D01*
X0089547Y0463237D01*
X0089377Y0463314D01*
X0089205Y0463387D01*
X0089032Y0463455D01*
X0088857Y0463519D01*
X0088681Y0463579D01*
X0088503Y0463635D01*
X0088324Y0463687D01*
X0088144Y0463734D01*
X0087963Y0463776D01*
X0087781Y0463815D01*
X0087597Y0463848D01*
X0087414Y0463878D01*
X0087229Y0463902D01*
X0087044Y0463923D01*
X0086858Y0463939D01*
X0086672Y0463950D01*
X0086486Y0463957D01*
X0086300Y0463959D01*
X0086114Y0463957D01*
X0085928Y0463950D01*
X0085742Y0463939D01*
X0085556Y0463923D01*
X0085371Y0463902D01*
X0085186Y0463878D01*
X0085003Y0463848D01*
X0084819Y0463815D01*
X0084637Y0463776D01*
X0084456Y0463734D01*
X0084276Y0463687D01*
X0084097Y0463635D01*
X0083919Y0463579D01*
X0083743Y0463519D01*
X0083568Y0463455D01*
X0083395Y0463387D01*
X0083223Y0463314D01*
X0083053Y0463237D01*
X0082886Y0463156D01*
X0082720Y0463071D01*
X0082556Y0462982D01*
X0082395Y0462889D01*
X0082236Y0462792D01*
X0082079Y0462691D01*
X0081925Y0462587D01*
X0081774Y0462478D01*
X0081625Y0462367D01*
X0081479Y0462251D01*
X0081335Y0462132D01*
X0081195Y0462010D01*
X0081058Y0461884D01*
X0080923Y0461755D01*
X0080792Y0461622D01*
X0080665Y0461487D01*
X0080540Y0461348D01*
X0080419Y0461207D01*
X0080302Y0461062D01*
X0080188Y0460915D01*
X0080077Y0460765D01*
X0079970Y0460612D01*
X0079867Y0460457D01*
X0079768Y0460300D01*
X0079673Y0460140D01*
X0079581Y0459977D01*
X0079494Y0459813D01*
X0079411Y0459646D01*
X0078032Y0460237D02*
X0082363Y0464568D01*
X0094568Y0464568D01*
X0094568Y0459646D01*
X0094568Y0464568D02*
X0094568Y0448032D01*
X0078623Y0456300D02*
X0078625Y0456488D01*
X0078632Y0456677D01*
X0078644Y0456865D01*
X0078660Y0457052D01*
X0078681Y0457240D01*
X0078706Y0457426D01*
X0078736Y0457612D01*
X0078771Y0457798D01*
X0078810Y0457982D01*
X0078853Y0458165D01*
X0078901Y0458348D01*
X0078954Y0458529D01*
X0079010Y0458708D01*
X0079072Y0458886D01*
X0079137Y0459063D01*
X0079207Y0459238D01*
X0079282Y0459411D01*
X0079360Y0459582D01*
X0079443Y0459752D01*
X0079529Y0459919D01*
X0079620Y0460084D01*
X0079715Y0460247D01*
X0079814Y0460407D01*
X0079917Y0460565D01*
X0080023Y0460720D01*
X0080134Y0460873D01*
X0080248Y0461023D01*
X0080366Y0461170D01*
X0080487Y0461314D01*
X0080612Y0461456D01*
X0080740Y0461594D01*
X0080872Y0461728D01*
X0081006Y0461860D01*
X0081144Y0461988D01*
X0081286Y0462113D01*
X0081430Y0462234D01*
X0081577Y0462352D01*
X0081727Y0462466D01*
X0081880Y0462577D01*
X0082035Y0462683D01*
X0082193Y0462786D01*
X0082353Y0462885D01*
X0082516Y0462980D01*
X0082681Y0463071D01*
X0082848Y0463157D01*
X0083018Y0463240D01*
X0083189Y0463318D01*
X0083362Y0463393D01*
X0083537Y0463463D01*
X0083714Y0463528D01*
X0083892Y0463590D01*
X0084071Y0463646D01*
X0084252Y0463699D01*
X0084435Y0463747D01*
X0084618Y0463790D01*
X0084802Y0463829D01*
X0084988Y0463864D01*
X0085174Y0463894D01*
X0085360Y0463919D01*
X0085548Y0463940D01*
X0085735Y0463956D01*
X0085923Y0463968D01*
X0086112Y0463975D01*
X0086300Y0463977D01*
X0086488Y0463975D01*
X0086677Y0463968D01*
X0086865Y0463956D01*
X0087052Y0463940D01*
X0087240Y0463919D01*
X0087426Y0463894D01*
X0087612Y0463864D01*
X0087798Y0463829D01*
X0087982Y0463790D01*
X0088165Y0463747D01*
X0088348Y0463699D01*
X0088529Y0463646D01*
X0088708Y0463590D01*
X0088886Y0463528D01*
X0089063Y0463463D01*
X0089238Y0463393D01*
X0089411Y0463318D01*
X0089582Y0463240D01*
X0089752Y0463157D01*
X0089919Y0463071D01*
X0090084Y0462980D01*
X0090247Y0462885D01*
X0090407Y0462786D01*
X0090565Y0462683D01*
X0090720Y0462577D01*
X0090873Y0462466D01*
X0091023Y0462352D01*
X0091170Y0462234D01*
X0091314Y0462113D01*
X0091456Y0461988D01*
X0091594Y0461860D01*
X0091728Y0461728D01*
X0091860Y0461594D01*
X0091988Y0461456D01*
X0092113Y0461314D01*
X0092234Y0461170D01*
X0092352Y0461023D01*
X0092466Y0460873D01*
X0092577Y0460720D01*
X0092683Y0460565D01*
X0092786Y0460407D01*
X0092885Y0460247D01*
X0092980Y0460084D01*
X0093071Y0459919D01*
X0093157Y0459752D01*
X0093240Y0459582D01*
X0093318Y0459411D01*
X0093393Y0459238D01*
X0093463Y0459063D01*
X0093528Y0458886D01*
X0093590Y0458708D01*
X0093646Y0458529D01*
X0093699Y0458348D01*
X0093747Y0458165D01*
X0093790Y0457982D01*
X0093829Y0457798D01*
X0093864Y0457612D01*
X0093894Y0457426D01*
X0093919Y0457240D01*
X0093940Y0457052D01*
X0093956Y0456865D01*
X0093968Y0456677D01*
X0093975Y0456488D01*
X0093977Y0456300D01*
X0093975Y0456112D01*
X0093968Y0455923D01*
X0093956Y0455735D01*
X0093940Y0455548D01*
X0093919Y0455360D01*
X0093894Y0455174D01*
X0093864Y0454988D01*
X0093829Y0454802D01*
X0093790Y0454618D01*
X0093747Y0454435D01*
X0093699Y0454252D01*
X0093646Y0454071D01*
X0093590Y0453892D01*
X0093528Y0453714D01*
X0093463Y0453537D01*
X0093393Y0453362D01*
X0093318Y0453189D01*
X0093240Y0453018D01*
X0093157Y0452848D01*
X0093071Y0452681D01*
X0092980Y0452516D01*
X0092885Y0452353D01*
X0092786Y0452193D01*
X0092683Y0452035D01*
X0092577Y0451880D01*
X0092466Y0451727D01*
X0092352Y0451577D01*
X0092234Y0451430D01*
X0092113Y0451286D01*
X0091988Y0451144D01*
X0091860Y0451006D01*
X0091728Y0450872D01*
X0091594Y0450740D01*
X0091456Y0450612D01*
X0091314Y0450487D01*
X0091170Y0450366D01*
X0091023Y0450248D01*
X0090873Y0450134D01*
X0090720Y0450023D01*
X0090565Y0449917D01*
X0090407Y0449814D01*
X0090247Y0449715D01*
X0090084Y0449620D01*
X0089919Y0449529D01*
X0089752Y0449443D01*
X0089582Y0449360D01*
X0089411Y0449282D01*
X0089238Y0449207D01*
X0089063Y0449137D01*
X0088886Y0449072D01*
X0088708Y0449010D01*
X0088529Y0448954D01*
X0088348Y0448901D01*
X0088165Y0448853D01*
X0087982Y0448810D01*
X0087798Y0448771D01*
X0087612Y0448736D01*
X0087426Y0448706D01*
X0087240Y0448681D01*
X0087052Y0448660D01*
X0086865Y0448644D01*
X0086677Y0448632D01*
X0086488Y0448625D01*
X0086300Y0448623D01*
X0086112Y0448625D01*
X0085923Y0448632D01*
X0085735Y0448644D01*
X0085548Y0448660D01*
X0085360Y0448681D01*
X0085174Y0448706D01*
X0084988Y0448736D01*
X0084802Y0448771D01*
X0084618Y0448810D01*
X0084435Y0448853D01*
X0084252Y0448901D01*
X0084071Y0448954D01*
X0083892Y0449010D01*
X0083714Y0449072D01*
X0083537Y0449137D01*
X0083362Y0449207D01*
X0083189Y0449282D01*
X0083018Y0449360D01*
X0082848Y0449443D01*
X0082681Y0449529D01*
X0082516Y0449620D01*
X0082353Y0449715D01*
X0082193Y0449814D01*
X0082035Y0449917D01*
X0081880Y0450023D01*
X0081727Y0450134D01*
X0081577Y0450248D01*
X0081430Y0450366D01*
X0081286Y0450487D01*
X0081144Y0450612D01*
X0081006Y0450740D01*
X0080872Y0450872D01*
X0080740Y0451006D01*
X0080612Y0451144D01*
X0080487Y0451286D01*
X0080366Y0451430D01*
X0080248Y0451577D01*
X0080134Y0451727D01*
X0080023Y0451880D01*
X0079917Y0452035D01*
X0079814Y0452193D01*
X0079715Y0452353D01*
X0079620Y0452516D01*
X0079529Y0452681D01*
X0079443Y0452848D01*
X0079360Y0453018D01*
X0079282Y0453189D01*
X0079207Y0453362D01*
X0079137Y0453537D01*
X0079072Y0453714D01*
X0079010Y0453892D01*
X0078954Y0454071D01*
X0078901Y0454252D01*
X0078853Y0454435D01*
X0078810Y0454618D01*
X0078771Y0454802D01*
X0078736Y0454988D01*
X0078706Y0455174D01*
X0078681Y0455360D01*
X0078660Y0455548D01*
X0078644Y0455735D01*
X0078632Y0455923D01*
X0078625Y0456112D01*
X0078623Y0456300D01*
X0078032Y0460237D02*
X0078032Y0452363D01*
X0078032Y0460237D02*
X0082363Y0464568D01*
X0094568Y0464568D01*
X0093189Y0452954D02*
X0093106Y0452787D01*
X0093019Y0452623D01*
X0092927Y0452460D01*
X0092832Y0452300D01*
X0092733Y0452143D01*
X0092630Y0451988D01*
X0092523Y0451835D01*
X0092412Y0451685D01*
X0092298Y0451538D01*
X0092181Y0451393D01*
X0092060Y0451252D01*
X0091935Y0451113D01*
X0091808Y0450978D01*
X0091677Y0450845D01*
X0091542Y0450716D01*
X0091405Y0450590D01*
X0091265Y0450468D01*
X0091121Y0450349D01*
X0090975Y0450233D01*
X0090826Y0450122D01*
X0090675Y0450013D01*
X0090521Y0449909D01*
X0090364Y0449808D01*
X0090205Y0449711D01*
X0090044Y0449618D01*
X0089880Y0449529D01*
X0089714Y0449444D01*
X0089547Y0449363D01*
X0089377Y0449286D01*
X0089205Y0449213D01*
X0089032Y0449145D01*
X0088857Y0449081D01*
X0088681Y0449021D01*
X0088503Y0448965D01*
X0088324Y0448913D01*
X0088144Y0448866D01*
X0087963Y0448824D01*
X0087781Y0448785D01*
X0087597Y0448752D01*
X0087414Y0448722D01*
X0087229Y0448698D01*
X0087044Y0448677D01*
X0086858Y0448661D01*
X0086672Y0448650D01*
X0086486Y0448643D01*
X0086300Y0448641D01*
X0086114Y0448643D01*
X0085928Y0448650D01*
X0085742Y0448661D01*
X0085556Y0448677D01*
X0085371Y0448698D01*
X0085186Y0448722D01*
X0085003Y0448752D01*
X0084819Y0448785D01*
X0084637Y0448824D01*
X0084456Y0448866D01*
X0084276Y0448913D01*
X0084097Y0448965D01*
X0083919Y0449021D01*
X0083743Y0449081D01*
X0083568Y0449145D01*
X0083395Y0449213D01*
X0083223Y0449286D01*
X0083053Y0449363D01*
X0082886Y0449444D01*
X0082720Y0449529D01*
X0082556Y0449618D01*
X0082395Y0449711D01*
X0082236Y0449808D01*
X0082079Y0449909D01*
X0081925Y0450013D01*
X0081774Y0450122D01*
X0081625Y0450233D01*
X0081479Y0450349D01*
X0081335Y0450468D01*
X0081195Y0450590D01*
X0081058Y0450716D01*
X0080923Y0450845D01*
X0080792Y0450978D01*
X0080665Y0451113D01*
X0080540Y0451252D01*
X0080419Y0451393D01*
X0080302Y0451538D01*
X0080188Y0451685D01*
X0080077Y0451835D01*
X0079970Y0451988D01*
X0079867Y0452143D01*
X0079768Y0452300D01*
X0079673Y0452460D01*
X0079581Y0452623D01*
X0079494Y0452787D01*
X0079411Y0452954D01*
X0417282Y0448363D02*
X0421613Y0444032D01*
X0429487Y0444032D01*
X0433818Y0448363D01*
X0433818Y0460568D01*
X0428896Y0460568D01*
X0428083Y0459264D02*
X0423107Y0459264D01*
X0422204Y0458993D02*
X0424172Y0459583D01*
X0427125Y0459583D01*
X0428896Y0458993D01*
X0431062Y0457221D01*
X0420038Y0457221D01*
X0419841Y0457221D01*
X0422204Y0458993D01*
X0422034Y0458865D02*
X0429052Y0458865D01*
X0429539Y0458467D02*
X0421502Y0458467D01*
X0420971Y0458068D02*
X0430026Y0458068D01*
X0430513Y0457670D02*
X0420440Y0457670D01*
X0419908Y0457271D02*
X0431001Y0457271D01*
X0431456Y0457024D02*
X0419644Y0457024D01*
X0417282Y0460568D02*
X0417282Y0448363D01*
X0421613Y0444032D01*
X0417282Y0448363D02*
X0417282Y0460568D01*
X0422204Y0460568D01*
X0417282Y0460568D02*
X0433818Y0460568D01*
X0433818Y0448363D01*
X0429487Y0444032D01*
X0417873Y0452300D02*
X0417875Y0452488D01*
X0417882Y0452677D01*
X0417894Y0452865D01*
X0417910Y0453052D01*
X0417931Y0453240D01*
X0417956Y0453426D01*
X0417986Y0453612D01*
X0418021Y0453798D01*
X0418060Y0453982D01*
X0418103Y0454165D01*
X0418151Y0454348D01*
X0418204Y0454529D01*
X0418260Y0454708D01*
X0418322Y0454886D01*
X0418387Y0455063D01*
X0418457Y0455238D01*
X0418532Y0455411D01*
X0418610Y0455582D01*
X0418693Y0455752D01*
X0418779Y0455919D01*
X0418870Y0456084D01*
X0418965Y0456247D01*
X0419064Y0456407D01*
X0419167Y0456565D01*
X0419273Y0456720D01*
X0419384Y0456873D01*
X0419498Y0457023D01*
X0419616Y0457170D01*
X0419737Y0457314D01*
X0419862Y0457456D01*
X0419990Y0457594D01*
X0420122Y0457728D01*
X0420256Y0457860D01*
X0420394Y0457988D01*
X0420536Y0458113D01*
X0420680Y0458234D01*
X0420827Y0458352D01*
X0420977Y0458466D01*
X0421130Y0458577D01*
X0421285Y0458683D01*
X0421443Y0458786D01*
X0421603Y0458885D01*
X0421766Y0458980D01*
X0421931Y0459071D01*
X0422098Y0459157D01*
X0422268Y0459240D01*
X0422439Y0459318D01*
X0422612Y0459393D01*
X0422787Y0459463D01*
X0422964Y0459528D01*
X0423142Y0459590D01*
X0423321Y0459646D01*
X0423502Y0459699D01*
X0423685Y0459747D01*
X0423868Y0459790D01*
X0424052Y0459829D01*
X0424238Y0459864D01*
X0424424Y0459894D01*
X0424610Y0459919D01*
X0424798Y0459940D01*
X0424985Y0459956D01*
X0425173Y0459968D01*
X0425362Y0459975D01*
X0425550Y0459977D01*
X0425738Y0459975D01*
X0425927Y0459968D01*
X0426115Y0459956D01*
X0426302Y0459940D01*
X0426490Y0459919D01*
X0426676Y0459894D01*
X0426862Y0459864D01*
X0427048Y0459829D01*
X0427232Y0459790D01*
X0427415Y0459747D01*
X0427598Y0459699D01*
X0427779Y0459646D01*
X0427958Y0459590D01*
X0428136Y0459528D01*
X0428313Y0459463D01*
X0428488Y0459393D01*
X0428661Y0459318D01*
X0428832Y0459240D01*
X0429002Y0459157D01*
X0429169Y0459071D01*
X0429334Y0458980D01*
X0429497Y0458885D01*
X0429657Y0458786D01*
X0429815Y0458683D01*
X0429970Y0458577D01*
X0430123Y0458466D01*
X0430273Y0458352D01*
X0430420Y0458234D01*
X0430564Y0458113D01*
X0430706Y0457988D01*
X0430844Y0457860D01*
X0430978Y0457728D01*
X0431110Y0457594D01*
X0431238Y0457456D01*
X0431363Y0457314D01*
X0431484Y0457170D01*
X0431602Y0457023D01*
X0431716Y0456873D01*
X0431827Y0456720D01*
X0431933Y0456565D01*
X0432036Y0456407D01*
X0432135Y0456247D01*
X0432230Y0456084D01*
X0432321Y0455919D01*
X0432407Y0455752D01*
X0432490Y0455582D01*
X0432568Y0455411D01*
X0432643Y0455238D01*
X0432713Y0455063D01*
X0432778Y0454886D01*
X0432840Y0454708D01*
X0432896Y0454529D01*
X0432949Y0454348D01*
X0432997Y0454165D01*
X0433040Y0453982D01*
X0433079Y0453798D01*
X0433114Y0453612D01*
X0433144Y0453426D01*
X0433169Y0453240D01*
X0433190Y0453052D01*
X0433206Y0452865D01*
X0433218Y0452677D01*
X0433225Y0452488D01*
X0433227Y0452300D01*
X0433225Y0452112D01*
X0433218Y0451923D01*
X0433206Y0451735D01*
X0433190Y0451548D01*
X0433169Y0451360D01*
X0433144Y0451174D01*
X0433114Y0450988D01*
X0433079Y0450802D01*
X0433040Y0450618D01*
X0432997Y0450435D01*
X0432949Y0450252D01*
X0432896Y0450071D01*
X0432840Y0449892D01*
X0432778Y0449714D01*
X0432713Y0449537D01*
X0432643Y0449362D01*
X0432568Y0449189D01*
X0432490Y0449018D01*
X0432407Y0448848D01*
X0432321Y0448681D01*
X0432230Y0448516D01*
X0432135Y0448353D01*
X0432036Y0448193D01*
X0431933Y0448035D01*
X0431827Y0447880D01*
X0431716Y0447727D01*
X0431602Y0447577D01*
X0431484Y0447430D01*
X0431363Y0447286D01*
X0431238Y0447144D01*
X0431110Y0447006D01*
X0430978Y0446872D01*
X0430844Y0446740D01*
X0430706Y0446612D01*
X0430564Y0446487D01*
X0430420Y0446366D01*
X0430273Y0446248D01*
X0430123Y0446134D01*
X0429970Y0446023D01*
X0429815Y0445917D01*
X0429657Y0445814D01*
X0429497Y0445715D01*
X0429334Y0445620D01*
X0429169Y0445529D01*
X0429002Y0445443D01*
X0428832Y0445360D01*
X0428661Y0445282D01*
X0428488Y0445207D01*
X0428313Y0445137D01*
X0428136Y0445072D01*
X0427958Y0445010D01*
X0427779Y0444954D01*
X0427598Y0444901D01*
X0427415Y0444853D01*
X0427232Y0444810D01*
X0427048Y0444771D01*
X0426862Y0444736D01*
X0426676Y0444706D01*
X0426490Y0444681D01*
X0426302Y0444660D01*
X0426115Y0444644D01*
X0425927Y0444632D01*
X0425738Y0444625D01*
X0425550Y0444623D01*
X0425362Y0444625D01*
X0425173Y0444632D01*
X0424985Y0444644D01*
X0424798Y0444660D01*
X0424610Y0444681D01*
X0424424Y0444706D01*
X0424238Y0444736D01*
X0424052Y0444771D01*
X0423868Y0444810D01*
X0423685Y0444853D01*
X0423502Y0444901D01*
X0423321Y0444954D01*
X0423142Y0445010D01*
X0422964Y0445072D01*
X0422787Y0445137D01*
X0422612Y0445207D01*
X0422439Y0445282D01*
X0422268Y0445360D01*
X0422098Y0445443D01*
X0421931Y0445529D01*
X0421766Y0445620D01*
X0421603Y0445715D01*
X0421443Y0445814D01*
X0421285Y0445917D01*
X0421130Y0446023D01*
X0420977Y0446134D01*
X0420827Y0446248D01*
X0420680Y0446366D01*
X0420536Y0446487D01*
X0420394Y0446612D01*
X0420256Y0446740D01*
X0420122Y0446872D01*
X0419990Y0447006D01*
X0419862Y0447144D01*
X0419737Y0447286D01*
X0419616Y0447430D01*
X0419498Y0447577D01*
X0419384Y0447727D01*
X0419273Y0447880D01*
X0419167Y0448035D01*
X0419064Y0448193D01*
X0418965Y0448353D01*
X0418870Y0448516D01*
X0418779Y0448681D01*
X0418693Y0448848D01*
X0418610Y0449018D01*
X0418532Y0449189D01*
X0418457Y0449362D01*
X0418387Y0449537D01*
X0418322Y0449714D01*
X0418260Y0449892D01*
X0418204Y0450071D01*
X0418151Y0450252D01*
X0418103Y0450435D01*
X0418060Y0450618D01*
X0418021Y0450802D01*
X0417986Y0450988D01*
X0417956Y0451174D01*
X0417931Y0451360D01*
X0417910Y0451548D01*
X0417894Y0451735D01*
X0417882Y0451923D01*
X0417875Y0452112D01*
X0417873Y0452300D01*
X0428896Y0445411D02*
X0429063Y0445494D01*
X0429227Y0445581D01*
X0429390Y0445673D01*
X0429550Y0445768D01*
X0429707Y0445867D01*
X0429862Y0445970D01*
X0430015Y0446077D01*
X0430165Y0446188D01*
X0430312Y0446302D01*
X0430457Y0446419D01*
X0430598Y0446540D01*
X0430737Y0446665D01*
X0430872Y0446792D01*
X0431005Y0446923D01*
X0431134Y0447058D01*
X0431260Y0447195D01*
X0431382Y0447335D01*
X0431501Y0447479D01*
X0431617Y0447625D01*
X0431728Y0447774D01*
X0431837Y0447925D01*
X0431941Y0448079D01*
X0432042Y0448236D01*
X0432139Y0448395D01*
X0432232Y0448556D01*
X0432321Y0448720D01*
X0432406Y0448886D01*
X0432487Y0449053D01*
X0432564Y0449223D01*
X0432637Y0449395D01*
X0432705Y0449568D01*
X0432769Y0449743D01*
X0432829Y0449919D01*
X0432885Y0450097D01*
X0432937Y0450276D01*
X0432984Y0450456D01*
X0433026Y0450637D01*
X0433065Y0450819D01*
X0433098Y0451003D01*
X0433128Y0451186D01*
X0433152Y0451371D01*
X0433173Y0451556D01*
X0433189Y0451742D01*
X0433200Y0451928D01*
X0433207Y0452114D01*
X0433209Y0452300D01*
X0433207Y0452486D01*
X0433200Y0452672D01*
X0433189Y0452858D01*
X0433173Y0453044D01*
X0433152Y0453229D01*
X0433128Y0453414D01*
X0433098Y0453597D01*
X0433065Y0453781D01*
X0433026Y0453963D01*
X0432984Y0454144D01*
X0432937Y0454324D01*
X0432885Y0454503D01*
X0432829Y0454681D01*
X0432769Y0454857D01*
X0432705Y0455032D01*
X0432637Y0455205D01*
X0432564Y0455377D01*
X0432487Y0455547D01*
X0432406Y0455714D01*
X0432321Y0455880D01*
X0432232Y0456044D01*
X0432139Y0456205D01*
X0432042Y0456364D01*
X0431941Y0456521D01*
X0431837Y0456675D01*
X0431728Y0456826D01*
X0431617Y0456975D01*
X0431501Y0457121D01*
X0431382Y0457265D01*
X0431260Y0457405D01*
X0431134Y0457542D01*
X0431005Y0457677D01*
X0430872Y0457808D01*
X0430737Y0457935D01*
X0430598Y0458060D01*
X0430457Y0458181D01*
X0430312Y0458298D01*
X0430165Y0458412D01*
X0430015Y0458523D01*
X0429862Y0458630D01*
X0429707Y0458733D01*
X0429550Y0458832D01*
X0429390Y0458927D01*
X0429227Y0459019D01*
X0429063Y0459106D01*
X0428896Y0459189D01*
X0422204Y0459189D02*
X0422037Y0459106D01*
X0421873Y0459019D01*
X0421710Y0458927D01*
X0421550Y0458832D01*
X0421393Y0458733D01*
X0421238Y0458630D01*
X0421085Y0458523D01*
X0420935Y0458412D01*
X0420788Y0458298D01*
X0420643Y0458181D01*
X0420502Y0458060D01*
X0420363Y0457935D01*
X0420228Y0457808D01*
X0420095Y0457677D01*
X0419966Y0457542D01*
X0419840Y0457405D01*
X0419718Y0457265D01*
X0419599Y0457121D01*
X0419483Y0456975D01*
X0419372Y0456826D01*
X0419263Y0456675D01*
X0419159Y0456521D01*
X0419058Y0456364D01*
X0418961Y0456205D01*
X0418868Y0456044D01*
X0418779Y0455880D01*
X0418694Y0455714D01*
X0418613Y0455547D01*
X0418536Y0455377D01*
X0418463Y0455205D01*
X0418395Y0455032D01*
X0418331Y0454857D01*
X0418271Y0454681D01*
X0418215Y0454503D01*
X0418163Y0454324D01*
X0418116Y0454144D01*
X0418074Y0453963D01*
X0418035Y0453781D01*
X0418002Y0453597D01*
X0417972Y0453414D01*
X0417948Y0453229D01*
X0417927Y0453044D01*
X0417911Y0452858D01*
X0417900Y0452672D01*
X0417893Y0452486D01*
X0417891Y0452300D01*
X0417893Y0452114D01*
X0417900Y0451928D01*
X0417911Y0451742D01*
X0417927Y0451556D01*
X0417948Y0451371D01*
X0417972Y0451186D01*
X0418002Y0451003D01*
X0418035Y0450819D01*
X0418074Y0450637D01*
X0418116Y0450456D01*
X0418163Y0450276D01*
X0418215Y0450097D01*
X0418271Y0449919D01*
X0418331Y0449743D01*
X0418395Y0449568D01*
X0418463Y0449395D01*
X0418536Y0449223D01*
X0418613Y0449053D01*
X0418694Y0448886D01*
X0418779Y0448720D01*
X0418868Y0448556D01*
X0418961Y0448395D01*
X0419058Y0448236D01*
X0419159Y0448079D01*
X0419263Y0447925D01*
X0419372Y0447774D01*
X0419483Y0447625D01*
X0419599Y0447479D01*
X0419718Y0447335D01*
X0419840Y0447195D01*
X0419966Y0447058D01*
X0420095Y0446923D01*
X0420228Y0446792D01*
X0420363Y0446665D01*
X0420502Y0446540D01*
X0420643Y0446419D01*
X0420788Y0446302D01*
X0420935Y0446188D01*
X0421085Y0446077D01*
X0421238Y0445970D01*
X0421393Y0445867D01*
X0421550Y0445768D01*
X0421710Y0445673D01*
X0421873Y0445581D01*
X0422037Y0445494D01*
X0422204Y0445411D01*
X0442687Y0446669D02*
X0442687Y0448971D01*
X0443454Y0449739D01*
X0446524Y0449739D01*
X0447291Y0448971D01*
X0447291Y0446669D01*
X0442687Y0446669D01*
X0442687Y0451273D02*
X0442687Y0454342D01*
X0442687Y0452808D02*
X0447291Y0452808D01*
X0445756Y0451273D01*
X0465525Y0407291D02*
X0467059Y0407291D01*
X0467827Y0406524D01*
X0469361Y0406524D02*
X0470129Y0407291D01*
X0472431Y0407291D01*
X0472431Y0402687D01*
X0470129Y0402687D01*
X0469361Y0403454D01*
X0469361Y0406524D01*
X0465525Y0407291D02*
X0464758Y0406524D01*
X0464758Y0405756D01*
X0467827Y0402687D01*
X0464758Y0402687D01*
X0465363Y0393068D02*
X0461032Y0388737D01*
X0461032Y0380863D01*
X0465363Y0376532D01*
X0477568Y0376532D01*
X0477568Y0381454D01*
X0476159Y0381953D02*
X0474221Y0381953D01*
X0474221Y0382351D02*
X0476292Y0382351D01*
X0476425Y0382750D02*
X0474221Y0382750D01*
X0474221Y0383148D02*
X0476558Y0383148D01*
X0476583Y0383225D02*
X0475993Y0381454D01*
X0474221Y0379288D01*
X0474221Y0390312D01*
X0474221Y0390509D01*
X0475993Y0388146D01*
X0476583Y0386178D01*
X0476583Y0383225D01*
X0476583Y0383547D02*
X0474221Y0383547D01*
X0474221Y0383945D02*
X0476583Y0383945D01*
X0476583Y0384344D02*
X0474221Y0384344D01*
X0474221Y0384742D02*
X0476583Y0384742D01*
X0476583Y0385141D02*
X0474221Y0385141D01*
X0474221Y0385539D02*
X0476583Y0385539D01*
X0476583Y0385938D02*
X0474221Y0385938D01*
X0474221Y0386336D02*
X0476536Y0386336D01*
X0476416Y0386735D02*
X0474221Y0386735D01*
X0474221Y0387133D02*
X0476297Y0387133D01*
X0476177Y0387532D02*
X0474221Y0387532D01*
X0474221Y0387930D02*
X0476058Y0387930D01*
X0475856Y0388329D02*
X0474221Y0388329D01*
X0474221Y0388727D02*
X0475557Y0388727D01*
X0475258Y0389126D02*
X0474221Y0389126D01*
X0474221Y0389524D02*
X0474959Y0389524D01*
X0474661Y0389923D02*
X0474221Y0389923D01*
X0474221Y0390321D02*
X0474362Y0390321D01*
X0474024Y0390706D02*
X0474024Y0378894D01*
X0474221Y0379562D02*
X0474445Y0379562D01*
X0474221Y0379960D02*
X0474771Y0379960D01*
X0475097Y0380359D02*
X0474221Y0380359D01*
X0474221Y0380757D02*
X0475423Y0380757D01*
X0475749Y0381156D02*
X0474221Y0381156D01*
X0474221Y0381554D02*
X0476026Y0381554D01*
X0477568Y0376532D02*
X0477568Y0393068D01*
X0465363Y0393068D01*
X0461032Y0388737D01*
X0465363Y0393068D02*
X0477568Y0393068D01*
X0477568Y0388146D01*
X0461623Y0384800D02*
X0461625Y0384988D01*
X0461632Y0385177D01*
X0461644Y0385365D01*
X0461660Y0385552D01*
X0461681Y0385740D01*
X0461706Y0385926D01*
X0461736Y0386112D01*
X0461771Y0386298D01*
X0461810Y0386482D01*
X0461853Y0386665D01*
X0461901Y0386848D01*
X0461954Y0387029D01*
X0462010Y0387208D01*
X0462072Y0387386D01*
X0462137Y0387563D01*
X0462207Y0387738D01*
X0462282Y0387911D01*
X0462360Y0388082D01*
X0462443Y0388252D01*
X0462529Y0388419D01*
X0462620Y0388584D01*
X0462715Y0388747D01*
X0462814Y0388907D01*
X0462917Y0389065D01*
X0463023Y0389220D01*
X0463134Y0389373D01*
X0463248Y0389523D01*
X0463366Y0389670D01*
X0463487Y0389814D01*
X0463612Y0389956D01*
X0463740Y0390094D01*
X0463872Y0390228D01*
X0464006Y0390360D01*
X0464144Y0390488D01*
X0464286Y0390613D01*
X0464430Y0390734D01*
X0464577Y0390852D01*
X0464727Y0390966D01*
X0464880Y0391077D01*
X0465035Y0391183D01*
X0465193Y0391286D01*
X0465353Y0391385D01*
X0465516Y0391480D01*
X0465681Y0391571D01*
X0465848Y0391657D01*
X0466018Y0391740D01*
X0466189Y0391818D01*
X0466362Y0391893D01*
X0466537Y0391963D01*
X0466714Y0392028D01*
X0466892Y0392090D01*
X0467071Y0392146D01*
X0467252Y0392199D01*
X0467435Y0392247D01*
X0467618Y0392290D01*
X0467802Y0392329D01*
X0467988Y0392364D01*
X0468174Y0392394D01*
X0468360Y0392419D01*
X0468548Y0392440D01*
X0468735Y0392456D01*
X0468923Y0392468D01*
X0469112Y0392475D01*
X0469300Y0392477D01*
X0469488Y0392475D01*
X0469677Y0392468D01*
X0469865Y0392456D01*
X0470052Y0392440D01*
X0470240Y0392419D01*
X0470426Y0392394D01*
X0470612Y0392364D01*
X0470798Y0392329D01*
X0470982Y0392290D01*
X0471165Y0392247D01*
X0471348Y0392199D01*
X0471529Y0392146D01*
X0471708Y0392090D01*
X0471886Y0392028D01*
X0472063Y0391963D01*
X0472238Y0391893D01*
X0472411Y0391818D01*
X0472582Y0391740D01*
X0472752Y0391657D01*
X0472919Y0391571D01*
X0473084Y0391480D01*
X0473247Y0391385D01*
X0473407Y0391286D01*
X0473565Y0391183D01*
X0473720Y0391077D01*
X0473873Y0390966D01*
X0474023Y0390852D01*
X0474170Y0390734D01*
X0474314Y0390613D01*
X0474456Y0390488D01*
X0474594Y0390360D01*
X0474728Y0390228D01*
X0474860Y0390094D01*
X0474988Y0389956D01*
X0475113Y0389814D01*
X0475234Y0389670D01*
X0475352Y0389523D01*
X0475466Y0389373D01*
X0475577Y0389220D01*
X0475683Y0389065D01*
X0475786Y0388907D01*
X0475885Y0388747D01*
X0475980Y0388584D01*
X0476071Y0388419D01*
X0476157Y0388252D01*
X0476240Y0388082D01*
X0476318Y0387911D01*
X0476393Y0387738D01*
X0476463Y0387563D01*
X0476528Y0387386D01*
X0476590Y0387208D01*
X0476646Y0387029D01*
X0476699Y0386848D01*
X0476747Y0386665D01*
X0476790Y0386482D01*
X0476829Y0386298D01*
X0476864Y0386112D01*
X0476894Y0385926D01*
X0476919Y0385740D01*
X0476940Y0385552D01*
X0476956Y0385365D01*
X0476968Y0385177D01*
X0476975Y0384988D01*
X0476977Y0384800D01*
X0476975Y0384612D01*
X0476968Y0384423D01*
X0476956Y0384235D01*
X0476940Y0384048D01*
X0476919Y0383860D01*
X0476894Y0383674D01*
X0476864Y0383488D01*
X0476829Y0383302D01*
X0476790Y0383118D01*
X0476747Y0382935D01*
X0476699Y0382752D01*
X0476646Y0382571D01*
X0476590Y0382392D01*
X0476528Y0382214D01*
X0476463Y0382037D01*
X0476393Y0381862D01*
X0476318Y0381689D01*
X0476240Y0381518D01*
X0476157Y0381348D01*
X0476071Y0381181D01*
X0475980Y0381016D01*
X0475885Y0380853D01*
X0475786Y0380693D01*
X0475683Y0380535D01*
X0475577Y0380380D01*
X0475466Y0380227D01*
X0475352Y0380077D01*
X0475234Y0379930D01*
X0475113Y0379786D01*
X0474988Y0379644D01*
X0474860Y0379506D01*
X0474728Y0379372D01*
X0474594Y0379240D01*
X0474456Y0379112D01*
X0474314Y0378987D01*
X0474170Y0378866D01*
X0474023Y0378748D01*
X0473873Y0378634D01*
X0473720Y0378523D01*
X0473565Y0378417D01*
X0473407Y0378314D01*
X0473247Y0378215D01*
X0473084Y0378120D01*
X0472919Y0378029D01*
X0472752Y0377943D01*
X0472582Y0377860D01*
X0472411Y0377782D01*
X0472238Y0377707D01*
X0472063Y0377637D01*
X0471886Y0377572D01*
X0471708Y0377510D01*
X0471529Y0377454D01*
X0471348Y0377401D01*
X0471165Y0377353D01*
X0470982Y0377310D01*
X0470798Y0377271D01*
X0470612Y0377236D01*
X0470426Y0377206D01*
X0470240Y0377181D01*
X0470052Y0377160D01*
X0469865Y0377144D01*
X0469677Y0377132D01*
X0469488Y0377125D01*
X0469300Y0377123D01*
X0469112Y0377125D01*
X0468923Y0377132D01*
X0468735Y0377144D01*
X0468548Y0377160D01*
X0468360Y0377181D01*
X0468174Y0377206D01*
X0467988Y0377236D01*
X0467802Y0377271D01*
X0467618Y0377310D01*
X0467435Y0377353D01*
X0467252Y0377401D01*
X0467071Y0377454D01*
X0466892Y0377510D01*
X0466714Y0377572D01*
X0466537Y0377637D01*
X0466362Y0377707D01*
X0466189Y0377782D01*
X0466018Y0377860D01*
X0465848Y0377943D01*
X0465681Y0378029D01*
X0465516Y0378120D01*
X0465353Y0378215D01*
X0465193Y0378314D01*
X0465035Y0378417D01*
X0464880Y0378523D01*
X0464727Y0378634D01*
X0464577Y0378748D01*
X0464430Y0378866D01*
X0464286Y0378987D01*
X0464144Y0379112D01*
X0464006Y0379240D01*
X0463872Y0379372D01*
X0463740Y0379506D01*
X0463612Y0379644D01*
X0463487Y0379786D01*
X0463366Y0379930D01*
X0463248Y0380077D01*
X0463134Y0380227D01*
X0463023Y0380380D01*
X0462917Y0380535D01*
X0462814Y0380693D01*
X0462715Y0380853D01*
X0462620Y0381016D01*
X0462529Y0381181D01*
X0462443Y0381348D01*
X0462360Y0381518D01*
X0462282Y0381689D01*
X0462207Y0381862D01*
X0462137Y0382037D01*
X0462072Y0382214D01*
X0462010Y0382392D01*
X0461954Y0382571D01*
X0461901Y0382752D01*
X0461853Y0382935D01*
X0461810Y0383118D01*
X0461771Y0383302D01*
X0461736Y0383488D01*
X0461706Y0383674D01*
X0461681Y0383860D01*
X0461660Y0384048D01*
X0461644Y0384235D01*
X0461632Y0384423D01*
X0461625Y0384612D01*
X0461623Y0384800D01*
X0461032Y0380863D02*
X0465363Y0376532D01*
X0477568Y0376532D01*
X0476189Y0388146D02*
X0476106Y0388313D01*
X0476019Y0388477D01*
X0475927Y0388640D01*
X0475832Y0388800D01*
X0475733Y0388957D01*
X0475630Y0389112D01*
X0475523Y0389265D01*
X0475412Y0389415D01*
X0475298Y0389562D01*
X0475181Y0389707D01*
X0475060Y0389848D01*
X0474935Y0389987D01*
X0474808Y0390122D01*
X0474677Y0390255D01*
X0474542Y0390384D01*
X0474405Y0390510D01*
X0474265Y0390632D01*
X0474121Y0390751D01*
X0473975Y0390867D01*
X0473826Y0390978D01*
X0473675Y0391087D01*
X0473521Y0391191D01*
X0473364Y0391292D01*
X0473205Y0391389D01*
X0473044Y0391482D01*
X0472880Y0391571D01*
X0472714Y0391656D01*
X0472547Y0391737D01*
X0472377Y0391814D01*
X0472205Y0391887D01*
X0472032Y0391955D01*
X0471857Y0392019D01*
X0471681Y0392079D01*
X0471503Y0392135D01*
X0471324Y0392187D01*
X0471144Y0392234D01*
X0470963Y0392276D01*
X0470781Y0392315D01*
X0470597Y0392348D01*
X0470414Y0392378D01*
X0470229Y0392402D01*
X0470044Y0392423D01*
X0469858Y0392439D01*
X0469672Y0392450D01*
X0469486Y0392457D01*
X0469300Y0392459D01*
X0469114Y0392457D01*
X0468928Y0392450D01*
X0468742Y0392439D01*
X0468556Y0392423D01*
X0468371Y0392402D01*
X0468186Y0392378D01*
X0468003Y0392348D01*
X0467819Y0392315D01*
X0467637Y0392276D01*
X0467456Y0392234D01*
X0467276Y0392187D01*
X0467097Y0392135D01*
X0466919Y0392079D01*
X0466743Y0392019D01*
X0466568Y0391955D01*
X0466395Y0391887D01*
X0466223Y0391814D01*
X0466053Y0391737D01*
X0465886Y0391656D01*
X0465720Y0391571D01*
X0465556Y0391482D01*
X0465395Y0391389D01*
X0465236Y0391292D01*
X0465079Y0391191D01*
X0464925Y0391087D01*
X0464774Y0390978D01*
X0464625Y0390867D01*
X0464479Y0390751D01*
X0464335Y0390632D01*
X0464195Y0390510D01*
X0464058Y0390384D01*
X0463923Y0390255D01*
X0463792Y0390122D01*
X0463665Y0389987D01*
X0463540Y0389848D01*
X0463419Y0389707D01*
X0463302Y0389562D01*
X0463188Y0389415D01*
X0463077Y0389265D01*
X0462970Y0389112D01*
X0462867Y0388957D01*
X0462768Y0388800D01*
X0462673Y0388640D01*
X0462581Y0388477D01*
X0462494Y0388313D01*
X0462411Y0388146D01*
X0462411Y0381454D02*
X0462494Y0381287D01*
X0462581Y0381123D01*
X0462673Y0380960D01*
X0462768Y0380800D01*
X0462867Y0380643D01*
X0462970Y0380488D01*
X0463077Y0380335D01*
X0463188Y0380185D01*
X0463302Y0380038D01*
X0463419Y0379893D01*
X0463540Y0379752D01*
X0463665Y0379613D01*
X0463792Y0379478D01*
X0463923Y0379345D01*
X0464058Y0379216D01*
X0464195Y0379090D01*
X0464335Y0378968D01*
X0464479Y0378849D01*
X0464625Y0378733D01*
X0464774Y0378622D01*
X0464925Y0378513D01*
X0465079Y0378409D01*
X0465236Y0378308D01*
X0465395Y0378211D01*
X0465556Y0378118D01*
X0465720Y0378029D01*
X0465886Y0377944D01*
X0466053Y0377863D01*
X0466223Y0377786D01*
X0466395Y0377713D01*
X0466568Y0377645D01*
X0466743Y0377581D01*
X0466919Y0377521D01*
X0467097Y0377465D01*
X0467276Y0377413D01*
X0467456Y0377366D01*
X0467637Y0377324D01*
X0467819Y0377285D01*
X0468003Y0377252D01*
X0468186Y0377222D01*
X0468371Y0377198D01*
X0468556Y0377177D01*
X0468742Y0377161D01*
X0468928Y0377150D01*
X0469114Y0377143D01*
X0469300Y0377141D01*
X0469486Y0377143D01*
X0469672Y0377150D01*
X0469858Y0377161D01*
X0470044Y0377177D01*
X0470229Y0377198D01*
X0470414Y0377222D01*
X0470597Y0377252D01*
X0470781Y0377285D01*
X0470963Y0377324D01*
X0471144Y0377366D01*
X0471324Y0377413D01*
X0471503Y0377465D01*
X0471681Y0377521D01*
X0471857Y0377581D01*
X0472032Y0377645D01*
X0472205Y0377713D01*
X0472377Y0377786D01*
X0472547Y0377863D01*
X0472714Y0377944D01*
X0472880Y0378029D01*
X0473044Y0378118D01*
X0473205Y0378211D01*
X0473364Y0378308D01*
X0473521Y0378409D01*
X0473675Y0378513D01*
X0473826Y0378622D01*
X0473975Y0378733D01*
X0474121Y0378849D01*
X0474265Y0378968D01*
X0474405Y0379090D01*
X0474542Y0379216D01*
X0474677Y0379345D01*
X0474808Y0379478D01*
X0474935Y0379613D01*
X0475060Y0379752D01*
X0475181Y0379893D01*
X0475298Y0380038D01*
X0475412Y0380185D01*
X0475523Y0380335D01*
X0475630Y0380488D01*
X0475733Y0380643D01*
X0475832Y0380800D01*
X0475927Y0380960D01*
X0476019Y0381123D01*
X0476106Y0381287D01*
X0476189Y0381454D01*
D11*
X0475763Y0394005D02*
X0475146Y0394622D01*
X0475763Y0394005D02*
X0476997Y0394005D01*
X0477615Y0394622D01*
X0477615Y0397091D01*
X0476997Y0397708D01*
X0475763Y0397708D01*
X0475146Y0397091D01*
X0473931Y0397091D02*
X0473314Y0397708D01*
X0472080Y0397708D01*
X0471463Y0397091D01*
X0471463Y0396474D01*
X0473931Y0394005D01*
X0471463Y0394005D01*
X0415731Y0453548D02*
X0413262Y0453548D01*
X0412645Y0454165D01*
X0412645Y0455400D01*
X0413262Y0456017D01*
X0412645Y0457231D02*
X0412645Y0459700D01*
X0412645Y0458466D02*
X0416348Y0458466D01*
X0415114Y0457231D01*
X0415731Y0456017D02*
X0416348Y0455400D01*
X0416348Y0454165D01*
X0415731Y0453548D01*
X0094615Y0466122D02*
X0093997Y0465505D01*
X0092763Y0465505D01*
X0092146Y0466122D01*
X0090931Y0465505D02*
X0088463Y0467974D01*
X0088463Y0468591D01*
X0089080Y0469208D01*
X0090314Y0469208D01*
X0090931Y0468591D01*
X0092146Y0468591D02*
X0092763Y0469208D01*
X0093997Y0469208D01*
X0094615Y0468591D01*
X0094615Y0466122D01*
X0090931Y0465505D02*
X0088463Y0465505D01*
X0087248Y0466122D02*
X0084780Y0468591D01*
X0084780Y0466122D01*
X0085397Y0465505D01*
X0086631Y0465505D01*
X0087248Y0466122D01*
X0087248Y0468591D01*
X0086631Y0469208D01*
X0085397Y0469208D01*
X0084780Y0468591D01*
X0085397Y0399208D02*
X0086631Y0399208D01*
X0087248Y0398591D01*
X0087248Y0397974D01*
X0086631Y0397357D01*
X0084780Y0397357D01*
X0084780Y0398591D02*
X0084780Y0396122D01*
X0085397Y0395505D01*
X0086631Y0395505D01*
X0087248Y0396122D01*
X0088463Y0395505D02*
X0090931Y0395505D01*
X0089697Y0395505D02*
X0089697Y0399208D01*
X0090931Y0397974D01*
X0092146Y0398591D02*
X0092763Y0399208D01*
X0093997Y0399208D01*
X0094615Y0398591D01*
X0094615Y0396122D01*
X0093997Y0395505D01*
X0092763Y0395505D01*
X0092146Y0396122D01*
X0085397Y0399208D02*
X0084780Y0398591D01*
X0085397Y0319208D02*
X0084780Y0318591D01*
X0084780Y0317974D01*
X0085397Y0317357D01*
X0086631Y0317357D01*
X0087248Y0317974D01*
X0087248Y0318591D01*
X0086631Y0319208D01*
X0085397Y0319208D01*
X0085397Y0317357D02*
X0084780Y0316740D01*
X0084780Y0316122D01*
X0085397Y0315505D01*
X0086631Y0315505D01*
X0087248Y0316122D01*
X0087248Y0316740D01*
X0086631Y0317357D01*
X0088463Y0315505D02*
X0090931Y0315505D01*
X0089697Y0315505D02*
X0089697Y0319208D01*
X0090931Y0317974D01*
X0092146Y0318591D02*
X0092763Y0319208D01*
X0093997Y0319208D01*
X0094615Y0318591D01*
X0094615Y0316122D01*
X0093997Y0315505D01*
X0092763Y0315505D01*
X0092146Y0316122D01*
X0092763Y0244208D02*
X0093997Y0244208D01*
X0094615Y0243591D01*
X0094615Y0241122D01*
X0093997Y0240505D01*
X0092763Y0240505D01*
X0092146Y0241122D01*
X0090931Y0240505D02*
X0088463Y0240505D01*
X0087248Y0240505D02*
X0087248Y0241122D01*
X0084780Y0243591D01*
X0084780Y0244208D01*
X0087248Y0244208D01*
X0089697Y0244208D02*
X0089697Y0240505D01*
X0090931Y0242974D02*
X0089697Y0244208D01*
X0092146Y0243591D02*
X0092763Y0244208D01*
X0092763Y0169208D02*
X0093997Y0169208D01*
X0094615Y0168591D01*
X0094615Y0166122D01*
X0093997Y0165505D01*
X0092763Y0165505D01*
X0092146Y0166122D01*
X0090931Y0165505D02*
X0088463Y0165505D01*
X0089697Y0165505D02*
X0089697Y0169208D01*
X0090931Y0167974D01*
X0092146Y0168591D02*
X0092763Y0169208D01*
X0087248Y0167357D02*
X0085397Y0167357D01*
X0084780Y0166740D01*
X0084780Y0166122D01*
X0085397Y0165505D01*
X0086631Y0165505D01*
X0087248Y0166122D01*
X0087248Y0167357D01*
X0086014Y0168591D01*
X0084780Y0169208D01*
X0084780Y0094208D02*
X0087248Y0094208D01*
X0087248Y0092357D01*
X0086014Y0092974D01*
X0085397Y0092974D01*
X0084780Y0092357D01*
X0084780Y0091122D01*
X0085397Y0090505D01*
X0086631Y0090505D01*
X0087248Y0091122D01*
X0088463Y0090505D02*
X0090931Y0090505D01*
X0089697Y0090505D02*
X0089697Y0094208D01*
X0090931Y0092974D01*
X0092146Y0093591D02*
X0092763Y0094208D01*
X0093997Y0094208D01*
X0094615Y0093591D01*
X0094615Y0091122D01*
X0093997Y0090505D01*
X0092763Y0090505D01*
X0092146Y0091122D01*
D12*
X0094469Y0081300D03*
X0094469Y0156300D03*
X0094469Y0231300D03*
X0094469Y0306300D03*
X0094469Y0386300D03*
X0094469Y0456300D03*
X0477469Y0384800D03*
D13*
X0461032Y0384800D03*
X0078032Y0386300D03*
X0078032Y0456300D03*
X0078032Y0306300D03*
X0078032Y0231300D03*
X0078032Y0156300D03*
X0078032Y0081300D03*
D14*
X0082300Y0081300D02*
X0090300Y0081300D01*
X0086300Y0077300D02*
X0086300Y0085300D01*
X0086300Y0152300D02*
X0086300Y0160300D01*
X0082300Y0156300D02*
X0090300Y0156300D01*
X0086300Y0227300D02*
X0086300Y0235300D01*
X0082300Y0231300D02*
X0090300Y0231300D01*
X0086300Y0302300D02*
X0086300Y0310300D01*
X0082300Y0306300D02*
X0090300Y0306300D01*
X0086300Y0382300D02*
X0086300Y0390300D01*
X0082300Y0386300D02*
X0090300Y0386300D01*
X0086300Y0452300D02*
X0086300Y0460300D01*
X0082300Y0456300D02*
X0090300Y0456300D01*
X0421550Y0452300D02*
X0429550Y0452300D01*
X0434550Y0450800D02*
X0442550Y0450800D01*
X0438550Y0446800D02*
X0438550Y0454800D01*
X0425550Y0456300D02*
X0425550Y0448300D01*
X0468300Y0402550D02*
X0468300Y0394550D01*
X0464300Y0398550D02*
X0472300Y0398550D01*
X0469300Y0388800D02*
X0469300Y0380800D01*
X0465300Y0384800D02*
X0473300Y0384800D01*
D15*
X0472631Y0395794D02*
X0463969Y0395794D01*
X0463969Y0401306D01*
X0472631Y0401306D01*
X0472631Y0395794D01*
X0441306Y0446469D02*
X0435794Y0446469D01*
X0435794Y0455131D01*
X0441306Y0455131D01*
X0441306Y0446469D01*
D16*
X0438452Y0444599D03*
X0438452Y0457001D03*
D17*
X0438648Y0448438D03*
D18*
X0462099Y0398452D03*
X0474501Y0398452D03*
D19*
X0470662Y0398648D03*
D20*
X0425550Y0460469D03*
D21*
X0425550Y0444032D03*
M02*
