G75*
%MOIN*%
%OFA0B0*%
%FSLAX25Y25*%
%IPPOS*%
%LPD*%
%AMOC8*
5,1,8,0,0,1.08239X$1,22.5*
%
%ADD10OC8,0.07800*%
%ADD11C,0.09461*%
%ADD12R,0.09461X0.06312*%
%ADD13OC8,0.06000*%
%ADD14R,0.08200X0.08200*%
%ADD15OC8,0.10800*%
%ADD16R,0.06312X0.06312*%
%ADD17OC8,0.08200*%
%ADD18R,0.06312X0.09461*%
%ADD19C,0.05550*%
D10*
X0028800Y0061300D03*
X0058800Y0061300D03*
X0068800Y0061300D03*
X0068800Y0141300D03*
X0058800Y0141300D03*
X0028800Y0141300D03*
X0028800Y0216300D03*
X0058800Y0216300D03*
X0068800Y0216300D03*
X0068800Y0291300D03*
X0058800Y0291300D03*
X0028800Y0291300D03*
X0028800Y0366300D03*
X0058800Y0366300D03*
X0068800Y0366300D03*
X0068800Y0441300D03*
X0058800Y0441300D03*
X0028800Y0441300D03*
X0541648Y0440931D03*
X0551648Y0440931D03*
X0581648Y0440931D03*
X0581804Y0367083D03*
X0551804Y0367083D03*
X0541804Y0367083D03*
X0541804Y0291533D03*
X0551804Y0291533D03*
X0581804Y0291533D03*
X0581804Y0215856D03*
X0551804Y0215856D03*
X0541804Y0215856D03*
X0541931Y0141068D03*
X0551931Y0141068D03*
X0581931Y0141068D03*
X0581931Y0065899D03*
X0551931Y0065899D03*
X0541931Y0065899D03*
D11*
X0564431Y0065899D03*
X0564431Y0141068D03*
X0564304Y0215856D03*
X0564304Y0291533D03*
X0564304Y0367083D03*
X0564148Y0440931D03*
X0046300Y0441300D03*
X0046300Y0366300D03*
X0046300Y0291300D03*
X0046300Y0216300D03*
X0046300Y0141300D03*
X0046300Y0061300D03*
D12*
X0080001Y0081300D03*
X0092599Y0081300D03*
X0092599Y0156300D03*
X0080001Y0156300D03*
X0080001Y0231300D03*
X0092599Y0231300D03*
X0092599Y0306300D03*
X0080001Y0306300D03*
X0080001Y0386300D03*
X0092599Y0386300D03*
X0092599Y0456300D03*
X0080001Y0456300D03*
X0463001Y0384800D03*
X0475599Y0384800D03*
D13*
X0091300Y0215050D03*
X0081300Y0215050D03*
X0078800Y0290050D03*
X0088800Y0290050D03*
X0087550Y0365050D03*
X0077550Y0365050D03*
X0078800Y0440050D03*
X0088800Y0440050D03*
X0088800Y0140050D03*
X0078800Y0140050D03*
X0077550Y0060050D03*
X0087550Y0060050D03*
D14*
X0111457Y0033741D03*
X0121300Y0033741D03*
X0131143Y0033741D03*
X0191457Y0033741D03*
X0201300Y0033741D03*
X0211143Y0033741D03*
X0266457Y0033741D03*
X0276300Y0033741D03*
X0286143Y0033741D03*
X0341457Y0033741D03*
X0351300Y0033741D03*
X0361143Y0033741D03*
X0421457Y0033741D03*
X0431300Y0033741D03*
X0441143Y0033741D03*
X0496457Y0033741D03*
X0506300Y0033741D03*
X0516143Y0033741D03*
X0516143Y0113741D03*
X0506300Y0113741D03*
X0496457Y0113741D03*
X0441143Y0113741D03*
X0431300Y0113741D03*
X0421457Y0113741D03*
X0361143Y0113741D03*
X0351300Y0113741D03*
X0341457Y0113741D03*
X0286143Y0113741D03*
X0276300Y0113741D03*
X0266457Y0113741D03*
X0211143Y0113741D03*
X0201300Y0113741D03*
X0191457Y0113741D03*
X0131143Y0113741D03*
X0121300Y0113741D03*
X0111457Y0113741D03*
X0111457Y0188741D03*
X0121300Y0188741D03*
X0131143Y0188741D03*
X0191457Y0188741D03*
X0201300Y0188741D03*
X0211143Y0188741D03*
X0266457Y0188741D03*
X0276300Y0188741D03*
X0286143Y0188741D03*
X0341457Y0188741D03*
X0351300Y0188741D03*
X0361143Y0188741D03*
X0421457Y0188741D03*
X0431300Y0188741D03*
X0441143Y0188741D03*
X0496457Y0188741D03*
X0506300Y0188741D03*
X0516143Y0188741D03*
X0516143Y0263741D03*
X0506300Y0263741D03*
X0496457Y0263741D03*
X0441143Y0263741D03*
X0431300Y0263741D03*
X0421457Y0263741D03*
X0361143Y0263741D03*
X0351300Y0263741D03*
X0341457Y0263741D03*
X0286143Y0263741D03*
X0276300Y0263741D03*
X0266457Y0263741D03*
X0211143Y0263741D03*
X0201300Y0263741D03*
X0191457Y0263741D03*
X0131143Y0263741D03*
X0121300Y0263741D03*
X0111457Y0263741D03*
X0111457Y0338741D03*
X0121300Y0338741D03*
X0131143Y0338741D03*
X0191457Y0338741D03*
X0201300Y0338741D03*
X0211143Y0338741D03*
X0266457Y0338741D03*
X0276300Y0338741D03*
X0286143Y0338741D03*
X0341457Y0338741D03*
X0351300Y0338741D03*
X0361143Y0338741D03*
X0421457Y0338741D03*
X0431300Y0338741D03*
X0441143Y0338741D03*
X0496457Y0338741D03*
X0506300Y0338741D03*
X0516143Y0338741D03*
X0516143Y0413741D03*
X0506300Y0413741D03*
X0496457Y0413741D03*
X0441143Y0413741D03*
X0431300Y0413741D03*
X0421457Y0413741D03*
X0361143Y0413741D03*
X0351300Y0413741D03*
X0341457Y0413741D03*
X0286143Y0413741D03*
X0276300Y0413741D03*
X0266457Y0413741D03*
X0211143Y0413741D03*
X0201300Y0413741D03*
X0191457Y0413741D03*
X0131143Y0413741D03*
X0121300Y0413741D03*
X0111457Y0413741D03*
D15*
X0102796Y0441300D03*
X0139804Y0441300D03*
X0182796Y0441300D03*
X0219804Y0441300D03*
X0257796Y0441300D03*
X0294804Y0441300D03*
X0332796Y0441300D03*
X0369804Y0441300D03*
X0412796Y0441300D03*
X0449804Y0441300D03*
X0487796Y0441300D03*
X0524804Y0441300D03*
X0524804Y0366300D03*
X0487796Y0366300D03*
X0449804Y0366300D03*
X0412796Y0366300D03*
X0369804Y0366300D03*
X0332796Y0366300D03*
X0294804Y0366300D03*
X0257796Y0366300D03*
X0219804Y0366300D03*
X0182796Y0366300D03*
X0139804Y0366300D03*
X0102796Y0366300D03*
X0102796Y0291300D03*
X0139804Y0291300D03*
X0182796Y0291300D03*
X0219804Y0291300D03*
X0257796Y0291300D03*
X0294804Y0291300D03*
X0332796Y0291300D03*
X0369804Y0291300D03*
X0412796Y0291300D03*
X0449804Y0291300D03*
X0487796Y0291300D03*
X0524804Y0291300D03*
X0524804Y0216300D03*
X0487796Y0216300D03*
X0449804Y0216300D03*
X0412796Y0216300D03*
X0369804Y0216300D03*
X0332796Y0216300D03*
X0294804Y0216300D03*
X0257796Y0216300D03*
X0219804Y0216300D03*
X0182796Y0216300D03*
X0139804Y0216300D03*
X0102796Y0216300D03*
X0102796Y0141300D03*
X0139804Y0141300D03*
X0182796Y0141300D03*
X0219804Y0141300D03*
X0257796Y0141300D03*
X0294804Y0141300D03*
X0332796Y0141300D03*
X0369804Y0141300D03*
X0412796Y0141300D03*
X0449804Y0141300D03*
X0487796Y0141300D03*
X0524804Y0141300D03*
X0524804Y0061300D03*
X0487796Y0061300D03*
X0449804Y0061300D03*
X0412796Y0061300D03*
X0369804Y0061300D03*
X0332796Y0061300D03*
X0294804Y0061300D03*
X0257796Y0061300D03*
X0219804Y0061300D03*
X0182796Y0061300D03*
X0139804Y0061300D03*
X0102796Y0061300D03*
D16*
X0460820Y0398550D03*
X0475780Y0398550D03*
X0438550Y0443320D03*
X0438550Y0458280D03*
D17*
X0464439Y0455402D03*
X0474439Y0455402D03*
X0474439Y0445402D03*
X0464439Y0445402D03*
X0464439Y0435402D03*
X0474439Y0435402D03*
X0474439Y0425402D03*
X0464439Y0425402D03*
X0464439Y0415402D03*
X0474439Y0415402D03*
D18*
X0425550Y0446001D03*
X0425550Y0458599D03*
D19*
X0454100Y0346750D03*
X0454100Y0325500D03*
X0514100Y0313000D03*
X0451600Y0269000D03*
X0451600Y0246750D03*
X0514100Y0238000D03*
X0514100Y0163000D03*
X0455350Y0114250D03*
X0455350Y0096750D03*
X0514100Y0088000D03*
X0480600Y0038300D03*
X0480800Y0022000D03*
X0454100Y0020500D03*
X0454100Y0038000D03*
X0548300Y0036300D03*
X0361600Y0083000D03*
X0305302Y0035441D03*
X0254100Y0043000D03*
X0195100Y0043000D03*
X0156100Y0055000D03*
X0174100Y0079500D03*
X0195350Y0083000D03*
X0158800Y0121600D03*
X0151200Y0122925D03*
X0139600Y0132200D03*
X0126850Y0102000D03*
X0196450Y0163100D03*
X0211600Y0163000D03*
X0164100Y0173000D03*
X0163550Y0191800D03*
X0134150Y0178000D03*
X0182200Y0235150D03*
X0159600Y0252600D03*
X0129850Y0253750D03*
X0187100Y0301000D03*
X0161100Y0335700D03*
X0163000Y0352100D03*
X0145350Y0387550D03*
X0153100Y0400000D03*
X0138659Y0407857D03*
X0126300Y0401300D03*
X0159700Y0417900D03*
X0163400Y0413250D03*
X0161950Y0425900D03*
X0180300Y0432522D03*
X0191300Y0421300D03*
X0297850Y0348000D03*
X0297850Y0324250D03*
X0299100Y0269750D03*
X0299100Y0250500D03*
X0375350Y0248000D03*
X0375350Y0268750D03*
X0374100Y0325500D03*
X0374100Y0346750D03*
X0215500Y0235500D03*
X0287650Y0171150D03*
X0287850Y0156750D03*
X0262650Y0121200D03*
M02*
