G75*
%MOIN*%
%OFA0B0*%
%FSLAX25Y25*%
%IPPOS*%
%LPD*%
%AMOC8*
5,1,8,0,0,1.08239X$1,22.5*
%
%ADD10R,0.03937X0.04331*%
%ADD11R,0.04331X0.03937*%
%ADD12R,0.08661X0.02362*%
%ADD13R,0.05512X0.03937*%
%ADD14R,0.08661X0.05512*%
D10*
X0032004Y0028582D03*
X0038696Y0028582D03*
X0108254Y0026082D03*
X0114946Y0026082D03*
X0146600Y0021929D03*
X0146600Y0015236D03*
X0176600Y0037736D03*
X0176600Y0044429D03*
X0166600Y0051486D03*
X0166600Y0058179D03*
X0145350Y0093986D03*
X0145350Y0100679D03*
X0114946Y0106082D03*
X0108254Y0106082D03*
X0166600Y0132736D03*
X0166600Y0139429D03*
X0177850Y0124429D03*
X0177850Y0117736D03*
X0146600Y0168986D03*
X0146600Y0175679D03*
X0114946Y0181082D03*
X0108254Y0181082D03*
X0166600Y0206486D03*
X0166600Y0213179D03*
X0177850Y0200679D03*
X0177850Y0193986D03*
X0146600Y0243986D03*
X0146600Y0250679D03*
X0114946Y0256082D03*
X0108254Y0256082D03*
X0166600Y0281486D03*
X0166600Y0288179D03*
X0177850Y0275679D03*
X0177850Y0268986D03*
X0146600Y0317736D03*
X0146600Y0324429D03*
X0114946Y0331082D03*
X0108254Y0331082D03*
X0167850Y0358986D03*
X0176600Y0350679D03*
X0176600Y0343986D03*
X0167850Y0365679D03*
X0176600Y0412736D03*
X0176600Y0419429D03*
X0114946Y0406082D03*
X0108254Y0406082D03*
X0038696Y0413582D03*
X0032004Y0413582D03*
X0034504Y0337332D03*
X0041196Y0337332D03*
X0038696Y0262332D03*
X0032004Y0262332D03*
X0033254Y0188582D03*
X0039946Y0188582D03*
X0038696Y0112332D03*
X0032004Y0112332D03*
D11*
X0136600Y0110679D03*
X0136600Y0116486D03*
X0136600Y0123179D03*
X0136600Y0103986D03*
X0177850Y0105236D03*
X0177850Y0111929D03*
X0196600Y0111929D03*
X0196600Y0105236D03*
X0271600Y0105236D03*
X0271600Y0111929D03*
X0346600Y0111929D03*
X0346600Y0105236D03*
X0426600Y0105236D03*
X0426600Y0111929D03*
X0501600Y0111929D03*
X0501600Y0105236D03*
X0501600Y0031929D03*
X0501600Y0025236D03*
X0426600Y0023986D03*
X0426600Y0030679D03*
X0346600Y0030679D03*
X0346600Y0023986D03*
X0271600Y0023986D03*
X0271600Y0030679D03*
X0196600Y0031929D03*
X0196600Y0025236D03*
X0176600Y0025236D03*
X0176600Y0031929D03*
X0136600Y0030679D03*
X0136600Y0036486D03*
X0136600Y0043179D03*
X0136600Y0023986D03*
X0136600Y0178986D03*
X0136600Y0185679D03*
X0136600Y0191486D03*
X0136600Y0198179D03*
X0177850Y0188179D03*
X0177850Y0181486D03*
X0196600Y0180236D03*
X0196600Y0186929D03*
X0271600Y0186929D03*
X0271600Y0180236D03*
X0346600Y0180236D03*
X0346600Y0186929D03*
X0346600Y0255236D03*
X0346600Y0261929D03*
X0271600Y0261929D03*
X0271600Y0255236D03*
X0196600Y0255236D03*
X0196600Y0261929D03*
X0177850Y0263179D03*
X0177850Y0256486D03*
X0136600Y0259429D03*
X0136600Y0265236D03*
X0136600Y0271929D03*
X0136600Y0252736D03*
X0136600Y0330236D03*
X0136600Y0336929D03*
X0136600Y0341486D03*
X0136600Y0348179D03*
X0176600Y0338179D03*
X0176600Y0331486D03*
X0196600Y0330236D03*
X0196600Y0336929D03*
X0271600Y0336929D03*
X0271600Y0330236D03*
X0346600Y0330236D03*
X0346600Y0336929D03*
X0346600Y0405236D03*
X0346600Y0411929D03*
X0271600Y0411929D03*
X0271600Y0405236D03*
X0196600Y0405236D03*
X0196600Y0411929D03*
X0176600Y0425236D03*
X0176600Y0431929D03*
X0167446Y0436082D03*
X0160754Y0436082D03*
X0136600Y0431929D03*
X0136600Y0425236D03*
X0136600Y0419429D03*
X0136600Y0412736D03*
X0135754Y0406082D03*
X0142446Y0406082D03*
X0426600Y0405236D03*
X0426600Y0411929D03*
X0501600Y0411929D03*
X0501600Y0405236D03*
X0501600Y0336929D03*
X0501600Y0330236D03*
X0426600Y0330236D03*
X0426600Y0336929D03*
X0426600Y0261929D03*
X0426600Y0255236D03*
X0501600Y0255236D03*
X0501600Y0261929D03*
X0501600Y0186929D03*
X0501600Y0180236D03*
X0426600Y0180236D03*
X0426600Y0186929D03*
D12*
X0166836Y0188582D03*
X0166836Y0183582D03*
X0166836Y0193582D03*
X0166836Y0198582D03*
X0146364Y0198582D03*
X0146364Y0193582D03*
X0146364Y0188582D03*
X0146364Y0183582D03*
X0146364Y0123582D03*
X0146364Y0118582D03*
X0146364Y0113582D03*
X0146364Y0108582D03*
X0166836Y0108582D03*
X0166836Y0113582D03*
X0166836Y0118582D03*
X0166836Y0123582D03*
X0166836Y0043582D03*
X0166836Y0038582D03*
X0166836Y0033582D03*
X0166836Y0028582D03*
X0146364Y0028582D03*
X0146364Y0033582D03*
X0146364Y0038582D03*
X0146364Y0043582D03*
X0146364Y0258582D03*
X0146364Y0263582D03*
X0146364Y0268582D03*
X0146364Y0273582D03*
X0166836Y0273582D03*
X0166836Y0268582D03*
X0166836Y0263582D03*
X0166836Y0258582D03*
X0166836Y0333582D03*
X0166836Y0338582D03*
X0166836Y0343582D03*
X0166836Y0348582D03*
X0146364Y0348582D03*
X0146364Y0343582D03*
X0146364Y0338582D03*
X0146364Y0333582D03*
X0146364Y0413582D03*
X0146364Y0418582D03*
X0146364Y0423582D03*
X0146364Y0428582D03*
X0166836Y0428582D03*
X0166836Y0423582D03*
X0166836Y0418582D03*
X0166836Y0413582D03*
D13*
X0043431Y0347332D03*
X0034769Y0343592D03*
X0034769Y0351073D03*
X0032269Y0418592D03*
X0040931Y0422332D03*
X0032269Y0426073D03*
X0032269Y0276073D03*
X0040931Y0272332D03*
X0032269Y0268592D03*
X0033519Y0201073D03*
X0033519Y0193592D03*
X0042181Y0197332D03*
X0032269Y0126073D03*
X0040931Y0122332D03*
X0032269Y0118592D03*
X0032269Y0046073D03*
X0040931Y0042332D03*
X0032269Y0038592D03*
D14*
X0560301Y0041082D03*
X0572899Y0041082D03*
X0576649Y0116082D03*
X0564051Y0116082D03*
X0562801Y0191082D03*
X0575399Y0191082D03*
X0579149Y0266082D03*
X0566551Y0266082D03*
X0565301Y0341082D03*
X0577899Y0341082D03*
X0576649Y0416082D03*
X0564051Y0416082D03*
M02*
