G75*
%MOIN*%
%OFA0B0*%
%FSLAX25Y25*%
%IPPOS*%
%LPD*%
%AMOC8*
5,1,8,0,0,1.08239X$1,22.5*
%
%ADD10C,0.00000*%
%ADD11OC8,0.07800*%
%ADD12C,0.09461*%
%ADD13C,0.00200*%
%ADD14R,0.04737X0.05131*%
%ADD15R,0.05131X0.04737*%
%ADD16R,0.09461X0.03162*%
%ADD17OC8,0.06000*%
%ADD18R,0.06312X0.04737*%
%ADD19R,0.08200X0.08200*%
%ADD20OC8,0.10800*%
%ADD21R,0.09461X0.06312*%
%ADD22OC8,0.08200*%
%ADD23C,0.05550*%
D10*
X0006300Y0016300D02*
X0007550Y0465011D01*
X0600001Y0465011D01*
X0600001Y0016300D01*
X0006300Y0016300D01*
X0041969Y0061300D02*
X0041971Y0061431D01*
X0041977Y0061563D01*
X0041987Y0061694D01*
X0042001Y0061825D01*
X0042019Y0061955D01*
X0042041Y0062084D01*
X0042066Y0062213D01*
X0042096Y0062341D01*
X0042130Y0062468D01*
X0042167Y0062595D01*
X0042208Y0062719D01*
X0042253Y0062843D01*
X0042302Y0062965D01*
X0042354Y0063086D01*
X0042410Y0063204D01*
X0042470Y0063322D01*
X0042533Y0063437D01*
X0042600Y0063550D01*
X0042670Y0063662D01*
X0042743Y0063771D01*
X0042819Y0063877D01*
X0042899Y0063982D01*
X0042982Y0064084D01*
X0043068Y0064183D01*
X0043157Y0064280D01*
X0043249Y0064374D01*
X0043344Y0064465D01*
X0043441Y0064554D01*
X0043541Y0064639D01*
X0043644Y0064721D01*
X0043749Y0064800D01*
X0043856Y0064876D01*
X0043966Y0064948D01*
X0044078Y0065017D01*
X0044192Y0065083D01*
X0044307Y0065145D01*
X0044425Y0065204D01*
X0044544Y0065259D01*
X0044665Y0065311D01*
X0044788Y0065358D01*
X0044912Y0065402D01*
X0045037Y0065443D01*
X0045163Y0065479D01*
X0045291Y0065512D01*
X0045419Y0065540D01*
X0045548Y0065565D01*
X0045678Y0065586D01*
X0045808Y0065603D01*
X0045939Y0065616D01*
X0046070Y0065625D01*
X0046201Y0065630D01*
X0046333Y0065631D01*
X0046464Y0065628D01*
X0046596Y0065621D01*
X0046727Y0065610D01*
X0046857Y0065595D01*
X0046987Y0065576D01*
X0047117Y0065553D01*
X0047245Y0065527D01*
X0047373Y0065496D01*
X0047500Y0065461D01*
X0047626Y0065423D01*
X0047750Y0065381D01*
X0047874Y0065335D01*
X0047995Y0065285D01*
X0048115Y0065232D01*
X0048234Y0065175D01*
X0048351Y0065115D01*
X0048465Y0065051D01*
X0048578Y0064983D01*
X0048689Y0064912D01*
X0048798Y0064838D01*
X0048904Y0064761D01*
X0049008Y0064680D01*
X0049109Y0064597D01*
X0049208Y0064510D01*
X0049304Y0064420D01*
X0049397Y0064327D01*
X0049488Y0064232D01*
X0049575Y0064134D01*
X0049660Y0064033D01*
X0049741Y0063930D01*
X0049819Y0063824D01*
X0049894Y0063716D01*
X0049966Y0063606D01*
X0050034Y0063494D01*
X0050099Y0063380D01*
X0050160Y0063263D01*
X0050218Y0063145D01*
X0050272Y0063025D01*
X0050323Y0062904D01*
X0050370Y0062781D01*
X0050413Y0062657D01*
X0050452Y0062532D01*
X0050488Y0062405D01*
X0050519Y0062277D01*
X0050547Y0062149D01*
X0050571Y0062020D01*
X0050591Y0061890D01*
X0050607Y0061759D01*
X0050619Y0061628D01*
X0050627Y0061497D01*
X0050631Y0061366D01*
X0050631Y0061234D01*
X0050627Y0061103D01*
X0050619Y0060972D01*
X0050607Y0060841D01*
X0050591Y0060710D01*
X0050571Y0060580D01*
X0050547Y0060451D01*
X0050519Y0060323D01*
X0050488Y0060195D01*
X0050452Y0060068D01*
X0050413Y0059943D01*
X0050370Y0059819D01*
X0050323Y0059696D01*
X0050272Y0059575D01*
X0050218Y0059455D01*
X0050160Y0059337D01*
X0050099Y0059220D01*
X0050034Y0059106D01*
X0049966Y0058994D01*
X0049894Y0058884D01*
X0049819Y0058776D01*
X0049741Y0058670D01*
X0049660Y0058567D01*
X0049575Y0058466D01*
X0049488Y0058368D01*
X0049397Y0058273D01*
X0049304Y0058180D01*
X0049208Y0058090D01*
X0049109Y0058003D01*
X0049008Y0057920D01*
X0048904Y0057839D01*
X0048798Y0057762D01*
X0048689Y0057688D01*
X0048578Y0057617D01*
X0048466Y0057549D01*
X0048351Y0057485D01*
X0048234Y0057425D01*
X0048115Y0057368D01*
X0047995Y0057315D01*
X0047874Y0057265D01*
X0047750Y0057219D01*
X0047626Y0057177D01*
X0047500Y0057139D01*
X0047373Y0057104D01*
X0047245Y0057073D01*
X0047117Y0057047D01*
X0046987Y0057024D01*
X0046857Y0057005D01*
X0046727Y0056990D01*
X0046596Y0056979D01*
X0046464Y0056972D01*
X0046333Y0056969D01*
X0046201Y0056970D01*
X0046070Y0056975D01*
X0045939Y0056984D01*
X0045808Y0056997D01*
X0045678Y0057014D01*
X0045548Y0057035D01*
X0045419Y0057060D01*
X0045291Y0057088D01*
X0045163Y0057121D01*
X0045037Y0057157D01*
X0044912Y0057198D01*
X0044788Y0057242D01*
X0044665Y0057289D01*
X0044544Y0057341D01*
X0044425Y0057396D01*
X0044307Y0057455D01*
X0044192Y0057517D01*
X0044078Y0057583D01*
X0043966Y0057652D01*
X0043856Y0057724D01*
X0043749Y0057800D01*
X0043644Y0057879D01*
X0043541Y0057961D01*
X0043441Y0058046D01*
X0043344Y0058135D01*
X0043249Y0058226D01*
X0043157Y0058320D01*
X0043068Y0058417D01*
X0042982Y0058516D01*
X0042899Y0058618D01*
X0042819Y0058723D01*
X0042743Y0058829D01*
X0042670Y0058938D01*
X0042600Y0059050D01*
X0042533Y0059163D01*
X0042470Y0059278D01*
X0042410Y0059396D01*
X0042354Y0059514D01*
X0042302Y0059635D01*
X0042253Y0059757D01*
X0042208Y0059881D01*
X0042167Y0060005D01*
X0042130Y0060132D01*
X0042096Y0060259D01*
X0042066Y0060387D01*
X0042041Y0060516D01*
X0042019Y0060645D01*
X0042001Y0060775D01*
X0041987Y0060906D01*
X0041977Y0061037D01*
X0041971Y0061169D01*
X0041969Y0061300D01*
X0041969Y0141300D02*
X0041971Y0141431D01*
X0041977Y0141563D01*
X0041987Y0141694D01*
X0042001Y0141825D01*
X0042019Y0141955D01*
X0042041Y0142084D01*
X0042066Y0142213D01*
X0042096Y0142341D01*
X0042130Y0142468D01*
X0042167Y0142595D01*
X0042208Y0142719D01*
X0042253Y0142843D01*
X0042302Y0142965D01*
X0042354Y0143086D01*
X0042410Y0143204D01*
X0042470Y0143322D01*
X0042533Y0143437D01*
X0042600Y0143550D01*
X0042670Y0143662D01*
X0042743Y0143771D01*
X0042819Y0143877D01*
X0042899Y0143982D01*
X0042982Y0144084D01*
X0043068Y0144183D01*
X0043157Y0144280D01*
X0043249Y0144374D01*
X0043344Y0144465D01*
X0043441Y0144554D01*
X0043541Y0144639D01*
X0043644Y0144721D01*
X0043749Y0144800D01*
X0043856Y0144876D01*
X0043966Y0144948D01*
X0044078Y0145017D01*
X0044192Y0145083D01*
X0044307Y0145145D01*
X0044425Y0145204D01*
X0044544Y0145259D01*
X0044665Y0145311D01*
X0044788Y0145358D01*
X0044912Y0145402D01*
X0045037Y0145443D01*
X0045163Y0145479D01*
X0045291Y0145512D01*
X0045419Y0145540D01*
X0045548Y0145565D01*
X0045678Y0145586D01*
X0045808Y0145603D01*
X0045939Y0145616D01*
X0046070Y0145625D01*
X0046201Y0145630D01*
X0046333Y0145631D01*
X0046464Y0145628D01*
X0046596Y0145621D01*
X0046727Y0145610D01*
X0046857Y0145595D01*
X0046987Y0145576D01*
X0047117Y0145553D01*
X0047245Y0145527D01*
X0047373Y0145496D01*
X0047500Y0145461D01*
X0047626Y0145423D01*
X0047750Y0145381D01*
X0047874Y0145335D01*
X0047995Y0145285D01*
X0048115Y0145232D01*
X0048234Y0145175D01*
X0048351Y0145115D01*
X0048465Y0145051D01*
X0048578Y0144983D01*
X0048689Y0144912D01*
X0048798Y0144838D01*
X0048904Y0144761D01*
X0049008Y0144680D01*
X0049109Y0144597D01*
X0049208Y0144510D01*
X0049304Y0144420D01*
X0049397Y0144327D01*
X0049488Y0144232D01*
X0049575Y0144134D01*
X0049660Y0144033D01*
X0049741Y0143930D01*
X0049819Y0143824D01*
X0049894Y0143716D01*
X0049966Y0143606D01*
X0050034Y0143494D01*
X0050099Y0143380D01*
X0050160Y0143263D01*
X0050218Y0143145D01*
X0050272Y0143025D01*
X0050323Y0142904D01*
X0050370Y0142781D01*
X0050413Y0142657D01*
X0050452Y0142532D01*
X0050488Y0142405D01*
X0050519Y0142277D01*
X0050547Y0142149D01*
X0050571Y0142020D01*
X0050591Y0141890D01*
X0050607Y0141759D01*
X0050619Y0141628D01*
X0050627Y0141497D01*
X0050631Y0141366D01*
X0050631Y0141234D01*
X0050627Y0141103D01*
X0050619Y0140972D01*
X0050607Y0140841D01*
X0050591Y0140710D01*
X0050571Y0140580D01*
X0050547Y0140451D01*
X0050519Y0140323D01*
X0050488Y0140195D01*
X0050452Y0140068D01*
X0050413Y0139943D01*
X0050370Y0139819D01*
X0050323Y0139696D01*
X0050272Y0139575D01*
X0050218Y0139455D01*
X0050160Y0139337D01*
X0050099Y0139220D01*
X0050034Y0139106D01*
X0049966Y0138994D01*
X0049894Y0138884D01*
X0049819Y0138776D01*
X0049741Y0138670D01*
X0049660Y0138567D01*
X0049575Y0138466D01*
X0049488Y0138368D01*
X0049397Y0138273D01*
X0049304Y0138180D01*
X0049208Y0138090D01*
X0049109Y0138003D01*
X0049008Y0137920D01*
X0048904Y0137839D01*
X0048798Y0137762D01*
X0048689Y0137688D01*
X0048578Y0137617D01*
X0048466Y0137549D01*
X0048351Y0137485D01*
X0048234Y0137425D01*
X0048115Y0137368D01*
X0047995Y0137315D01*
X0047874Y0137265D01*
X0047750Y0137219D01*
X0047626Y0137177D01*
X0047500Y0137139D01*
X0047373Y0137104D01*
X0047245Y0137073D01*
X0047117Y0137047D01*
X0046987Y0137024D01*
X0046857Y0137005D01*
X0046727Y0136990D01*
X0046596Y0136979D01*
X0046464Y0136972D01*
X0046333Y0136969D01*
X0046201Y0136970D01*
X0046070Y0136975D01*
X0045939Y0136984D01*
X0045808Y0136997D01*
X0045678Y0137014D01*
X0045548Y0137035D01*
X0045419Y0137060D01*
X0045291Y0137088D01*
X0045163Y0137121D01*
X0045037Y0137157D01*
X0044912Y0137198D01*
X0044788Y0137242D01*
X0044665Y0137289D01*
X0044544Y0137341D01*
X0044425Y0137396D01*
X0044307Y0137455D01*
X0044192Y0137517D01*
X0044078Y0137583D01*
X0043966Y0137652D01*
X0043856Y0137724D01*
X0043749Y0137800D01*
X0043644Y0137879D01*
X0043541Y0137961D01*
X0043441Y0138046D01*
X0043344Y0138135D01*
X0043249Y0138226D01*
X0043157Y0138320D01*
X0043068Y0138417D01*
X0042982Y0138516D01*
X0042899Y0138618D01*
X0042819Y0138723D01*
X0042743Y0138829D01*
X0042670Y0138938D01*
X0042600Y0139050D01*
X0042533Y0139163D01*
X0042470Y0139278D01*
X0042410Y0139396D01*
X0042354Y0139514D01*
X0042302Y0139635D01*
X0042253Y0139757D01*
X0042208Y0139881D01*
X0042167Y0140005D01*
X0042130Y0140132D01*
X0042096Y0140259D01*
X0042066Y0140387D01*
X0042041Y0140516D01*
X0042019Y0140645D01*
X0042001Y0140775D01*
X0041987Y0140906D01*
X0041977Y0141037D01*
X0041971Y0141169D01*
X0041969Y0141300D01*
X0041969Y0216300D02*
X0041971Y0216431D01*
X0041977Y0216563D01*
X0041987Y0216694D01*
X0042001Y0216825D01*
X0042019Y0216955D01*
X0042041Y0217084D01*
X0042066Y0217213D01*
X0042096Y0217341D01*
X0042130Y0217468D01*
X0042167Y0217595D01*
X0042208Y0217719D01*
X0042253Y0217843D01*
X0042302Y0217965D01*
X0042354Y0218086D01*
X0042410Y0218204D01*
X0042470Y0218322D01*
X0042533Y0218437D01*
X0042600Y0218550D01*
X0042670Y0218662D01*
X0042743Y0218771D01*
X0042819Y0218877D01*
X0042899Y0218982D01*
X0042982Y0219084D01*
X0043068Y0219183D01*
X0043157Y0219280D01*
X0043249Y0219374D01*
X0043344Y0219465D01*
X0043441Y0219554D01*
X0043541Y0219639D01*
X0043644Y0219721D01*
X0043749Y0219800D01*
X0043856Y0219876D01*
X0043966Y0219948D01*
X0044078Y0220017D01*
X0044192Y0220083D01*
X0044307Y0220145D01*
X0044425Y0220204D01*
X0044544Y0220259D01*
X0044665Y0220311D01*
X0044788Y0220358D01*
X0044912Y0220402D01*
X0045037Y0220443D01*
X0045163Y0220479D01*
X0045291Y0220512D01*
X0045419Y0220540D01*
X0045548Y0220565D01*
X0045678Y0220586D01*
X0045808Y0220603D01*
X0045939Y0220616D01*
X0046070Y0220625D01*
X0046201Y0220630D01*
X0046333Y0220631D01*
X0046464Y0220628D01*
X0046596Y0220621D01*
X0046727Y0220610D01*
X0046857Y0220595D01*
X0046987Y0220576D01*
X0047117Y0220553D01*
X0047245Y0220527D01*
X0047373Y0220496D01*
X0047500Y0220461D01*
X0047626Y0220423D01*
X0047750Y0220381D01*
X0047874Y0220335D01*
X0047995Y0220285D01*
X0048115Y0220232D01*
X0048234Y0220175D01*
X0048351Y0220115D01*
X0048465Y0220051D01*
X0048578Y0219983D01*
X0048689Y0219912D01*
X0048798Y0219838D01*
X0048904Y0219761D01*
X0049008Y0219680D01*
X0049109Y0219597D01*
X0049208Y0219510D01*
X0049304Y0219420D01*
X0049397Y0219327D01*
X0049488Y0219232D01*
X0049575Y0219134D01*
X0049660Y0219033D01*
X0049741Y0218930D01*
X0049819Y0218824D01*
X0049894Y0218716D01*
X0049966Y0218606D01*
X0050034Y0218494D01*
X0050099Y0218380D01*
X0050160Y0218263D01*
X0050218Y0218145D01*
X0050272Y0218025D01*
X0050323Y0217904D01*
X0050370Y0217781D01*
X0050413Y0217657D01*
X0050452Y0217532D01*
X0050488Y0217405D01*
X0050519Y0217277D01*
X0050547Y0217149D01*
X0050571Y0217020D01*
X0050591Y0216890D01*
X0050607Y0216759D01*
X0050619Y0216628D01*
X0050627Y0216497D01*
X0050631Y0216366D01*
X0050631Y0216234D01*
X0050627Y0216103D01*
X0050619Y0215972D01*
X0050607Y0215841D01*
X0050591Y0215710D01*
X0050571Y0215580D01*
X0050547Y0215451D01*
X0050519Y0215323D01*
X0050488Y0215195D01*
X0050452Y0215068D01*
X0050413Y0214943D01*
X0050370Y0214819D01*
X0050323Y0214696D01*
X0050272Y0214575D01*
X0050218Y0214455D01*
X0050160Y0214337D01*
X0050099Y0214220D01*
X0050034Y0214106D01*
X0049966Y0213994D01*
X0049894Y0213884D01*
X0049819Y0213776D01*
X0049741Y0213670D01*
X0049660Y0213567D01*
X0049575Y0213466D01*
X0049488Y0213368D01*
X0049397Y0213273D01*
X0049304Y0213180D01*
X0049208Y0213090D01*
X0049109Y0213003D01*
X0049008Y0212920D01*
X0048904Y0212839D01*
X0048798Y0212762D01*
X0048689Y0212688D01*
X0048578Y0212617D01*
X0048466Y0212549D01*
X0048351Y0212485D01*
X0048234Y0212425D01*
X0048115Y0212368D01*
X0047995Y0212315D01*
X0047874Y0212265D01*
X0047750Y0212219D01*
X0047626Y0212177D01*
X0047500Y0212139D01*
X0047373Y0212104D01*
X0047245Y0212073D01*
X0047117Y0212047D01*
X0046987Y0212024D01*
X0046857Y0212005D01*
X0046727Y0211990D01*
X0046596Y0211979D01*
X0046464Y0211972D01*
X0046333Y0211969D01*
X0046201Y0211970D01*
X0046070Y0211975D01*
X0045939Y0211984D01*
X0045808Y0211997D01*
X0045678Y0212014D01*
X0045548Y0212035D01*
X0045419Y0212060D01*
X0045291Y0212088D01*
X0045163Y0212121D01*
X0045037Y0212157D01*
X0044912Y0212198D01*
X0044788Y0212242D01*
X0044665Y0212289D01*
X0044544Y0212341D01*
X0044425Y0212396D01*
X0044307Y0212455D01*
X0044192Y0212517D01*
X0044078Y0212583D01*
X0043966Y0212652D01*
X0043856Y0212724D01*
X0043749Y0212800D01*
X0043644Y0212879D01*
X0043541Y0212961D01*
X0043441Y0213046D01*
X0043344Y0213135D01*
X0043249Y0213226D01*
X0043157Y0213320D01*
X0043068Y0213417D01*
X0042982Y0213516D01*
X0042899Y0213618D01*
X0042819Y0213723D01*
X0042743Y0213829D01*
X0042670Y0213938D01*
X0042600Y0214050D01*
X0042533Y0214163D01*
X0042470Y0214278D01*
X0042410Y0214396D01*
X0042354Y0214514D01*
X0042302Y0214635D01*
X0042253Y0214757D01*
X0042208Y0214881D01*
X0042167Y0215005D01*
X0042130Y0215132D01*
X0042096Y0215259D01*
X0042066Y0215387D01*
X0042041Y0215516D01*
X0042019Y0215645D01*
X0042001Y0215775D01*
X0041987Y0215906D01*
X0041977Y0216037D01*
X0041971Y0216169D01*
X0041969Y0216300D01*
X0041969Y0291300D02*
X0041971Y0291431D01*
X0041977Y0291563D01*
X0041987Y0291694D01*
X0042001Y0291825D01*
X0042019Y0291955D01*
X0042041Y0292084D01*
X0042066Y0292213D01*
X0042096Y0292341D01*
X0042130Y0292468D01*
X0042167Y0292595D01*
X0042208Y0292719D01*
X0042253Y0292843D01*
X0042302Y0292965D01*
X0042354Y0293086D01*
X0042410Y0293204D01*
X0042470Y0293322D01*
X0042533Y0293437D01*
X0042600Y0293550D01*
X0042670Y0293662D01*
X0042743Y0293771D01*
X0042819Y0293877D01*
X0042899Y0293982D01*
X0042982Y0294084D01*
X0043068Y0294183D01*
X0043157Y0294280D01*
X0043249Y0294374D01*
X0043344Y0294465D01*
X0043441Y0294554D01*
X0043541Y0294639D01*
X0043644Y0294721D01*
X0043749Y0294800D01*
X0043856Y0294876D01*
X0043966Y0294948D01*
X0044078Y0295017D01*
X0044192Y0295083D01*
X0044307Y0295145D01*
X0044425Y0295204D01*
X0044544Y0295259D01*
X0044665Y0295311D01*
X0044788Y0295358D01*
X0044912Y0295402D01*
X0045037Y0295443D01*
X0045163Y0295479D01*
X0045291Y0295512D01*
X0045419Y0295540D01*
X0045548Y0295565D01*
X0045678Y0295586D01*
X0045808Y0295603D01*
X0045939Y0295616D01*
X0046070Y0295625D01*
X0046201Y0295630D01*
X0046333Y0295631D01*
X0046464Y0295628D01*
X0046596Y0295621D01*
X0046727Y0295610D01*
X0046857Y0295595D01*
X0046987Y0295576D01*
X0047117Y0295553D01*
X0047245Y0295527D01*
X0047373Y0295496D01*
X0047500Y0295461D01*
X0047626Y0295423D01*
X0047750Y0295381D01*
X0047874Y0295335D01*
X0047995Y0295285D01*
X0048115Y0295232D01*
X0048234Y0295175D01*
X0048351Y0295115D01*
X0048465Y0295051D01*
X0048578Y0294983D01*
X0048689Y0294912D01*
X0048798Y0294838D01*
X0048904Y0294761D01*
X0049008Y0294680D01*
X0049109Y0294597D01*
X0049208Y0294510D01*
X0049304Y0294420D01*
X0049397Y0294327D01*
X0049488Y0294232D01*
X0049575Y0294134D01*
X0049660Y0294033D01*
X0049741Y0293930D01*
X0049819Y0293824D01*
X0049894Y0293716D01*
X0049966Y0293606D01*
X0050034Y0293494D01*
X0050099Y0293380D01*
X0050160Y0293263D01*
X0050218Y0293145D01*
X0050272Y0293025D01*
X0050323Y0292904D01*
X0050370Y0292781D01*
X0050413Y0292657D01*
X0050452Y0292532D01*
X0050488Y0292405D01*
X0050519Y0292277D01*
X0050547Y0292149D01*
X0050571Y0292020D01*
X0050591Y0291890D01*
X0050607Y0291759D01*
X0050619Y0291628D01*
X0050627Y0291497D01*
X0050631Y0291366D01*
X0050631Y0291234D01*
X0050627Y0291103D01*
X0050619Y0290972D01*
X0050607Y0290841D01*
X0050591Y0290710D01*
X0050571Y0290580D01*
X0050547Y0290451D01*
X0050519Y0290323D01*
X0050488Y0290195D01*
X0050452Y0290068D01*
X0050413Y0289943D01*
X0050370Y0289819D01*
X0050323Y0289696D01*
X0050272Y0289575D01*
X0050218Y0289455D01*
X0050160Y0289337D01*
X0050099Y0289220D01*
X0050034Y0289106D01*
X0049966Y0288994D01*
X0049894Y0288884D01*
X0049819Y0288776D01*
X0049741Y0288670D01*
X0049660Y0288567D01*
X0049575Y0288466D01*
X0049488Y0288368D01*
X0049397Y0288273D01*
X0049304Y0288180D01*
X0049208Y0288090D01*
X0049109Y0288003D01*
X0049008Y0287920D01*
X0048904Y0287839D01*
X0048798Y0287762D01*
X0048689Y0287688D01*
X0048578Y0287617D01*
X0048466Y0287549D01*
X0048351Y0287485D01*
X0048234Y0287425D01*
X0048115Y0287368D01*
X0047995Y0287315D01*
X0047874Y0287265D01*
X0047750Y0287219D01*
X0047626Y0287177D01*
X0047500Y0287139D01*
X0047373Y0287104D01*
X0047245Y0287073D01*
X0047117Y0287047D01*
X0046987Y0287024D01*
X0046857Y0287005D01*
X0046727Y0286990D01*
X0046596Y0286979D01*
X0046464Y0286972D01*
X0046333Y0286969D01*
X0046201Y0286970D01*
X0046070Y0286975D01*
X0045939Y0286984D01*
X0045808Y0286997D01*
X0045678Y0287014D01*
X0045548Y0287035D01*
X0045419Y0287060D01*
X0045291Y0287088D01*
X0045163Y0287121D01*
X0045037Y0287157D01*
X0044912Y0287198D01*
X0044788Y0287242D01*
X0044665Y0287289D01*
X0044544Y0287341D01*
X0044425Y0287396D01*
X0044307Y0287455D01*
X0044192Y0287517D01*
X0044078Y0287583D01*
X0043966Y0287652D01*
X0043856Y0287724D01*
X0043749Y0287800D01*
X0043644Y0287879D01*
X0043541Y0287961D01*
X0043441Y0288046D01*
X0043344Y0288135D01*
X0043249Y0288226D01*
X0043157Y0288320D01*
X0043068Y0288417D01*
X0042982Y0288516D01*
X0042899Y0288618D01*
X0042819Y0288723D01*
X0042743Y0288829D01*
X0042670Y0288938D01*
X0042600Y0289050D01*
X0042533Y0289163D01*
X0042470Y0289278D01*
X0042410Y0289396D01*
X0042354Y0289514D01*
X0042302Y0289635D01*
X0042253Y0289757D01*
X0042208Y0289881D01*
X0042167Y0290005D01*
X0042130Y0290132D01*
X0042096Y0290259D01*
X0042066Y0290387D01*
X0042041Y0290516D01*
X0042019Y0290645D01*
X0042001Y0290775D01*
X0041987Y0290906D01*
X0041977Y0291037D01*
X0041971Y0291169D01*
X0041969Y0291300D01*
X0041969Y0366300D02*
X0041971Y0366431D01*
X0041977Y0366563D01*
X0041987Y0366694D01*
X0042001Y0366825D01*
X0042019Y0366955D01*
X0042041Y0367084D01*
X0042066Y0367213D01*
X0042096Y0367341D01*
X0042130Y0367468D01*
X0042167Y0367595D01*
X0042208Y0367719D01*
X0042253Y0367843D01*
X0042302Y0367965D01*
X0042354Y0368086D01*
X0042410Y0368204D01*
X0042470Y0368322D01*
X0042533Y0368437D01*
X0042600Y0368550D01*
X0042670Y0368662D01*
X0042743Y0368771D01*
X0042819Y0368877D01*
X0042899Y0368982D01*
X0042982Y0369084D01*
X0043068Y0369183D01*
X0043157Y0369280D01*
X0043249Y0369374D01*
X0043344Y0369465D01*
X0043441Y0369554D01*
X0043541Y0369639D01*
X0043644Y0369721D01*
X0043749Y0369800D01*
X0043856Y0369876D01*
X0043966Y0369948D01*
X0044078Y0370017D01*
X0044192Y0370083D01*
X0044307Y0370145D01*
X0044425Y0370204D01*
X0044544Y0370259D01*
X0044665Y0370311D01*
X0044788Y0370358D01*
X0044912Y0370402D01*
X0045037Y0370443D01*
X0045163Y0370479D01*
X0045291Y0370512D01*
X0045419Y0370540D01*
X0045548Y0370565D01*
X0045678Y0370586D01*
X0045808Y0370603D01*
X0045939Y0370616D01*
X0046070Y0370625D01*
X0046201Y0370630D01*
X0046333Y0370631D01*
X0046464Y0370628D01*
X0046596Y0370621D01*
X0046727Y0370610D01*
X0046857Y0370595D01*
X0046987Y0370576D01*
X0047117Y0370553D01*
X0047245Y0370527D01*
X0047373Y0370496D01*
X0047500Y0370461D01*
X0047626Y0370423D01*
X0047750Y0370381D01*
X0047874Y0370335D01*
X0047995Y0370285D01*
X0048115Y0370232D01*
X0048234Y0370175D01*
X0048351Y0370115D01*
X0048465Y0370051D01*
X0048578Y0369983D01*
X0048689Y0369912D01*
X0048798Y0369838D01*
X0048904Y0369761D01*
X0049008Y0369680D01*
X0049109Y0369597D01*
X0049208Y0369510D01*
X0049304Y0369420D01*
X0049397Y0369327D01*
X0049488Y0369232D01*
X0049575Y0369134D01*
X0049660Y0369033D01*
X0049741Y0368930D01*
X0049819Y0368824D01*
X0049894Y0368716D01*
X0049966Y0368606D01*
X0050034Y0368494D01*
X0050099Y0368380D01*
X0050160Y0368263D01*
X0050218Y0368145D01*
X0050272Y0368025D01*
X0050323Y0367904D01*
X0050370Y0367781D01*
X0050413Y0367657D01*
X0050452Y0367532D01*
X0050488Y0367405D01*
X0050519Y0367277D01*
X0050547Y0367149D01*
X0050571Y0367020D01*
X0050591Y0366890D01*
X0050607Y0366759D01*
X0050619Y0366628D01*
X0050627Y0366497D01*
X0050631Y0366366D01*
X0050631Y0366234D01*
X0050627Y0366103D01*
X0050619Y0365972D01*
X0050607Y0365841D01*
X0050591Y0365710D01*
X0050571Y0365580D01*
X0050547Y0365451D01*
X0050519Y0365323D01*
X0050488Y0365195D01*
X0050452Y0365068D01*
X0050413Y0364943D01*
X0050370Y0364819D01*
X0050323Y0364696D01*
X0050272Y0364575D01*
X0050218Y0364455D01*
X0050160Y0364337D01*
X0050099Y0364220D01*
X0050034Y0364106D01*
X0049966Y0363994D01*
X0049894Y0363884D01*
X0049819Y0363776D01*
X0049741Y0363670D01*
X0049660Y0363567D01*
X0049575Y0363466D01*
X0049488Y0363368D01*
X0049397Y0363273D01*
X0049304Y0363180D01*
X0049208Y0363090D01*
X0049109Y0363003D01*
X0049008Y0362920D01*
X0048904Y0362839D01*
X0048798Y0362762D01*
X0048689Y0362688D01*
X0048578Y0362617D01*
X0048466Y0362549D01*
X0048351Y0362485D01*
X0048234Y0362425D01*
X0048115Y0362368D01*
X0047995Y0362315D01*
X0047874Y0362265D01*
X0047750Y0362219D01*
X0047626Y0362177D01*
X0047500Y0362139D01*
X0047373Y0362104D01*
X0047245Y0362073D01*
X0047117Y0362047D01*
X0046987Y0362024D01*
X0046857Y0362005D01*
X0046727Y0361990D01*
X0046596Y0361979D01*
X0046464Y0361972D01*
X0046333Y0361969D01*
X0046201Y0361970D01*
X0046070Y0361975D01*
X0045939Y0361984D01*
X0045808Y0361997D01*
X0045678Y0362014D01*
X0045548Y0362035D01*
X0045419Y0362060D01*
X0045291Y0362088D01*
X0045163Y0362121D01*
X0045037Y0362157D01*
X0044912Y0362198D01*
X0044788Y0362242D01*
X0044665Y0362289D01*
X0044544Y0362341D01*
X0044425Y0362396D01*
X0044307Y0362455D01*
X0044192Y0362517D01*
X0044078Y0362583D01*
X0043966Y0362652D01*
X0043856Y0362724D01*
X0043749Y0362800D01*
X0043644Y0362879D01*
X0043541Y0362961D01*
X0043441Y0363046D01*
X0043344Y0363135D01*
X0043249Y0363226D01*
X0043157Y0363320D01*
X0043068Y0363417D01*
X0042982Y0363516D01*
X0042899Y0363618D01*
X0042819Y0363723D01*
X0042743Y0363829D01*
X0042670Y0363938D01*
X0042600Y0364050D01*
X0042533Y0364163D01*
X0042470Y0364278D01*
X0042410Y0364396D01*
X0042354Y0364514D01*
X0042302Y0364635D01*
X0042253Y0364757D01*
X0042208Y0364881D01*
X0042167Y0365005D01*
X0042130Y0365132D01*
X0042096Y0365259D01*
X0042066Y0365387D01*
X0042041Y0365516D01*
X0042019Y0365645D01*
X0042001Y0365775D01*
X0041987Y0365906D01*
X0041977Y0366037D01*
X0041971Y0366169D01*
X0041969Y0366300D01*
X0041969Y0441300D02*
X0041971Y0441431D01*
X0041977Y0441563D01*
X0041987Y0441694D01*
X0042001Y0441825D01*
X0042019Y0441955D01*
X0042041Y0442084D01*
X0042066Y0442213D01*
X0042096Y0442341D01*
X0042130Y0442468D01*
X0042167Y0442595D01*
X0042208Y0442719D01*
X0042253Y0442843D01*
X0042302Y0442965D01*
X0042354Y0443086D01*
X0042410Y0443204D01*
X0042470Y0443322D01*
X0042533Y0443437D01*
X0042600Y0443550D01*
X0042670Y0443662D01*
X0042743Y0443771D01*
X0042819Y0443877D01*
X0042899Y0443982D01*
X0042982Y0444084D01*
X0043068Y0444183D01*
X0043157Y0444280D01*
X0043249Y0444374D01*
X0043344Y0444465D01*
X0043441Y0444554D01*
X0043541Y0444639D01*
X0043644Y0444721D01*
X0043749Y0444800D01*
X0043856Y0444876D01*
X0043966Y0444948D01*
X0044078Y0445017D01*
X0044192Y0445083D01*
X0044307Y0445145D01*
X0044425Y0445204D01*
X0044544Y0445259D01*
X0044665Y0445311D01*
X0044788Y0445358D01*
X0044912Y0445402D01*
X0045037Y0445443D01*
X0045163Y0445479D01*
X0045291Y0445512D01*
X0045419Y0445540D01*
X0045548Y0445565D01*
X0045678Y0445586D01*
X0045808Y0445603D01*
X0045939Y0445616D01*
X0046070Y0445625D01*
X0046201Y0445630D01*
X0046333Y0445631D01*
X0046464Y0445628D01*
X0046596Y0445621D01*
X0046727Y0445610D01*
X0046857Y0445595D01*
X0046987Y0445576D01*
X0047117Y0445553D01*
X0047245Y0445527D01*
X0047373Y0445496D01*
X0047500Y0445461D01*
X0047626Y0445423D01*
X0047750Y0445381D01*
X0047874Y0445335D01*
X0047995Y0445285D01*
X0048115Y0445232D01*
X0048234Y0445175D01*
X0048351Y0445115D01*
X0048465Y0445051D01*
X0048578Y0444983D01*
X0048689Y0444912D01*
X0048798Y0444838D01*
X0048904Y0444761D01*
X0049008Y0444680D01*
X0049109Y0444597D01*
X0049208Y0444510D01*
X0049304Y0444420D01*
X0049397Y0444327D01*
X0049488Y0444232D01*
X0049575Y0444134D01*
X0049660Y0444033D01*
X0049741Y0443930D01*
X0049819Y0443824D01*
X0049894Y0443716D01*
X0049966Y0443606D01*
X0050034Y0443494D01*
X0050099Y0443380D01*
X0050160Y0443263D01*
X0050218Y0443145D01*
X0050272Y0443025D01*
X0050323Y0442904D01*
X0050370Y0442781D01*
X0050413Y0442657D01*
X0050452Y0442532D01*
X0050488Y0442405D01*
X0050519Y0442277D01*
X0050547Y0442149D01*
X0050571Y0442020D01*
X0050591Y0441890D01*
X0050607Y0441759D01*
X0050619Y0441628D01*
X0050627Y0441497D01*
X0050631Y0441366D01*
X0050631Y0441234D01*
X0050627Y0441103D01*
X0050619Y0440972D01*
X0050607Y0440841D01*
X0050591Y0440710D01*
X0050571Y0440580D01*
X0050547Y0440451D01*
X0050519Y0440323D01*
X0050488Y0440195D01*
X0050452Y0440068D01*
X0050413Y0439943D01*
X0050370Y0439819D01*
X0050323Y0439696D01*
X0050272Y0439575D01*
X0050218Y0439455D01*
X0050160Y0439337D01*
X0050099Y0439220D01*
X0050034Y0439106D01*
X0049966Y0438994D01*
X0049894Y0438884D01*
X0049819Y0438776D01*
X0049741Y0438670D01*
X0049660Y0438567D01*
X0049575Y0438466D01*
X0049488Y0438368D01*
X0049397Y0438273D01*
X0049304Y0438180D01*
X0049208Y0438090D01*
X0049109Y0438003D01*
X0049008Y0437920D01*
X0048904Y0437839D01*
X0048798Y0437762D01*
X0048689Y0437688D01*
X0048578Y0437617D01*
X0048466Y0437549D01*
X0048351Y0437485D01*
X0048234Y0437425D01*
X0048115Y0437368D01*
X0047995Y0437315D01*
X0047874Y0437265D01*
X0047750Y0437219D01*
X0047626Y0437177D01*
X0047500Y0437139D01*
X0047373Y0437104D01*
X0047245Y0437073D01*
X0047117Y0437047D01*
X0046987Y0437024D01*
X0046857Y0437005D01*
X0046727Y0436990D01*
X0046596Y0436979D01*
X0046464Y0436972D01*
X0046333Y0436969D01*
X0046201Y0436970D01*
X0046070Y0436975D01*
X0045939Y0436984D01*
X0045808Y0436997D01*
X0045678Y0437014D01*
X0045548Y0437035D01*
X0045419Y0437060D01*
X0045291Y0437088D01*
X0045163Y0437121D01*
X0045037Y0437157D01*
X0044912Y0437198D01*
X0044788Y0437242D01*
X0044665Y0437289D01*
X0044544Y0437341D01*
X0044425Y0437396D01*
X0044307Y0437455D01*
X0044192Y0437517D01*
X0044078Y0437583D01*
X0043966Y0437652D01*
X0043856Y0437724D01*
X0043749Y0437800D01*
X0043644Y0437879D01*
X0043541Y0437961D01*
X0043441Y0438046D01*
X0043344Y0438135D01*
X0043249Y0438226D01*
X0043157Y0438320D01*
X0043068Y0438417D01*
X0042982Y0438516D01*
X0042899Y0438618D01*
X0042819Y0438723D01*
X0042743Y0438829D01*
X0042670Y0438938D01*
X0042600Y0439050D01*
X0042533Y0439163D01*
X0042470Y0439278D01*
X0042410Y0439396D01*
X0042354Y0439514D01*
X0042302Y0439635D01*
X0042253Y0439757D01*
X0042208Y0439881D01*
X0042167Y0440005D01*
X0042130Y0440132D01*
X0042096Y0440259D01*
X0042066Y0440387D01*
X0042041Y0440516D01*
X0042019Y0440645D01*
X0042001Y0440775D01*
X0041987Y0440906D01*
X0041977Y0441037D01*
X0041971Y0441169D01*
X0041969Y0441300D01*
X0559817Y0440931D02*
X0559819Y0441062D01*
X0559825Y0441194D01*
X0559835Y0441325D01*
X0559849Y0441456D01*
X0559867Y0441586D01*
X0559889Y0441715D01*
X0559914Y0441844D01*
X0559944Y0441972D01*
X0559978Y0442099D01*
X0560015Y0442226D01*
X0560056Y0442350D01*
X0560101Y0442474D01*
X0560150Y0442596D01*
X0560202Y0442717D01*
X0560258Y0442835D01*
X0560318Y0442953D01*
X0560381Y0443068D01*
X0560448Y0443181D01*
X0560518Y0443293D01*
X0560591Y0443402D01*
X0560667Y0443508D01*
X0560747Y0443613D01*
X0560830Y0443715D01*
X0560916Y0443814D01*
X0561005Y0443911D01*
X0561097Y0444005D01*
X0561192Y0444096D01*
X0561289Y0444185D01*
X0561389Y0444270D01*
X0561492Y0444352D01*
X0561597Y0444431D01*
X0561704Y0444507D01*
X0561814Y0444579D01*
X0561926Y0444648D01*
X0562040Y0444714D01*
X0562155Y0444776D01*
X0562273Y0444835D01*
X0562392Y0444890D01*
X0562513Y0444942D01*
X0562636Y0444989D01*
X0562760Y0445033D01*
X0562885Y0445074D01*
X0563011Y0445110D01*
X0563139Y0445143D01*
X0563267Y0445171D01*
X0563396Y0445196D01*
X0563526Y0445217D01*
X0563656Y0445234D01*
X0563787Y0445247D01*
X0563918Y0445256D01*
X0564049Y0445261D01*
X0564181Y0445262D01*
X0564312Y0445259D01*
X0564444Y0445252D01*
X0564575Y0445241D01*
X0564705Y0445226D01*
X0564835Y0445207D01*
X0564965Y0445184D01*
X0565093Y0445158D01*
X0565221Y0445127D01*
X0565348Y0445092D01*
X0565474Y0445054D01*
X0565598Y0445012D01*
X0565722Y0444966D01*
X0565843Y0444916D01*
X0565963Y0444863D01*
X0566082Y0444806D01*
X0566199Y0444746D01*
X0566313Y0444682D01*
X0566426Y0444614D01*
X0566537Y0444543D01*
X0566646Y0444469D01*
X0566752Y0444392D01*
X0566856Y0444311D01*
X0566957Y0444228D01*
X0567056Y0444141D01*
X0567152Y0444051D01*
X0567245Y0443958D01*
X0567336Y0443863D01*
X0567423Y0443765D01*
X0567508Y0443664D01*
X0567589Y0443561D01*
X0567667Y0443455D01*
X0567742Y0443347D01*
X0567814Y0443237D01*
X0567882Y0443125D01*
X0567947Y0443011D01*
X0568008Y0442894D01*
X0568066Y0442776D01*
X0568120Y0442656D01*
X0568171Y0442535D01*
X0568218Y0442412D01*
X0568261Y0442288D01*
X0568300Y0442163D01*
X0568336Y0442036D01*
X0568367Y0441908D01*
X0568395Y0441780D01*
X0568419Y0441651D01*
X0568439Y0441521D01*
X0568455Y0441390D01*
X0568467Y0441259D01*
X0568475Y0441128D01*
X0568479Y0440997D01*
X0568479Y0440865D01*
X0568475Y0440734D01*
X0568467Y0440603D01*
X0568455Y0440472D01*
X0568439Y0440341D01*
X0568419Y0440211D01*
X0568395Y0440082D01*
X0568367Y0439954D01*
X0568336Y0439826D01*
X0568300Y0439699D01*
X0568261Y0439574D01*
X0568218Y0439450D01*
X0568171Y0439327D01*
X0568120Y0439206D01*
X0568066Y0439086D01*
X0568008Y0438968D01*
X0567947Y0438851D01*
X0567882Y0438737D01*
X0567814Y0438625D01*
X0567742Y0438515D01*
X0567667Y0438407D01*
X0567589Y0438301D01*
X0567508Y0438198D01*
X0567423Y0438097D01*
X0567336Y0437999D01*
X0567245Y0437904D01*
X0567152Y0437811D01*
X0567056Y0437721D01*
X0566957Y0437634D01*
X0566856Y0437551D01*
X0566752Y0437470D01*
X0566646Y0437393D01*
X0566537Y0437319D01*
X0566426Y0437248D01*
X0566314Y0437180D01*
X0566199Y0437116D01*
X0566082Y0437056D01*
X0565963Y0436999D01*
X0565843Y0436946D01*
X0565722Y0436896D01*
X0565598Y0436850D01*
X0565474Y0436808D01*
X0565348Y0436770D01*
X0565221Y0436735D01*
X0565093Y0436704D01*
X0564965Y0436678D01*
X0564835Y0436655D01*
X0564705Y0436636D01*
X0564575Y0436621D01*
X0564444Y0436610D01*
X0564312Y0436603D01*
X0564181Y0436600D01*
X0564049Y0436601D01*
X0563918Y0436606D01*
X0563787Y0436615D01*
X0563656Y0436628D01*
X0563526Y0436645D01*
X0563396Y0436666D01*
X0563267Y0436691D01*
X0563139Y0436719D01*
X0563011Y0436752D01*
X0562885Y0436788D01*
X0562760Y0436829D01*
X0562636Y0436873D01*
X0562513Y0436920D01*
X0562392Y0436972D01*
X0562273Y0437027D01*
X0562155Y0437086D01*
X0562040Y0437148D01*
X0561926Y0437214D01*
X0561814Y0437283D01*
X0561704Y0437355D01*
X0561597Y0437431D01*
X0561492Y0437510D01*
X0561389Y0437592D01*
X0561289Y0437677D01*
X0561192Y0437766D01*
X0561097Y0437857D01*
X0561005Y0437951D01*
X0560916Y0438048D01*
X0560830Y0438147D01*
X0560747Y0438249D01*
X0560667Y0438354D01*
X0560591Y0438460D01*
X0560518Y0438569D01*
X0560448Y0438681D01*
X0560381Y0438794D01*
X0560318Y0438909D01*
X0560258Y0439027D01*
X0560202Y0439145D01*
X0560150Y0439266D01*
X0560101Y0439388D01*
X0560056Y0439512D01*
X0560015Y0439636D01*
X0559978Y0439763D01*
X0559944Y0439890D01*
X0559914Y0440018D01*
X0559889Y0440147D01*
X0559867Y0440276D01*
X0559849Y0440406D01*
X0559835Y0440537D01*
X0559825Y0440668D01*
X0559819Y0440800D01*
X0559817Y0440931D01*
X0559973Y0367083D02*
X0559975Y0367214D01*
X0559981Y0367346D01*
X0559991Y0367477D01*
X0560005Y0367608D01*
X0560023Y0367738D01*
X0560045Y0367867D01*
X0560070Y0367996D01*
X0560100Y0368124D01*
X0560134Y0368251D01*
X0560171Y0368378D01*
X0560212Y0368502D01*
X0560257Y0368626D01*
X0560306Y0368748D01*
X0560358Y0368869D01*
X0560414Y0368987D01*
X0560474Y0369105D01*
X0560537Y0369220D01*
X0560604Y0369333D01*
X0560674Y0369445D01*
X0560747Y0369554D01*
X0560823Y0369660D01*
X0560903Y0369765D01*
X0560986Y0369867D01*
X0561072Y0369966D01*
X0561161Y0370063D01*
X0561253Y0370157D01*
X0561348Y0370248D01*
X0561445Y0370337D01*
X0561545Y0370422D01*
X0561648Y0370504D01*
X0561753Y0370583D01*
X0561860Y0370659D01*
X0561970Y0370731D01*
X0562082Y0370800D01*
X0562196Y0370866D01*
X0562311Y0370928D01*
X0562429Y0370987D01*
X0562548Y0371042D01*
X0562669Y0371094D01*
X0562792Y0371141D01*
X0562916Y0371185D01*
X0563041Y0371226D01*
X0563167Y0371262D01*
X0563295Y0371295D01*
X0563423Y0371323D01*
X0563552Y0371348D01*
X0563682Y0371369D01*
X0563812Y0371386D01*
X0563943Y0371399D01*
X0564074Y0371408D01*
X0564205Y0371413D01*
X0564337Y0371414D01*
X0564468Y0371411D01*
X0564600Y0371404D01*
X0564731Y0371393D01*
X0564861Y0371378D01*
X0564991Y0371359D01*
X0565121Y0371336D01*
X0565249Y0371310D01*
X0565377Y0371279D01*
X0565504Y0371244D01*
X0565630Y0371206D01*
X0565754Y0371164D01*
X0565878Y0371118D01*
X0565999Y0371068D01*
X0566119Y0371015D01*
X0566238Y0370958D01*
X0566355Y0370898D01*
X0566469Y0370834D01*
X0566582Y0370766D01*
X0566693Y0370695D01*
X0566802Y0370621D01*
X0566908Y0370544D01*
X0567012Y0370463D01*
X0567113Y0370380D01*
X0567212Y0370293D01*
X0567308Y0370203D01*
X0567401Y0370110D01*
X0567492Y0370015D01*
X0567579Y0369917D01*
X0567664Y0369816D01*
X0567745Y0369713D01*
X0567823Y0369607D01*
X0567898Y0369499D01*
X0567970Y0369389D01*
X0568038Y0369277D01*
X0568103Y0369163D01*
X0568164Y0369046D01*
X0568222Y0368928D01*
X0568276Y0368808D01*
X0568327Y0368687D01*
X0568374Y0368564D01*
X0568417Y0368440D01*
X0568456Y0368315D01*
X0568492Y0368188D01*
X0568523Y0368060D01*
X0568551Y0367932D01*
X0568575Y0367803D01*
X0568595Y0367673D01*
X0568611Y0367542D01*
X0568623Y0367411D01*
X0568631Y0367280D01*
X0568635Y0367149D01*
X0568635Y0367017D01*
X0568631Y0366886D01*
X0568623Y0366755D01*
X0568611Y0366624D01*
X0568595Y0366493D01*
X0568575Y0366363D01*
X0568551Y0366234D01*
X0568523Y0366106D01*
X0568492Y0365978D01*
X0568456Y0365851D01*
X0568417Y0365726D01*
X0568374Y0365602D01*
X0568327Y0365479D01*
X0568276Y0365358D01*
X0568222Y0365238D01*
X0568164Y0365120D01*
X0568103Y0365003D01*
X0568038Y0364889D01*
X0567970Y0364777D01*
X0567898Y0364667D01*
X0567823Y0364559D01*
X0567745Y0364453D01*
X0567664Y0364350D01*
X0567579Y0364249D01*
X0567492Y0364151D01*
X0567401Y0364056D01*
X0567308Y0363963D01*
X0567212Y0363873D01*
X0567113Y0363786D01*
X0567012Y0363703D01*
X0566908Y0363622D01*
X0566802Y0363545D01*
X0566693Y0363471D01*
X0566582Y0363400D01*
X0566470Y0363332D01*
X0566355Y0363268D01*
X0566238Y0363208D01*
X0566119Y0363151D01*
X0565999Y0363098D01*
X0565878Y0363048D01*
X0565754Y0363002D01*
X0565630Y0362960D01*
X0565504Y0362922D01*
X0565377Y0362887D01*
X0565249Y0362856D01*
X0565121Y0362830D01*
X0564991Y0362807D01*
X0564861Y0362788D01*
X0564731Y0362773D01*
X0564600Y0362762D01*
X0564468Y0362755D01*
X0564337Y0362752D01*
X0564205Y0362753D01*
X0564074Y0362758D01*
X0563943Y0362767D01*
X0563812Y0362780D01*
X0563682Y0362797D01*
X0563552Y0362818D01*
X0563423Y0362843D01*
X0563295Y0362871D01*
X0563167Y0362904D01*
X0563041Y0362940D01*
X0562916Y0362981D01*
X0562792Y0363025D01*
X0562669Y0363072D01*
X0562548Y0363124D01*
X0562429Y0363179D01*
X0562311Y0363238D01*
X0562196Y0363300D01*
X0562082Y0363366D01*
X0561970Y0363435D01*
X0561860Y0363507D01*
X0561753Y0363583D01*
X0561648Y0363662D01*
X0561545Y0363744D01*
X0561445Y0363829D01*
X0561348Y0363918D01*
X0561253Y0364009D01*
X0561161Y0364103D01*
X0561072Y0364200D01*
X0560986Y0364299D01*
X0560903Y0364401D01*
X0560823Y0364506D01*
X0560747Y0364612D01*
X0560674Y0364721D01*
X0560604Y0364833D01*
X0560537Y0364946D01*
X0560474Y0365061D01*
X0560414Y0365179D01*
X0560358Y0365297D01*
X0560306Y0365418D01*
X0560257Y0365540D01*
X0560212Y0365664D01*
X0560171Y0365788D01*
X0560134Y0365915D01*
X0560100Y0366042D01*
X0560070Y0366170D01*
X0560045Y0366299D01*
X0560023Y0366428D01*
X0560005Y0366558D01*
X0559991Y0366689D01*
X0559981Y0366820D01*
X0559975Y0366952D01*
X0559973Y0367083D01*
X0559973Y0291533D02*
X0559975Y0291664D01*
X0559981Y0291796D01*
X0559991Y0291927D01*
X0560005Y0292058D01*
X0560023Y0292188D01*
X0560045Y0292317D01*
X0560070Y0292446D01*
X0560100Y0292574D01*
X0560134Y0292701D01*
X0560171Y0292828D01*
X0560212Y0292952D01*
X0560257Y0293076D01*
X0560306Y0293198D01*
X0560358Y0293319D01*
X0560414Y0293437D01*
X0560474Y0293555D01*
X0560537Y0293670D01*
X0560604Y0293783D01*
X0560674Y0293895D01*
X0560747Y0294004D01*
X0560823Y0294110D01*
X0560903Y0294215D01*
X0560986Y0294317D01*
X0561072Y0294416D01*
X0561161Y0294513D01*
X0561253Y0294607D01*
X0561348Y0294698D01*
X0561445Y0294787D01*
X0561545Y0294872D01*
X0561648Y0294954D01*
X0561753Y0295033D01*
X0561860Y0295109D01*
X0561970Y0295181D01*
X0562082Y0295250D01*
X0562196Y0295316D01*
X0562311Y0295378D01*
X0562429Y0295437D01*
X0562548Y0295492D01*
X0562669Y0295544D01*
X0562792Y0295591D01*
X0562916Y0295635D01*
X0563041Y0295676D01*
X0563167Y0295712D01*
X0563295Y0295745D01*
X0563423Y0295773D01*
X0563552Y0295798D01*
X0563682Y0295819D01*
X0563812Y0295836D01*
X0563943Y0295849D01*
X0564074Y0295858D01*
X0564205Y0295863D01*
X0564337Y0295864D01*
X0564468Y0295861D01*
X0564600Y0295854D01*
X0564731Y0295843D01*
X0564861Y0295828D01*
X0564991Y0295809D01*
X0565121Y0295786D01*
X0565249Y0295760D01*
X0565377Y0295729D01*
X0565504Y0295694D01*
X0565630Y0295656D01*
X0565754Y0295614D01*
X0565878Y0295568D01*
X0565999Y0295518D01*
X0566119Y0295465D01*
X0566238Y0295408D01*
X0566355Y0295348D01*
X0566469Y0295284D01*
X0566582Y0295216D01*
X0566693Y0295145D01*
X0566802Y0295071D01*
X0566908Y0294994D01*
X0567012Y0294913D01*
X0567113Y0294830D01*
X0567212Y0294743D01*
X0567308Y0294653D01*
X0567401Y0294560D01*
X0567492Y0294465D01*
X0567579Y0294367D01*
X0567664Y0294266D01*
X0567745Y0294163D01*
X0567823Y0294057D01*
X0567898Y0293949D01*
X0567970Y0293839D01*
X0568038Y0293727D01*
X0568103Y0293613D01*
X0568164Y0293496D01*
X0568222Y0293378D01*
X0568276Y0293258D01*
X0568327Y0293137D01*
X0568374Y0293014D01*
X0568417Y0292890D01*
X0568456Y0292765D01*
X0568492Y0292638D01*
X0568523Y0292510D01*
X0568551Y0292382D01*
X0568575Y0292253D01*
X0568595Y0292123D01*
X0568611Y0291992D01*
X0568623Y0291861D01*
X0568631Y0291730D01*
X0568635Y0291599D01*
X0568635Y0291467D01*
X0568631Y0291336D01*
X0568623Y0291205D01*
X0568611Y0291074D01*
X0568595Y0290943D01*
X0568575Y0290813D01*
X0568551Y0290684D01*
X0568523Y0290556D01*
X0568492Y0290428D01*
X0568456Y0290301D01*
X0568417Y0290176D01*
X0568374Y0290052D01*
X0568327Y0289929D01*
X0568276Y0289808D01*
X0568222Y0289688D01*
X0568164Y0289570D01*
X0568103Y0289453D01*
X0568038Y0289339D01*
X0567970Y0289227D01*
X0567898Y0289117D01*
X0567823Y0289009D01*
X0567745Y0288903D01*
X0567664Y0288800D01*
X0567579Y0288699D01*
X0567492Y0288601D01*
X0567401Y0288506D01*
X0567308Y0288413D01*
X0567212Y0288323D01*
X0567113Y0288236D01*
X0567012Y0288153D01*
X0566908Y0288072D01*
X0566802Y0287995D01*
X0566693Y0287921D01*
X0566582Y0287850D01*
X0566470Y0287782D01*
X0566355Y0287718D01*
X0566238Y0287658D01*
X0566119Y0287601D01*
X0565999Y0287548D01*
X0565878Y0287498D01*
X0565754Y0287452D01*
X0565630Y0287410D01*
X0565504Y0287372D01*
X0565377Y0287337D01*
X0565249Y0287306D01*
X0565121Y0287280D01*
X0564991Y0287257D01*
X0564861Y0287238D01*
X0564731Y0287223D01*
X0564600Y0287212D01*
X0564468Y0287205D01*
X0564337Y0287202D01*
X0564205Y0287203D01*
X0564074Y0287208D01*
X0563943Y0287217D01*
X0563812Y0287230D01*
X0563682Y0287247D01*
X0563552Y0287268D01*
X0563423Y0287293D01*
X0563295Y0287321D01*
X0563167Y0287354D01*
X0563041Y0287390D01*
X0562916Y0287431D01*
X0562792Y0287475D01*
X0562669Y0287522D01*
X0562548Y0287574D01*
X0562429Y0287629D01*
X0562311Y0287688D01*
X0562196Y0287750D01*
X0562082Y0287816D01*
X0561970Y0287885D01*
X0561860Y0287957D01*
X0561753Y0288033D01*
X0561648Y0288112D01*
X0561545Y0288194D01*
X0561445Y0288279D01*
X0561348Y0288368D01*
X0561253Y0288459D01*
X0561161Y0288553D01*
X0561072Y0288650D01*
X0560986Y0288749D01*
X0560903Y0288851D01*
X0560823Y0288956D01*
X0560747Y0289062D01*
X0560674Y0289171D01*
X0560604Y0289283D01*
X0560537Y0289396D01*
X0560474Y0289511D01*
X0560414Y0289629D01*
X0560358Y0289747D01*
X0560306Y0289868D01*
X0560257Y0289990D01*
X0560212Y0290114D01*
X0560171Y0290238D01*
X0560134Y0290365D01*
X0560100Y0290492D01*
X0560070Y0290620D01*
X0560045Y0290749D01*
X0560023Y0290878D01*
X0560005Y0291008D01*
X0559991Y0291139D01*
X0559981Y0291270D01*
X0559975Y0291402D01*
X0559973Y0291533D01*
X0559973Y0215856D02*
X0559975Y0215987D01*
X0559981Y0216119D01*
X0559991Y0216250D01*
X0560005Y0216381D01*
X0560023Y0216511D01*
X0560045Y0216640D01*
X0560070Y0216769D01*
X0560100Y0216897D01*
X0560134Y0217024D01*
X0560171Y0217151D01*
X0560212Y0217275D01*
X0560257Y0217399D01*
X0560306Y0217521D01*
X0560358Y0217642D01*
X0560414Y0217760D01*
X0560474Y0217878D01*
X0560537Y0217993D01*
X0560604Y0218106D01*
X0560674Y0218218D01*
X0560747Y0218327D01*
X0560823Y0218433D01*
X0560903Y0218538D01*
X0560986Y0218640D01*
X0561072Y0218739D01*
X0561161Y0218836D01*
X0561253Y0218930D01*
X0561348Y0219021D01*
X0561445Y0219110D01*
X0561545Y0219195D01*
X0561648Y0219277D01*
X0561753Y0219356D01*
X0561860Y0219432D01*
X0561970Y0219504D01*
X0562082Y0219573D01*
X0562196Y0219639D01*
X0562311Y0219701D01*
X0562429Y0219760D01*
X0562548Y0219815D01*
X0562669Y0219867D01*
X0562792Y0219914D01*
X0562916Y0219958D01*
X0563041Y0219999D01*
X0563167Y0220035D01*
X0563295Y0220068D01*
X0563423Y0220096D01*
X0563552Y0220121D01*
X0563682Y0220142D01*
X0563812Y0220159D01*
X0563943Y0220172D01*
X0564074Y0220181D01*
X0564205Y0220186D01*
X0564337Y0220187D01*
X0564468Y0220184D01*
X0564600Y0220177D01*
X0564731Y0220166D01*
X0564861Y0220151D01*
X0564991Y0220132D01*
X0565121Y0220109D01*
X0565249Y0220083D01*
X0565377Y0220052D01*
X0565504Y0220017D01*
X0565630Y0219979D01*
X0565754Y0219937D01*
X0565878Y0219891D01*
X0565999Y0219841D01*
X0566119Y0219788D01*
X0566238Y0219731D01*
X0566355Y0219671D01*
X0566469Y0219607D01*
X0566582Y0219539D01*
X0566693Y0219468D01*
X0566802Y0219394D01*
X0566908Y0219317D01*
X0567012Y0219236D01*
X0567113Y0219153D01*
X0567212Y0219066D01*
X0567308Y0218976D01*
X0567401Y0218883D01*
X0567492Y0218788D01*
X0567579Y0218690D01*
X0567664Y0218589D01*
X0567745Y0218486D01*
X0567823Y0218380D01*
X0567898Y0218272D01*
X0567970Y0218162D01*
X0568038Y0218050D01*
X0568103Y0217936D01*
X0568164Y0217819D01*
X0568222Y0217701D01*
X0568276Y0217581D01*
X0568327Y0217460D01*
X0568374Y0217337D01*
X0568417Y0217213D01*
X0568456Y0217088D01*
X0568492Y0216961D01*
X0568523Y0216833D01*
X0568551Y0216705D01*
X0568575Y0216576D01*
X0568595Y0216446D01*
X0568611Y0216315D01*
X0568623Y0216184D01*
X0568631Y0216053D01*
X0568635Y0215922D01*
X0568635Y0215790D01*
X0568631Y0215659D01*
X0568623Y0215528D01*
X0568611Y0215397D01*
X0568595Y0215266D01*
X0568575Y0215136D01*
X0568551Y0215007D01*
X0568523Y0214879D01*
X0568492Y0214751D01*
X0568456Y0214624D01*
X0568417Y0214499D01*
X0568374Y0214375D01*
X0568327Y0214252D01*
X0568276Y0214131D01*
X0568222Y0214011D01*
X0568164Y0213893D01*
X0568103Y0213776D01*
X0568038Y0213662D01*
X0567970Y0213550D01*
X0567898Y0213440D01*
X0567823Y0213332D01*
X0567745Y0213226D01*
X0567664Y0213123D01*
X0567579Y0213022D01*
X0567492Y0212924D01*
X0567401Y0212829D01*
X0567308Y0212736D01*
X0567212Y0212646D01*
X0567113Y0212559D01*
X0567012Y0212476D01*
X0566908Y0212395D01*
X0566802Y0212318D01*
X0566693Y0212244D01*
X0566582Y0212173D01*
X0566470Y0212105D01*
X0566355Y0212041D01*
X0566238Y0211981D01*
X0566119Y0211924D01*
X0565999Y0211871D01*
X0565878Y0211821D01*
X0565754Y0211775D01*
X0565630Y0211733D01*
X0565504Y0211695D01*
X0565377Y0211660D01*
X0565249Y0211629D01*
X0565121Y0211603D01*
X0564991Y0211580D01*
X0564861Y0211561D01*
X0564731Y0211546D01*
X0564600Y0211535D01*
X0564468Y0211528D01*
X0564337Y0211525D01*
X0564205Y0211526D01*
X0564074Y0211531D01*
X0563943Y0211540D01*
X0563812Y0211553D01*
X0563682Y0211570D01*
X0563552Y0211591D01*
X0563423Y0211616D01*
X0563295Y0211644D01*
X0563167Y0211677D01*
X0563041Y0211713D01*
X0562916Y0211754D01*
X0562792Y0211798D01*
X0562669Y0211845D01*
X0562548Y0211897D01*
X0562429Y0211952D01*
X0562311Y0212011D01*
X0562196Y0212073D01*
X0562082Y0212139D01*
X0561970Y0212208D01*
X0561860Y0212280D01*
X0561753Y0212356D01*
X0561648Y0212435D01*
X0561545Y0212517D01*
X0561445Y0212602D01*
X0561348Y0212691D01*
X0561253Y0212782D01*
X0561161Y0212876D01*
X0561072Y0212973D01*
X0560986Y0213072D01*
X0560903Y0213174D01*
X0560823Y0213279D01*
X0560747Y0213385D01*
X0560674Y0213494D01*
X0560604Y0213606D01*
X0560537Y0213719D01*
X0560474Y0213834D01*
X0560414Y0213952D01*
X0560358Y0214070D01*
X0560306Y0214191D01*
X0560257Y0214313D01*
X0560212Y0214437D01*
X0560171Y0214561D01*
X0560134Y0214688D01*
X0560100Y0214815D01*
X0560070Y0214943D01*
X0560045Y0215072D01*
X0560023Y0215201D01*
X0560005Y0215331D01*
X0559991Y0215462D01*
X0559981Y0215593D01*
X0559975Y0215725D01*
X0559973Y0215856D01*
X0560100Y0141068D02*
X0560102Y0141199D01*
X0560108Y0141331D01*
X0560118Y0141462D01*
X0560132Y0141593D01*
X0560150Y0141723D01*
X0560172Y0141852D01*
X0560197Y0141981D01*
X0560227Y0142109D01*
X0560261Y0142236D01*
X0560298Y0142363D01*
X0560339Y0142487D01*
X0560384Y0142611D01*
X0560433Y0142733D01*
X0560485Y0142854D01*
X0560541Y0142972D01*
X0560601Y0143090D01*
X0560664Y0143205D01*
X0560731Y0143318D01*
X0560801Y0143430D01*
X0560874Y0143539D01*
X0560950Y0143645D01*
X0561030Y0143750D01*
X0561113Y0143852D01*
X0561199Y0143951D01*
X0561288Y0144048D01*
X0561380Y0144142D01*
X0561475Y0144233D01*
X0561572Y0144322D01*
X0561672Y0144407D01*
X0561775Y0144489D01*
X0561880Y0144568D01*
X0561987Y0144644D01*
X0562097Y0144716D01*
X0562209Y0144785D01*
X0562323Y0144851D01*
X0562438Y0144913D01*
X0562556Y0144972D01*
X0562675Y0145027D01*
X0562796Y0145079D01*
X0562919Y0145126D01*
X0563043Y0145170D01*
X0563168Y0145211D01*
X0563294Y0145247D01*
X0563422Y0145280D01*
X0563550Y0145308D01*
X0563679Y0145333D01*
X0563809Y0145354D01*
X0563939Y0145371D01*
X0564070Y0145384D01*
X0564201Y0145393D01*
X0564332Y0145398D01*
X0564464Y0145399D01*
X0564595Y0145396D01*
X0564727Y0145389D01*
X0564858Y0145378D01*
X0564988Y0145363D01*
X0565118Y0145344D01*
X0565248Y0145321D01*
X0565376Y0145295D01*
X0565504Y0145264D01*
X0565631Y0145229D01*
X0565757Y0145191D01*
X0565881Y0145149D01*
X0566005Y0145103D01*
X0566126Y0145053D01*
X0566246Y0145000D01*
X0566365Y0144943D01*
X0566482Y0144883D01*
X0566596Y0144819D01*
X0566709Y0144751D01*
X0566820Y0144680D01*
X0566929Y0144606D01*
X0567035Y0144529D01*
X0567139Y0144448D01*
X0567240Y0144365D01*
X0567339Y0144278D01*
X0567435Y0144188D01*
X0567528Y0144095D01*
X0567619Y0144000D01*
X0567706Y0143902D01*
X0567791Y0143801D01*
X0567872Y0143698D01*
X0567950Y0143592D01*
X0568025Y0143484D01*
X0568097Y0143374D01*
X0568165Y0143262D01*
X0568230Y0143148D01*
X0568291Y0143031D01*
X0568349Y0142913D01*
X0568403Y0142793D01*
X0568454Y0142672D01*
X0568501Y0142549D01*
X0568544Y0142425D01*
X0568583Y0142300D01*
X0568619Y0142173D01*
X0568650Y0142045D01*
X0568678Y0141917D01*
X0568702Y0141788D01*
X0568722Y0141658D01*
X0568738Y0141527D01*
X0568750Y0141396D01*
X0568758Y0141265D01*
X0568762Y0141134D01*
X0568762Y0141002D01*
X0568758Y0140871D01*
X0568750Y0140740D01*
X0568738Y0140609D01*
X0568722Y0140478D01*
X0568702Y0140348D01*
X0568678Y0140219D01*
X0568650Y0140091D01*
X0568619Y0139963D01*
X0568583Y0139836D01*
X0568544Y0139711D01*
X0568501Y0139587D01*
X0568454Y0139464D01*
X0568403Y0139343D01*
X0568349Y0139223D01*
X0568291Y0139105D01*
X0568230Y0138988D01*
X0568165Y0138874D01*
X0568097Y0138762D01*
X0568025Y0138652D01*
X0567950Y0138544D01*
X0567872Y0138438D01*
X0567791Y0138335D01*
X0567706Y0138234D01*
X0567619Y0138136D01*
X0567528Y0138041D01*
X0567435Y0137948D01*
X0567339Y0137858D01*
X0567240Y0137771D01*
X0567139Y0137688D01*
X0567035Y0137607D01*
X0566929Y0137530D01*
X0566820Y0137456D01*
X0566709Y0137385D01*
X0566597Y0137317D01*
X0566482Y0137253D01*
X0566365Y0137193D01*
X0566246Y0137136D01*
X0566126Y0137083D01*
X0566005Y0137033D01*
X0565881Y0136987D01*
X0565757Y0136945D01*
X0565631Y0136907D01*
X0565504Y0136872D01*
X0565376Y0136841D01*
X0565248Y0136815D01*
X0565118Y0136792D01*
X0564988Y0136773D01*
X0564858Y0136758D01*
X0564727Y0136747D01*
X0564595Y0136740D01*
X0564464Y0136737D01*
X0564332Y0136738D01*
X0564201Y0136743D01*
X0564070Y0136752D01*
X0563939Y0136765D01*
X0563809Y0136782D01*
X0563679Y0136803D01*
X0563550Y0136828D01*
X0563422Y0136856D01*
X0563294Y0136889D01*
X0563168Y0136925D01*
X0563043Y0136966D01*
X0562919Y0137010D01*
X0562796Y0137057D01*
X0562675Y0137109D01*
X0562556Y0137164D01*
X0562438Y0137223D01*
X0562323Y0137285D01*
X0562209Y0137351D01*
X0562097Y0137420D01*
X0561987Y0137492D01*
X0561880Y0137568D01*
X0561775Y0137647D01*
X0561672Y0137729D01*
X0561572Y0137814D01*
X0561475Y0137903D01*
X0561380Y0137994D01*
X0561288Y0138088D01*
X0561199Y0138185D01*
X0561113Y0138284D01*
X0561030Y0138386D01*
X0560950Y0138491D01*
X0560874Y0138597D01*
X0560801Y0138706D01*
X0560731Y0138818D01*
X0560664Y0138931D01*
X0560601Y0139046D01*
X0560541Y0139164D01*
X0560485Y0139282D01*
X0560433Y0139403D01*
X0560384Y0139525D01*
X0560339Y0139649D01*
X0560298Y0139773D01*
X0560261Y0139900D01*
X0560227Y0140027D01*
X0560197Y0140155D01*
X0560172Y0140284D01*
X0560150Y0140413D01*
X0560132Y0140543D01*
X0560118Y0140674D01*
X0560108Y0140805D01*
X0560102Y0140937D01*
X0560100Y0141068D01*
X0560100Y0065899D02*
X0560102Y0066030D01*
X0560108Y0066162D01*
X0560118Y0066293D01*
X0560132Y0066424D01*
X0560150Y0066554D01*
X0560172Y0066683D01*
X0560197Y0066812D01*
X0560227Y0066940D01*
X0560261Y0067067D01*
X0560298Y0067194D01*
X0560339Y0067318D01*
X0560384Y0067442D01*
X0560433Y0067564D01*
X0560485Y0067685D01*
X0560541Y0067803D01*
X0560601Y0067921D01*
X0560664Y0068036D01*
X0560731Y0068149D01*
X0560801Y0068261D01*
X0560874Y0068370D01*
X0560950Y0068476D01*
X0561030Y0068581D01*
X0561113Y0068683D01*
X0561199Y0068782D01*
X0561288Y0068879D01*
X0561380Y0068973D01*
X0561475Y0069064D01*
X0561572Y0069153D01*
X0561672Y0069238D01*
X0561775Y0069320D01*
X0561880Y0069399D01*
X0561987Y0069475D01*
X0562097Y0069547D01*
X0562209Y0069616D01*
X0562323Y0069682D01*
X0562438Y0069744D01*
X0562556Y0069803D01*
X0562675Y0069858D01*
X0562796Y0069910D01*
X0562919Y0069957D01*
X0563043Y0070001D01*
X0563168Y0070042D01*
X0563294Y0070078D01*
X0563422Y0070111D01*
X0563550Y0070139D01*
X0563679Y0070164D01*
X0563809Y0070185D01*
X0563939Y0070202D01*
X0564070Y0070215D01*
X0564201Y0070224D01*
X0564332Y0070229D01*
X0564464Y0070230D01*
X0564595Y0070227D01*
X0564727Y0070220D01*
X0564858Y0070209D01*
X0564988Y0070194D01*
X0565118Y0070175D01*
X0565248Y0070152D01*
X0565376Y0070126D01*
X0565504Y0070095D01*
X0565631Y0070060D01*
X0565757Y0070022D01*
X0565881Y0069980D01*
X0566005Y0069934D01*
X0566126Y0069884D01*
X0566246Y0069831D01*
X0566365Y0069774D01*
X0566482Y0069714D01*
X0566596Y0069650D01*
X0566709Y0069582D01*
X0566820Y0069511D01*
X0566929Y0069437D01*
X0567035Y0069360D01*
X0567139Y0069279D01*
X0567240Y0069196D01*
X0567339Y0069109D01*
X0567435Y0069019D01*
X0567528Y0068926D01*
X0567619Y0068831D01*
X0567706Y0068733D01*
X0567791Y0068632D01*
X0567872Y0068529D01*
X0567950Y0068423D01*
X0568025Y0068315D01*
X0568097Y0068205D01*
X0568165Y0068093D01*
X0568230Y0067979D01*
X0568291Y0067862D01*
X0568349Y0067744D01*
X0568403Y0067624D01*
X0568454Y0067503D01*
X0568501Y0067380D01*
X0568544Y0067256D01*
X0568583Y0067131D01*
X0568619Y0067004D01*
X0568650Y0066876D01*
X0568678Y0066748D01*
X0568702Y0066619D01*
X0568722Y0066489D01*
X0568738Y0066358D01*
X0568750Y0066227D01*
X0568758Y0066096D01*
X0568762Y0065965D01*
X0568762Y0065833D01*
X0568758Y0065702D01*
X0568750Y0065571D01*
X0568738Y0065440D01*
X0568722Y0065309D01*
X0568702Y0065179D01*
X0568678Y0065050D01*
X0568650Y0064922D01*
X0568619Y0064794D01*
X0568583Y0064667D01*
X0568544Y0064542D01*
X0568501Y0064418D01*
X0568454Y0064295D01*
X0568403Y0064174D01*
X0568349Y0064054D01*
X0568291Y0063936D01*
X0568230Y0063819D01*
X0568165Y0063705D01*
X0568097Y0063593D01*
X0568025Y0063483D01*
X0567950Y0063375D01*
X0567872Y0063269D01*
X0567791Y0063166D01*
X0567706Y0063065D01*
X0567619Y0062967D01*
X0567528Y0062872D01*
X0567435Y0062779D01*
X0567339Y0062689D01*
X0567240Y0062602D01*
X0567139Y0062519D01*
X0567035Y0062438D01*
X0566929Y0062361D01*
X0566820Y0062287D01*
X0566709Y0062216D01*
X0566597Y0062148D01*
X0566482Y0062084D01*
X0566365Y0062024D01*
X0566246Y0061967D01*
X0566126Y0061914D01*
X0566005Y0061864D01*
X0565881Y0061818D01*
X0565757Y0061776D01*
X0565631Y0061738D01*
X0565504Y0061703D01*
X0565376Y0061672D01*
X0565248Y0061646D01*
X0565118Y0061623D01*
X0564988Y0061604D01*
X0564858Y0061589D01*
X0564727Y0061578D01*
X0564595Y0061571D01*
X0564464Y0061568D01*
X0564332Y0061569D01*
X0564201Y0061574D01*
X0564070Y0061583D01*
X0563939Y0061596D01*
X0563809Y0061613D01*
X0563679Y0061634D01*
X0563550Y0061659D01*
X0563422Y0061687D01*
X0563294Y0061720D01*
X0563168Y0061756D01*
X0563043Y0061797D01*
X0562919Y0061841D01*
X0562796Y0061888D01*
X0562675Y0061940D01*
X0562556Y0061995D01*
X0562438Y0062054D01*
X0562323Y0062116D01*
X0562209Y0062182D01*
X0562097Y0062251D01*
X0561987Y0062323D01*
X0561880Y0062399D01*
X0561775Y0062478D01*
X0561672Y0062560D01*
X0561572Y0062645D01*
X0561475Y0062734D01*
X0561380Y0062825D01*
X0561288Y0062919D01*
X0561199Y0063016D01*
X0561113Y0063115D01*
X0561030Y0063217D01*
X0560950Y0063322D01*
X0560874Y0063428D01*
X0560801Y0063537D01*
X0560731Y0063649D01*
X0560664Y0063762D01*
X0560601Y0063877D01*
X0560541Y0063995D01*
X0560485Y0064113D01*
X0560433Y0064234D01*
X0560384Y0064356D01*
X0560339Y0064480D01*
X0560298Y0064604D01*
X0560261Y0064731D01*
X0560227Y0064858D01*
X0560197Y0064986D01*
X0560172Y0065115D01*
X0560150Y0065244D01*
X0560132Y0065374D01*
X0560118Y0065505D01*
X0560108Y0065636D01*
X0560102Y0065768D01*
X0560100Y0065899D01*
D11*
X0551931Y0065899D03*
X0541931Y0065899D03*
X0581931Y0065899D03*
X0581931Y0141068D03*
X0551931Y0141068D03*
X0541931Y0141068D03*
X0541804Y0215856D03*
X0551804Y0215856D03*
X0581804Y0215856D03*
X0581804Y0291533D03*
X0551804Y0291533D03*
X0541804Y0291533D03*
X0541804Y0367083D03*
X0551804Y0367083D03*
X0581804Y0367083D03*
X0581648Y0440931D03*
X0551648Y0440931D03*
X0541648Y0440931D03*
X0068800Y0441300D03*
X0058800Y0441300D03*
X0028800Y0441300D03*
X0028800Y0366300D03*
X0058800Y0366300D03*
X0068800Y0366300D03*
X0068800Y0291300D03*
X0058800Y0291300D03*
X0028800Y0291300D03*
X0028800Y0216300D03*
X0058800Y0216300D03*
X0068800Y0216300D03*
X0068800Y0141300D03*
X0058800Y0141300D03*
X0028800Y0141300D03*
X0028800Y0061300D03*
X0058800Y0061300D03*
X0068800Y0061300D03*
D12*
X0046300Y0061300D03*
X0046300Y0141300D03*
X0046300Y0216300D03*
X0046300Y0291300D03*
X0046300Y0366300D03*
X0046300Y0441300D03*
X0564148Y0440931D03*
X0564304Y0367083D03*
X0564304Y0291533D03*
X0564304Y0215856D03*
X0564431Y0141068D03*
X0564431Y0065899D03*
D13*
X0510170Y0098001D02*
X0510170Y0109599D01*
X0502430Y0109599D01*
X0502430Y0098001D01*
X0510170Y0098001D01*
X0435170Y0098001D02*
X0427430Y0098001D01*
X0427430Y0109599D01*
X0435170Y0109599D01*
X0435170Y0098001D01*
X0439849Y0030170D02*
X0428251Y0030170D01*
X0428251Y0022430D01*
X0439849Y0022430D01*
X0439849Y0030170D01*
X0498001Y0030170D02*
X0498001Y0022430D01*
X0509599Y0022430D01*
X0509599Y0030170D01*
X0498001Y0030170D01*
X0360349Y0030170D02*
X0360349Y0022430D01*
X0348751Y0022430D01*
X0348751Y0030170D01*
X0360349Y0030170D01*
X0283349Y0030170D02*
X0283349Y0022430D01*
X0271751Y0022430D01*
X0271751Y0030170D01*
X0283349Y0030170D01*
X0209599Y0030170D02*
X0209599Y0022430D01*
X0198001Y0022430D01*
X0198001Y0030170D01*
X0209599Y0030170D01*
X0185170Y0025001D02*
X0177430Y0025001D01*
X0177430Y0036599D01*
X0185170Y0036599D01*
X0185170Y0025001D01*
X0185170Y0037501D02*
X0177430Y0037501D01*
X0177430Y0049099D01*
X0185170Y0049099D01*
X0185170Y0037501D01*
X0175170Y0051251D02*
X0167430Y0051251D01*
X0167430Y0062849D01*
X0175170Y0062849D01*
X0175170Y0051251D01*
X0160599Y0029170D02*
X0149001Y0029170D01*
X0149001Y0021430D01*
X0160599Y0021430D01*
X0160599Y0029170D01*
X0145170Y0023751D02*
X0137430Y0023751D01*
X0137430Y0035349D01*
X0145170Y0035349D01*
X0145170Y0023751D01*
X0145170Y0036251D02*
X0137430Y0036251D01*
X0137430Y0047849D01*
X0145170Y0047849D01*
X0145170Y0036251D01*
X0111099Y0040430D02*
X0111099Y0048170D01*
X0099501Y0048170D01*
X0099501Y0040430D01*
X0111099Y0040430D01*
X0146180Y0086751D02*
X0146180Y0098349D01*
X0153920Y0098349D01*
X0153920Y0086751D01*
X0146180Y0086751D01*
X0145170Y0096751D02*
X0137430Y0096751D01*
X0137430Y0108349D01*
X0145170Y0108349D01*
X0145170Y0096751D01*
X0145170Y0109251D02*
X0137430Y0109251D01*
X0137430Y0120849D01*
X0145170Y0120849D01*
X0145170Y0109251D01*
X0122099Y0105170D02*
X0122099Y0097430D01*
X0110501Y0097430D01*
X0110501Y0105170D01*
X0122099Y0105170D01*
X0167430Y0125501D02*
X0167430Y0137099D01*
X0175170Y0137099D01*
X0175170Y0125501D01*
X0167430Y0125501D01*
X0178680Y0122099D02*
X0186420Y0122099D01*
X0186420Y0110501D01*
X0178680Y0110501D01*
X0178680Y0122099D01*
X0178680Y0109599D02*
X0186420Y0109599D01*
X0186420Y0098001D01*
X0178680Y0098001D01*
X0178680Y0109599D01*
X0197430Y0109599D02*
X0197430Y0098001D01*
X0205170Y0098001D01*
X0205170Y0109599D01*
X0197430Y0109599D01*
X0155170Y0161751D02*
X0147430Y0161751D01*
X0147430Y0173349D01*
X0155170Y0173349D01*
X0155170Y0161751D01*
X0145170Y0171751D02*
X0137430Y0171751D01*
X0137430Y0183349D01*
X0145170Y0183349D01*
X0145170Y0171751D01*
X0145170Y0184251D02*
X0137430Y0184251D01*
X0137430Y0195849D01*
X0145170Y0195849D01*
X0145170Y0184251D01*
X0122099Y0180170D02*
X0122099Y0172430D01*
X0110501Y0172430D01*
X0110501Y0180170D01*
X0122099Y0180170D01*
X0167430Y0199251D02*
X0167430Y0210849D01*
X0175170Y0210849D01*
X0175170Y0199251D01*
X0167430Y0199251D01*
X0178680Y0198349D02*
X0186420Y0198349D01*
X0186420Y0186751D01*
X0178680Y0186751D01*
X0178680Y0198349D01*
X0178680Y0185849D02*
X0186420Y0185849D01*
X0186420Y0174251D01*
X0178680Y0174251D01*
X0178680Y0185849D01*
X0197430Y0184599D02*
X0197430Y0173001D01*
X0205170Y0173001D01*
X0205170Y0184599D01*
X0197430Y0184599D01*
X0155170Y0236751D02*
X0147430Y0236751D01*
X0147430Y0248349D01*
X0155170Y0248349D01*
X0155170Y0236751D01*
X0145170Y0245501D02*
X0137430Y0245501D01*
X0137430Y0257099D01*
X0145170Y0257099D01*
X0145170Y0245501D01*
X0145170Y0258001D02*
X0137430Y0258001D01*
X0137430Y0269599D01*
X0145170Y0269599D01*
X0145170Y0258001D01*
X0122099Y0255170D02*
X0122099Y0247430D01*
X0110501Y0247430D01*
X0110501Y0255170D01*
X0122099Y0255170D01*
X0167430Y0274251D02*
X0167430Y0285849D01*
X0175170Y0285849D01*
X0175170Y0274251D01*
X0167430Y0274251D01*
X0178680Y0273349D02*
X0186420Y0273349D01*
X0186420Y0261751D01*
X0178680Y0261751D01*
X0178680Y0273349D01*
X0178680Y0260849D02*
X0186420Y0260849D01*
X0186420Y0249251D01*
X0178680Y0249251D01*
X0178680Y0260849D01*
X0197430Y0259599D02*
X0197430Y0248001D01*
X0205170Y0248001D01*
X0205170Y0259599D01*
X0197430Y0259599D01*
X0155170Y0310501D02*
X0147430Y0310501D01*
X0147430Y0322099D01*
X0155170Y0322099D01*
X0155170Y0310501D01*
X0145170Y0323001D02*
X0137430Y0323001D01*
X0137430Y0334599D01*
X0145170Y0334599D01*
X0145170Y0323001D01*
X0145170Y0334251D02*
X0137430Y0334251D01*
X0137430Y0345849D01*
X0145170Y0345849D01*
X0145170Y0334251D01*
X0122099Y0330170D02*
X0122099Y0322430D01*
X0110501Y0322430D01*
X0110501Y0330170D01*
X0122099Y0330170D01*
X0168680Y0351751D02*
X0168680Y0363349D01*
X0176420Y0363349D01*
X0176420Y0351751D01*
X0168680Y0351751D01*
X0177430Y0348349D02*
X0185170Y0348349D01*
X0185170Y0336751D01*
X0177430Y0336751D01*
X0177430Y0348349D01*
X0177430Y0335849D02*
X0185170Y0335849D01*
X0185170Y0324251D01*
X0177430Y0324251D01*
X0177430Y0335849D01*
X0197430Y0334599D02*
X0197430Y0323001D01*
X0205170Y0323001D01*
X0205170Y0334599D01*
X0197430Y0334599D01*
X0272430Y0334599D02*
X0272430Y0323001D01*
X0280170Y0323001D01*
X0280170Y0334599D01*
X0272430Y0334599D01*
X0347430Y0334599D02*
X0347430Y0323001D01*
X0355170Y0323001D01*
X0355170Y0334599D01*
X0347430Y0334599D01*
X0347430Y0398001D02*
X0355170Y0398001D01*
X0355170Y0409599D01*
X0347430Y0409599D01*
X0347430Y0398001D01*
X0280170Y0398001D02*
X0272430Y0398001D01*
X0272430Y0409599D01*
X0280170Y0409599D01*
X0280170Y0398001D01*
X0205170Y0398001D02*
X0197430Y0398001D01*
X0197430Y0409599D01*
X0205170Y0409599D01*
X0205170Y0398001D01*
X0185170Y0405501D02*
X0177430Y0405501D01*
X0177430Y0417099D01*
X0185170Y0417099D01*
X0185170Y0405501D01*
X0185170Y0418001D02*
X0177430Y0418001D01*
X0177430Y0429599D01*
X0185170Y0429599D01*
X0185170Y0418001D01*
X0174599Y0427430D02*
X0174599Y0435170D01*
X0163001Y0435170D01*
X0163001Y0427430D01*
X0174599Y0427430D01*
X0149599Y0405170D02*
X0149599Y0397430D01*
X0138001Y0397430D01*
X0138001Y0405170D01*
X0149599Y0405170D01*
X0145170Y0405501D02*
X0137430Y0405501D01*
X0137430Y0417099D01*
X0145170Y0417099D01*
X0145170Y0405501D01*
X0145170Y0418001D02*
X0137430Y0418001D01*
X0137430Y0429599D01*
X0145170Y0429599D01*
X0145170Y0418001D01*
X0122099Y0405170D02*
X0122099Y0397430D01*
X0110501Y0397430D01*
X0110501Y0405170D01*
X0122099Y0405170D01*
X0045849Y0404930D02*
X0034251Y0404930D01*
X0034251Y0412670D01*
X0045849Y0412670D01*
X0045849Y0404930D01*
X0048349Y0336420D02*
X0036751Y0336420D01*
X0036751Y0328680D01*
X0048349Y0328680D01*
X0048349Y0336420D01*
X0045849Y0261420D02*
X0034251Y0261420D01*
X0034251Y0253680D01*
X0045849Y0253680D01*
X0045849Y0261420D01*
X0047099Y0187670D02*
X0035501Y0187670D01*
X0035501Y0179930D01*
X0047099Y0179930D01*
X0047099Y0187670D01*
X0045849Y0111420D02*
X0034251Y0111420D01*
X0034251Y0103680D01*
X0045849Y0103680D01*
X0045849Y0111420D01*
X0045849Y0027670D02*
X0034251Y0027670D01*
X0034251Y0019930D01*
X0045849Y0019930D01*
X0045849Y0027670D01*
X0272430Y0098001D02*
X0280170Y0098001D01*
X0280170Y0109599D01*
X0272430Y0109599D01*
X0272430Y0098001D01*
X0347430Y0098001D02*
X0355170Y0098001D01*
X0355170Y0109599D01*
X0347430Y0109599D01*
X0347430Y0098001D01*
X0347430Y0173001D02*
X0355170Y0173001D01*
X0355170Y0184599D01*
X0347430Y0184599D01*
X0347430Y0173001D01*
X0280170Y0173001D02*
X0272430Y0173001D01*
X0272430Y0184599D01*
X0280170Y0184599D01*
X0280170Y0173001D01*
X0280170Y0248001D02*
X0272430Y0248001D01*
X0272430Y0259599D01*
X0280170Y0259599D01*
X0280170Y0248001D01*
X0347430Y0248001D02*
X0355170Y0248001D01*
X0355170Y0259599D01*
X0347430Y0259599D01*
X0347430Y0248001D01*
X0427430Y0248001D02*
X0435170Y0248001D01*
X0435170Y0259599D01*
X0427430Y0259599D01*
X0427430Y0248001D01*
X0502430Y0248001D02*
X0510170Y0248001D01*
X0510170Y0259599D01*
X0502430Y0259599D01*
X0502430Y0248001D01*
X0502430Y0184599D02*
X0510170Y0184599D01*
X0510170Y0173001D01*
X0502430Y0173001D01*
X0502430Y0184599D01*
X0435170Y0184599D02*
X0435170Y0173001D01*
X0427430Y0173001D01*
X0427430Y0184599D01*
X0435170Y0184599D01*
X0435170Y0323001D02*
X0427430Y0323001D01*
X0427430Y0334599D01*
X0435170Y0334599D01*
X0435170Y0323001D01*
X0502430Y0323001D02*
X0510170Y0323001D01*
X0510170Y0334599D01*
X0502430Y0334599D01*
X0502430Y0323001D01*
X0502430Y0398001D02*
X0510170Y0398001D01*
X0510170Y0409599D01*
X0502430Y0409599D01*
X0502430Y0398001D01*
X0435170Y0398001D02*
X0427430Y0398001D01*
X0427430Y0409599D01*
X0435170Y0409599D01*
X0435170Y0398001D01*
D14*
X0181300Y0407954D03*
X0181300Y0414646D03*
X0119646Y0401300D03*
X0112954Y0401300D03*
X0172550Y0360896D03*
X0172550Y0354204D03*
X0181300Y0345896D03*
X0181300Y0339204D03*
X0151300Y0319646D03*
X0151300Y0312954D03*
X0119646Y0326300D03*
X0112954Y0326300D03*
X0171300Y0283396D03*
X0171300Y0276704D03*
X0182550Y0270896D03*
X0182550Y0264204D03*
X0151300Y0245896D03*
X0151300Y0239204D03*
X0119646Y0251300D03*
X0112954Y0251300D03*
X0171300Y0208396D03*
X0171300Y0201704D03*
X0182550Y0195896D03*
X0182550Y0189204D03*
X0151300Y0170896D03*
X0151300Y0164204D03*
X0119646Y0176300D03*
X0112954Y0176300D03*
X0171300Y0134646D03*
X0171300Y0127954D03*
X0182550Y0119646D03*
X0182550Y0112954D03*
X0150050Y0095896D03*
X0150050Y0089204D03*
X0119646Y0101300D03*
X0112954Y0101300D03*
X0171300Y0060396D03*
X0171300Y0053704D03*
X0181300Y0046646D03*
X0181300Y0039954D03*
X0200454Y0026300D03*
X0207146Y0026300D03*
X0274204Y0026300D03*
X0280896Y0026300D03*
X0351204Y0026300D03*
X0357896Y0026300D03*
X0430704Y0026300D03*
X0437396Y0026300D03*
X0500454Y0026300D03*
X0507146Y0026300D03*
X0108646Y0044300D03*
X0101954Y0044300D03*
X0043396Y0023800D03*
X0036704Y0023800D03*
X0036704Y0107550D03*
X0043396Y0107550D03*
X0044646Y0183800D03*
X0037954Y0183800D03*
X0036704Y0257550D03*
X0043396Y0257550D03*
X0045896Y0332550D03*
X0039204Y0332550D03*
X0036704Y0408800D03*
X0043396Y0408800D03*
D15*
X0140454Y0401300D03*
X0141300Y0407954D03*
X0147146Y0401300D03*
X0141300Y0414646D03*
X0141300Y0420454D03*
X0141300Y0427146D03*
X0165454Y0431300D03*
X0172146Y0431300D03*
X0181300Y0427146D03*
X0181300Y0420454D03*
X0201300Y0407146D03*
X0201300Y0400454D03*
X0141300Y0343396D03*
X0141300Y0336704D03*
X0141300Y0332146D03*
X0141300Y0325454D03*
X0181300Y0326704D03*
X0181300Y0333396D03*
X0201300Y0332146D03*
X0201300Y0325454D03*
X0141300Y0267146D03*
X0141300Y0260454D03*
X0141300Y0254646D03*
X0141300Y0247954D03*
X0182550Y0251704D03*
X0182550Y0258396D03*
X0201300Y0257146D03*
X0201300Y0250454D03*
X0141300Y0193396D03*
X0141300Y0186704D03*
X0141300Y0180896D03*
X0141300Y0174204D03*
X0182550Y0176704D03*
X0182550Y0183396D03*
X0201300Y0182146D03*
X0201300Y0175454D03*
X0141300Y0118396D03*
X0141300Y0111704D03*
X0141300Y0105896D03*
X0141300Y0099204D03*
X0182550Y0100454D03*
X0182550Y0107146D03*
X0201300Y0107146D03*
X0201300Y0100454D03*
X0141300Y0045396D03*
X0141300Y0038704D03*
X0141300Y0032896D03*
X0141300Y0026204D03*
X0151454Y0025300D03*
X0158146Y0025300D03*
X0181300Y0027454D03*
X0181300Y0034146D03*
X0276300Y0100454D03*
X0276300Y0107146D03*
X0351300Y0107146D03*
X0351300Y0100454D03*
X0431300Y0100454D03*
X0431300Y0107146D03*
X0506300Y0107146D03*
X0506300Y0100454D03*
X0506300Y0175454D03*
X0506300Y0182146D03*
X0431300Y0182146D03*
X0431300Y0175454D03*
X0351300Y0175454D03*
X0351300Y0182146D03*
X0276300Y0182146D03*
X0276300Y0175454D03*
X0276300Y0250454D03*
X0276300Y0257146D03*
X0351300Y0257146D03*
X0351300Y0250454D03*
X0431300Y0250454D03*
X0431300Y0257146D03*
X0506300Y0257146D03*
X0506300Y0250454D03*
X0506300Y0325454D03*
X0506300Y0332146D03*
X0431300Y0332146D03*
X0431300Y0325454D03*
X0351300Y0325454D03*
X0351300Y0332146D03*
X0276300Y0332146D03*
X0276300Y0325454D03*
X0276300Y0400454D03*
X0276300Y0407146D03*
X0351300Y0407146D03*
X0351300Y0400454D03*
X0431300Y0400454D03*
X0431300Y0407146D03*
X0506300Y0407146D03*
X0506300Y0400454D03*
D16*
X0171536Y0408800D03*
X0171536Y0413800D03*
X0171536Y0418800D03*
X0171536Y0423800D03*
X0151064Y0423800D03*
X0151064Y0418800D03*
X0151064Y0413800D03*
X0151064Y0408800D03*
X0151064Y0343800D03*
X0151064Y0338800D03*
X0151064Y0333800D03*
X0151064Y0328800D03*
X0171536Y0328800D03*
X0171536Y0333800D03*
X0171536Y0338800D03*
X0171536Y0343800D03*
X0171536Y0268800D03*
X0171536Y0263800D03*
X0171536Y0258800D03*
X0171536Y0253800D03*
X0151064Y0253800D03*
X0151064Y0258800D03*
X0151064Y0263800D03*
X0151064Y0268800D03*
X0151064Y0193800D03*
X0151064Y0188800D03*
X0151064Y0183800D03*
X0151064Y0178800D03*
X0171536Y0178800D03*
X0171536Y0183800D03*
X0171536Y0188800D03*
X0171536Y0193800D03*
X0171536Y0118800D03*
X0171536Y0113800D03*
X0171536Y0108800D03*
X0171536Y0103800D03*
X0151064Y0103800D03*
X0151064Y0108800D03*
X0151064Y0113800D03*
X0151064Y0118800D03*
X0151064Y0045800D03*
X0151064Y0040800D03*
X0151064Y0035800D03*
X0151064Y0030800D03*
X0171536Y0030800D03*
X0171536Y0035800D03*
X0171536Y0040800D03*
X0171536Y0045800D03*
D17*
X0087550Y0060050D03*
X0077550Y0060050D03*
X0078800Y0140050D03*
X0088800Y0140050D03*
X0091300Y0215050D03*
X0081300Y0215050D03*
X0078800Y0290050D03*
X0088800Y0290050D03*
X0087550Y0365050D03*
X0077550Y0365050D03*
X0078800Y0440050D03*
X0088800Y0440050D03*
D18*
X0045631Y0417550D03*
X0036969Y0421290D03*
X0036969Y0413810D03*
X0039469Y0346290D03*
X0048131Y0342550D03*
X0039469Y0338810D03*
X0036969Y0271290D03*
X0036969Y0263810D03*
X0045631Y0267550D03*
X0038219Y0196290D03*
X0046881Y0192550D03*
X0038219Y0188810D03*
X0036969Y0121290D03*
X0036969Y0113810D03*
X0045631Y0117550D03*
X0036969Y0041290D03*
X0045631Y0037550D03*
X0036969Y0033810D03*
D19*
X0111457Y0033741D03*
X0121300Y0033741D03*
X0131143Y0033741D03*
X0191457Y0033741D03*
X0201300Y0033741D03*
X0211143Y0033741D03*
X0266457Y0033741D03*
X0276300Y0033741D03*
X0286143Y0033741D03*
X0341457Y0033741D03*
X0351300Y0033741D03*
X0361143Y0033741D03*
X0421457Y0033741D03*
X0431300Y0033741D03*
X0441143Y0033741D03*
X0496457Y0033741D03*
X0506300Y0033741D03*
X0516143Y0033741D03*
X0516143Y0113741D03*
X0506300Y0113741D03*
X0496457Y0113741D03*
X0441143Y0113741D03*
X0431300Y0113741D03*
X0421457Y0113741D03*
X0361143Y0113741D03*
X0351300Y0113741D03*
X0341457Y0113741D03*
X0286143Y0113741D03*
X0276300Y0113741D03*
X0266457Y0113741D03*
X0211143Y0113741D03*
X0201300Y0113741D03*
X0191457Y0113741D03*
X0131143Y0113741D03*
X0121300Y0113741D03*
X0111457Y0113741D03*
X0111457Y0188741D03*
X0121300Y0188741D03*
X0131143Y0188741D03*
X0191457Y0188741D03*
X0201300Y0188741D03*
X0211143Y0188741D03*
X0266457Y0188741D03*
X0276300Y0188741D03*
X0286143Y0188741D03*
X0341457Y0188741D03*
X0351300Y0188741D03*
X0361143Y0188741D03*
X0421457Y0188741D03*
X0431300Y0188741D03*
X0441143Y0188741D03*
X0496457Y0188741D03*
X0506300Y0188741D03*
X0516143Y0188741D03*
X0516143Y0263741D03*
X0506300Y0263741D03*
X0496457Y0263741D03*
X0441143Y0263741D03*
X0431300Y0263741D03*
X0421457Y0263741D03*
X0361143Y0263741D03*
X0351300Y0263741D03*
X0341457Y0263741D03*
X0286143Y0263741D03*
X0276300Y0263741D03*
X0266457Y0263741D03*
X0211143Y0263741D03*
X0201300Y0263741D03*
X0191457Y0263741D03*
X0131143Y0263741D03*
X0121300Y0263741D03*
X0111457Y0263741D03*
X0111457Y0338741D03*
X0121300Y0338741D03*
X0131143Y0338741D03*
X0191457Y0338741D03*
X0201300Y0338741D03*
X0211143Y0338741D03*
X0266457Y0338741D03*
X0276300Y0338741D03*
X0286143Y0338741D03*
X0341457Y0338741D03*
X0351300Y0338741D03*
X0361143Y0338741D03*
X0421457Y0338741D03*
X0431300Y0338741D03*
X0441143Y0338741D03*
X0496457Y0338741D03*
X0506300Y0338741D03*
X0516143Y0338741D03*
X0516143Y0413741D03*
X0506300Y0413741D03*
X0496457Y0413741D03*
X0441143Y0413741D03*
X0431300Y0413741D03*
X0421457Y0413741D03*
X0361143Y0413741D03*
X0351300Y0413741D03*
X0341457Y0413741D03*
X0286143Y0413741D03*
X0276300Y0413741D03*
X0266457Y0413741D03*
X0211143Y0413741D03*
X0201300Y0413741D03*
X0191457Y0413741D03*
X0131143Y0413741D03*
X0121300Y0413741D03*
X0111457Y0413741D03*
D20*
X0102796Y0441300D03*
X0139804Y0441300D03*
X0182796Y0441300D03*
X0219804Y0441300D03*
X0257796Y0441300D03*
X0294804Y0441300D03*
X0332796Y0441300D03*
X0369804Y0441300D03*
X0412796Y0441300D03*
X0449804Y0441300D03*
X0487796Y0441300D03*
X0524804Y0441300D03*
X0524804Y0366300D03*
X0487796Y0366300D03*
X0449804Y0366300D03*
X0412796Y0366300D03*
X0369804Y0366300D03*
X0332796Y0366300D03*
X0294804Y0366300D03*
X0257796Y0366300D03*
X0219804Y0366300D03*
X0182796Y0366300D03*
X0139804Y0366300D03*
X0102796Y0366300D03*
X0102796Y0291300D03*
X0139804Y0291300D03*
X0182796Y0291300D03*
X0219804Y0291300D03*
X0257796Y0291300D03*
X0294804Y0291300D03*
X0332796Y0291300D03*
X0369804Y0291300D03*
X0412796Y0291300D03*
X0449804Y0291300D03*
X0487796Y0291300D03*
X0524804Y0291300D03*
X0524804Y0216300D03*
X0487796Y0216300D03*
X0449804Y0216300D03*
X0412796Y0216300D03*
X0369804Y0216300D03*
X0332796Y0216300D03*
X0294804Y0216300D03*
X0257796Y0216300D03*
X0219804Y0216300D03*
X0182796Y0216300D03*
X0139804Y0216300D03*
X0102796Y0216300D03*
X0102796Y0141300D03*
X0139804Y0141300D03*
X0182796Y0141300D03*
X0219804Y0141300D03*
X0257796Y0141300D03*
X0294804Y0141300D03*
X0332796Y0141300D03*
X0369804Y0141300D03*
X0412796Y0141300D03*
X0449804Y0141300D03*
X0487796Y0141300D03*
X0524804Y0141300D03*
X0524804Y0061300D03*
X0487796Y0061300D03*
X0449804Y0061300D03*
X0412796Y0061300D03*
X0369804Y0061300D03*
X0332796Y0061300D03*
X0294804Y0061300D03*
X0257796Y0061300D03*
X0219804Y0061300D03*
X0182796Y0061300D03*
X0139804Y0061300D03*
X0102796Y0061300D03*
D21*
X0565001Y0036300D03*
X0577599Y0036300D03*
X0581349Y0111300D03*
X0568751Y0111300D03*
X0567501Y0186300D03*
X0580099Y0186300D03*
X0583849Y0261300D03*
X0571251Y0261300D03*
X0570001Y0336300D03*
X0582599Y0336300D03*
X0581349Y0411300D03*
X0568751Y0411300D03*
D22*
X0474439Y0415402D03*
X0474439Y0425402D03*
X0474439Y0435402D03*
X0474439Y0445402D03*
X0474439Y0455402D03*
X0464439Y0455402D03*
X0464439Y0445402D03*
X0464439Y0435402D03*
X0464439Y0425402D03*
X0464439Y0415402D03*
D23*
X0454100Y0346750D03*
X0454100Y0325500D03*
X0514100Y0313000D03*
X0451600Y0269000D03*
X0451600Y0246750D03*
X0514100Y0238000D03*
X0514100Y0163000D03*
X0455350Y0114250D03*
X0455350Y0096750D03*
X0514100Y0088000D03*
X0480600Y0038300D03*
X0480800Y0022000D03*
X0454100Y0020500D03*
X0454100Y0038000D03*
X0548300Y0036300D03*
X0361600Y0083000D03*
X0305302Y0035441D03*
X0254100Y0043000D03*
X0195100Y0043000D03*
X0156100Y0055000D03*
X0174100Y0079500D03*
X0195350Y0083000D03*
X0158800Y0121600D03*
X0151200Y0122925D03*
X0139600Y0132200D03*
X0126850Y0102000D03*
X0196450Y0163100D03*
X0211600Y0163000D03*
X0164100Y0173000D03*
X0163550Y0191800D03*
X0134150Y0178000D03*
X0182200Y0235150D03*
X0159600Y0252600D03*
X0129850Y0253750D03*
X0187100Y0301000D03*
X0161100Y0335700D03*
X0163000Y0352100D03*
X0145350Y0387550D03*
X0153100Y0400000D03*
X0138659Y0407857D03*
X0126300Y0401300D03*
X0159700Y0417900D03*
X0163400Y0413250D03*
X0161950Y0425900D03*
X0180300Y0432522D03*
X0191300Y0421300D03*
X0297850Y0348000D03*
X0297850Y0324250D03*
X0299100Y0269750D03*
X0299100Y0250500D03*
X0375350Y0248000D03*
X0375350Y0268750D03*
X0374100Y0325500D03*
X0374100Y0346750D03*
X0215500Y0235500D03*
X0287650Y0171150D03*
X0287850Y0156750D03*
X0262650Y0121200D03*
M02*
