%
M48
M72
T01C0.03150
T02C0.03200
T03C0.03937
T04C0.04000
T05C0.05906
T06C0.08661
%
T01
X126850Y102000
X151200Y122925
X158800Y121600
X139600Y132200
X164100Y173000
X163550Y191800
X134150Y178000
X196450Y163100
X211600Y163000
X262650Y121200
X287850Y156750
X287650Y171150
X215500Y235500
X182200Y235150
X159600Y252600
X129850Y253750
X187100Y301000
X161100Y335700
X163000Y352100
X145350Y387550
X153100Y400000
X138659Y407857
X126300Y401300
X159700Y417900
X163400Y413250
X161950Y425900
X180300Y432522
X191300Y421300
X297850Y348000
X297850Y324250
X299100Y269750
X299100Y250500
X375350Y248000
X375350Y268750
X374100Y325500
X374100Y346750
X454100Y346750
X454100Y325500
X514100Y313000
X451600Y269000
X451600Y246750
X514100Y238000
X514100Y163000
X455350Y114250
X455350Y96750
X514100Y88000
X480600Y38300
X480800Y22000
X454100Y20500
X454100Y38000
X548300Y36300
X361600Y83000
X305302Y35441
X254100Y43000
X195100Y43000
X156100Y55000
X174100Y79500
X195350Y83000
T02
X87550Y60050
X77550Y60050
X78800Y140050
X88800Y140050
X91300Y215050
X81300Y215050
X78800Y290050
X88800Y290050
X87550Y365050
X77550Y365050
X78800Y440050
X88800Y440050
T03
X111457Y413741
X121300Y413741
X131143Y413741
X191457Y413741
X201300Y413741
X211143Y413741
X266457Y413741
X276300Y413741
X286143Y413741
X341457Y413741
X351300Y413741
X361143Y413741
X421457Y413741
X431300Y413741
X441143Y413741
X496457Y413741
X506300Y413741
X516143Y413741
X516143Y338741
X506300Y338741
X496457Y338741
X441143Y338741
X431300Y338741
X421457Y338741
X361143Y338741
X351300Y338741
X341457Y338741
X286143Y338741
X276300Y338741
X266457Y338741
X211143Y338741
X201300Y338741
X191457Y338741
X131143Y338741
X121300Y338741
X111457Y338741
X111457Y263741
X121300Y263741
X131143Y263741
X191457Y263741
X201300Y263741
X211143Y263741
X266457Y263741
X276300Y263741
X286143Y263741
X341457Y263741
X351300Y263741
X361143Y263741
X421457Y263741
X431300Y263741
X441143Y263741
X496457Y263741
X506300Y263741
X516143Y263741
X516143Y188741
X506300Y188741
X496457Y188741
X441143Y188741
X431300Y188741
X421457Y188741
X361143Y188741
X351300Y188741
X341457Y188741
X286143Y188741
X276300Y188741
X266457Y188741
X211143Y188741
X201300Y188741
X191457Y188741
X131143Y188741
X121300Y188741
X111457Y188741
X111457Y113741
X121300Y113741
X131143Y113741
X191457Y113741
X201300Y113741
X211143Y113741
X266457Y113741
X276300Y113741
X286143Y113741
X341457Y113741
X351300Y113741
X361143Y113741
X421457Y113741
X431300Y113741
X441143Y113741
X496457Y113741
X506300Y113741
X516143Y113741
X516143Y33741
X506300Y33741
X496457Y33741
X441143Y33741
X431300Y33741
X421457Y33741
X361143Y33741
X351300Y33741
X341457Y33741
X286143Y33741
X276300Y33741
X266457Y33741
X211143Y33741
X201300Y33741
X191457Y33741
X131143Y33741
X121300Y33741
X111457Y33741
T04
X28800Y61300
X58800Y61300
X68800Y61300
X68800Y141300
X58800Y141300
X28800Y141300
X28800Y216300
X58800Y216300
X68800Y216300
X68800Y291300
X58800Y291300
X28800Y291300
X28800Y366300
X58800Y366300
X68800Y366300
X68800Y441300
X58800Y441300
X28800Y441300
X464439Y445402
X464439Y455402
X474439Y455402
X474439Y445402
X474439Y435402
X464439Y435402
X464439Y425402
X474439Y425402
X474439Y415402
X464439Y415402
X541648Y440931
X551648Y440931
X581648Y440931
X581804Y367083
X551804Y367083
X541804Y367083
X541804Y291533
X551804Y291533
X581804Y291533
X581804Y215856
X551804Y215856
X541804Y215856
X541931Y141068
X551931Y141068
X581931Y141068
X581931Y65899
X551931Y65899
X541931Y65899
T05
X524804Y61300
X487796Y61300
X449804Y61300
X412796Y61300
X369804Y61300
X332796Y61300
X294804Y61300
X257796Y61300
X219804Y61300
X182796Y61300
X139804Y61300
X102796Y61300
X102796Y141300
X139804Y141300
X182796Y141300
X219804Y141300
X257796Y141300
X294804Y141300
X332796Y141300
X369804Y141300
X412796Y141300
X449804Y141300
X487796Y141300
X524804Y141300
X524804Y216300
X487796Y216300
X449804Y216300
X412796Y216300
X369804Y216300
X332796Y216300
X294804Y216300
X257796Y216300
X219804Y216300
X182796Y216300
X139804Y216300
X102796Y216300
X102796Y291300
X139804Y291300
X182796Y291300
X219804Y291300
X257796Y291300
X294804Y291300
X332796Y291300
X369804Y291300
X412796Y291300
X449804Y291300
X487796Y291300
X524804Y291300
X524804Y366300
X487796Y366300
X449804Y366300
X412796Y366300
X369804Y366300
X332796Y366300
X294804Y366300
X257796Y366300
X219804Y366300
X182796Y366300
X139804Y366300
X102796Y366300
X102796Y441300
X139804Y441300
X182796Y441300
X219804Y441300
X257796Y441300
X294804Y441300
X332796Y441300
X369804Y441300
X412796Y441300
X449804Y441300
X487796Y441300
X524804Y441300
T06
X564148Y440931
X564304Y367083
X564304Y291533
X564304Y215856
X564431Y141068
X564431Y65899
X46300Y61300
X46300Y141300
X46300Y216300
X46300Y291300
X46300Y366300
X46300Y441300
M30
