G75*
%MOIN*%
%OFA0B0*%
%FSLAX25Y25*%
%IPPOS*%
%LPD*%
%AMOC8*
5,1,8,0,0,1.08239X$1,22.5*
%
%ADD10C,0.00400*%
%ADD11C,0.00300*%
%ADD12R,0.01772X0.02756*%
%ADD13R,0.01575X0.02756*%
%ADD14C,0.00000*%
%ADD15C,0.01000*%
%ADD16R,0.03346X0.02953*%
%ADD17R,0.05315X0.03543*%
%ADD18R,0.02953X0.03346*%
%ADD19R,0.03543X0.05315*%
%ADD20R,0.02756X0.01772*%
%ADD21R,0.02756X0.01575*%
D10*
X0077663Y0077815D02*
X0089868Y0077815D01*
X0089868Y0082736D01*
X0088404Y0083070D02*
X0086521Y0083070D01*
X0086521Y0083468D02*
X0088537Y0083468D01*
X0088670Y0083867D02*
X0086521Y0083867D01*
X0086521Y0084265D02*
X0088803Y0084265D01*
X0088883Y0084508D02*
X0088293Y0082736D01*
X0086521Y0080571D01*
X0086521Y0091594D01*
X0086521Y0091791D01*
X0088293Y0089429D01*
X0088883Y0087460D01*
X0088883Y0084508D01*
X0088883Y0084664D02*
X0086521Y0084664D01*
X0086521Y0085062D02*
X0088883Y0085062D01*
X0088883Y0085461D02*
X0086521Y0085461D01*
X0086521Y0085859D02*
X0088883Y0085859D01*
X0088883Y0086258D02*
X0086521Y0086258D01*
X0086521Y0086656D02*
X0088883Y0086656D01*
X0088883Y0087055D02*
X0086521Y0087055D01*
X0086521Y0087453D02*
X0088883Y0087453D01*
X0088766Y0087852D02*
X0086521Y0087852D01*
X0086521Y0088250D02*
X0088647Y0088250D01*
X0088527Y0088649D02*
X0086521Y0088649D01*
X0086521Y0089047D02*
X0088407Y0089047D01*
X0088280Y0089446D02*
X0086521Y0089446D01*
X0086521Y0089844D02*
X0087981Y0089844D01*
X0087683Y0090243D02*
X0086521Y0090243D01*
X0086521Y0090641D02*
X0087384Y0090641D01*
X0087085Y0091040D02*
X0086521Y0091040D01*
X0086521Y0091438D02*
X0086786Y0091438D01*
X0086324Y0091988D02*
X0086324Y0080177D01*
X0086521Y0080678D02*
X0086610Y0080678D01*
X0086521Y0081077D02*
X0086936Y0081077D01*
X0087262Y0081475D02*
X0086521Y0081475D01*
X0086521Y0081874D02*
X0087588Y0081874D01*
X0087914Y0082272D02*
X0086521Y0082272D01*
X0086521Y0082671D02*
X0088240Y0082671D01*
X0089868Y0077815D02*
X0089868Y0094350D01*
X0077663Y0094350D01*
X0073332Y0090019D01*
X0073332Y0082145D01*
X0077663Y0077815D01*
X0089868Y0077815D01*
X0089868Y0089429D02*
X0089868Y0094350D01*
X0077663Y0094350D01*
X0073332Y0090019D01*
X0073923Y0086082D02*
X0073925Y0086270D01*
X0073932Y0086459D01*
X0073944Y0086647D01*
X0073960Y0086834D01*
X0073981Y0087022D01*
X0074006Y0087208D01*
X0074036Y0087394D01*
X0074071Y0087580D01*
X0074110Y0087764D01*
X0074153Y0087947D01*
X0074201Y0088130D01*
X0074254Y0088311D01*
X0074310Y0088490D01*
X0074372Y0088668D01*
X0074437Y0088845D01*
X0074507Y0089020D01*
X0074582Y0089193D01*
X0074660Y0089364D01*
X0074743Y0089534D01*
X0074829Y0089701D01*
X0074920Y0089866D01*
X0075015Y0090029D01*
X0075114Y0090189D01*
X0075217Y0090347D01*
X0075323Y0090502D01*
X0075434Y0090655D01*
X0075548Y0090805D01*
X0075666Y0090952D01*
X0075787Y0091096D01*
X0075912Y0091238D01*
X0076040Y0091376D01*
X0076172Y0091510D01*
X0076306Y0091642D01*
X0076444Y0091770D01*
X0076586Y0091895D01*
X0076730Y0092016D01*
X0076877Y0092134D01*
X0077027Y0092248D01*
X0077180Y0092359D01*
X0077335Y0092465D01*
X0077493Y0092568D01*
X0077653Y0092667D01*
X0077816Y0092762D01*
X0077981Y0092853D01*
X0078148Y0092939D01*
X0078318Y0093022D01*
X0078489Y0093100D01*
X0078662Y0093175D01*
X0078837Y0093245D01*
X0079014Y0093310D01*
X0079192Y0093372D01*
X0079371Y0093428D01*
X0079552Y0093481D01*
X0079735Y0093529D01*
X0079918Y0093572D01*
X0080102Y0093611D01*
X0080288Y0093646D01*
X0080474Y0093676D01*
X0080660Y0093701D01*
X0080848Y0093722D01*
X0081035Y0093738D01*
X0081223Y0093750D01*
X0081412Y0093757D01*
X0081600Y0093759D01*
X0081788Y0093757D01*
X0081977Y0093750D01*
X0082165Y0093738D01*
X0082352Y0093722D01*
X0082540Y0093701D01*
X0082726Y0093676D01*
X0082912Y0093646D01*
X0083098Y0093611D01*
X0083282Y0093572D01*
X0083465Y0093529D01*
X0083648Y0093481D01*
X0083829Y0093428D01*
X0084008Y0093372D01*
X0084186Y0093310D01*
X0084363Y0093245D01*
X0084538Y0093175D01*
X0084711Y0093100D01*
X0084882Y0093022D01*
X0085052Y0092939D01*
X0085219Y0092853D01*
X0085384Y0092762D01*
X0085547Y0092667D01*
X0085707Y0092568D01*
X0085865Y0092465D01*
X0086020Y0092359D01*
X0086173Y0092248D01*
X0086323Y0092134D01*
X0086470Y0092016D01*
X0086614Y0091895D01*
X0086756Y0091770D01*
X0086894Y0091642D01*
X0087028Y0091510D01*
X0087160Y0091376D01*
X0087288Y0091238D01*
X0087413Y0091096D01*
X0087534Y0090952D01*
X0087652Y0090805D01*
X0087766Y0090655D01*
X0087877Y0090502D01*
X0087983Y0090347D01*
X0088086Y0090189D01*
X0088185Y0090029D01*
X0088280Y0089866D01*
X0088371Y0089701D01*
X0088457Y0089534D01*
X0088540Y0089364D01*
X0088618Y0089193D01*
X0088693Y0089020D01*
X0088763Y0088845D01*
X0088828Y0088668D01*
X0088890Y0088490D01*
X0088946Y0088311D01*
X0088999Y0088130D01*
X0089047Y0087947D01*
X0089090Y0087764D01*
X0089129Y0087580D01*
X0089164Y0087394D01*
X0089194Y0087208D01*
X0089219Y0087022D01*
X0089240Y0086834D01*
X0089256Y0086647D01*
X0089268Y0086459D01*
X0089275Y0086270D01*
X0089277Y0086082D01*
X0089275Y0085894D01*
X0089268Y0085705D01*
X0089256Y0085517D01*
X0089240Y0085330D01*
X0089219Y0085142D01*
X0089194Y0084956D01*
X0089164Y0084770D01*
X0089129Y0084584D01*
X0089090Y0084400D01*
X0089047Y0084217D01*
X0088999Y0084034D01*
X0088946Y0083853D01*
X0088890Y0083674D01*
X0088828Y0083496D01*
X0088763Y0083319D01*
X0088693Y0083144D01*
X0088618Y0082971D01*
X0088540Y0082800D01*
X0088457Y0082630D01*
X0088371Y0082463D01*
X0088280Y0082298D01*
X0088185Y0082135D01*
X0088086Y0081975D01*
X0087983Y0081817D01*
X0087877Y0081662D01*
X0087766Y0081509D01*
X0087652Y0081359D01*
X0087534Y0081212D01*
X0087413Y0081068D01*
X0087288Y0080926D01*
X0087160Y0080788D01*
X0087028Y0080654D01*
X0086894Y0080522D01*
X0086756Y0080394D01*
X0086614Y0080269D01*
X0086470Y0080148D01*
X0086323Y0080030D01*
X0086173Y0079916D01*
X0086020Y0079805D01*
X0085865Y0079699D01*
X0085707Y0079596D01*
X0085547Y0079497D01*
X0085384Y0079402D01*
X0085219Y0079311D01*
X0085052Y0079225D01*
X0084882Y0079142D01*
X0084711Y0079064D01*
X0084538Y0078989D01*
X0084363Y0078919D01*
X0084186Y0078854D01*
X0084008Y0078792D01*
X0083829Y0078736D01*
X0083648Y0078683D01*
X0083465Y0078635D01*
X0083282Y0078592D01*
X0083098Y0078553D01*
X0082912Y0078518D01*
X0082726Y0078488D01*
X0082540Y0078463D01*
X0082352Y0078442D01*
X0082165Y0078426D01*
X0081977Y0078414D01*
X0081788Y0078407D01*
X0081600Y0078405D01*
X0081412Y0078407D01*
X0081223Y0078414D01*
X0081035Y0078426D01*
X0080848Y0078442D01*
X0080660Y0078463D01*
X0080474Y0078488D01*
X0080288Y0078518D01*
X0080102Y0078553D01*
X0079918Y0078592D01*
X0079735Y0078635D01*
X0079552Y0078683D01*
X0079371Y0078736D01*
X0079192Y0078792D01*
X0079014Y0078854D01*
X0078837Y0078919D01*
X0078662Y0078989D01*
X0078489Y0079064D01*
X0078318Y0079142D01*
X0078148Y0079225D01*
X0077981Y0079311D01*
X0077816Y0079402D01*
X0077653Y0079497D01*
X0077493Y0079596D01*
X0077335Y0079699D01*
X0077180Y0079805D01*
X0077027Y0079916D01*
X0076877Y0080030D01*
X0076730Y0080148D01*
X0076586Y0080269D01*
X0076444Y0080394D01*
X0076306Y0080522D01*
X0076172Y0080654D01*
X0076040Y0080788D01*
X0075912Y0080926D01*
X0075787Y0081068D01*
X0075666Y0081212D01*
X0075548Y0081359D01*
X0075434Y0081509D01*
X0075323Y0081662D01*
X0075217Y0081817D01*
X0075114Y0081975D01*
X0075015Y0082135D01*
X0074920Y0082298D01*
X0074829Y0082463D01*
X0074743Y0082630D01*
X0074660Y0082800D01*
X0074582Y0082971D01*
X0074507Y0083144D01*
X0074437Y0083319D01*
X0074372Y0083496D01*
X0074310Y0083674D01*
X0074254Y0083853D01*
X0074201Y0084034D01*
X0074153Y0084217D01*
X0074110Y0084400D01*
X0074071Y0084584D01*
X0074036Y0084770D01*
X0074006Y0084956D01*
X0073981Y0085142D01*
X0073960Y0085330D01*
X0073944Y0085517D01*
X0073932Y0085705D01*
X0073925Y0085894D01*
X0073923Y0086082D01*
X0073332Y0082145D02*
X0077663Y0077815D01*
X0074711Y0089428D02*
X0074794Y0089595D01*
X0074881Y0089759D01*
X0074973Y0089922D01*
X0075068Y0090082D01*
X0075167Y0090239D01*
X0075270Y0090394D01*
X0075377Y0090547D01*
X0075488Y0090697D01*
X0075602Y0090844D01*
X0075719Y0090989D01*
X0075840Y0091130D01*
X0075965Y0091269D01*
X0076092Y0091404D01*
X0076223Y0091537D01*
X0076358Y0091666D01*
X0076495Y0091792D01*
X0076635Y0091914D01*
X0076779Y0092033D01*
X0076925Y0092149D01*
X0077074Y0092260D01*
X0077225Y0092369D01*
X0077379Y0092473D01*
X0077536Y0092574D01*
X0077695Y0092671D01*
X0077856Y0092764D01*
X0078020Y0092853D01*
X0078186Y0092938D01*
X0078353Y0093019D01*
X0078523Y0093096D01*
X0078695Y0093169D01*
X0078868Y0093237D01*
X0079043Y0093301D01*
X0079219Y0093361D01*
X0079397Y0093417D01*
X0079576Y0093469D01*
X0079756Y0093516D01*
X0079937Y0093558D01*
X0080119Y0093597D01*
X0080303Y0093630D01*
X0080486Y0093660D01*
X0080671Y0093684D01*
X0080856Y0093705D01*
X0081042Y0093721D01*
X0081228Y0093732D01*
X0081414Y0093739D01*
X0081600Y0093741D01*
X0081786Y0093739D01*
X0081972Y0093732D01*
X0082158Y0093721D01*
X0082344Y0093705D01*
X0082529Y0093684D01*
X0082714Y0093660D01*
X0082897Y0093630D01*
X0083081Y0093597D01*
X0083263Y0093558D01*
X0083444Y0093516D01*
X0083624Y0093469D01*
X0083803Y0093417D01*
X0083981Y0093361D01*
X0084157Y0093301D01*
X0084332Y0093237D01*
X0084505Y0093169D01*
X0084677Y0093096D01*
X0084847Y0093019D01*
X0085014Y0092938D01*
X0085180Y0092853D01*
X0085344Y0092764D01*
X0085505Y0092671D01*
X0085664Y0092574D01*
X0085821Y0092473D01*
X0085975Y0092369D01*
X0086126Y0092260D01*
X0086275Y0092149D01*
X0086421Y0092033D01*
X0086565Y0091914D01*
X0086705Y0091792D01*
X0086842Y0091666D01*
X0086977Y0091537D01*
X0087108Y0091404D01*
X0087235Y0091269D01*
X0087360Y0091130D01*
X0087481Y0090989D01*
X0087598Y0090844D01*
X0087712Y0090697D01*
X0087823Y0090547D01*
X0087930Y0090394D01*
X0088033Y0090239D01*
X0088132Y0090082D01*
X0088227Y0089922D01*
X0088319Y0089759D01*
X0088406Y0089595D01*
X0088489Y0089428D01*
X0088489Y0082736D02*
X0088406Y0082569D01*
X0088319Y0082405D01*
X0088227Y0082242D01*
X0088132Y0082082D01*
X0088033Y0081925D01*
X0087930Y0081770D01*
X0087823Y0081617D01*
X0087712Y0081467D01*
X0087598Y0081320D01*
X0087481Y0081175D01*
X0087360Y0081034D01*
X0087235Y0080895D01*
X0087108Y0080760D01*
X0086977Y0080627D01*
X0086842Y0080498D01*
X0086705Y0080372D01*
X0086565Y0080250D01*
X0086421Y0080131D01*
X0086275Y0080015D01*
X0086126Y0079904D01*
X0085975Y0079795D01*
X0085821Y0079691D01*
X0085664Y0079590D01*
X0085505Y0079493D01*
X0085344Y0079400D01*
X0085180Y0079311D01*
X0085014Y0079226D01*
X0084847Y0079145D01*
X0084677Y0079068D01*
X0084505Y0078995D01*
X0084332Y0078927D01*
X0084157Y0078863D01*
X0083981Y0078803D01*
X0083803Y0078747D01*
X0083624Y0078695D01*
X0083444Y0078648D01*
X0083263Y0078606D01*
X0083081Y0078567D01*
X0082897Y0078534D01*
X0082714Y0078504D01*
X0082529Y0078480D01*
X0082344Y0078459D01*
X0082158Y0078443D01*
X0081972Y0078432D01*
X0081786Y0078425D01*
X0081600Y0078423D01*
X0081414Y0078425D01*
X0081228Y0078432D01*
X0081042Y0078443D01*
X0080856Y0078459D01*
X0080671Y0078480D01*
X0080486Y0078504D01*
X0080303Y0078534D01*
X0080119Y0078567D01*
X0079937Y0078606D01*
X0079756Y0078648D01*
X0079576Y0078695D01*
X0079397Y0078747D01*
X0079219Y0078803D01*
X0079043Y0078863D01*
X0078868Y0078927D01*
X0078695Y0078995D01*
X0078523Y0079068D01*
X0078353Y0079145D01*
X0078186Y0079226D01*
X0078020Y0079311D01*
X0077856Y0079400D01*
X0077695Y0079493D01*
X0077536Y0079590D01*
X0077379Y0079691D01*
X0077225Y0079795D01*
X0077074Y0079904D01*
X0076925Y0080015D01*
X0076779Y0080131D01*
X0076635Y0080250D01*
X0076495Y0080372D01*
X0076358Y0080498D01*
X0076223Y0080627D01*
X0076092Y0080760D01*
X0075965Y0080895D01*
X0075840Y0081034D01*
X0075719Y0081175D01*
X0075602Y0081320D01*
X0075488Y0081467D01*
X0075377Y0081617D01*
X0075270Y0081770D01*
X0075167Y0081925D01*
X0075068Y0082082D01*
X0074973Y0082242D01*
X0074881Y0082405D01*
X0074794Y0082569D01*
X0074711Y0082736D01*
X0077663Y0152815D02*
X0089868Y0152815D01*
X0089868Y0157736D01*
X0088510Y0158388D02*
X0086521Y0158388D01*
X0086521Y0157990D02*
X0088377Y0157990D01*
X0088293Y0157736D02*
X0086521Y0155571D01*
X0086521Y0166594D01*
X0086521Y0166791D01*
X0088293Y0164429D01*
X0088883Y0162460D01*
X0088883Y0159508D01*
X0088293Y0157736D01*
X0088174Y0157591D02*
X0086521Y0157591D01*
X0086521Y0157193D02*
X0087848Y0157193D01*
X0087522Y0156794D02*
X0086521Y0156794D01*
X0086521Y0156396D02*
X0087196Y0156396D01*
X0086870Y0155997D02*
X0086521Y0155997D01*
X0086521Y0155599D02*
X0086544Y0155599D01*
X0086324Y0155177D02*
X0086324Y0166988D01*
X0086521Y0166757D02*
X0086547Y0166757D01*
X0086521Y0166358D02*
X0086846Y0166358D01*
X0087145Y0165960D02*
X0086521Y0165960D01*
X0086521Y0165561D02*
X0087444Y0165561D01*
X0087742Y0165163D02*
X0086521Y0165163D01*
X0086521Y0164764D02*
X0088041Y0164764D01*
X0088312Y0164366D02*
X0086521Y0164366D01*
X0086521Y0163967D02*
X0088431Y0163967D01*
X0088551Y0163569D02*
X0086521Y0163569D01*
X0086521Y0163170D02*
X0088670Y0163170D01*
X0088790Y0162772D02*
X0086521Y0162772D01*
X0086521Y0162373D02*
X0088883Y0162373D01*
X0088883Y0161975D02*
X0086521Y0161975D01*
X0086521Y0161576D02*
X0088883Y0161576D01*
X0088883Y0161178D02*
X0086521Y0161178D01*
X0086521Y0160779D02*
X0088883Y0160779D01*
X0088883Y0160381D02*
X0086521Y0160381D01*
X0086521Y0159982D02*
X0088883Y0159982D01*
X0088883Y0159584D02*
X0086521Y0159584D01*
X0086521Y0159185D02*
X0088776Y0159185D01*
X0088643Y0158787D02*
X0086521Y0158787D01*
X0073923Y0161082D02*
X0073925Y0161270D01*
X0073932Y0161459D01*
X0073944Y0161647D01*
X0073960Y0161834D01*
X0073981Y0162022D01*
X0074006Y0162208D01*
X0074036Y0162394D01*
X0074071Y0162580D01*
X0074110Y0162764D01*
X0074153Y0162947D01*
X0074201Y0163130D01*
X0074254Y0163311D01*
X0074310Y0163490D01*
X0074372Y0163668D01*
X0074437Y0163845D01*
X0074507Y0164020D01*
X0074582Y0164193D01*
X0074660Y0164364D01*
X0074743Y0164534D01*
X0074829Y0164701D01*
X0074920Y0164866D01*
X0075015Y0165029D01*
X0075114Y0165189D01*
X0075217Y0165347D01*
X0075323Y0165502D01*
X0075434Y0165655D01*
X0075548Y0165805D01*
X0075666Y0165952D01*
X0075787Y0166096D01*
X0075912Y0166238D01*
X0076040Y0166376D01*
X0076172Y0166510D01*
X0076306Y0166642D01*
X0076444Y0166770D01*
X0076586Y0166895D01*
X0076730Y0167016D01*
X0076877Y0167134D01*
X0077027Y0167248D01*
X0077180Y0167359D01*
X0077335Y0167465D01*
X0077493Y0167568D01*
X0077653Y0167667D01*
X0077816Y0167762D01*
X0077981Y0167853D01*
X0078148Y0167939D01*
X0078318Y0168022D01*
X0078489Y0168100D01*
X0078662Y0168175D01*
X0078837Y0168245D01*
X0079014Y0168310D01*
X0079192Y0168372D01*
X0079371Y0168428D01*
X0079552Y0168481D01*
X0079735Y0168529D01*
X0079918Y0168572D01*
X0080102Y0168611D01*
X0080288Y0168646D01*
X0080474Y0168676D01*
X0080660Y0168701D01*
X0080848Y0168722D01*
X0081035Y0168738D01*
X0081223Y0168750D01*
X0081412Y0168757D01*
X0081600Y0168759D01*
X0081788Y0168757D01*
X0081977Y0168750D01*
X0082165Y0168738D01*
X0082352Y0168722D01*
X0082540Y0168701D01*
X0082726Y0168676D01*
X0082912Y0168646D01*
X0083098Y0168611D01*
X0083282Y0168572D01*
X0083465Y0168529D01*
X0083648Y0168481D01*
X0083829Y0168428D01*
X0084008Y0168372D01*
X0084186Y0168310D01*
X0084363Y0168245D01*
X0084538Y0168175D01*
X0084711Y0168100D01*
X0084882Y0168022D01*
X0085052Y0167939D01*
X0085219Y0167853D01*
X0085384Y0167762D01*
X0085547Y0167667D01*
X0085707Y0167568D01*
X0085865Y0167465D01*
X0086020Y0167359D01*
X0086173Y0167248D01*
X0086323Y0167134D01*
X0086470Y0167016D01*
X0086614Y0166895D01*
X0086756Y0166770D01*
X0086894Y0166642D01*
X0087028Y0166510D01*
X0087160Y0166376D01*
X0087288Y0166238D01*
X0087413Y0166096D01*
X0087534Y0165952D01*
X0087652Y0165805D01*
X0087766Y0165655D01*
X0087877Y0165502D01*
X0087983Y0165347D01*
X0088086Y0165189D01*
X0088185Y0165029D01*
X0088280Y0164866D01*
X0088371Y0164701D01*
X0088457Y0164534D01*
X0088540Y0164364D01*
X0088618Y0164193D01*
X0088693Y0164020D01*
X0088763Y0163845D01*
X0088828Y0163668D01*
X0088890Y0163490D01*
X0088946Y0163311D01*
X0088999Y0163130D01*
X0089047Y0162947D01*
X0089090Y0162764D01*
X0089129Y0162580D01*
X0089164Y0162394D01*
X0089194Y0162208D01*
X0089219Y0162022D01*
X0089240Y0161834D01*
X0089256Y0161647D01*
X0089268Y0161459D01*
X0089275Y0161270D01*
X0089277Y0161082D01*
X0089275Y0160894D01*
X0089268Y0160705D01*
X0089256Y0160517D01*
X0089240Y0160330D01*
X0089219Y0160142D01*
X0089194Y0159956D01*
X0089164Y0159770D01*
X0089129Y0159584D01*
X0089090Y0159400D01*
X0089047Y0159217D01*
X0088999Y0159034D01*
X0088946Y0158853D01*
X0088890Y0158674D01*
X0088828Y0158496D01*
X0088763Y0158319D01*
X0088693Y0158144D01*
X0088618Y0157971D01*
X0088540Y0157800D01*
X0088457Y0157630D01*
X0088371Y0157463D01*
X0088280Y0157298D01*
X0088185Y0157135D01*
X0088086Y0156975D01*
X0087983Y0156817D01*
X0087877Y0156662D01*
X0087766Y0156509D01*
X0087652Y0156359D01*
X0087534Y0156212D01*
X0087413Y0156068D01*
X0087288Y0155926D01*
X0087160Y0155788D01*
X0087028Y0155654D01*
X0086894Y0155522D01*
X0086756Y0155394D01*
X0086614Y0155269D01*
X0086470Y0155148D01*
X0086323Y0155030D01*
X0086173Y0154916D01*
X0086020Y0154805D01*
X0085865Y0154699D01*
X0085707Y0154596D01*
X0085547Y0154497D01*
X0085384Y0154402D01*
X0085219Y0154311D01*
X0085052Y0154225D01*
X0084882Y0154142D01*
X0084711Y0154064D01*
X0084538Y0153989D01*
X0084363Y0153919D01*
X0084186Y0153854D01*
X0084008Y0153792D01*
X0083829Y0153736D01*
X0083648Y0153683D01*
X0083465Y0153635D01*
X0083282Y0153592D01*
X0083098Y0153553D01*
X0082912Y0153518D01*
X0082726Y0153488D01*
X0082540Y0153463D01*
X0082352Y0153442D01*
X0082165Y0153426D01*
X0081977Y0153414D01*
X0081788Y0153407D01*
X0081600Y0153405D01*
X0081412Y0153407D01*
X0081223Y0153414D01*
X0081035Y0153426D01*
X0080848Y0153442D01*
X0080660Y0153463D01*
X0080474Y0153488D01*
X0080288Y0153518D01*
X0080102Y0153553D01*
X0079918Y0153592D01*
X0079735Y0153635D01*
X0079552Y0153683D01*
X0079371Y0153736D01*
X0079192Y0153792D01*
X0079014Y0153854D01*
X0078837Y0153919D01*
X0078662Y0153989D01*
X0078489Y0154064D01*
X0078318Y0154142D01*
X0078148Y0154225D01*
X0077981Y0154311D01*
X0077816Y0154402D01*
X0077653Y0154497D01*
X0077493Y0154596D01*
X0077335Y0154699D01*
X0077180Y0154805D01*
X0077027Y0154916D01*
X0076877Y0155030D01*
X0076730Y0155148D01*
X0076586Y0155269D01*
X0076444Y0155394D01*
X0076306Y0155522D01*
X0076172Y0155654D01*
X0076040Y0155788D01*
X0075912Y0155926D01*
X0075787Y0156068D01*
X0075666Y0156212D01*
X0075548Y0156359D01*
X0075434Y0156509D01*
X0075323Y0156662D01*
X0075217Y0156817D01*
X0075114Y0156975D01*
X0075015Y0157135D01*
X0074920Y0157298D01*
X0074829Y0157463D01*
X0074743Y0157630D01*
X0074660Y0157800D01*
X0074582Y0157971D01*
X0074507Y0158144D01*
X0074437Y0158319D01*
X0074372Y0158496D01*
X0074310Y0158674D01*
X0074254Y0158853D01*
X0074201Y0159034D01*
X0074153Y0159217D01*
X0074110Y0159400D01*
X0074071Y0159584D01*
X0074036Y0159770D01*
X0074006Y0159956D01*
X0073981Y0160142D01*
X0073960Y0160330D01*
X0073944Y0160517D01*
X0073932Y0160705D01*
X0073925Y0160894D01*
X0073923Y0161082D01*
X0073332Y0157145D02*
X0077663Y0152815D01*
X0089868Y0152815D01*
X0089868Y0169350D01*
X0077663Y0169350D01*
X0073332Y0165019D01*
X0073332Y0157145D01*
X0077663Y0152815D01*
X0074711Y0164428D02*
X0074794Y0164595D01*
X0074881Y0164759D01*
X0074973Y0164922D01*
X0075068Y0165082D01*
X0075167Y0165239D01*
X0075270Y0165394D01*
X0075377Y0165547D01*
X0075488Y0165697D01*
X0075602Y0165844D01*
X0075719Y0165989D01*
X0075840Y0166130D01*
X0075965Y0166269D01*
X0076092Y0166404D01*
X0076223Y0166537D01*
X0076358Y0166666D01*
X0076495Y0166792D01*
X0076635Y0166914D01*
X0076779Y0167033D01*
X0076925Y0167149D01*
X0077074Y0167260D01*
X0077225Y0167369D01*
X0077379Y0167473D01*
X0077536Y0167574D01*
X0077695Y0167671D01*
X0077856Y0167764D01*
X0078020Y0167853D01*
X0078186Y0167938D01*
X0078353Y0168019D01*
X0078523Y0168096D01*
X0078695Y0168169D01*
X0078868Y0168237D01*
X0079043Y0168301D01*
X0079219Y0168361D01*
X0079397Y0168417D01*
X0079576Y0168469D01*
X0079756Y0168516D01*
X0079937Y0168558D01*
X0080119Y0168597D01*
X0080303Y0168630D01*
X0080486Y0168660D01*
X0080671Y0168684D01*
X0080856Y0168705D01*
X0081042Y0168721D01*
X0081228Y0168732D01*
X0081414Y0168739D01*
X0081600Y0168741D01*
X0081786Y0168739D01*
X0081972Y0168732D01*
X0082158Y0168721D01*
X0082344Y0168705D01*
X0082529Y0168684D01*
X0082714Y0168660D01*
X0082897Y0168630D01*
X0083081Y0168597D01*
X0083263Y0168558D01*
X0083444Y0168516D01*
X0083624Y0168469D01*
X0083803Y0168417D01*
X0083981Y0168361D01*
X0084157Y0168301D01*
X0084332Y0168237D01*
X0084505Y0168169D01*
X0084677Y0168096D01*
X0084847Y0168019D01*
X0085014Y0167938D01*
X0085180Y0167853D01*
X0085344Y0167764D01*
X0085505Y0167671D01*
X0085664Y0167574D01*
X0085821Y0167473D01*
X0085975Y0167369D01*
X0086126Y0167260D01*
X0086275Y0167149D01*
X0086421Y0167033D01*
X0086565Y0166914D01*
X0086705Y0166792D01*
X0086842Y0166666D01*
X0086977Y0166537D01*
X0087108Y0166404D01*
X0087235Y0166269D01*
X0087360Y0166130D01*
X0087481Y0165989D01*
X0087598Y0165844D01*
X0087712Y0165697D01*
X0087823Y0165547D01*
X0087930Y0165394D01*
X0088033Y0165239D01*
X0088132Y0165082D01*
X0088227Y0164922D01*
X0088319Y0164759D01*
X0088406Y0164595D01*
X0088489Y0164428D01*
X0089868Y0164429D02*
X0089868Y0169350D01*
X0077663Y0169350D01*
X0073332Y0165019D01*
X0074711Y0157736D02*
X0074794Y0157569D01*
X0074881Y0157405D01*
X0074973Y0157242D01*
X0075068Y0157082D01*
X0075167Y0156925D01*
X0075270Y0156770D01*
X0075377Y0156617D01*
X0075488Y0156467D01*
X0075602Y0156320D01*
X0075719Y0156175D01*
X0075840Y0156034D01*
X0075965Y0155895D01*
X0076092Y0155760D01*
X0076223Y0155627D01*
X0076358Y0155498D01*
X0076495Y0155372D01*
X0076635Y0155250D01*
X0076779Y0155131D01*
X0076925Y0155015D01*
X0077074Y0154904D01*
X0077225Y0154795D01*
X0077379Y0154691D01*
X0077536Y0154590D01*
X0077695Y0154493D01*
X0077856Y0154400D01*
X0078020Y0154311D01*
X0078186Y0154226D01*
X0078353Y0154145D01*
X0078523Y0154068D01*
X0078695Y0153995D01*
X0078868Y0153927D01*
X0079043Y0153863D01*
X0079219Y0153803D01*
X0079397Y0153747D01*
X0079576Y0153695D01*
X0079756Y0153648D01*
X0079937Y0153606D01*
X0080119Y0153567D01*
X0080303Y0153534D01*
X0080486Y0153504D01*
X0080671Y0153480D01*
X0080856Y0153459D01*
X0081042Y0153443D01*
X0081228Y0153432D01*
X0081414Y0153425D01*
X0081600Y0153423D01*
X0081786Y0153425D01*
X0081972Y0153432D01*
X0082158Y0153443D01*
X0082344Y0153459D01*
X0082529Y0153480D01*
X0082714Y0153504D01*
X0082897Y0153534D01*
X0083081Y0153567D01*
X0083263Y0153606D01*
X0083444Y0153648D01*
X0083624Y0153695D01*
X0083803Y0153747D01*
X0083981Y0153803D01*
X0084157Y0153863D01*
X0084332Y0153927D01*
X0084505Y0153995D01*
X0084677Y0154068D01*
X0084847Y0154145D01*
X0085014Y0154226D01*
X0085180Y0154311D01*
X0085344Y0154400D01*
X0085505Y0154493D01*
X0085664Y0154590D01*
X0085821Y0154691D01*
X0085975Y0154795D01*
X0086126Y0154904D01*
X0086275Y0155015D01*
X0086421Y0155131D01*
X0086565Y0155250D01*
X0086705Y0155372D01*
X0086842Y0155498D01*
X0086977Y0155627D01*
X0087108Y0155760D01*
X0087235Y0155895D01*
X0087360Y0156034D01*
X0087481Y0156175D01*
X0087598Y0156320D01*
X0087712Y0156467D01*
X0087823Y0156617D01*
X0087930Y0156770D01*
X0088033Y0156925D01*
X0088132Y0157082D01*
X0088227Y0157242D01*
X0088319Y0157405D01*
X0088406Y0157569D01*
X0088489Y0157736D01*
X0089868Y0227815D02*
X0077663Y0227815D01*
X0073332Y0232145D01*
X0077663Y0227815D01*
X0089868Y0227815D01*
X0089868Y0232736D01*
X0088484Y0233308D02*
X0086521Y0233308D01*
X0086521Y0232910D02*
X0088351Y0232910D01*
X0088293Y0232736D02*
X0086521Y0230571D01*
X0086521Y0241594D01*
X0086521Y0241791D01*
X0088293Y0239429D01*
X0088883Y0237460D01*
X0088883Y0234508D01*
X0088293Y0232736D01*
X0088109Y0232511D02*
X0086521Y0232511D01*
X0086521Y0232113D02*
X0087783Y0232113D01*
X0087457Y0231714D02*
X0086521Y0231714D01*
X0086521Y0231316D02*
X0087131Y0231316D01*
X0086805Y0230917D02*
X0086521Y0230917D01*
X0086324Y0230177D02*
X0086324Y0241988D01*
X0086521Y0241677D02*
X0086607Y0241677D01*
X0086521Y0241279D02*
X0086906Y0241279D01*
X0087205Y0240880D02*
X0086521Y0240880D01*
X0086521Y0240481D02*
X0087503Y0240481D01*
X0087802Y0240083D02*
X0086521Y0240083D01*
X0086521Y0239684D02*
X0088101Y0239684D01*
X0088336Y0239286D02*
X0086521Y0239286D01*
X0086521Y0238887D02*
X0088455Y0238887D01*
X0088575Y0238489D02*
X0086521Y0238489D01*
X0086521Y0238090D02*
X0088694Y0238090D01*
X0088814Y0237692D02*
X0086521Y0237692D01*
X0086521Y0237293D02*
X0088883Y0237293D01*
X0088883Y0236895D02*
X0086521Y0236895D01*
X0086521Y0236496D02*
X0088883Y0236496D01*
X0088883Y0236098D02*
X0086521Y0236098D01*
X0086521Y0235699D02*
X0088883Y0235699D01*
X0088883Y0235301D02*
X0086521Y0235301D01*
X0086521Y0234902D02*
X0088883Y0234902D01*
X0088882Y0234504D02*
X0086521Y0234504D01*
X0086521Y0234105D02*
X0088749Y0234105D01*
X0088617Y0233707D02*
X0086521Y0233707D01*
X0073923Y0236082D02*
X0073925Y0236270D01*
X0073932Y0236459D01*
X0073944Y0236647D01*
X0073960Y0236834D01*
X0073981Y0237022D01*
X0074006Y0237208D01*
X0074036Y0237394D01*
X0074071Y0237580D01*
X0074110Y0237764D01*
X0074153Y0237947D01*
X0074201Y0238130D01*
X0074254Y0238311D01*
X0074310Y0238490D01*
X0074372Y0238668D01*
X0074437Y0238845D01*
X0074507Y0239020D01*
X0074582Y0239193D01*
X0074660Y0239364D01*
X0074743Y0239534D01*
X0074829Y0239701D01*
X0074920Y0239866D01*
X0075015Y0240029D01*
X0075114Y0240189D01*
X0075217Y0240347D01*
X0075323Y0240502D01*
X0075434Y0240655D01*
X0075548Y0240805D01*
X0075666Y0240952D01*
X0075787Y0241096D01*
X0075912Y0241238D01*
X0076040Y0241376D01*
X0076172Y0241510D01*
X0076306Y0241642D01*
X0076444Y0241770D01*
X0076586Y0241895D01*
X0076730Y0242016D01*
X0076877Y0242134D01*
X0077027Y0242248D01*
X0077180Y0242359D01*
X0077335Y0242465D01*
X0077493Y0242568D01*
X0077653Y0242667D01*
X0077816Y0242762D01*
X0077981Y0242853D01*
X0078148Y0242939D01*
X0078318Y0243022D01*
X0078489Y0243100D01*
X0078662Y0243175D01*
X0078837Y0243245D01*
X0079014Y0243310D01*
X0079192Y0243372D01*
X0079371Y0243428D01*
X0079552Y0243481D01*
X0079735Y0243529D01*
X0079918Y0243572D01*
X0080102Y0243611D01*
X0080288Y0243646D01*
X0080474Y0243676D01*
X0080660Y0243701D01*
X0080848Y0243722D01*
X0081035Y0243738D01*
X0081223Y0243750D01*
X0081412Y0243757D01*
X0081600Y0243759D01*
X0081788Y0243757D01*
X0081977Y0243750D01*
X0082165Y0243738D01*
X0082352Y0243722D01*
X0082540Y0243701D01*
X0082726Y0243676D01*
X0082912Y0243646D01*
X0083098Y0243611D01*
X0083282Y0243572D01*
X0083465Y0243529D01*
X0083648Y0243481D01*
X0083829Y0243428D01*
X0084008Y0243372D01*
X0084186Y0243310D01*
X0084363Y0243245D01*
X0084538Y0243175D01*
X0084711Y0243100D01*
X0084882Y0243022D01*
X0085052Y0242939D01*
X0085219Y0242853D01*
X0085384Y0242762D01*
X0085547Y0242667D01*
X0085707Y0242568D01*
X0085865Y0242465D01*
X0086020Y0242359D01*
X0086173Y0242248D01*
X0086323Y0242134D01*
X0086470Y0242016D01*
X0086614Y0241895D01*
X0086756Y0241770D01*
X0086894Y0241642D01*
X0087028Y0241510D01*
X0087160Y0241376D01*
X0087288Y0241238D01*
X0087413Y0241096D01*
X0087534Y0240952D01*
X0087652Y0240805D01*
X0087766Y0240655D01*
X0087877Y0240502D01*
X0087983Y0240347D01*
X0088086Y0240189D01*
X0088185Y0240029D01*
X0088280Y0239866D01*
X0088371Y0239701D01*
X0088457Y0239534D01*
X0088540Y0239364D01*
X0088618Y0239193D01*
X0088693Y0239020D01*
X0088763Y0238845D01*
X0088828Y0238668D01*
X0088890Y0238490D01*
X0088946Y0238311D01*
X0088999Y0238130D01*
X0089047Y0237947D01*
X0089090Y0237764D01*
X0089129Y0237580D01*
X0089164Y0237394D01*
X0089194Y0237208D01*
X0089219Y0237022D01*
X0089240Y0236834D01*
X0089256Y0236647D01*
X0089268Y0236459D01*
X0089275Y0236270D01*
X0089277Y0236082D01*
X0089275Y0235894D01*
X0089268Y0235705D01*
X0089256Y0235517D01*
X0089240Y0235330D01*
X0089219Y0235142D01*
X0089194Y0234956D01*
X0089164Y0234770D01*
X0089129Y0234584D01*
X0089090Y0234400D01*
X0089047Y0234217D01*
X0088999Y0234034D01*
X0088946Y0233853D01*
X0088890Y0233674D01*
X0088828Y0233496D01*
X0088763Y0233319D01*
X0088693Y0233144D01*
X0088618Y0232971D01*
X0088540Y0232800D01*
X0088457Y0232630D01*
X0088371Y0232463D01*
X0088280Y0232298D01*
X0088185Y0232135D01*
X0088086Y0231975D01*
X0087983Y0231817D01*
X0087877Y0231662D01*
X0087766Y0231509D01*
X0087652Y0231359D01*
X0087534Y0231212D01*
X0087413Y0231068D01*
X0087288Y0230926D01*
X0087160Y0230788D01*
X0087028Y0230654D01*
X0086894Y0230522D01*
X0086756Y0230394D01*
X0086614Y0230269D01*
X0086470Y0230148D01*
X0086323Y0230030D01*
X0086173Y0229916D01*
X0086020Y0229805D01*
X0085865Y0229699D01*
X0085707Y0229596D01*
X0085547Y0229497D01*
X0085384Y0229402D01*
X0085219Y0229311D01*
X0085052Y0229225D01*
X0084882Y0229142D01*
X0084711Y0229064D01*
X0084538Y0228989D01*
X0084363Y0228919D01*
X0084186Y0228854D01*
X0084008Y0228792D01*
X0083829Y0228736D01*
X0083648Y0228683D01*
X0083465Y0228635D01*
X0083282Y0228592D01*
X0083098Y0228553D01*
X0082912Y0228518D01*
X0082726Y0228488D01*
X0082540Y0228463D01*
X0082352Y0228442D01*
X0082165Y0228426D01*
X0081977Y0228414D01*
X0081788Y0228407D01*
X0081600Y0228405D01*
X0081412Y0228407D01*
X0081223Y0228414D01*
X0081035Y0228426D01*
X0080848Y0228442D01*
X0080660Y0228463D01*
X0080474Y0228488D01*
X0080288Y0228518D01*
X0080102Y0228553D01*
X0079918Y0228592D01*
X0079735Y0228635D01*
X0079552Y0228683D01*
X0079371Y0228736D01*
X0079192Y0228792D01*
X0079014Y0228854D01*
X0078837Y0228919D01*
X0078662Y0228989D01*
X0078489Y0229064D01*
X0078318Y0229142D01*
X0078148Y0229225D01*
X0077981Y0229311D01*
X0077816Y0229402D01*
X0077653Y0229497D01*
X0077493Y0229596D01*
X0077335Y0229699D01*
X0077180Y0229805D01*
X0077027Y0229916D01*
X0076877Y0230030D01*
X0076730Y0230148D01*
X0076586Y0230269D01*
X0076444Y0230394D01*
X0076306Y0230522D01*
X0076172Y0230654D01*
X0076040Y0230788D01*
X0075912Y0230926D01*
X0075787Y0231068D01*
X0075666Y0231212D01*
X0075548Y0231359D01*
X0075434Y0231509D01*
X0075323Y0231662D01*
X0075217Y0231817D01*
X0075114Y0231975D01*
X0075015Y0232135D01*
X0074920Y0232298D01*
X0074829Y0232463D01*
X0074743Y0232630D01*
X0074660Y0232800D01*
X0074582Y0232971D01*
X0074507Y0233144D01*
X0074437Y0233319D01*
X0074372Y0233496D01*
X0074310Y0233674D01*
X0074254Y0233853D01*
X0074201Y0234034D01*
X0074153Y0234217D01*
X0074110Y0234400D01*
X0074071Y0234584D01*
X0074036Y0234770D01*
X0074006Y0234956D01*
X0073981Y0235142D01*
X0073960Y0235330D01*
X0073944Y0235517D01*
X0073932Y0235705D01*
X0073925Y0235894D01*
X0073923Y0236082D01*
X0073332Y0240019D02*
X0073332Y0232145D01*
X0074711Y0239428D02*
X0074794Y0239595D01*
X0074881Y0239759D01*
X0074973Y0239922D01*
X0075068Y0240082D01*
X0075167Y0240239D01*
X0075270Y0240394D01*
X0075377Y0240547D01*
X0075488Y0240697D01*
X0075602Y0240844D01*
X0075719Y0240989D01*
X0075840Y0241130D01*
X0075965Y0241269D01*
X0076092Y0241404D01*
X0076223Y0241537D01*
X0076358Y0241666D01*
X0076495Y0241792D01*
X0076635Y0241914D01*
X0076779Y0242033D01*
X0076925Y0242149D01*
X0077074Y0242260D01*
X0077225Y0242369D01*
X0077379Y0242473D01*
X0077536Y0242574D01*
X0077695Y0242671D01*
X0077856Y0242764D01*
X0078020Y0242853D01*
X0078186Y0242938D01*
X0078353Y0243019D01*
X0078523Y0243096D01*
X0078695Y0243169D01*
X0078868Y0243237D01*
X0079043Y0243301D01*
X0079219Y0243361D01*
X0079397Y0243417D01*
X0079576Y0243469D01*
X0079756Y0243516D01*
X0079937Y0243558D01*
X0080119Y0243597D01*
X0080303Y0243630D01*
X0080486Y0243660D01*
X0080671Y0243684D01*
X0080856Y0243705D01*
X0081042Y0243721D01*
X0081228Y0243732D01*
X0081414Y0243739D01*
X0081600Y0243741D01*
X0081786Y0243739D01*
X0081972Y0243732D01*
X0082158Y0243721D01*
X0082344Y0243705D01*
X0082529Y0243684D01*
X0082714Y0243660D01*
X0082897Y0243630D01*
X0083081Y0243597D01*
X0083263Y0243558D01*
X0083444Y0243516D01*
X0083624Y0243469D01*
X0083803Y0243417D01*
X0083981Y0243361D01*
X0084157Y0243301D01*
X0084332Y0243237D01*
X0084505Y0243169D01*
X0084677Y0243096D01*
X0084847Y0243019D01*
X0085014Y0242938D01*
X0085180Y0242853D01*
X0085344Y0242764D01*
X0085505Y0242671D01*
X0085664Y0242574D01*
X0085821Y0242473D01*
X0085975Y0242369D01*
X0086126Y0242260D01*
X0086275Y0242149D01*
X0086421Y0242033D01*
X0086565Y0241914D01*
X0086705Y0241792D01*
X0086842Y0241666D01*
X0086977Y0241537D01*
X0087108Y0241404D01*
X0087235Y0241269D01*
X0087360Y0241130D01*
X0087481Y0240989D01*
X0087598Y0240844D01*
X0087712Y0240697D01*
X0087823Y0240547D01*
X0087930Y0240394D01*
X0088033Y0240239D01*
X0088132Y0240082D01*
X0088227Y0239922D01*
X0088319Y0239759D01*
X0088406Y0239595D01*
X0088489Y0239428D01*
X0089868Y0239429D02*
X0089868Y0244350D01*
X0077663Y0244350D01*
X0073332Y0240019D01*
X0077663Y0244350D01*
X0089868Y0244350D01*
X0089868Y0227815D01*
X0088489Y0232736D02*
X0088406Y0232569D01*
X0088319Y0232405D01*
X0088227Y0232242D01*
X0088132Y0232082D01*
X0088033Y0231925D01*
X0087930Y0231770D01*
X0087823Y0231617D01*
X0087712Y0231467D01*
X0087598Y0231320D01*
X0087481Y0231175D01*
X0087360Y0231034D01*
X0087235Y0230895D01*
X0087108Y0230760D01*
X0086977Y0230627D01*
X0086842Y0230498D01*
X0086705Y0230372D01*
X0086565Y0230250D01*
X0086421Y0230131D01*
X0086275Y0230015D01*
X0086126Y0229904D01*
X0085975Y0229795D01*
X0085821Y0229691D01*
X0085664Y0229590D01*
X0085505Y0229493D01*
X0085344Y0229400D01*
X0085180Y0229311D01*
X0085014Y0229226D01*
X0084847Y0229145D01*
X0084677Y0229068D01*
X0084505Y0228995D01*
X0084332Y0228927D01*
X0084157Y0228863D01*
X0083981Y0228803D01*
X0083803Y0228747D01*
X0083624Y0228695D01*
X0083444Y0228648D01*
X0083263Y0228606D01*
X0083081Y0228567D01*
X0082897Y0228534D01*
X0082714Y0228504D01*
X0082529Y0228480D01*
X0082344Y0228459D01*
X0082158Y0228443D01*
X0081972Y0228432D01*
X0081786Y0228425D01*
X0081600Y0228423D01*
X0081414Y0228425D01*
X0081228Y0228432D01*
X0081042Y0228443D01*
X0080856Y0228459D01*
X0080671Y0228480D01*
X0080486Y0228504D01*
X0080303Y0228534D01*
X0080119Y0228567D01*
X0079937Y0228606D01*
X0079756Y0228648D01*
X0079576Y0228695D01*
X0079397Y0228747D01*
X0079219Y0228803D01*
X0079043Y0228863D01*
X0078868Y0228927D01*
X0078695Y0228995D01*
X0078523Y0229068D01*
X0078353Y0229145D01*
X0078186Y0229226D01*
X0078020Y0229311D01*
X0077856Y0229400D01*
X0077695Y0229493D01*
X0077536Y0229590D01*
X0077379Y0229691D01*
X0077225Y0229795D01*
X0077074Y0229904D01*
X0076925Y0230015D01*
X0076779Y0230131D01*
X0076635Y0230250D01*
X0076495Y0230372D01*
X0076358Y0230498D01*
X0076223Y0230627D01*
X0076092Y0230760D01*
X0075965Y0230895D01*
X0075840Y0231034D01*
X0075719Y0231175D01*
X0075602Y0231320D01*
X0075488Y0231467D01*
X0075377Y0231617D01*
X0075270Y0231770D01*
X0075167Y0231925D01*
X0075068Y0232082D01*
X0074973Y0232242D01*
X0074881Y0232405D01*
X0074794Y0232569D01*
X0074711Y0232736D01*
X0077663Y0302815D02*
X0089868Y0302815D01*
X0089868Y0307736D01*
X0088457Y0308228D02*
X0086521Y0308228D01*
X0086521Y0307830D02*
X0088324Y0307830D01*
X0088293Y0307736D02*
X0086521Y0305571D01*
X0086521Y0316594D01*
X0086521Y0316791D01*
X0088293Y0314429D01*
X0088883Y0312460D01*
X0088883Y0309508D01*
X0088293Y0307736D01*
X0088044Y0307431D02*
X0086521Y0307431D01*
X0086521Y0307033D02*
X0087718Y0307033D01*
X0087392Y0306634D02*
X0086521Y0306634D01*
X0086521Y0306236D02*
X0087066Y0306236D01*
X0086740Y0305837D02*
X0086521Y0305837D01*
X0086324Y0305177D02*
X0086324Y0316988D01*
X0086521Y0316597D02*
X0086667Y0316597D01*
X0086521Y0316199D02*
X0086966Y0316199D01*
X0087264Y0315800D02*
X0086521Y0315800D01*
X0086521Y0315402D02*
X0087563Y0315402D01*
X0087862Y0315003D02*
X0086521Y0315003D01*
X0086521Y0314605D02*
X0088161Y0314605D01*
X0088360Y0314206D02*
X0086521Y0314206D01*
X0086521Y0313808D02*
X0088479Y0313808D01*
X0088599Y0313409D02*
X0086521Y0313409D01*
X0086521Y0313011D02*
X0088718Y0313011D01*
X0088838Y0312612D02*
X0086521Y0312612D01*
X0086521Y0312214D02*
X0088883Y0312214D01*
X0088883Y0311815D02*
X0086521Y0311815D01*
X0086521Y0311416D02*
X0088883Y0311416D01*
X0088883Y0311018D02*
X0086521Y0311018D01*
X0086521Y0310619D02*
X0088883Y0310619D01*
X0088883Y0310221D02*
X0086521Y0310221D01*
X0086521Y0309822D02*
X0088883Y0309822D01*
X0088856Y0309424D02*
X0086521Y0309424D01*
X0086521Y0309025D02*
X0088723Y0309025D01*
X0088590Y0308627D02*
X0086521Y0308627D01*
X0073923Y0311082D02*
X0073925Y0311270D01*
X0073932Y0311459D01*
X0073944Y0311647D01*
X0073960Y0311834D01*
X0073981Y0312022D01*
X0074006Y0312208D01*
X0074036Y0312394D01*
X0074071Y0312580D01*
X0074110Y0312764D01*
X0074153Y0312947D01*
X0074201Y0313130D01*
X0074254Y0313311D01*
X0074310Y0313490D01*
X0074372Y0313668D01*
X0074437Y0313845D01*
X0074507Y0314020D01*
X0074582Y0314193D01*
X0074660Y0314364D01*
X0074743Y0314534D01*
X0074829Y0314701D01*
X0074920Y0314866D01*
X0075015Y0315029D01*
X0075114Y0315189D01*
X0075217Y0315347D01*
X0075323Y0315502D01*
X0075434Y0315655D01*
X0075548Y0315805D01*
X0075666Y0315952D01*
X0075787Y0316096D01*
X0075912Y0316238D01*
X0076040Y0316376D01*
X0076172Y0316510D01*
X0076306Y0316642D01*
X0076444Y0316770D01*
X0076586Y0316895D01*
X0076730Y0317016D01*
X0076877Y0317134D01*
X0077027Y0317248D01*
X0077180Y0317359D01*
X0077335Y0317465D01*
X0077493Y0317568D01*
X0077653Y0317667D01*
X0077816Y0317762D01*
X0077981Y0317853D01*
X0078148Y0317939D01*
X0078318Y0318022D01*
X0078489Y0318100D01*
X0078662Y0318175D01*
X0078837Y0318245D01*
X0079014Y0318310D01*
X0079192Y0318372D01*
X0079371Y0318428D01*
X0079552Y0318481D01*
X0079735Y0318529D01*
X0079918Y0318572D01*
X0080102Y0318611D01*
X0080288Y0318646D01*
X0080474Y0318676D01*
X0080660Y0318701D01*
X0080848Y0318722D01*
X0081035Y0318738D01*
X0081223Y0318750D01*
X0081412Y0318757D01*
X0081600Y0318759D01*
X0081788Y0318757D01*
X0081977Y0318750D01*
X0082165Y0318738D01*
X0082352Y0318722D01*
X0082540Y0318701D01*
X0082726Y0318676D01*
X0082912Y0318646D01*
X0083098Y0318611D01*
X0083282Y0318572D01*
X0083465Y0318529D01*
X0083648Y0318481D01*
X0083829Y0318428D01*
X0084008Y0318372D01*
X0084186Y0318310D01*
X0084363Y0318245D01*
X0084538Y0318175D01*
X0084711Y0318100D01*
X0084882Y0318022D01*
X0085052Y0317939D01*
X0085219Y0317853D01*
X0085384Y0317762D01*
X0085547Y0317667D01*
X0085707Y0317568D01*
X0085865Y0317465D01*
X0086020Y0317359D01*
X0086173Y0317248D01*
X0086323Y0317134D01*
X0086470Y0317016D01*
X0086614Y0316895D01*
X0086756Y0316770D01*
X0086894Y0316642D01*
X0087028Y0316510D01*
X0087160Y0316376D01*
X0087288Y0316238D01*
X0087413Y0316096D01*
X0087534Y0315952D01*
X0087652Y0315805D01*
X0087766Y0315655D01*
X0087877Y0315502D01*
X0087983Y0315347D01*
X0088086Y0315189D01*
X0088185Y0315029D01*
X0088280Y0314866D01*
X0088371Y0314701D01*
X0088457Y0314534D01*
X0088540Y0314364D01*
X0088618Y0314193D01*
X0088693Y0314020D01*
X0088763Y0313845D01*
X0088828Y0313668D01*
X0088890Y0313490D01*
X0088946Y0313311D01*
X0088999Y0313130D01*
X0089047Y0312947D01*
X0089090Y0312764D01*
X0089129Y0312580D01*
X0089164Y0312394D01*
X0089194Y0312208D01*
X0089219Y0312022D01*
X0089240Y0311834D01*
X0089256Y0311647D01*
X0089268Y0311459D01*
X0089275Y0311270D01*
X0089277Y0311082D01*
X0089275Y0310894D01*
X0089268Y0310705D01*
X0089256Y0310517D01*
X0089240Y0310330D01*
X0089219Y0310142D01*
X0089194Y0309956D01*
X0089164Y0309770D01*
X0089129Y0309584D01*
X0089090Y0309400D01*
X0089047Y0309217D01*
X0088999Y0309034D01*
X0088946Y0308853D01*
X0088890Y0308674D01*
X0088828Y0308496D01*
X0088763Y0308319D01*
X0088693Y0308144D01*
X0088618Y0307971D01*
X0088540Y0307800D01*
X0088457Y0307630D01*
X0088371Y0307463D01*
X0088280Y0307298D01*
X0088185Y0307135D01*
X0088086Y0306975D01*
X0087983Y0306817D01*
X0087877Y0306662D01*
X0087766Y0306509D01*
X0087652Y0306359D01*
X0087534Y0306212D01*
X0087413Y0306068D01*
X0087288Y0305926D01*
X0087160Y0305788D01*
X0087028Y0305654D01*
X0086894Y0305522D01*
X0086756Y0305394D01*
X0086614Y0305269D01*
X0086470Y0305148D01*
X0086323Y0305030D01*
X0086173Y0304916D01*
X0086020Y0304805D01*
X0085865Y0304699D01*
X0085707Y0304596D01*
X0085547Y0304497D01*
X0085384Y0304402D01*
X0085219Y0304311D01*
X0085052Y0304225D01*
X0084882Y0304142D01*
X0084711Y0304064D01*
X0084538Y0303989D01*
X0084363Y0303919D01*
X0084186Y0303854D01*
X0084008Y0303792D01*
X0083829Y0303736D01*
X0083648Y0303683D01*
X0083465Y0303635D01*
X0083282Y0303592D01*
X0083098Y0303553D01*
X0082912Y0303518D01*
X0082726Y0303488D01*
X0082540Y0303463D01*
X0082352Y0303442D01*
X0082165Y0303426D01*
X0081977Y0303414D01*
X0081788Y0303407D01*
X0081600Y0303405D01*
X0081412Y0303407D01*
X0081223Y0303414D01*
X0081035Y0303426D01*
X0080848Y0303442D01*
X0080660Y0303463D01*
X0080474Y0303488D01*
X0080288Y0303518D01*
X0080102Y0303553D01*
X0079918Y0303592D01*
X0079735Y0303635D01*
X0079552Y0303683D01*
X0079371Y0303736D01*
X0079192Y0303792D01*
X0079014Y0303854D01*
X0078837Y0303919D01*
X0078662Y0303989D01*
X0078489Y0304064D01*
X0078318Y0304142D01*
X0078148Y0304225D01*
X0077981Y0304311D01*
X0077816Y0304402D01*
X0077653Y0304497D01*
X0077493Y0304596D01*
X0077335Y0304699D01*
X0077180Y0304805D01*
X0077027Y0304916D01*
X0076877Y0305030D01*
X0076730Y0305148D01*
X0076586Y0305269D01*
X0076444Y0305394D01*
X0076306Y0305522D01*
X0076172Y0305654D01*
X0076040Y0305788D01*
X0075912Y0305926D01*
X0075787Y0306068D01*
X0075666Y0306212D01*
X0075548Y0306359D01*
X0075434Y0306509D01*
X0075323Y0306662D01*
X0075217Y0306817D01*
X0075114Y0306975D01*
X0075015Y0307135D01*
X0074920Y0307298D01*
X0074829Y0307463D01*
X0074743Y0307630D01*
X0074660Y0307800D01*
X0074582Y0307971D01*
X0074507Y0308144D01*
X0074437Y0308319D01*
X0074372Y0308496D01*
X0074310Y0308674D01*
X0074254Y0308853D01*
X0074201Y0309034D01*
X0074153Y0309217D01*
X0074110Y0309400D01*
X0074071Y0309584D01*
X0074036Y0309770D01*
X0074006Y0309956D01*
X0073981Y0310142D01*
X0073960Y0310330D01*
X0073944Y0310517D01*
X0073932Y0310705D01*
X0073925Y0310894D01*
X0073923Y0311082D01*
X0073332Y0307145D02*
X0077663Y0302815D01*
X0089868Y0302815D01*
X0089868Y0319350D01*
X0077663Y0319350D01*
X0073332Y0315019D01*
X0073332Y0307145D01*
X0077663Y0302815D01*
X0074711Y0314428D02*
X0074794Y0314595D01*
X0074881Y0314759D01*
X0074973Y0314922D01*
X0075068Y0315082D01*
X0075167Y0315239D01*
X0075270Y0315394D01*
X0075377Y0315547D01*
X0075488Y0315697D01*
X0075602Y0315844D01*
X0075719Y0315989D01*
X0075840Y0316130D01*
X0075965Y0316269D01*
X0076092Y0316404D01*
X0076223Y0316537D01*
X0076358Y0316666D01*
X0076495Y0316792D01*
X0076635Y0316914D01*
X0076779Y0317033D01*
X0076925Y0317149D01*
X0077074Y0317260D01*
X0077225Y0317369D01*
X0077379Y0317473D01*
X0077536Y0317574D01*
X0077695Y0317671D01*
X0077856Y0317764D01*
X0078020Y0317853D01*
X0078186Y0317938D01*
X0078353Y0318019D01*
X0078523Y0318096D01*
X0078695Y0318169D01*
X0078868Y0318237D01*
X0079043Y0318301D01*
X0079219Y0318361D01*
X0079397Y0318417D01*
X0079576Y0318469D01*
X0079756Y0318516D01*
X0079937Y0318558D01*
X0080119Y0318597D01*
X0080303Y0318630D01*
X0080486Y0318660D01*
X0080671Y0318684D01*
X0080856Y0318705D01*
X0081042Y0318721D01*
X0081228Y0318732D01*
X0081414Y0318739D01*
X0081600Y0318741D01*
X0081786Y0318739D01*
X0081972Y0318732D01*
X0082158Y0318721D01*
X0082344Y0318705D01*
X0082529Y0318684D01*
X0082714Y0318660D01*
X0082897Y0318630D01*
X0083081Y0318597D01*
X0083263Y0318558D01*
X0083444Y0318516D01*
X0083624Y0318469D01*
X0083803Y0318417D01*
X0083981Y0318361D01*
X0084157Y0318301D01*
X0084332Y0318237D01*
X0084505Y0318169D01*
X0084677Y0318096D01*
X0084847Y0318019D01*
X0085014Y0317938D01*
X0085180Y0317853D01*
X0085344Y0317764D01*
X0085505Y0317671D01*
X0085664Y0317574D01*
X0085821Y0317473D01*
X0085975Y0317369D01*
X0086126Y0317260D01*
X0086275Y0317149D01*
X0086421Y0317033D01*
X0086565Y0316914D01*
X0086705Y0316792D01*
X0086842Y0316666D01*
X0086977Y0316537D01*
X0087108Y0316404D01*
X0087235Y0316269D01*
X0087360Y0316130D01*
X0087481Y0315989D01*
X0087598Y0315844D01*
X0087712Y0315697D01*
X0087823Y0315547D01*
X0087930Y0315394D01*
X0088033Y0315239D01*
X0088132Y0315082D01*
X0088227Y0314922D01*
X0088319Y0314759D01*
X0088406Y0314595D01*
X0088489Y0314428D01*
X0089868Y0314429D02*
X0089868Y0319350D01*
X0077663Y0319350D01*
X0073332Y0315019D01*
X0074711Y0307736D02*
X0074794Y0307569D01*
X0074881Y0307405D01*
X0074973Y0307242D01*
X0075068Y0307082D01*
X0075167Y0306925D01*
X0075270Y0306770D01*
X0075377Y0306617D01*
X0075488Y0306467D01*
X0075602Y0306320D01*
X0075719Y0306175D01*
X0075840Y0306034D01*
X0075965Y0305895D01*
X0076092Y0305760D01*
X0076223Y0305627D01*
X0076358Y0305498D01*
X0076495Y0305372D01*
X0076635Y0305250D01*
X0076779Y0305131D01*
X0076925Y0305015D01*
X0077074Y0304904D01*
X0077225Y0304795D01*
X0077379Y0304691D01*
X0077536Y0304590D01*
X0077695Y0304493D01*
X0077856Y0304400D01*
X0078020Y0304311D01*
X0078186Y0304226D01*
X0078353Y0304145D01*
X0078523Y0304068D01*
X0078695Y0303995D01*
X0078868Y0303927D01*
X0079043Y0303863D01*
X0079219Y0303803D01*
X0079397Y0303747D01*
X0079576Y0303695D01*
X0079756Y0303648D01*
X0079937Y0303606D01*
X0080119Y0303567D01*
X0080303Y0303534D01*
X0080486Y0303504D01*
X0080671Y0303480D01*
X0080856Y0303459D01*
X0081042Y0303443D01*
X0081228Y0303432D01*
X0081414Y0303425D01*
X0081600Y0303423D01*
X0081786Y0303425D01*
X0081972Y0303432D01*
X0082158Y0303443D01*
X0082344Y0303459D01*
X0082529Y0303480D01*
X0082714Y0303504D01*
X0082897Y0303534D01*
X0083081Y0303567D01*
X0083263Y0303606D01*
X0083444Y0303648D01*
X0083624Y0303695D01*
X0083803Y0303747D01*
X0083981Y0303803D01*
X0084157Y0303863D01*
X0084332Y0303927D01*
X0084505Y0303995D01*
X0084677Y0304068D01*
X0084847Y0304145D01*
X0085014Y0304226D01*
X0085180Y0304311D01*
X0085344Y0304400D01*
X0085505Y0304493D01*
X0085664Y0304590D01*
X0085821Y0304691D01*
X0085975Y0304795D01*
X0086126Y0304904D01*
X0086275Y0305015D01*
X0086421Y0305131D01*
X0086565Y0305250D01*
X0086705Y0305372D01*
X0086842Y0305498D01*
X0086977Y0305627D01*
X0087108Y0305760D01*
X0087235Y0305895D01*
X0087360Y0306034D01*
X0087481Y0306175D01*
X0087598Y0306320D01*
X0087712Y0306467D01*
X0087823Y0306617D01*
X0087930Y0306770D01*
X0088033Y0306925D01*
X0088132Y0307082D01*
X0088227Y0307242D01*
X0088319Y0307405D01*
X0088406Y0307569D01*
X0088489Y0307736D01*
X0089868Y0382815D02*
X0077663Y0382815D01*
X0073332Y0387145D01*
X0077663Y0382815D01*
X0089868Y0382815D01*
X0089868Y0387736D01*
X0088491Y0388329D02*
X0086521Y0388329D01*
X0086521Y0387931D02*
X0088358Y0387931D01*
X0088293Y0387736D02*
X0086521Y0385571D01*
X0086521Y0396594D01*
X0086521Y0396791D01*
X0088293Y0394429D01*
X0088883Y0392460D01*
X0088883Y0389508D01*
X0088293Y0387736D01*
X0088126Y0387532D02*
X0086521Y0387532D01*
X0086521Y0387134D02*
X0087800Y0387134D01*
X0087474Y0386735D02*
X0086521Y0386735D01*
X0086521Y0386337D02*
X0087148Y0386337D01*
X0086822Y0385938D02*
X0086521Y0385938D01*
X0086324Y0385177D02*
X0086324Y0396988D01*
X0086521Y0396698D02*
X0086591Y0396698D01*
X0086521Y0396299D02*
X0086890Y0396299D01*
X0087189Y0395901D02*
X0086521Y0395901D01*
X0086521Y0395502D02*
X0087488Y0395502D01*
X0087787Y0395104D02*
X0086521Y0395104D01*
X0086521Y0394705D02*
X0088086Y0394705D01*
X0088330Y0394307D02*
X0086521Y0394307D01*
X0086521Y0393908D02*
X0088449Y0393908D01*
X0088569Y0393510D02*
X0086521Y0393510D01*
X0086521Y0393111D02*
X0088688Y0393111D01*
X0088808Y0392713D02*
X0086521Y0392713D01*
X0086521Y0392314D02*
X0088883Y0392314D01*
X0088883Y0391916D02*
X0086521Y0391916D01*
X0086521Y0391517D02*
X0088883Y0391517D01*
X0088883Y0391119D02*
X0086521Y0391119D01*
X0086521Y0390720D02*
X0088883Y0390720D01*
X0088883Y0390322D02*
X0086521Y0390322D01*
X0086521Y0389923D02*
X0088883Y0389923D01*
X0088883Y0389525D02*
X0086521Y0389525D01*
X0086521Y0389126D02*
X0088756Y0389126D01*
X0088623Y0388728D02*
X0086521Y0388728D01*
X0088489Y0394428D02*
X0088406Y0394595D01*
X0088319Y0394759D01*
X0088227Y0394922D01*
X0088132Y0395082D01*
X0088033Y0395239D01*
X0087930Y0395394D01*
X0087823Y0395547D01*
X0087712Y0395697D01*
X0087598Y0395844D01*
X0087481Y0395989D01*
X0087360Y0396130D01*
X0087235Y0396269D01*
X0087108Y0396404D01*
X0086977Y0396537D01*
X0086842Y0396666D01*
X0086705Y0396792D01*
X0086565Y0396914D01*
X0086421Y0397033D01*
X0086275Y0397149D01*
X0086126Y0397260D01*
X0085975Y0397369D01*
X0085821Y0397473D01*
X0085664Y0397574D01*
X0085505Y0397671D01*
X0085344Y0397764D01*
X0085180Y0397853D01*
X0085014Y0397938D01*
X0084847Y0398019D01*
X0084677Y0398096D01*
X0084505Y0398169D01*
X0084332Y0398237D01*
X0084157Y0398301D01*
X0083981Y0398361D01*
X0083803Y0398417D01*
X0083624Y0398469D01*
X0083444Y0398516D01*
X0083263Y0398558D01*
X0083081Y0398597D01*
X0082897Y0398630D01*
X0082714Y0398660D01*
X0082529Y0398684D01*
X0082344Y0398705D01*
X0082158Y0398721D01*
X0081972Y0398732D01*
X0081786Y0398739D01*
X0081600Y0398741D01*
X0081414Y0398739D01*
X0081228Y0398732D01*
X0081042Y0398721D01*
X0080856Y0398705D01*
X0080671Y0398684D01*
X0080486Y0398660D01*
X0080303Y0398630D01*
X0080119Y0398597D01*
X0079937Y0398558D01*
X0079756Y0398516D01*
X0079576Y0398469D01*
X0079397Y0398417D01*
X0079219Y0398361D01*
X0079043Y0398301D01*
X0078868Y0398237D01*
X0078695Y0398169D01*
X0078523Y0398096D01*
X0078353Y0398019D01*
X0078186Y0397938D01*
X0078020Y0397853D01*
X0077856Y0397764D01*
X0077695Y0397671D01*
X0077536Y0397574D01*
X0077379Y0397473D01*
X0077225Y0397369D01*
X0077074Y0397260D01*
X0076925Y0397149D01*
X0076779Y0397033D01*
X0076635Y0396914D01*
X0076495Y0396792D01*
X0076358Y0396666D01*
X0076223Y0396537D01*
X0076092Y0396404D01*
X0075965Y0396269D01*
X0075840Y0396130D01*
X0075719Y0395989D01*
X0075602Y0395844D01*
X0075488Y0395697D01*
X0075377Y0395547D01*
X0075270Y0395394D01*
X0075167Y0395239D01*
X0075068Y0395082D01*
X0074973Y0394922D01*
X0074881Y0394759D01*
X0074794Y0394595D01*
X0074711Y0394428D01*
X0073332Y0395019D02*
X0077663Y0399350D01*
X0089868Y0399350D01*
X0089868Y0394429D01*
X0089868Y0399350D02*
X0089868Y0382815D01*
X0073923Y0391082D02*
X0073925Y0391270D01*
X0073932Y0391459D01*
X0073944Y0391647D01*
X0073960Y0391834D01*
X0073981Y0392022D01*
X0074006Y0392208D01*
X0074036Y0392394D01*
X0074071Y0392580D01*
X0074110Y0392764D01*
X0074153Y0392947D01*
X0074201Y0393130D01*
X0074254Y0393311D01*
X0074310Y0393490D01*
X0074372Y0393668D01*
X0074437Y0393845D01*
X0074507Y0394020D01*
X0074582Y0394193D01*
X0074660Y0394364D01*
X0074743Y0394534D01*
X0074829Y0394701D01*
X0074920Y0394866D01*
X0075015Y0395029D01*
X0075114Y0395189D01*
X0075217Y0395347D01*
X0075323Y0395502D01*
X0075434Y0395655D01*
X0075548Y0395805D01*
X0075666Y0395952D01*
X0075787Y0396096D01*
X0075912Y0396238D01*
X0076040Y0396376D01*
X0076172Y0396510D01*
X0076306Y0396642D01*
X0076444Y0396770D01*
X0076586Y0396895D01*
X0076730Y0397016D01*
X0076877Y0397134D01*
X0077027Y0397248D01*
X0077180Y0397359D01*
X0077335Y0397465D01*
X0077493Y0397568D01*
X0077653Y0397667D01*
X0077816Y0397762D01*
X0077981Y0397853D01*
X0078148Y0397939D01*
X0078318Y0398022D01*
X0078489Y0398100D01*
X0078662Y0398175D01*
X0078837Y0398245D01*
X0079014Y0398310D01*
X0079192Y0398372D01*
X0079371Y0398428D01*
X0079552Y0398481D01*
X0079735Y0398529D01*
X0079918Y0398572D01*
X0080102Y0398611D01*
X0080288Y0398646D01*
X0080474Y0398676D01*
X0080660Y0398701D01*
X0080848Y0398722D01*
X0081035Y0398738D01*
X0081223Y0398750D01*
X0081412Y0398757D01*
X0081600Y0398759D01*
X0081788Y0398757D01*
X0081977Y0398750D01*
X0082165Y0398738D01*
X0082352Y0398722D01*
X0082540Y0398701D01*
X0082726Y0398676D01*
X0082912Y0398646D01*
X0083098Y0398611D01*
X0083282Y0398572D01*
X0083465Y0398529D01*
X0083648Y0398481D01*
X0083829Y0398428D01*
X0084008Y0398372D01*
X0084186Y0398310D01*
X0084363Y0398245D01*
X0084538Y0398175D01*
X0084711Y0398100D01*
X0084882Y0398022D01*
X0085052Y0397939D01*
X0085219Y0397853D01*
X0085384Y0397762D01*
X0085547Y0397667D01*
X0085707Y0397568D01*
X0085865Y0397465D01*
X0086020Y0397359D01*
X0086173Y0397248D01*
X0086323Y0397134D01*
X0086470Y0397016D01*
X0086614Y0396895D01*
X0086756Y0396770D01*
X0086894Y0396642D01*
X0087028Y0396510D01*
X0087160Y0396376D01*
X0087288Y0396238D01*
X0087413Y0396096D01*
X0087534Y0395952D01*
X0087652Y0395805D01*
X0087766Y0395655D01*
X0087877Y0395502D01*
X0087983Y0395347D01*
X0088086Y0395189D01*
X0088185Y0395029D01*
X0088280Y0394866D01*
X0088371Y0394701D01*
X0088457Y0394534D01*
X0088540Y0394364D01*
X0088618Y0394193D01*
X0088693Y0394020D01*
X0088763Y0393845D01*
X0088828Y0393668D01*
X0088890Y0393490D01*
X0088946Y0393311D01*
X0088999Y0393130D01*
X0089047Y0392947D01*
X0089090Y0392764D01*
X0089129Y0392580D01*
X0089164Y0392394D01*
X0089194Y0392208D01*
X0089219Y0392022D01*
X0089240Y0391834D01*
X0089256Y0391647D01*
X0089268Y0391459D01*
X0089275Y0391270D01*
X0089277Y0391082D01*
X0089275Y0390894D01*
X0089268Y0390705D01*
X0089256Y0390517D01*
X0089240Y0390330D01*
X0089219Y0390142D01*
X0089194Y0389956D01*
X0089164Y0389770D01*
X0089129Y0389584D01*
X0089090Y0389400D01*
X0089047Y0389217D01*
X0088999Y0389034D01*
X0088946Y0388853D01*
X0088890Y0388674D01*
X0088828Y0388496D01*
X0088763Y0388319D01*
X0088693Y0388144D01*
X0088618Y0387971D01*
X0088540Y0387800D01*
X0088457Y0387630D01*
X0088371Y0387463D01*
X0088280Y0387298D01*
X0088185Y0387135D01*
X0088086Y0386975D01*
X0087983Y0386817D01*
X0087877Y0386662D01*
X0087766Y0386509D01*
X0087652Y0386359D01*
X0087534Y0386212D01*
X0087413Y0386068D01*
X0087288Y0385926D01*
X0087160Y0385788D01*
X0087028Y0385654D01*
X0086894Y0385522D01*
X0086756Y0385394D01*
X0086614Y0385269D01*
X0086470Y0385148D01*
X0086323Y0385030D01*
X0086173Y0384916D01*
X0086020Y0384805D01*
X0085865Y0384699D01*
X0085707Y0384596D01*
X0085547Y0384497D01*
X0085384Y0384402D01*
X0085219Y0384311D01*
X0085052Y0384225D01*
X0084882Y0384142D01*
X0084711Y0384064D01*
X0084538Y0383989D01*
X0084363Y0383919D01*
X0084186Y0383854D01*
X0084008Y0383792D01*
X0083829Y0383736D01*
X0083648Y0383683D01*
X0083465Y0383635D01*
X0083282Y0383592D01*
X0083098Y0383553D01*
X0082912Y0383518D01*
X0082726Y0383488D01*
X0082540Y0383463D01*
X0082352Y0383442D01*
X0082165Y0383426D01*
X0081977Y0383414D01*
X0081788Y0383407D01*
X0081600Y0383405D01*
X0081412Y0383407D01*
X0081223Y0383414D01*
X0081035Y0383426D01*
X0080848Y0383442D01*
X0080660Y0383463D01*
X0080474Y0383488D01*
X0080288Y0383518D01*
X0080102Y0383553D01*
X0079918Y0383592D01*
X0079735Y0383635D01*
X0079552Y0383683D01*
X0079371Y0383736D01*
X0079192Y0383792D01*
X0079014Y0383854D01*
X0078837Y0383919D01*
X0078662Y0383989D01*
X0078489Y0384064D01*
X0078318Y0384142D01*
X0078148Y0384225D01*
X0077981Y0384311D01*
X0077816Y0384402D01*
X0077653Y0384497D01*
X0077493Y0384596D01*
X0077335Y0384699D01*
X0077180Y0384805D01*
X0077027Y0384916D01*
X0076877Y0385030D01*
X0076730Y0385148D01*
X0076586Y0385269D01*
X0076444Y0385394D01*
X0076306Y0385522D01*
X0076172Y0385654D01*
X0076040Y0385788D01*
X0075912Y0385926D01*
X0075787Y0386068D01*
X0075666Y0386212D01*
X0075548Y0386359D01*
X0075434Y0386509D01*
X0075323Y0386662D01*
X0075217Y0386817D01*
X0075114Y0386975D01*
X0075015Y0387135D01*
X0074920Y0387298D01*
X0074829Y0387463D01*
X0074743Y0387630D01*
X0074660Y0387800D01*
X0074582Y0387971D01*
X0074507Y0388144D01*
X0074437Y0388319D01*
X0074372Y0388496D01*
X0074310Y0388674D01*
X0074254Y0388853D01*
X0074201Y0389034D01*
X0074153Y0389217D01*
X0074110Y0389400D01*
X0074071Y0389584D01*
X0074036Y0389770D01*
X0074006Y0389956D01*
X0073981Y0390142D01*
X0073960Y0390330D01*
X0073944Y0390517D01*
X0073932Y0390705D01*
X0073925Y0390894D01*
X0073923Y0391082D01*
X0073332Y0395019D02*
X0073332Y0387145D01*
X0074711Y0387736D02*
X0074794Y0387569D01*
X0074881Y0387405D01*
X0074973Y0387242D01*
X0075068Y0387082D01*
X0075167Y0386925D01*
X0075270Y0386770D01*
X0075377Y0386617D01*
X0075488Y0386467D01*
X0075602Y0386320D01*
X0075719Y0386175D01*
X0075840Y0386034D01*
X0075965Y0385895D01*
X0076092Y0385760D01*
X0076223Y0385627D01*
X0076358Y0385498D01*
X0076495Y0385372D01*
X0076635Y0385250D01*
X0076779Y0385131D01*
X0076925Y0385015D01*
X0077074Y0384904D01*
X0077225Y0384795D01*
X0077379Y0384691D01*
X0077536Y0384590D01*
X0077695Y0384493D01*
X0077856Y0384400D01*
X0078020Y0384311D01*
X0078186Y0384226D01*
X0078353Y0384145D01*
X0078523Y0384068D01*
X0078695Y0383995D01*
X0078868Y0383927D01*
X0079043Y0383863D01*
X0079219Y0383803D01*
X0079397Y0383747D01*
X0079576Y0383695D01*
X0079756Y0383648D01*
X0079937Y0383606D01*
X0080119Y0383567D01*
X0080303Y0383534D01*
X0080486Y0383504D01*
X0080671Y0383480D01*
X0080856Y0383459D01*
X0081042Y0383443D01*
X0081228Y0383432D01*
X0081414Y0383425D01*
X0081600Y0383423D01*
X0081786Y0383425D01*
X0081972Y0383432D01*
X0082158Y0383443D01*
X0082344Y0383459D01*
X0082529Y0383480D01*
X0082714Y0383504D01*
X0082897Y0383534D01*
X0083081Y0383567D01*
X0083263Y0383606D01*
X0083444Y0383648D01*
X0083624Y0383695D01*
X0083803Y0383747D01*
X0083981Y0383803D01*
X0084157Y0383863D01*
X0084332Y0383927D01*
X0084505Y0383995D01*
X0084677Y0384068D01*
X0084847Y0384145D01*
X0085014Y0384226D01*
X0085180Y0384311D01*
X0085344Y0384400D01*
X0085505Y0384493D01*
X0085664Y0384590D01*
X0085821Y0384691D01*
X0085975Y0384795D01*
X0086126Y0384904D01*
X0086275Y0385015D01*
X0086421Y0385131D01*
X0086565Y0385250D01*
X0086705Y0385372D01*
X0086842Y0385498D01*
X0086977Y0385627D01*
X0087108Y0385760D01*
X0087235Y0385895D01*
X0087360Y0386034D01*
X0087481Y0386175D01*
X0087598Y0386320D01*
X0087712Y0386467D01*
X0087823Y0386617D01*
X0087930Y0386770D01*
X0088033Y0386925D01*
X0088132Y0387082D01*
X0088227Y0387242D01*
X0088319Y0387405D01*
X0088406Y0387569D01*
X0088489Y0387736D01*
X0077663Y0399350D02*
X0073332Y0395019D01*
X0077663Y0399350D02*
X0089868Y0399350D01*
X0089868Y0452815D02*
X0077663Y0452815D01*
X0073332Y0457145D01*
X0077663Y0452815D01*
X0089868Y0452815D01*
X0089868Y0457736D01*
X0088404Y0458069D02*
X0086521Y0458069D01*
X0086521Y0458467D02*
X0088537Y0458467D01*
X0088670Y0458866D02*
X0086521Y0458866D01*
X0086521Y0459264D02*
X0088802Y0459264D01*
X0088883Y0459508D02*
X0088293Y0457736D01*
X0086521Y0455571D01*
X0086521Y0466594D01*
X0086521Y0466791D01*
X0088293Y0464429D01*
X0088883Y0462460D01*
X0088883Y0459508D01*
X0088883Y0459663D02*
X0086521Y0459663D01*
X0086521Y0460061D02*
X0088883Y0460061D01*
X0088883Y0460460D02*
X0086521Y0460460D01*
X0086521Y0460858D02*
X0088883Y0460858D01*
X0088883Y0461257D02*
X0086521Y0461257D01*
X0086521Y0461655D02*
X0088883Y0461655D01*
X0088883Y0462054D02*
X0086521Y0462054D01*
X0086521Y0462452D02*
X0088883Y0462452D01*
X0088766Y0462851D02*
X0086521Y0462851D01*
X0086521Y0463249D02*
X0088647Y0463249D01*
X0088527Y0463648D02*
X0086521Y0463648D01*
X0086521Y0464046D02*
X0088408Y0464046D01*
X0088281Y0464445D02*
X0086521Y0464445D01*
X0086521Y0464843D02*
X0087982Y0464843D01*
X0087683Y0465242D02*
X0086521Y0465242D01*
X0086521Y0465640D02*
X0087384Y0465640D01*
X0087085Y0466039D02*
X0086521Y0466039D01*
X0086521Y0466437D02*
X0086786Y0466437D01*
X0086324Y0466988D02*
X0086324Y0455177D01*
X0086521Y0455678D02*
X0086609Y0455678D01*
X0086521Y0456076D02*
X0086935Y0456076D01*
X0087261Y0456475D02*
X0086521Y0456475D01*
X0086521Y0456873D02*
X0087587Y0456873D01*
X0087913Y0457272D02*
X0086521Y0457272D01*
X0086521Y0457670D02*
X0088239Y0457670D01*
X0089868Y0452815D02*
X0089868Y0469350D01*
X0077663Y0469350D01*
X0073332Y0465019D01*
X0073332Y0457145D01*
X0074711Y0464428D02*
X0074794Y0464595D01*
X0074881Y0464759D01*
X0074973Y0464922D01*
X0075068Y0465082D01*
X0075167Y0465239D01*
X0075270Y0465394D01*
X0075377Y0465547D01*
X0075488Y0465697D01*
X0075602Y0465844D01*
X0075719Y0465989D01*
X0075840Y0466130D01*
X0075965Y0466269D01*
X0076092Y0466404D01*
X0076223Y0466537D01*
X0076358Y0466666D01*
X0076495Y0466792D01*
X0076635Y0466914D01*
X0076779Y0467033D01*
X0076925Y0467149D01*
X0077074Y0467260D01*
X0077225Y0467369D01*
X0077379Y0467473D01*
X0077536Y0467574D01*
X0077695Y0467671D01*
X0077856Y0467764D01*
X0078020Y0467853D01*
X0078186Y0467938D01*
X0078353Y0468019D01*
X0078523Y0468096D01*
X0078695Y0468169D01*
X0078868Y0468237D01*
X0079043Y0468301D01*
X0079219Y0468361D01*
X0079397Y0468417D01*
X0079576Y0468469D01*
X0079756Y0468516D01*
X0079937Y0468558D01*
X0080119Y0468597D01*
X0080303Y0468630D01*
X0080486Y0468660D01*
X0080671Y0468684D01*
X0080856Y0468705D01*
X0081042Y0468721D01*
X0081228Y0468732D01*
X0081414Y0468739D01*
X0081600Y0468741D01*
X0081786Y0468739D01*
X0081972Y0468732D01*
X0082158Y0468721D01*
X0082344Y0468705D01*
X0082529Y0468684D01*
X0082714Y0468660D01*
X0082897Y0468630D01*
X0083081Y0468597D01*
X0083263Y0468558D01*
X0083444Y0468516D01*
X0083624Y0468469D01*
X0083803Y0468417D01*
X0083981Y0468361D01*
X0084157Y0468301D01*
X0084332Y0468237D01*
X0084505Y0468169D01*
X0084677Y0468096D01*
X0084847Y0468019D01*
X0085014Y0467938D01*
X0085180Y0467853D01*
X0085344Y0467764D01*
X0085505Y0467671D01*
X0085664Y0467574D01*
X0085821Y0467473D01*
X0085975Y0467369D01*
X0086126Y0467260D01*
X0086275Y0467149D01*
X0086421Y0467033D01*
X0086565Y0466914D01*
X0086705Y0466792D01*
X0086842Y0466666D01*
X0086977Y0466537D01*
X0087108Y0466404D01*
X0087235Y0466269D01*
X0087360Y0466130D01*
X0087481Y0465989D01*
X0087598Y0465844D01*
X0087712Y0465697D01*
X0087823Y0465547D01*
X0087930Y0465394D01*
X0088033Y0465239D01*
X0088132Y0465082D01*
X0088227Y0464922D01*
X0088319Y0464759D01*
X0088406Y0464595D01*
X0088489Y0464428D01*
X0089868Y0464429D02*
X0089868Y0469350D01*
X0077663Y0469350D01*
X0073332Y0465019D01*
X0073923Y0461082D02*
X0073925Y0461270D01*
X0073932Y0461459D01*
X0073944Y0461647D01*
X0073960Y0461834D01*
X0073981Y0462022D01*
X0074006Y0462208D01*
X0074036Y0462394D01*
X0074071Y0462580D01*
X0074110Y0462764D01*
X0074153Y0462947D01*
X0074201Y0463130D01*
X0074254Y0463311D01*
X0074310Y0463490D01*
X0074372Y0463668D01*
X0074437Y0463845D01*
X0074507Y0464020D01*
X0074582Y0464193D01*
X0074660Y0464364D01*
X0074743Y0464534D01*
X0074829Y0464701D01*
X0074920Y0464866D01*
X0075015Y0465029D01*
X0075114Y0465189D01*
X0075217Y0465347D01*
X0075323Y0465502D01*
X0075434Y0465655D01*
X0075548Y0465805D01*
X0075666Y0465952D01*
X0075787Y0466096D01*
X0075912Y0466238D01*
X0076040Y0466376D01*
X0076172Y0466510D01*
X0076306Y0466642D01*
X0076444Y0466770D01*
X0076586Y0466895D01*
X0076730Y0467016D01*
X0076877Y0467134D01*
X0077027Y0467248D01*
X0077180Y0467359D01*
X0077335Y0467465D01*
X0077493Y0467568D01*
X0077653Y0467667D01*
X0077816Y0467762D01*
X0077981Y0467853D01*
X0078148Y0467939D01*
X0078318Y0468022D01*
X0078489Y0468100D01*
X0078662Y0468175D01*
X0078837Y0468245D01*
X0079014Y0468310D01*
X0079192Y0468372D01*
X0079371Y0468428D01*
X0079552Y0468481D01*
X0079735Y0468529D01*
X0079918Y0468572D01*
X0080102Y0468611D01*
X0080288Y0468646D01*
X0080474Y0468676D01*
X0080660Y0468701D01*
X0080848Y0468722D01*
X0081035Y0468738D01*
X0081223Y0468750D01*
X0081412Y0468757D01*
X0081600Y0468759D01*
X0081788Y0468757D01*
X0081977Y0468750D01*
X0082165Y0468738D01*
X0082352Y0468722D01*
X0082540Y0468701D01*
X0082726Y0468676D01*
X0082912Y0468646D01*
X0083098Y0468611D01*
X0083282Y0468572D01*
X0083465Y0468529D01*
X0083648Y0468481D01*
X0083829Y0468428D01*
X0084008Y0468372D01*
X0084186Y0468310D01*
X0084363Y0468245D01*
X0084538Y0468175D01*
X0084711Y0468100D01*
X0084882Y0468022D01*
X0085052Y0467939D01*
X0085219Y0467853D01*
X0085384Y0467762D01*
X0085547Y0467667D01*
X0085707Y0467568D01*
X0085865Y0467465D01*
X0086020Y0467359D01*
X0086173Y0467248D01*
X0086323Y0467134D01*
X0086470Y0467016D01*
X0086614Y0466895D01*
X0086756Y0466770D01*
X0086894Y0466642D01*
X0087028Y0466510D01*
X0087160Y0466376D01*
X0087288Y0466238D01*
X0087413Y0466096D01*
X0087534Y0465952D01*
X0087652Y0465805D01*
X0087766Y0465655D01*
X0087877Y0465502D01*
X0087983Y0465347D01*
X0088086Y0465189D01*
X0088185Y0465029D01*
X0088280Y0464866D01*
X0088371Y0464701D01*
X0088457Y0464534D01*
X0088540Y0464364D01*
X0088618Y0464193D01*
X0088693Y0464020D01*
X0088763Y0463845D01*
X0088828Y0463668D01*
X0088890Y0463490D01*
X0088946Y0463311D01*
X0088999Y0463130D01*
X0089047Y0462947D01*
X0089090Y0462764D01*
X0089129Y0462580D01*
X0089164Y0462394D01*
X0089194Y0462208D01*
X0089219Y0462022D01*
X0089240Y0461834D01*
X0089256Y0461647D01*
X0089268Y0461459D01*
X0089275Y0461270D01*
X0089277Y0461082D01*
X0089275Y0460894D01*
X0089268Y0460705D01*
X0089256Y0460517D01*
X0089240Y0460330D01*
X0089219Y0460142D01*
X0089194Y0459956D01*
X0089164Y0459770D01*
X0089129Y0459584D01*
X0089090Y0459400D01*
X0089047Y0459217D01*
X0088999Y0459034D01*
X0088946Y0458853D01*
X0088890Y0458674D01*
X0088828Y0458496D01*
X0088763Y0458319D01*
X0088693Y0458144D01*
X0088618Y0457971D01*
X0088540Y0457800D01*
X0088457Y0457630D01*
X0088371Y0457463D01*
X0088280Y0457298D01*
X0088185Y0457135D01*
X0088086Y0456975D01*
X0087983Y0456817D01*
X0087877Y0456662D01*
X0087766Y0456509D01*
X0087652Y0456359D01*
X0087534Y0456212D01*
X0087413Y0456068D01*
X0087288Y0455926D01*
X0087160Y0455788D01*
X0087028Y0455654D01*
X0086894Y0455522D01*
X0086756Y0455394D01*
X0086614Y0455269D01*
X0086470Y0455148D01*
X0086323Y0455030D01*
X0086173Y0454916D01*
X0086020Y0454805D01*
X0085865Y0454699D01*
X0085707Y0454596D01*
X0085547Y0454497D01*
X0085384Y0454402D01*
X0085219Y0454311D01*
X0085052Y0454225D01*
X0084882Y0454142D01*
X0084711Y0454064D01*
X0084538Y0453989D01*
X0084363Y0453919D01*
X0084186Y0453854D01*
X0084008Y0453792D01*
X0083829Y0453736D01*
X0083648Y0453683D01*
X0083465Y0453635D01*
X0083282Y0453592D01*
X0083098Y0453553D01*
X0082912Y0453518D01*
X0082726Y0453488D01*
X0082540Y0453463D01*
X0082352Y0453442D01*
X0082165Y0453426D01*
X0081977Y0453414D01*
X0081788Y0453407D01*
X0081600Y0453405D01*
X0081412Y0453407D01*
X0081223Y0453414D01*
X0081035Y0453426D01*
X0080848Y0453442D01*
X0080660Y0453463D01*
X0080474Y0453488D01*
X0080288Y0453518D01*
X0080102Y0453553D01*
X0079918Y0453592D01*
X0079735Y0453635D01*
X0079552Y0453683D01*
X0079371Y0453736D01*
X0079192Y0453792D01*
X0079014Y0453854D01*
X0078837Y0453919D01*
X0078662Y0453989D01*
X0078489Y0454064D01*
X0078318Y0454142D01*
X0078148Y0454225D01*
X0077981Y0454311D01*
X0077816Y0454402D01*
X0077653Y0454497D01*
X0077493Y0454596D01*
X0077335Y0454699D01*
X0077180Y0454805D01*
X0077027Y0454916D01*
X0076877Y0455030D01*
X0076730Y0455148D01*
X0076586Y0455269D01*
X0076444Y0455394D01*
X0076306Y0455522D01*
X0076172Y0455654D01*
X0076040Y0455788D01*
X0075912Y0455926D01*
X0075787Y0456068D01*
X0075666Y0456212D01*
X0075548Y0456359D01*
X0075434Y0456509D01*
X0075323Y0456662D01*
X0075217Y0456817D01*
X0075114Y0456975D01*
X0075015Y0457135D01*
X0074920Y0457298D01*
X0074829Y0457463D01*
X0074743Y0457630D01*
X0074660Y0457800D01*
X0074582Y0457971D01*
X0074507Y0458144D01*
X0074437Y0458319D01*
X0074372Y0458496D01*
X0074310Y0458674D01*
X0074254Y0458853D01*
X0074201Y0459034D01*
X0074153Y0459217D01*
X0074110Y0459400D01*
X0074071Y0459584D01*
X0074036Y0459770D01*
X0074006Y0459956D01*
X0073981Y0460142D01*
X0073960Y0460330D01*
X0073944Y0460517D01*
X0073932Y0460705D01*
X0073925Y0460894D01*
X0073923Y0461082D01*
X0074711Y0457736D02*
X0074794Y0457569D01*
X0074881Y0457405D01*
X0074973Y0457242D01*
X0075068Y0457082D01*
X0075167Y0456925D01*
X0075270Y0456770D01*
X0075377Y0456617D01*
X0075488Y0456467D01*
X0075602Y0456320D01*
X0075719Y0456175D01*
X0075840Y0456034D01*
X0075965Y0455895D01*
X0076092Y0455760D01*
X0076223Y0455627D01*
X0076358Y0455498D01*
X0076495Y0455372D01*
X0076635Y0455250D01*
X0076779Y0455131D01*
X0076925Y0455015D01*
X0077074Y0454904D01*
X0077225Y0454795D01*
X0077379Y0454691D01*
X0077536Y0454590D01*
X0077695Y0454493D01*
X0077856Y0454400D01*
X0078020Y0454311D01*
X0078186Y0454226D01*
X0078353Y0454145D01*
X0078523Y0454068D01*
X0078695Y0453995D01*
X0078868Y0453927D01*
X0079043Y0453863D01*
X0079219Y0453803D01*
X0079397Y0453747D01*
X0079576Y0453695D01*
X0079756Y0453648D01*
X0079937Y0453606D01*
X0080119Y0453567D01*
X0080303Y0453534D01*
X0080486Y0453504D01*
X0080671Y0453480D01*
X0080856Y0453459D01*
X0081042Y0453443D01*
X0081228Y0453432D01*
X0081414Y0453425D01*
X0081600Y0453423D01*
X0081786Y0453425D01*
X0081972Y0453432D01*
X0082158Y0453443D01*
X0082344Y0453459D01*
X0082529Y0453480D01*
X0082714Y0453504D01*
X0082897Y0453534D01*
X0083081Y0453567D01*
X0083263Y0453606D01*
X0083444Y0453648D01*
X0083624Y0453695D01*
X0083803Y0453747D01*
X0083981Y0453803D01*
X0084157Y0453863D01*
X0084332Y0453927D01*
X0084505Y0453995D01*
X0084677Y0454068D01*
X0084847Y0454145D01*
X0085014Y0454226D01*
X0085180Y0454311D01*
X0085344Y0454400D01*
X0085505Y0454493D01*
X0085664Y0454590D01*
X0085821Y0454691D01*
X0085975Y0454795D01*
X0086126Y0454904D01*
X0086275Y0455015D01*
X0086421Y0455131D01*
X0086565Y0455250D01*
X0086705Y0455372D01*
X0086842Y0455498D01*
X0086977Y0455627D01*
X0087108Y0455760D01*
X0087235Y0455895D01*
X0087360Y0456034D01*
X0087481Y0456175D01*
X0087598Y0456320D01*
X0087712Y0456467D01*
X0087823Y0456617D01*
X0087930Y0456770D01*
X0088033Y0456925D01*
X0088132Y0457082D01*
X0088227Y0457242D01*
X0088319Y0457405D01*
X0088406Y0457569D01*
X0088489Y0457736D01*
X0419582Y0462145D02*
X0423913Y0457815D01*
X0431787Y0457815D01*
X0436118Y0462145D01*
X0436118Y0474350D01*
X0431196Y0474350D01*
X0431082Y0472814D02*
X0424631Y0472814D01*
X0424504Y0472775D02*
X0426472Y0473366D01*
X0429425Y0473366D01*
X0431196Y0472775D01*
X0433362Y0471004D01*
X0422338Y0471004D01*
X0422141Y0471004D01*
X0424504Y0472775D01*
X0424023Y0472415D02*
X0431637Y0472415D01*
X0432124Y0472017D02*
X0423492Y0472017D01*
X0422961Y0471618D02*
X0432611Y0471618D01*
X0433098Y0471220D02*
X0422429Y0471220D01*
X0421944Y0470807D02*
X0433756Y0470807D01*
X0436118Y0474350D02*
X0419582Y0474350D01*
X0419582Y0462145D01*
X0423913Y0457815D01*
X0419582Y0462145D02*
X0419582Y0474350D01*
X0424504Y0474350D01*
X0425959Y0473212D02*
X0429886Y0473212D01*
X0436118Y0474350D02*
X0436118Y0462145D01*
X0431787Y0457815D01*
X0420173Y0466082D02*
X0420175Y0466270D01*
X0420182Y0466459D01*
X0420194Y0466647D01*
X0420210Y0466834D01*
X0420231Y0467022D01*
X0420256Y0467208D01*
X0420286Y0467394D01*
X0420321Y0467580D01*
X0420360Y0467764D01*
X0420403Y0467947D01*
X0420451Y0468130D01*
X0420504Y0468311D01*
X0420560Y0468490D01*
X0420622Y0468668D01*
X0420687Y0468845D01*
X0420757Y0469020D01*
X0420832Y0469193D01*
X0420910Y0469364D01*
X0420993Y0469534D01*
X0421079Y0469701D01*
X0421170Y0469866D01*
X0421265Y0470029D01*
X0421364Y0470189D01*
X0421467Y0470347D01*
X0421573Y0470502D01*
X0421684Y0470655D01*
X0421798Y0470805D01*
X0421916Y0470952D01*
X0422037Y0471096D01*
X0422162Y0471238D01*
X0422290Y0471376D01*
X0422422Y0471510D01*
X0422556Y0471642D01*
X0422694Y0471770D01*
X0422836Y0471895D01*
X0422980Y0472016D01*
X0423127Y0472134D01*
X0423277Y0472248D01*
X0423430Y0472359D01*
X0423585Y0472465D01*
X0423743Y0472568D01*
X0423903Y0472667D01*
X0424066Y0472762D01*
X0424231Y0472853D01*
X0424398Y0472939D01*
X0424568Y0473022D01*
X0424739Y0473100D01*
X0424912Y0473175D01*
X0425087Y0473245D01*
X0425264Y0473310D01*
X0425442Y0473372D01*
X0425621Y0473428D01*
X0425802Y0473481D01*
X0425985Y0473529D01*
X0426168Y0473572D01*
X0426352Y0473611D01*
X0426538Y0473646D01*
X0426724Y0473676D01*
X0426910Y0473701D01*
X0427098Y0473722D01*
X0427285Y0473738D01*
X0427473Y0473750D01*
X0427662Y0473757D01*
X0427850Y0473759D01*
X0428038Y0473757D01*
X0428227Y0473750D01*
X0428415Y0473738D01*
X0428602Y0473722D01*
X0428790Y0473701D01*
X0428976Y0473676D01*
X0429162Y0473646D01*
X0429348Y0473611D01*
X0429532Y0473572D01*
X0429715Y0473529D01*
X0429898Y0473481D01*
X0430079Y0473428D01*
X0430258Y0473372D01*
X0430436Y0473310D01*
X0430613Y0473245D01*
X0430788Y0473175D01*
X0430961Y0473100D01*
X0431132Y0473022D01*
X0431302Y0472939D01*
X0431469Y0472853D01*
X0431634Y0472762D01*
X0431797Y0472667D01*
X0431957Y0472568D01*
X0432115Y0472465D01*
X0432270Y0472359D01*
X0432423Y0472248D01*
X0432573Y0472134D01*
X0432720Y0472016D01*
X0432864Y0471895D01*
X0433006Y0471770D01*
X0433144Y0471642D01*
X0433278Y0471510D01*
X0433410Y0471376D01*
X0433538Y0471238D01*
X0433663Y0471096D01*
X0433784Y0470952D01*
X0433902Y0470805D01*
X0434016Y0470655D01*
X0434127Y0470502D01*
X0434233Y0470347D01*
X0434336Y0470189D01*
X0434435Y0470029D01*
X0434530Y0469866D01*
X0434621Y0469701D01*
X0434707Y0469534D01*
X0434790Y0469364D01*
X0434868Y0469193D01*
X0434943Y0469020D01*
X0435013Y0468845D01*
X0435078Y0468668D01*
X0435140Y0468490D01*
X0435196Y0468311D01*
X0435249Y0468130D01*
X0435297Y0467947D01*
X0435340Y0467764D01*
X0435379Y0467580D01*
X0435414Y0467394D01*
X0435444Y0467208D01*
X0435469Y0467022D01*
X0435490Y0466834D01*
X0435506Y0466647D01*
X0435518Y0466459D01*
X0435525Y0466270D01*
X0435527Y0466082D01*
X0435525Y0465894D01*
X0435518Y0465705D01*
X0435506Y0465517D01*
X0435490Y0465330D01*
X0435469Y0465142D01*
X0435444Y0464956D01*
X0435414Y0464770D01*
X0435379Y0464584D01*
X0435340Y0464400D01*
X0435297Y0464217D01*
X0435249Y0464034D01*
X0435196Y0463853D01*
X0435140Y0463674D01*
X0435078Y0463496D01*
X0435013Y0463319D01*
X0434943Y0463144D01*
X0434868Y0462971D01*
X0434790Y0462800D01*
X0434707Y0462630D01*
X0434621Y0462463D01*
X0434530Y0462298D01*
X0434435Y0462135D01*
X0434336Y0461975D01*
X0434233Y0461817D01*
X0434127Y0461662D01*
X0434016Y0461509D01*
X0433902Y0461359D01*
X0433784Y0461212D01*
X0433663Y0461068D01*
X0433538Y0460926D01*
X0433410Y0460788D01*
X0433278Y0460654D01*
X0433144Y0460522D01*
X0433006Y0460394D01*
X0432864Y0460269D01*
X0432720Y0460148D01*
X0432573Y0460030D01*
X0432423Y0459916D01*
X0432270Y0459805D01*
X0432115Y0459699D01*
X0431957Y0459596D01*
X0431797Y0459497D01*
X0431634Y0459402D01*
X0431469Y0459311D01*
X0431302Y0459225D01*
X0431132Y0459142D01*
X0430961Y0459064D01*
X0430788Y0458989D01*
X0430613Y0458919D01*
X0430436Y0458854D01*
X0430258Y0458792D01*
X0430079Y0458736D01*
X0429898Y0458683D01*
X0429715Y0458635D01*
X0429532Y0458592D01*
X0429348Y0458553D01*
X0429162Y0458518D01*
X0428976Y0458488D01*
X0428790Y0458463D01*
X0428602Y0458442D01*
X0428415Y0458426D01*
X0428227Y0458414D01*
X0428038Y0458407D01*
X0427850Y0458405D01*
X0427662Y0458407D01*
X0427473Y0458414D01*
X0427285Y0458426D01*
X0427098Y0458442D01*
X0426910Y0458463D01*
X0426724Y0458488D01*
X0426538Y0458518D01*
X0426352Y0458553D01*
X0426168Y0458592D01*
X0425985Y0458635D01*
X0425802Y0458683D01*
X0425621Y0458736D01*
X0425442Y0458792D01*
X0425264Y0458854D01*
X0425087Y0458919D01*
X0424912Y0458989D01*
X0424739Y0459064D01*
X0424568Y0459142D01*
X0424398Y0459225D01*
X0424231Y0459311D01*
X0424066Y0459402D01*
X0423903Y0459497D01*
X0423743Y0459596D01*
X0423585Y0459699D01*
X0423430Y0459805D01*
X0423277Y0459916D01*
X0423127Y0460030D01*
X0422980Y0460148D01*
X0422836Y0460269D01*
X0422694Y0460394D01*
X0422556Y0460522D01*
X0422422Y0460654D01*
X0422290Y0460788D01*
X0422162Y0460926D01*
X0422037Y0461068D01*
X0421916Y0461212D01*
X0421798Y0461359D01*
X0421684Y0461509D01*
X0421573Y0461662D01*
X0421467Y0461817D01*
X0421364Y0461975D01*
X0421265Y0462135D01*
X0421170Y0462298D01*
X0421079Y0462463D01*
X0420993Y0462630D01*
X0420910Y0462800D01*
X0420832Y0462971D01*
X0420757Y0463144D01*
X0420687Y0463319D01*
X0420622Y0463496D01*
X0420560Y0463674D01*
X0420504Y0463853D01*
X0420451Y0464034D01*
X0420403Y0464217D01*
X0420360Y0464400D01*
X0420321Y0464584D01*
X0420286Y0464770D01*
X0420256Y0464956D01*
X0420231Y0465142D01*
X0420210Y0465330D01*
X0420194Y0465517D01*
X0420182Y0465705D01*
X0420175Y0465894D01*
X0420173Y0466082D01*
X0431196Y0459193D02*
X0431363Y0459276D01*
X0431527Y0459363D01*
X0431690Y0459455D01*
X0431850Y0459550D01*
X0432007Y0459649D01*
X0432162Y0459752D01*
X0432315Y0459859D01*
X0432465Y0459970D01*
X0432612Y0460084D01*
X0432757Y0460201D01*
X0432898Y0460322D01*
X0433037Y0460447D01*
X0433172Y0460574D01*
X0433305Y0460705D01*
X0433434Y0460840D01*
X0433560Y0460977D01*
X0433682Y0461117D01*
X0433801Y0461261D01*
X0433917Y0461407D01*
X0434028Y0461556D01*
X0434137Y0461707D01*
X0434241Y0461861D01*
X0434342Y0462018D01*
X0434439Y0462177D01*
X0434532Y0462338D01*
X0434621Y0462502D01*
X0434706Y0462668D01*
X0434787Y0462835D01*
X0434864Y0463005D01*
X0434937Y0463177D01*
X0435005Y0463350D01*
X0435069Y0463525D01*
X0435129Y0463701D01*
X0435185Y0463879D01*
X0435237Y0464058D01*
X0435284Y0464238D01*
X0435326Y0464419D01*
X0435365Y0464601D01*
X0435398Y0464785D01*
X0435428Y0464968D01*
X0435452Y0465153D01*
X0435473Y0465338D01*
X0435489Y0465524D01*
X0435500Y0465710D01*
X0435507Y0465896D01*
X0435509Y0466082D01*
X0435507Y0466268D01*
X0435500Y0466454D01*
X0435489Y0466640D01*
X0435473Y0466826D01*
X0435452Y0467011D01*
X0435428Y0467196D01*
X0435398Y0467379D01*
X0435365Y0467563D01*
X0435326Y0467745D01*
X0435284Y0467926D01*
X0435237Y0468106D01*
X0435185Y0468285D01*
X0435129Y0468463D01*
X0435069Y0468639D01*
X0435005Y0468814D01*
X0434937Y0468987D01*
X0434864Y0469159D01*
X0434787Y0469329D01*
X0434706Y0469496D01*
X0434621Y0469662D01*
X0434532Y0469826D01*
X0434439Y0469987D01*
X0434342Y0470146D01*
X0434241Y0470303D01*
X0434137Y0470457D01*
X0434028Y0470608D01*
X0433917Y0470757D01*
X0433801Y0470903D01*
X0433682Y0471047D01*
X0433560Y0471187D01*
X0433434Y0471324D01*
X0433305Y0471459D01*
X0433172Y0471590D01*
X0433037Y0471717D01*
X0432898Y0471842D01*
X0432757Y0471963D01*
X0432612Y0472080D01*
X0432465Y0472194D01*
X0432315Y0472305D01*
X0432162Y0472412D01*
X0432007Y0472515D01*
X0431850Y0472614D01*
X0431690Y0472709D01*
X0431527Y0472801D01*
X0431363Y0472888D01*
X0431196Y0472971D01*
X0424504Y0472971D02*
X0424337Y0472888D01*
X0424173Y0472801D01*
X0424010Y0472709D01*
X0423850Y0472614D01*
X0423693Y0472515D01*
X0423538Y0472412D01*
X0423385Y0472305D01*
X0423235Y0472194D01*
X0423088Y0472080D01*
X0422943Y0471963D01*
X0422802Y0471842D01*
X0422663Y0471717D01*
X0422528Y0471590D01*
X0422395Y0471459D01*
X0422266Y0471324D01*
X0422140Y0471187D01*
X0422018Y0471047D01*
X0421899Y0470903D01*
X0421783Y0470757D01*
X0421672Y0470608D01*
X0421563Y0470457D01*
X0421459Y0470303D01*
X0421358Y0470146D01*
X0421261Y0469987D01*
X0421168Y0469826D01*
X0421079Y0469662D01*
X0420994Y0469496D01*
X0420913Y0469329D01*
X0420836Y0469159D01*
X0420763Y0468987D01*
X0420695Y0468814D01*
X0420631Y0468639D01*
X0420571Y0468463D01*
X0420515Y0468285D01*
X0420463Y0468106D01*
X0420416Y0467926D01*
X0420374Y0467745D01*
X0420335Y0467563D01*
X0420302Y0467379D01*
X0420272Y0467196D01*
X0420248Y0467011D01*
X0420227Y0466826D01*
X0420211Y0466640D01*
X0420200Y0466454D01*
X0420193Y0466268D01*
X0420191Y0466082D01*
X0420193Y0465896D01*
X0420200Y0465710D01*
X0420211Y0465524D01*
X0420227Y0465338D01*
X0420248Y0465153D01*
X0420272Y0464968D01*
X0420302Y0464785D01*
X0420335Y0464601D01*
X0420374Y0464419D01*
X0420416Y0464238D01*
X0420463Y0464058D01*
X0420515Y0463879D01*
X0420571Y0463701D01*
X0420631Y0463525D01*
X0420695Y0463350D01*
X0420763Y0463177D01*
X0420836Y0463005D01*
X0420913Y0462835D01*
X0420994Y0462668D01*
X0421079Y0462502D01*
X0421168Y0462338D01*
X0421261Y0462177D01*
X0421358Y0462018D01*
X0421459Y0461861D01*
X0421563Y0461707D01*
X0421672Y0461556D01*
X0421783Y0461407D01*
X0421899Y0461261D01*
X0422018Y0461117D01*
X0422140Y0460977D01*
X0422266Y0460840D01*
X0422395Y0460705D01*
X0422528Y0460574D01*
X0422663Y0460447D01*
X0422802Y0460322D01*
X0422943Y0460201D01*
X0423088Y0460084D01*
X0423235Y0459970D01*
X0423385Y0459859D01*
X0423538Y0459752D01*
X0423693Y0459649D01*
X0423850Y0459550D01*
X0424010Y0459455D01*
X0424173Y0459363D01*
X0424337Y0459276D01*
X0424504Y0459193D01*
X0446987Y0459452D02*
X0446987Y0461754D01*
X0447754Y0462521D01*
X0450824Y0462521D01*
X0451591Y0461754D01*
X0451591Y0459452D01*
X0446987Y0459452D01*
X0446987Y0464056D02*
X0446987Y0467125D01*
X0446987Y0465590D02*
X0451591Y0465590D01*
X0450056Y0464056D01*
X0458825Y0426073D02*
X0460359Y0426073D01*
X0461127Y0425306D01*
X0462661Y0425306D02*
X0463429Y0426073D01*
X0465731Y0426073D01*
X0465731Y0421469D01*
X0463429Y0421469D01*
X0462661Y0422237D01*
X0462661Y0425306D01*
X0458825Y0426073D02*
X0458058Y0425306D01*
X0458058Y0424539D01*
X0461127Y0421469D01*
X0458058Y0421469D01*
X0462663Y0411850D02*
X0458332Y0407519D01*
X0458332Y0399645D01*
X0462663Y0395315D01*
X0474868Y0395315D01*
X0474868Y0400236D01*
X0473442Y0400683D02*
X0471521Y0400683D01*
X0471521Y0400285D02*
X0473309Y0400285D01*
X0473293Y0400236D02*
X0471521Y0398071D01*
X0471521Y0409094D01*
X0471521Y0409291D01*
X0473293Y0406929D01*
X0473883Y0404960D01*
X0473883Y0402008D01*
X0473293Y0400236D01*
X0473007Y0399886D02*
X0471521Y0399886D01*
X0471521Y0399487D02*
X0472681Y0399487D01*
X0472355Y0399089D02*
X0471521Y0399089D01*
X0471521Y0398690D02*
X0472028Y0398690D01*
X0471702Y0398292D02*
X0471521Y0398292D01*
X0471324Y0397677D02*
X0471324Y0409488D01*
X0471521Y0409052D02*
X0471701Y0409052D01*
X0471521Y0408653D02*
X0472000Y0408653D01*
X0472298Y0408255D02*
X0471521Y0408255D01*
X0471521Y0407856D02*
X0472597Y0407856D01*
X0472896Y0407458D02*
X0471521Y0407458D01*
X0471521Y0407059D02*
X0473195Y0407059D01*
X0473373Y0406661D02*
X0471521Y0406661D01*
X0471521Y0406262D02*
X0473493Y0406262D01*
X0473612Y0405864D02*
X0471521Y0405864D01*
X0471521Y0405465D02*
X0473732Y0405465D01*
X0473852Y0405067D02*
X0471521Y0405067D01*
X0471521Y0404668D02*
X0473883Y0404668D01*
X0473883Y0404270D02*
X0471521Y0404270D01*
X0471521Y0403871D02*
X0473883Y0403871D01*
X0473883Y0403473D02*
X0471521Y0403473D01*
X0471521Y0403074D02*
X0473883Y0403074D01*
X0473883Y0402676D02*
X0471521Y0402676D01*
X0471521Y0402277D02*
X0473883Y0402277D01*
X0473840Y0401879D02*
X0471521Y0401879D01*
X0471521Y0401480D02*
X0473708Y0401480D01*
X0473575Y0401082D02*
X0471521Y0401082D01*
X0458923Y0403582D02*
X0458925Y0403770D01*
X0458932Y0403959D01*
X0458944Y0404147D01*
X0458960Y0404334D01*
X0458981Y0404522D01*
X0459006Y0404708D01*
X0459036Y0404894D01*
X0459071Y0405080D01*
X0459110Y0405264D01*
X0459153Y0405447D01*
X0459201Y0405630D01*
X0459254Y0405811D01*
X0459310Y0405990D01*
X0459372Y0406168D01*
X0459437Y0406345D01*
X0459507Y0406520D01*
X0459582Y0406693D01*
X0459660Y0406864D01*
X0459743Y0407034D01*
X0459829Y0407201D01*
X0459920Y0407366D01*
X0460015Y0407529D01*
X0460114Y0407689D01*
X0460217Y0407847D01*
X0460323Y0408002D01*
X0460434Y0408155D01*
X0460548Y0408305D01*
X0460666Y0408452D01*
X0460787Y0408596D01*
X0460912Y0408738D01*
X0461040Y0408876D01*
X0461172Y0409010D01*
X0461306Y0409142D01*
X0461444Y0409270D01*
X0461586Y0409395D01*
X0461730Y0409516D01*
X0461877Y0409634D01*
X0462027Y0409748D01*
X0462180Y0409859D01*
X0462335Y0409965D01*
X0462493Y0410068D01*
X0462653Y0410167D01*
X0462816Y0410262D01*
X0462981Y0410353D01*
X0463148Y0410439D01*
X0463318Y0410522D01*
X0463489Y0410600D01*
X0463662Y0410675D01*
X0463837Y0410745D01*
X0464014Y0410810D01*
X0464192Y0410872D01*
X0464371Y0410928D01*
X0464552Y0410981D01*
X0464735Y0411029D01*
X0464918Y0411072D01*
X0465102Y0411111D01*
X0465288Y0411146D01*
X0465474Y0411176D01*
X0465660Y0411201D01*
X0465848Y0411222D01*
X0466035Y0411238D01*
X0466223Y0411250D01*
X0466412Y0411257D01*
X0466600Y0411259D01*
X0466788Y0411257D01*
X0466977Y0411250D01*
X0467165Y0411238D01*
X0467352Y0411222D01*
X0467540Y0411201D01*
X0467726Y0411176D01*
X0467912Y0411146D01*
X0468098Y0411111D01*
X0468282Y0411072D01*
X0468465Y0411029D01*
X0468648Y0410981D01*
X0468829Y0410928D01*
X0469008Y0410872D01*
X0469186Y0410810D01*
X0469363Y0410745D01*
X0469538Y0410675D01*
X0469711Y0410600D01*
X0469882Y0410522D01*
X0470052Y0410439D01*
X0470219Y0410353D01*
X0470384Y0410262D01*
X0470547Y0410167D01*
X0470707Y0410068D01*
X0470865Y0409965D01*
X0471020Y0409859D01*
X0471173Y0409748D01*
X0471323Y0409634D01*
X0471470Y0409516D01*
X0471614Y0409395D01*
X0471756Y0409270D01*
X0471894Y0409142D01*
X0472028Y0409010D01*
X0472160Y0408876D01*
X0472288Y0408738D01*
X0472413Y0408596D01*
X0472534Y0408452D01*
X0472652Y0408305D01*
X0472766Y0408155D01*
X0472877Y0408002D01*
X0472983Y0407847D01*
X0473086Y0407689D01*
X0473185Y0407529D01*
X0473280Y0407366D01*
X0473371Y0407201D01*
X0473457Y0407034D01*
X0473540Y0406864D01*
X0473618Y0406693D01*
X0473693Y0406520D01*
X0473763Y0406345D01*
X0473828Y0406168D01*
X0473890Y0405990D01*
X0473946Y0405811D01*
X0473999Y0405630D01*
X0474047Y0405447D01*
X0474090Y0405264D01*
X0474129Y0405080D01*
X0474164Y0404894D01*
X0474194Y0404708D01*
X0474219Y0404522D01*
X0474240Y0404334D01*
X0474256Y0404147D01*
X0474268Y0403959D01*
X0474275Y0403770D01*
X0474277Y0403582D01*
X0474275Y0403394D01*
X0474268Y0403205D01*
X0474256Y0403017D01*
X0474240Y0402830D01*
X0474219Y0402642D01*
X0474194Y0402456D01*
X0474164Y0402270D01*
X0474129Y0402084D01*
X0474090Y0401900D01*
X0474047Y0401717D01*
X0473999Y0401534D01*
X0473946Y0401353D01*
X0473890Y0401174D01*
X0473828Y0400996D01*
X0473763Y0400819D01*
X0473693Y0400644D01*
X0473618Y0400471D01*
X0473540Y0400300D01*
X0473457Y0400130D01*
X0473371Y0399963D01*
X0473280Y0399798D01*
X0473185Y0399635D01*
X0473086Y0399475D01*
X0472983Y0399317D01*
X0472877Y0399162D01*
X0472766Y0399009D01*
X0472652Y0398859D01*
X0472534Y0398712D01*
X0472413Y0398568D01*
X0472288Y0398426D01*
X0472160Y0398288D01*
X0472028Y0398154D01*
X0471894Y0398022D01*
X0471756Y0397894D01*
X0471614Y0397769D01*
X0471470Y0397648D01*
X0471323Y0397530D01*
X0471173Y0397416D01*
X0471020Y0397305D01*
X0470865Y0397199D01*
X0470707Y0397096D01*
X0470547Y0396997D01*
X0470384Y0396902D01*
X0470219Y0396811D01*
X0470052Y0396725D01*
X0469882Y0396642D01*
X0469711Y0396564D01*
X0469538Y0396489D01*
X0469363Y0396419D01*
X0469186Y0396354D01*
X0469008Y0396292D01*
X0468829Y0396236D01*
X0468648Y0396183D01*
X0468465Y0396135D01*
X0468282Y0396092D01*
X0468098Y0396053D01*
X0467912Y0396018D01*
X0467726Y0395988D01*
X0467540Y0395963D01*
X0467352Y0395942D01*
X0467165Y0395926D01*
X0466977Y0395914D01*
X0466788Y0395907D01*
X0466600Y0395905D01*
X0466412Y0395907D01*
X0466223Y0395914D01*
X0466035Y0395926D01*
X0465848Y0395942D01*
X0465660Y0395963D01*
X0465474Y0395988D01*
X0465288Y0396018D01*
X0465102Y0396053D01*
X0464918Y0396092D01*
X0464735Y0396135D01*
X0464552Y0396183D01*
X0464371Y0396236D01*
X0464192Y0396292D01*
X0464014Y0396354D01*
X0463837Y0396419D01*
X0463662Y0396489D01*
X0463489Y0396564D01*
X0463318Y0396642D01*
X0463148Y0396725D01*
X0462981Y0396811D01*
X0462816Y0396902D01*
X0462653Y0396997D01*
X0462493Y0397096D01*
X0462335Y0397199D01*
X0462180Y0397305D01*
X0462027Y0397416D01*
X0461877Y0397530D01*
X0461730Y0397648D01*
X0461586Y0397769D01*
X0461444Y0397894D01*
X0461306Y0398022D01*
X0461172Y0398154D01*
X0461040Y0398288D01*
X0460912Y0398426D01*
X0460787Y0398568D01*
X0460666Y0398712D01*
X0460548Y0398859D01*
X0460434Y0399009D01*
X0460323Y0399162D01*
X0460217Y0399317D01*
X0460114Y0399475D01*
X0460015Y0399635D01*
X0459920Y0399798D01*
X0459829Y0399963D01*
X0459743Y0400130D01*
X0459660Y0400300D01*
X0459582Y0400471D01*
X0459507Y0400644D01*
X0459437Y0400819D01*
X0459372Y0400996D01*
X0459310Y0401174D01*
X0459254Y0401353D01*
X0459201Y0401534D01*
X0459153Y0401717D01*
X0459110Y0401900D01*
X0459071Y0402084D01*
X0459036Y0402270D01*
X0459006Y0402456D01*
X0458981Y0402642D01*
X0458960Y0402830D01*
X0458944Y0403017D01*
X0458932Y0403205D01*
X0458925Y0403394D01*
X0458923Y0403582D01*
X0458332Y0399645D02*
X0462663Y0395315D01*
X0474868Y0395315D01*
X0474868Y0411850D01*
X0462663Y0411850D01*
X0458332Y0407519D01*
X0462663Y0411850D02*
X0474868Y0411850D01*
X0474868Y0406929D01*
X0473489Y0400236D02*
X0473406Y0400069D01*
X0473319Y0399905D01*
X0473227Y0399742D01*
X0473132Y0399582D01*
X0473033Y0399425D01*
X0472930Y0399270D01*
X0472823Y0399117D01*
X0472712Y0398967D01*
X0472598Y0398820D01*
X0472481Y0398675D01*
X0472360Y0398534D01*
X0472235Y0398395D01*
X0472108Y0398260D01*
X0471977Y0398127D01*
X0471842Y0397998D01*
X0471705Y0397872D01*
X0471565Y0397750D01*
X0471421Y0397631D01*
X0471275Y0397515D01*
X0471126Y0397404D01*
X0470975Y0397295D01*
X0470821Y0397191D01*
X0470664Y0397090D01*
X0470505Y0396993D01*
X0470344Y0396900D01*
X0470180Y0396811D01*
X0470014Y0396726D01*
X0469847Y0396645D01*
X0469677Y0396568D01*
X0469505Y0396495D01*
X0469332Y0396427D01*
X0469157Y0396363D01*
X0468981Y0396303D01*
X0468803Y0396247D01*
X0468624Y0396195D01*
X0468444Y0396148D01*
X0468263Y0396106D01*
X0468081Y0396067D01*
X0467897Y0396034D01*
X0467714Y0396004D01*
X0467529Y0395980D01*
X0467344Y0395959D01*
X0467158Y0395943D01*
X0466972Y0395932D01*
X0466786Y0395925D01*
X0466600Y0395923D01*
X0466414Y0395925D01*
X0466228Y0395932D01*
X0466042Y0395943D01*
X0465856Y0395959D01*
X0465671Y0395980D01*
X0465486Y0396004D01*
X0465303Y0396034D01*
X0465119Y0396067D01*
X0464937Y0396106D01*
X0464756Y0396148D01*
X0464576Y0396195D01*
X0464397Y0396247D01*
X0464219Y0396303D01*
X0464043Y0396363D01*
X0463868Y0396427D01*
X0463695Y0396495D01*
X0463523Y0396568D01*
X0463353Y0396645D01*
X0463186Y0396726D01*
X0463020Y0396811D01*
X0462856Y0396900D01*
X0462695Y0396993D01*
X0462536Y0397090D01*
X0462379Y0397191D01*
X0462225Y0397295D01*
X0462074Y0397404D01*
X0461925Y0397515D01*
X0461779Y0397631D01*
X0461635Y0397750D01*
X0461495Y0397872D01*
X0461358Y0397998D01*
X0461223Y0398127D01*
X0461092Y0398260D01*
X0460965Y0398395D01*
X0460840Y0398534D01*
X0460719Y0398675D01*
X0460602Y0398820D01*
X0460488Y0398967D01*
X0460377Y0399117D01*
X0460270Y0399270D01*
X0460167Y0399425D01*
X0460068Y0399582D01*
X0459973Y0399742D01*
X0459881Y0399905D01*
X0459794Y0400069D01*
X0459711Y0400236D01*
X0459711Y0406928D02*
X0459794Y0407095D01*
X0459881Y0407259D01*
X0459973Y0407422D01*
X0460068Y0407582D01*
X0460167Y0407739D01*
X0460270Y0407894D01*
X0460377Y0408047D01*
X0460488Y0408197D01*
X0460602Y0408344D01*
X0460719Y0408489D01*
X0460840Y0408630D01*
X0460965Y0408769D01*
X0461092Y0408904D01*
X0461223Y0409037D01*
X0461358Y0409166D01*
X0461495Y0409292D01*
X0461635Y0409414D01*
X0461779Y0409533D01*
X0461925Y0409649D01*
X0462074Y0409760D01*
X0462225Y0409869D01*
X0462379Y0409973D01*
X0462536Y0410074D01*
X0462695Y0410171D01*
X0462856Y0410264D01*
X0463020Y0410353D01*
X0463186Y0410438D01*
X0463353Y0410519D01*
X0463523Y0410596D01*
X0463695Y0410669D01*
X0463868Y0410737D01*
X0464043Y0410801D01*
X0464219Y0410861D01*
X0464397Y0410917D01*
X0464576Y0410969D01*
X0464756Y0411016D01*
X0464937Y0411058D01*
X0465119Y0411097D01*
X0465303Y0411130D01*
X0465486Y0411160D01*
X0465671Y0411184D01*
X0465856Y0411205D01*
X0466042Y0411221D01*
X0466228Y0411232D01*
X0466414Y0411239D01*
X0466600Y0411241D01*
X0466786Y0411239D01*
X0466972Y0411232D01*
X0467158Y0411221D01*
X0467344Y0411205D01*
X0467529Y0411184D01*
X0467714Y0411160D01*
X0467897Y0411130D01*
X0468081Y0411097D01*
X0468263Y0411058D01*
X0468444Y0411016D01*
X0468624Y0410969D01*
X0468803Y0410917D01*
X0468981Y0410861D01*
X0469157Y0410801D01*
X0469332Y0410737D01*
X0469505Y0410669D01*
X0469677Y0410596D01*
X0469847Y0410519D01*
X0470014Y0410438D01*
X0470180Y0410353D01*
X0470344Y0410264D01*
X0470505Y0410171D01*
X0470664Y0410074D01*
X0470821Y0409973D01*
X0470975Y0409869D01*
X0471126Y0409760D01*
X0471275Y0409649D01*
X0471421Y0409533D01*
X0471565Y0409414D01*
X0471705Y0409292D01*
X0471842Y0409166D01*
X0471977Y0409037D01*
X0472108Y0408904D01*
X0472235Y0408769D01*
X0472360Y0408630D01*
X0472481Y0408489D01*
X0472598Y0408344D01*
X0472712Y0408197D01*
X0472823Y0408047D01*
X0472930Y0407894D01*
X0473033Y0407739D01*
X0473132Y0407582D01*
X0473227Y0407422D01*
X0473319Y0407259D01*
X0473406Y0407095D01*
X0473489Y0406928D01*
D11*
X0473063Y0412788D02*
X0472446Y0413405D01*
X0473063Y0412788D02*
X0474297Y0412788D01*
X0474915Y0413405D01*
X0474915Y0415873D01*
X0474297Y0416491D01*
X0473063Y0416491D01*
X0472446Y0415873D01*
X0471231Y0415873D02*
X0470614Y0416491D01*
X0469380Y0416491D01*
X0468763Y0415873D01*
X0468763Y0415256D01*
X0471231Y0412788D01*
X0468763Y0412788D01*
X0418031Y0467331D02*
X0415562Y0467331D01*
X0414945Y0467948D01*
X0414945Y0469182D01*
X0415562Y0469799D01*
X0414945Y0471014D02*
X0414945Y0473483D01*
X0414945Y0472248D02*
X0418648Y0472248D01*
X0417414Y0471014D01*
X0418031Y0469799D02*
X0418648Y0469182D01*
X0418648Y0467948D01*
X0418031Y0467331D01*
X0089915Y0470905D02*
X0089297Y0470288D01*
X0088063Y0470288D01*
X0087446Y0470905D01*
X0086231Y0470288D02*
X0083763Y0472756D01*
X0083763Y0473373D01*
X0084380Y0473991D01*
X0085614Y0473991D01*
X0086231Y0473373D01*
X0087446Y0473373D02*
X0088063Y0473991D01*
X0089297Y0473991D01*
X0089915Y0473373D01*
X0089915Y0470905D01*
X0086231Y0470288D02*
X0083763Y0470288D01*
X0082548Y0470905D02*
X0080080Y0473373D01*
X0080080Y0470905D01*
X0080697Y0470288D01*
X0081931Y0470288D01*
X0082548Y0470905D01*
X0082548Y0473373D01*
X0081931Y0473991D01*
X0080697Y0473991D01*
X0080080Y0473373D01*
X0080697Y0403991D02*
X0081931Y0403991D01*
X0082548Y0403373D01*
X0082548Y0402756D01*
X0081931Y0402139D01*
X0080080Y0402139D01*
X0080080Y0400905D02*
X0080080Y0403373D01*
X0080697Y0403991D01*
X0080080Y0400905D02*
X0080697Y0400288D01*
X0081931Y0400288D01*
X0082548Y0400905D01*
X0083763Y0400288D02*
X0086231Y0400288D01*
X0084997Y0400288D02*
X0084997Y0403991D01*
X0086231Y0402756D01*
X0087446Y0403373D02*
X0088063Y0403991D01*
X0089297Y0403991D01*
X0089915Y0403373D01*
X0089915Y0400905D01*
X0089297Y0400288D01*
X0088063Y0400288D01*
X0087446Y0400905D01*
X0088063Y0323991D02*
X0089297Y0323991D01*
X0089915Y0323373D01*
X0089915Y0320905D01*
X0089297Y0320288D01*
X0088063Y0320288D01*
X0087446Y0320905D01*
X0086231Y0320288D02*
X0083763Y0320288D01*
X0084997Y0320288D02*
X0084997Y0323991D01*
X0086231Y0322756D01*
X0087446Y0323373D02*
X0088063Y0323991D01*
X0082548Y0323373D02*
X0082548Y0322756D01*
X0081931Y0322139D01*
X0080697Y0322139D01*
X0080080Y0321522D01*
X0080080Y0320905D01*
X0080697Y0320288D01*
X0081931Y0320288D01*
X0082548Y0320905D01*
X0082548Y0321522D01*
X0081931Y0322139D01*
X0080697Y0322139D02*
X0080080Y0322756D01*
X0080080Y0323373D01*
X0080697Y0323991D01*
X0081931Y0323991D01*
X0082548Y0323373D01*
X0082548Y0248991D02*
X0080080Y0248991D01*
X0080080Y0248373D01*
X0082548Y0245905D01*
X0082548Y0245288D01*
X0083763Y0245288D02*
X0086231Y0245288D01*
X0084997Y0245288D02*
X0084997Y0248991D01*
X0086231Y0247756D01*
X0087446Y0248373D02*
X0088063Y0248991D01*
X0089297Y0248991D01*
X0089915Y0248373D01*
X0089915Y0245905D01*
X0089297Y0245288D01*
X0088063Y0245288D01*
X0087446Y0245905D01*
X0088063Y0173991D02*
X0089297Y0173991D01*
X0089915Y0173373D01*
X0089915Y0170905D01*
X0089297Y0170288D01*
X0088063Y0170288D01*
X0087446Y0170905D01*
X0086231Y0170288D02*
X0083763Y0170288D01*
X0084997Y0170288D02*
X0084997Y0173991D01*
X0086231Y0172756D01*
X0087446Y0173373D02*
X0088063Y0173991D01*
X0082548Y0172139D02*
X0080697Y0172139D01*
X0080080Y0171522D01*
X0080080Y0170905D01*
X0080697Y0170288D01*
X0081931Y0170288D01*
X0082548Y0170905D01*
X0082548Y0172139D01*
X0081314Y0173373D01*
X0080080Y0173991D01*
X0080080Y0098991D02*
X0082548Y0098991D01*
X0082548Y0097139D01*
X0081314Y0097756D01*
X0080697Y0097756D01*
X0080080Y0097139D01*
X0080080Y0095905D01*
X0080697Y0095288D01*
X0081931Y0095288D01*
X0082548Y0095905D01*
X0083763Y0095288D02*
X0086231Y0095288D01*
X0084997Y0095288D02*
X0084997Y0098991D01*
X0086231Y0097756D01*
X0087446Y0098373D02*
X0088063Y0098991D01*
X0089297Y0098991D01*
X0089915Y0098373D01*
X0089915Y0095905D01*
X0089297Y0095288D01*
X0088063Y0095288D01*
X0087446Y0095905D01*
D12*
X0089769Y0086082D03*
X0089769Y0161082D03*
X0089769Y0236082D03*
X0089769Y0311082D03*
X0089769Y0391082D03*
X0089769Y0461082D03*
X0474769Y0403582D03*
D13*
X0458332Y0403582D03*
X0073332Y0391082D03*
X0073332Y0461082D03*
X0073332Y0311082D03*
X0073332Y0236082D03*
X0073332Y0161082D03*
X0073332Y0086082D03*
D14*
X0077600Y0086082D02*
X0085600Y0086082D01*
X0081600Y0082082D02*
X0081600Y0090082D01*
X0081600Y0157082D02*
X0081600Y0165082D01*
X0077600Y0161082D02*
X0085600Y0161082D01*
X0081600Y0232082D02*
X0081600Y0240082D01*
X0077600Y0236082D02*
X0085600Y0236082D01*
X0081600Y0307082D02*
X0081600Y0315082D01*
X0077600Y0311082D02*
X0085600Y0311082D01*
X0081600Y0387082D02*
X0081600Y0395082D01*
X0077600Y0391082D02*
X0085600Y0391082D01*
X0081600Y0457082D02*
X0081600Y0465082D01*
X0077600Y0461082D02*
X0085600Y0461082D01*
X0423850Y0466082D02*
X0431850Y0466082D01*
X0427850Y0462082D02*
X0427850Y0470082D01*
X0438850Y0463582D02*
X0446850Y0463582D01*
X0442850Y0459582D02*
X0442850Y0467582D01*
X0461600Y0421332D02*
X0461600Y0413332D01*
X0457600Y0417332D02*
X0465600Y0417332D01*
X0466600Y0407582D02*
X0466600Y0399582D01*
X0462600Y0403582D02*
X0470600Y0403582D01*
D15*
X0465931Y0414576D02*
X0457269Y0414576D01*
X0457269Y0420088D01*
X0465931Y0420088D01*
X0465931Y0414576D01*
X0445606Y0459252D02*
X0440094Y0459252D01*
X0440094Y0467913D01*
X0445606Y0467913D01*
X0445606Y0459252D01*
D16*
X0442752Y0457382D03*
X0442752Y0469783D03*
D17*
X0442948Y0461220D03*
D18*
X0455399Y0417234D03*
X0467801Y0417234D03*
D19*
X0463962Y0417431D03*
D20*
X0427850Y0474252D03*
D21*
X0427850Y0457815D03*
M02*
