G75*
%MOIN*%
%OFA0B0*%
%FSLAX25Y25*%
%IPPOS*%
%LPD*%
%AMOC8*
5,1,8,0,0,1.08239X$1,22.5*
%
%ADD10OC8,0.07800*%
%ADD11C,0.09461*%
%ADD12R,0.09461X0.06312*%
%ADD13OC8,0.06000*%
%ADD14R,0.08200X0.08200*%
%ADD15OC8,0.10800*%
%ADD16R,0.06312X0.06312*%
%ADD17OC8,0.08200*%
%ADD18R,0.06312X0.09461*%
%ADD19C,0.03975*%
%ADD20C,0.03778*%
D10*
X0024100Y0066082D03*
X0054100Y0066082D03*
X0064100Y0066082D03*
X0064100Y0146082D03*
X0054100Y0146082D03*
X0024100Y0146082D03*
X0024100Y0221082D03*
X0054100Y0221082D03*
X0064100Y0221082D03*
X0064100Y0296082D03*
X0054100Y0296082D03*
X0024100Y0296082D03*
X0024100Y0371082D03*
X0054100Y0371082D03*
X0064100Y0371082D03*
X0064100Y0446082D03*
X0054100Y0446082D03*
X0024100Y0446082D03*
X0536948Y0445713D03*
X0546948Y0445713D03*
X0576948Y0445713D03*
X0577104Y0371865D03*
X0547104Y0371865D03*
X0537104Y0371865D03*
X0537104Y0296315D03*
X0547104Y0296315D03*
X0577104Y0296315D03*
X0577104Y0220638D03*
X0547104Y0220638D03*
X0537104Y0220638D03*
X0537231Y0145850D03*
X0547231Y0145850D03*
X0577231Y0145850D03*
X0577231Y0070681D03*
X0547231Y0070681D03*
X0537231Y0070681D03*
D11*
X0559731Y0070681D03*
X0559731Y0145850D03*
X0559604Y0220638D03*
X0559604Y0296315D03*
X0559604Y0371865D03*
X0559448Y0445713D03*
X0041600Y0446082D03*
X0041600Y0371082D03*
X0041600Y0296082D03*
X0041600Y0221082D03*
X0041600Y0146082D03*
X0041600Y0066082D03*
D12*
X0075301Y0086082D03*
X0087899Y0086082D03*
X0087899Y0161082D03*
X0075301Y0161082D03*
X0075301Y0236082D03*
X0087899Y0236082D03*
X0087899Y0311082D03*
X0075301Y0311082D03*
X0075301Y0391082D03*
X0087899Y0391082D03*
X0087899Y0461082D03*
X0075301Y0461082D03*
X0460301Y0403582D03*
X0472899Y0403582D03*
D13*
X0072850Y0064832D03*
X0082850Y0064832D03*
X0084100Y0144832D03*
X0074100Y0144832D03*
X0076600Y0219832D03*
X0086600Y0219832D03*
X0084100Y0294832D03*
X0074100Y0294832D03*
X0072850Y0369832D03*
X0082850Y0369832D03*
X0084100Y0444832D03*
X0074100Y0444832D03*
D14*
X0106757Y0418523D03*
X0116600Y0418523D03*
X0126443Y0418523D03*
X0186757Y0418523D03*
X0196600Y0418523D03*
X0206443Y0418523D03*
X0261757Y0418523D03*
X0271600Y0418523D03*
X0281443Y0418523D03*
X0336757Y0418523D03*
X0346600Y0418523D03*
X0356443Y0418523D03*
X0416757Y0418523D03*
X0426600Y0418523D03*
X0436443Y0418523D03*
X0491757Y0418523D03*
X0501600Y0418523D03*
X0511443Y0418523D03*
X0511443Y0343523D03*
X0501600Y0343523D03*
X0491757Y0343523D03*
X0436443Y0343523D03*
X0426600Y0343523D03*
X0416757Y0343523D03*
X0356443Y0343523D03*
X0346600Y0343523D03*
X0336757Y0343523D03*
X0281443Y0343523D03*
X0271600Y0343523D03*
X0261757Y0343523D03*
X0206443Y0343523D03*
X0196600Y0343523D03*
X0186757Y0343523D03*
X0126443Y0343523D03*
X0116600Y0343523D03*
X0106757Y0343523D03*
X0106757Y0268523D03*
X0116600Y0268523D03*
X0126443Y0268523D03*
X0186757Y0268523D03*
X0196600Y0268523D03*
X0206443Y0268523D03*
X0261757Y0268523D03*
X0271600Y0268523D03*
X0281443Y0268523D03*
X0336757Y0268523D03*
X0346600Y0268523D03*
X0356443Y0268523D03*
X0416757Y0268523D03*
X0426600Y0268523D03*
X0436443Y0268523D03*
X0491757Y0268523D03*
X0501600Y0268523D03*
X0511443Y0268523D03*
X0511443Y0193523D03*
X0501600Y0193523D03*
X0491757Y0193523D03*
X0436443Y0193523D03*
X0426600Y0193523D03*
X0416757Y0193523D03*
X0356443Y0193523D03*
X0346600Y0193523D03*
X0336757Y0193523D03*
X0281443Y0193523D03*
X0271600Y0193523D03*
X0261757Y0193523D03*
X0206443Y0193523D03*
X0196600Y0193523D03*
X0186757Y0193523D03*
X0126443Y0193523D03*
X0116600Y0193523D03*
X0106757Y0193523D03*
X0106757Y0118523D03*
X0116600Y0118523D03*
X0126443Y0118523D03*
X0186757Y0118523D03*
X0196600Y0118523D03*
X0206443Y0118523D03*
X0261757Y0118523D03*
X0271600Y0118523D03*
X0281443Y0118523D03*
X0336757Y0118523D03*
X0346600Y0118523D03*
X0356443Y0118523D03*
X0416757Y0118523D03*
X0426600Y0118523D03*
X0436443Y0118523D03*
X0491757Y0118523D03*
X0501600Y0118523D03*
X0511443Y0118523D03*
X0511443Y0038523D03*
X0501600Y0038523D03*
X0491757Y0038523D03*
X0436443Y0038523D03*
X0426600Y0038523D03*
X0416757Y0038523D03*
X0356443Y0038523D03*
X0346600Y0038523D03*
X0336757Y0038523D03*
X0281443Y0038523D03*
X0271600Y0038523D03*
X0261757Y0038523D03*
X0206443Y0038523D03*
X0196600Y0038523D03*
X0186757Y0038523D03*
X0126443Y0038523D03*
X0116600Y0038523D03*
X0106757Y0038523D03*
D15*
X0098096Y0066082D03*
X0135104Y0066082D03*
X0178096Y0066082D03*
X0215104Y0066082D03*
X0253096Y0066082D03*
X0290104Y0066082D03*
X0328096Y0066082D03*
X0365104Y0066082D03*
X0408096Y0066082D03*
X0445104Y0066082D03*
X0483096Y0066082D03*
X0520104Y0066082D03*
X0520104Y0146082D03*
X0483096Y0146082D03*
X0445104Y0146082D03*
X0408096Y0146082D03*
X0365104Y0146082D03*
X0328096Y0146082D03*
X0290104Y0146082D03*
X0253096Y0146082D03*
X0215104Y0146082D03*
X0178096Y0146082D03*
X0135104Y0146082D03*
X0098096Y0146082D03*
X0098096Y0221082D03*
X0135104Y0221082D03*
X0178096Y0221082D03*
X0215104Y0221082D03*
X0253096Y0221082D03*
X0290104Y0221082D03*
X0328096Y0221082D03*
X0365104Y0221082D03*
X0408096Y0221082D03*
X0445104Y0221082D03*
X0483096Y0221082D03*
X0520104Y0221082D03*
X0520104Y0296082D03*
X0483096Y0296082D03*
X0445104Y0296082D03*
X0408096Y0296082D03*
X0365104Y0296082D03*
X0328096Y0296082D03*
X0290104Y0296082D03*
X0253096Y0296082D03*
X0215104Y0296082D03*
X0178096Y0296082D03*
X0135104Y0296082D03*
X0098096Y0296082D03*
X0098096Y0371082D03*
X0135104Y0371082D03*
X0178096Y0371082D03*
X0215104Y0371082D03*
X0253096Y0371082D03*
X0290104Y0371082D03*
X0328096Y0371082D03*
X0365104Y0371082D03*
X0408096Y0371082D03*
X0445104Y0371082D03*
X0483096Y0371082D03*
X0520104Y0371082D03*
X0520104Y0446082D03*
X0483096Y0446082D03*
X0445104Y0446082D03*
X0408096Y0446082D03*
X0365104Y0446082D03*
X0328096Y0446082D03*
X0290104Y0446082D03*
X0253096Y0446082D03*
X0215104Y0446082D03*
X0178096Y0446082D03*
X0135104Y0446082D03*
X0098096Y0446082D03*
D16*
X0442850Y0456102D03*
X0442850Y0471063D03*
X0454120Y0417332D03*
X0469080Y0417332D03*
D17*
X0469739Y0429184D03*
X0459739Y0429184D03*
X0459739Y0439184D03*
X0469739Y0439184D03*
X0469739Y0449184D03*
X0459739Y0449184D03*
X0459739Y0459184D03*
X0469739Y0459184D03*
X0469739Y0469184D03*
X0459739Y0469184D03*
D18*
X0427850Y0472382D03*
X0427850Y0459783D03*
D19*
X0159100Y0423582D03*
X0157850Y0431082D03*
X0160350Y0201082D03*
D20*
X0156600Y0186082D03*
X0156600Y0216082D03*
X0186600Y0247332D03*
X0204100Y0248582D03*
X0156600Y0261082D03*
X0156600Y0291082D03*
X0125350Y0249832D03*
X0125350Y0181082D03*
X0156600Y0136082D03*
X0146600Y0131082D03*
X0125350Y0101082D03*
X0176600Y0056082D03*
X0156600Y0046082D03*
X0143360Y0047842D03*
X0136600Y0051082D03*
X0126600Y0021082D03*
X0201600Y0021082D03*
X0187850Y0096082D03*
X0257850Y0131082D03*
X0280350Y0169832D03*
X0280350Y0179832D03*
X0339100Y0132332D03*
X0354100Y0096082D03*
X0447850Y0109832D03*
X0447850Y0127332D03*
X0506600Y0101082D03*
X0446600Y0046082D03*
X0446600Y0033582D03*
X0506600Y0176082D03*
X0445350Y0184832D03*
X0445350Y0198582D03*
X0506600Y0251082D03*
X0444100Y0259832D03*
X0444100Y0276082D03*
X0506600Y0326082D03*
X0446600Y0338582D03*
X0446600Y0349832D03*
X0366600Y0349832D03*
X0366600Y0338582D03*
X0367850Y0274832D03*
X0367850Y0261082D03*
X0291600Y0263582D03*
X0291600Y0274832D03*
X0290350Y0337332D03*
X0290350Y0351082D03*
X0211600Y0331082D03*
X0211600Y0321082D03*
X0156600Y0341082D03*
X0161600Y0366082D03*
X0152850Y0407332D03*
X0146600Y0406082D03*
X0132759Y0411940D03*
X0121600Y0406082D03*
X0156600Y0419832D03*
X0171600Y0441082D03*
X0186600Y0426082D03*
X0192850Y0176082D03*
X0204100Y0176082D03*
M02*
