%
M48
M72
T01C0.01378
T02C0.01575
T03C0.03200
T04C0.03937
T05C0.04000
T06C0.05906
T07C0.08661
%
T01
X125350Y101082
X146600Y131082
X156600Y136082
X187850Y96082
X176600Y56082
X156600Y46082
X143360Y47842
X136600Y51082
X126600Y21082
X201600Y21082
X257850Y131082
X280350Y169832
X280350Y179832
X339100Y132332
X354100Y96082
X447850Y109832
X447850Y127332
X506600Y101082
X446600Y46082
X446600Y33582
X506600Y176082
X445350Y184832
X445350Y198582
X506600Y251082
X444100Y259832
X444100Y276082
X506600Y326082
X446600Y338582
X446600Y349832
X366600Y349832
X366600Y338582
X367850Y274832
X367850Y261082
X291600Y263582
X291600Y274832
X290350Y337332
X290350Y351082
X211600Y331082
X211600Y321082
X156600Y341082
X161600Y366082
X152850Y407332
X146600Y406082
X132759Y411940
X121600Y406082
X156600Y419832
X171600Y441082
X186600Y426082
X156600Y291082
X156600Y261082
X186600Y247332
X204100Y248582
X156600Y216082
X156600Y186082
X125350Y181082
X192850Y176082
X204100Y176082
X125350Y249832
T02
X160350Y201082
X159100Y423582
X157850Y431082
T03
X72850Y64832
X82850Y64832
X84100Y144832
X74100Y144832
X76600Y219832
X86600Y219832
X84100Y294832
X74100Y294832
X72850Y369832
X82850Y369832
X84100Y444832
X74100Y444832
T04
X106757Y418523
X116600Y418523
X126443Y418523
X186757Y418523
X196600Y418523
X206443Y418523
X261757Y418523
X271600Y418523
X281443Y418523
X336757Y418523
X346600Y418523
X356443Y418523
X416757Y418523
X426600Y418523
X436443Y418523
X491757Y418523
X501600Y418523
X511443Y418523
X511443Y343523
X501600Y343523
X491757Y343523
X436443Y343523
X426600Y343523
X416757Y343523
X356443Y343523
X346600Y343523
X336757Y343523
X281443Y343523
X271600Y343523
X261757Y343523
X206443Y343523
X196600Y343523
X186757Y343523
X126443Y343523
X116600Y343523
X106757Y343523
X106757Y268523
X116600Y268523
X126443Y268523
X186757Y268523
X196600Y268523
X206443Y268523
X261757Y268523
X271600Y268523
X281443Y268523
X336757Y268523
X346600Y268523
X356443Y268523
X416757Y268523
X426600Y268523
X436443Y268523
X491757Y268523
X501600Y268523
X511443Y268523
X511443Y193523
X501600Y193523
X491757Y193523
X436443Y193523
X426600Y193523
X416757Y193523
X356443Y193523
X346600Y193523
X336757Y193523
X281443Y193523
X271600Y193523
X261757Y193523
X206443Y193523
X196600Y193523
X186757Y193523
X126443Y193523
X116600Y193523
X106757Y193523
X106757Y118523
X116600Y118523
X126443Y118523
X186757Y118523
X196600Y118523
X206443Y118523
X261757Y118523
X271600Y118523
X281443Y118523
X336757Y118523
X346600Y118523
X356443Y118523
X416757Y118523
X426600Y118523
X436443Y118523
X491757Y118523
X501600Y118523
X511443Y118523
X511443Y38523
X501600Y38523
X491757Y38523
X436443Y38523
X426600Y38523
X416757Y38523
X356443Y38523
X346600Y38523
X336757Y38523
X281443Y38523
X271600Y38523
X261757Y38523
X206443Y38523
X196600Y38523
X186757Y38523
X126443Y38523
X116600Y38523
X106757Y38523
T05
X64100Y66082
X54100Y66082
X24100Y66082
X24100Y146082
X54100Y146082
X64100Y146082
X64100Y221082
X54100Y221082
X24100Y221082
X24100Y296082
X54100Y296082
X64100Y296082
X64100Y371082
X54100Y371082
X24100Y371082
X24100Y446082
X54100Y446082
X64100Y446082
X459739Y449184
X459739Y439184
X459739Y429184
X469739Y429184
X469739Y439184
X469739Y449184
X469739Y459184
X459739Y459184
X459739Y469184
X469739Y469184
X536948Y445713
X546948Y445713
X576948Y445713
X577104Y371865
X547104Y371865
X537104Y371865
X537104Y296315
X547104Y296315
X577104Y296315
X577104Y220638
X547104Y220638
X537104Y220638
X537231Y145850
X547231Y145850
X577231Y145850
X577231Y70681
X547231Y70681
X537231Y70681
T06
X520104Y66082
X483096Y66082
X445104Y66082
X408096Y66082
X365104Y66082
X328096Y66082
X290104Y66082
X253096Y66082
X215104Y66082
X178096Y66082
X135104Y66082
X98096Y66082
X98096Y146082
X135104Y146082
X178096Y146082
X215104Y146082
X253096Y146082
X290104Y146082
X328096Y146082
X365104Y146082
X408096Y146082
X445104Y146082
X483096Y146082
X520104Y146082
X520104Y221082
X483096Y221082
X445104Y221082
X408096Y221082
X365104Y221082
X328096Y221082
X290104Y221082
X253096Y221082
X215104Y221082
X178096Y221082
X135104Y221082
X98096Y221082
X98096Y296082
X135104Y296082
X178096Y296082
X215104Y296082
X253096Y296082
X290104Y296082
X328096Y296082
X365104Y296082
X408096Y296082
X445104Y296082
X483096Y296082
X520104Y296082
X520104Y371082
X483096Y371082
X445104Y371082
X408096Y371082
X365104Y371082
X328096Y371082
X290104Y371082
X253096Y371082
X215104Y371082
X178096Y371082
X135104Y371082
X98096Y371082
X98096Y446082
X135104Y446082
X178096Y446082
X215104Y446082
X253096Y446082
X290104Y446082
X328096Y446082
X365104Y446082
X408096Y446082
X445104Y446082
X483096Y446082
X520104Y446082
T07
X559448Y445713
X559604Y371865
X559604Y296315
X559604Y220638
X559731Y145850
X559731Y70681
X41600Y66082
X41600Y146082
X41600Y221082
X41600Y296082
X41600Y371082
X41600Y446082
M30
