G75*
%MOIN*%
%OFA0B0*%
%FSLAX25Y25*%
%IPPOS*%
%LPD*%
%AMOC8*
5,1,8,0,0,1.08239X$1,22.5*
%
%ADD10C,0.12611*%
%ADD11OC8,0.07800*%
%ADD12C,0.09461*%
%ADD13R,0.04737X0.05131*%
%ADD14R,0.06312X0.09461*%
%ADD15R,0.09461X0.03162*%
%ADD16OC8,0.06000*%
%ADD17R,0.04737X0.06312*%
%ADD18R,0.05131X0.04737*%
%ADD19R,0.08200X0.08200*%
%ADD20OC8,0.10800*%
%ADD21R,0.09461X0.06312*%
%ADD22R,0.06312X0.06312*%
%ADD23OC8,0.08200*%
%ADD24R,0.12611X0.06312*%
%ADD25C,0.05550*%
D10*
X0018300Y0019831D03*
X0018300Y0429800D03*
X0601300Y0429800D03*
X0601300Y0019831D03*
D11*
X0587931Y0055799D03*
X0557931Y0055799D03*
X0547931Y0055799D03*
X0547931Y0130568D03*
X0557931Y0130568D03*
X0587931Y0130568D03*
X0587804Y0200356D03*
X0557804Y0200356D03*
X0547804Y0200356D03*
X0547804Y0271033D03*
X0557804Y0271033D03*
X0587804Y0271033D03*
X0587804Y0341583D03*
X0557804Y0341583D03*
X0547804Y0341583D03*
X0547648Y0410431D03*
X0557648Y0410431D03*
X0587648Y0410431D03*
X0074800Y0410800D03*
X0064800Y0410800D03*
X0034800Y0410800D03*
X0034800Y0340800D03*
X0064800Y0340800D03*
X0074800Y0340800D03*
X0074800Y0270800D03*
X0064800Y0270800D03*
X0034800Y0270800D03*
X0034800Y0200800D03*
X0064800Y0200800D03*
X0074800Y0200800D03*
X0074800Y0130800D03*
X0064800Y0130800D03*
X0034800Y0130800D03*
X0034800Y0055800D03*
X0064800Y0055800D03*
X0074800Y0055800D03*
D12*
X0052300Y0055800D03*
X0052300Y0130800D03*
X0052300Y0200800D03*
X0052300Y0270800D03*
X0052300Y0340800D03*
X0052300Y0410800D03*
X0570148Y0410431D03*
X0570304Y0341583D03*
X0570304Y0271033D03*
X0570304Y0200356D03*
X0570431Y0130568D03*
X0570431Y0055799D03*
D13*
X0177550Y0077704D03*
X0177550Y0084396D03*
X0157300Y0064896D03*
X0157300Y0058204D03*
X0136550Y0085454D03*
X0136550Y0092146D03*
X0157300Y0119454D03*
X0157300Y0126146D03*
X0177300Y0145704D03*
X0177300Y0152396D03*
X0137050Y0156704D03*
X0137050Y0163396D03*
X0157300Y0190204D03*
X0157300Y0196896D03*
X0178300Y0217704D03*
X0178300Y0224396D03*
X0136550Y0227704D03*
X0136550Y0234396D03*
X0157300Y0258204D03*
X0157300Y0264896D03*
X0177300Y0287454D03*
X0177300Y0294146D03*
X0143800Y0322704D03*
X0143800Y0329396D03*
X0157050Y0328704D03*
X0157050Y0335396D03*
X0177300Y0362954D03*
X0177300Y0369646D03*
X0146800Y0392954D03*
X0146800Y0399646D03*
X0157300Y0404954D03*
X0157300Y0411646D03*
X0147800Y0024646D03*
X0147800Y0017954D03*
X0177300Y0017954D03*
X0177300Y0024646D03*
D14*
X0034800Y0067501D03*
X0034800Y0080099D03*
X0034800Y0140501D03*
X0034800Y0153099D03*
X0034800Y0210501D03*
X0034800Y0223099D03*
X0034800Y0280501D03*
X0034800Y0293099D03*
X0034800Y0350501D03*
X0034800Y0363099D03*
X0034800Y0384001D03*
X0034800Y0396599D03*
D15*
X0157064Y0393300D03*
X0157064Y0388300D03*
X0157064Y0383300D03*
X0157064Y0378300D03*
X0177536Y0378300D03*
X0177536Y0383300D03*
X0177536Y0388300D03*
X0177536Y0393300D03*
X0177536Y0318300D03*
X0177536Y0313300D03*
X0177536Y0308300D03*
X0177536Y0303300D03*
X0157064Y0303300D03*
X0157064Y0308300D03*
X0157064Y0313300D03*
X0157064Y0318300D03*
X0157064Y0248300D03*
X0157064Y0243300D03*
X0157064Y0238300D03*
X0157064Y0233300D03*
X0177536Y0233300D03*
X0177536Y0238300D03*
X0177536Y0243300D03*
X0177536Y0248300D03*
X0177536Y0178300D03*
X0177536Y0173300D03*
X0177536Y0168300D03*
X0177536Y0163300D03*
X0157064Y0163300D03*
X0157064Y0168300D03*
X0157064Y0173300D03*
X0157064Y0178300D03*
X0157064Y0108300D03*
X0157064Y0103300D03*
X0157064Y0098300D03*
X0157064Y0093300D03*
X0177536Y0093300D03*
X0177536Y0098300D03*
X0177536Y0103300D03*
X0177536Y0108300D03*
X0177536Y0047300D03*
X0177536Y0042300D03*
X0177536Y0037300D03*
X0177536Y0032300D03*
X0157064Y0032300D03*
X0157064Y0037300D03*
X0157064Y0042300D03*
X0157064Y0047300D03*
D16*
X0095250Y0055750D03*
X0085250Y0055750D03*
X0085300Y0130750D03*
X0095300Y0130750D03*
X0095300Y0200850D03*
X0085300Y0200850D03*
X0085300Y0270850D03*
X0095300Y0270850D03*
X0095350Y0340850D03*
X0085350Y0340850D03*
X0085300Y0410750D03*
X0095300Y0410750D03*
D17*
X0057550Y0399131D03*
X0053810Y0390469D03*
X0061290Y0390469D03*
X0060290Y0363131D03*
X0052810Y0363131D03*
X0056550Y0354469D03*
X0059290Y0292631D03*
X0051810Y0292631D03*
X0055550Y0283969D03*
X0058290Y0222381D03*
X0050810Y0222381D03*
X0054550Y0213719D03*
X0050810Y0152631D03*
X0058290Y0152631D03*
X0054550Y0143969D03*
X0051310Y0078131D03*
X0058790Y0078131D03*
X0055050Y0069469D03*
D18*
X0067300Y0071204D03*
X0067300Y0077896D03*
X0146550Y0085454D03*
X0146550Y0092146D03*
X0188300Y0101704D03*
X0188300Y0108396D03*
X0188300Y0114704D03*
X0188300Y0121396D03*
X0146050Y0156704D03*
X0146050Y0163396D03*
X0188300Y0170204D03*
X0188300Y0176896D03*
X0188300Y0184704D03*
X0188300Y0191396D03*
X0157300Y0216454D03*
X0157300Y0223146D03*
X0146050Y0227704D03*
X0146050Y0234396D03*
X0187800Y0240954D03*
X0187800Y0247646D03*
X0187800Y0303454D03*
X0187800Y0310146D03*
X0188300Y0322204D03*
X0188300Y0328896D03*
X0134800Y0329396D03*
X0134800Y0322704D03*
X0068050Y0293396D03*
X0068050Y0286704D03*
X0067300Y0221646D03*
X0067300Y0214954D03*
X0068550Y0152896D03*
X0068550Y0146204D03*
X0190300Y0045396D03*
X0190300Y0038704D03*
X0199300Y0038704D03*
X0199300Y0045396D03*
X0156800Y0024646D03*
X0156800Y0017954D03*
X0068550Y0356204D03*
X0068550Y0362896D03*
X0069300Y0390204D03*
X0069300Y0396896D03*
X0137300Y0399646D03*
X0137300Y0392954D03*
X0146800Y0378146D03*
X0146800Y0371454D03*
X0188800Y0392954D03*
X0188800Y0399646D03*
D19*
X0197457Y0383241D03*
X0207300Y0383241D03*
X0217143Y0383241D03*
X0272457Y0383241D03*
X0282300Y0383241D03*
X0292143Y0383241D03*
X0347457Y0383241D03*
X0357300Y0383241D03*
X0367143Y0383241D03*
X0427457Y0383241D03*
X0437300Y0383241D03*
X0447143Y0383241D03*
X0502457Y0383241D03*
X0512300Y0383241D03*
X0522143Y0383241D03*
X0522143Y0313241D03*
X0512300Y0313241D03*
X0502457Y0313241D03*
X0447143Y0313241D03*
X0437300Y0313241D03*
X0427457Y0313241D03*
X0367143Y0313241D03*
X0357300Y0313241D03*
X0347457Y0313241D03*
X0292143Y0313241D03*
X0282300Y0313241D03*
X0272457Y0313241D03*
X0217143Y0313241D03*
X0207300Y0313241D03*
X0197457Y0313241D03*
X0137143Y0313241D03*
X0127300Y0313241D03*
X0117457Y0313241D03*
X0117457Y0243241D03*
X0127300Y0243241D03*
X0137143Y0243241D03*
X0197457Y0243241D03*
X0207300Y0243241D03*
X0217143Y0243241D03*
X0272457Y0243241D03*
X0282300Y0243241D03*
X0292143Y0243241D03*
X0347457Y0243241D03*
X0357300Y0243241D03*
X0367143Y0243241D03*
X0427457Y0243241D03*
X0437300Y0243241D03*
X0447143Y0243241D03*
X0502457Y0243241D03*
X0512300Y0243241D03*
X0522143Y0243241D03*
X0522143Y0173241D03*
X0512300Y0173241D03*
X0502457Y0173241D03*
X0447143Y0173241D03*
X0437300Y0173241D03*
X0427457Y0173241D03*
X0367143Y0173241D03*
X0357300Y0173241D03*
X0347457Y0173241D03*
X0292143Y0173241D03*
X0282300Y0173241D03*
X0272457Y0173241D03*
X0217143Y0173241D03*
X0207300Y0173241D03*
X0197457Y0173241D03*
X0137143Y0173241D03*
X0127300Y0173241D03*
X0117457Y0173241D03*
X0117457Y0103241D03*
X0127300Y0103241D03*
X0137143Y0103241D03*
X0197457Y0103241D03*
X0207300Y0103241D03*
X0217143Y0103241D03*
X0272457Y0103241D03*
X0282300Y0103241D03*
X0292143Y0103241D03*
X0347457Y0103241D03*
X0357300Y0103241D03*
X0367143Y0103241D03*
X0427457Y0103241D03*
X0437300Y0103241D03*
X0447143Y0103241D03*
X0502457Y0103241D03*
X0512300Y0103241D03*
X0522143Y0103241D03*
X0522143Y0028241D03*
X0512300Y0028241D03*
X0502457Y0028241D03*
X0447143Y0028241D03*
X0437300Y0028241D03*
X0427457Y0028241D03*
X0367143Y0028241D03*
X0357300Y0028241D03*
X0347457Y0028241D03*
X0292143Y0028241D03*
X0282300Y0028241D03*
X0272457Y0028241D03*
X0217143Y0028241D03*
X0207300Y0028241D03*
X0197457Y0028241D03*
X0137143Y0028241D03*
X0127300Y0028241D03*
X0117457Y0028241D03*
X0117457Y0383241D03*
X0127300Y0383241D03*
X0137143Y0383241D03*
D20*
X0145804Y0410800D03*
X0108796Y0410800D03*
X0188796Y0410800D03*
X0225804Y0410800D03*
X0263796Y0410800D03*
X0300804Y0410800D03*
X0338796Y0410800D03*
X0375804Y0410800D03*
X0418796Y0410800D03*
X0455804Y0410800D03*
X0493796Y0410800D03*
X0530804Y0410800D03*
X0530804Y0340800D03*
X0493796Y0340800D03*
X0455804Y0340800D03*
X0418796Y0340800D03*
X0375804Y0340800D03*
X0338796Y0340800D03*
X0300804Y0340800D03*
X0263796Y0340800D03*
X0225804Y0340800D03*
X0188796Y0340800D03*
X0145804Y0340800D03*
X0108796Y0340800D03*
X0108796Y0270800D03*
X0145804Y0270800D03*
X0188796Y0270800D03*
X0225804Y0270800D03*
X0263796Y0270800D03*
X0300804Y0270800D03*
X0338796Y0270800D03*
X0375804Y0270800D03*
X0418796Y0270800D03*
X0455804Y0270800D03*
X0493796Y0270800D03*
X0530804Y0270800D03*
X0530804Y0200800D03*
X0493796Y0200800D03*
X0455804Y0200800D03*
X0418796Y0200800D03*
X0375804Y0200800D03*
X0338796Y0200800D03*
X0300804Y0200800D03*
X0263796Y0200800D03*
X0225804Y0200800D03*
X0188796Y0200800D03*
X0145804Y0200800D03*
X0108796Y0200800D03*
X0108796Y0130800D03*
X0145804Y0130800D03*
X0188796Y0130800D03*
X0225804Y0130800D03*
X0263796Y0130800D03*
X0300804Y0130800D03*
X0338796Y0130800D03*
X0375804Y0130800D03*
X0418796Y0130800D03*
X0455804Y0130800D03*
X0493796Y0130800D03*
X0530804Y0130800D03*
X0530804Y0055800D03*
X0493796Y0055800D03*
X0455804Y0055800D03*
X0418796Y0055800D03*
X0375804Y0055800D03*
X0338796Y0055800D03*
X0300804Y0055800D03*
X0263796Y0055800D03*
X0225804Y0055800D03*
X0188796Y0055800D03*
X0145804Y0055800D03*
X0108796Y0055800D03*
D21*
X0577001Y0040800D03*
X0589599Y0040800D03*
X0589349Y0115800D03*
X0576751Y0115800D03*
X0577501Y0185800D03*
X0590099Y0185800D03*
X0589849Y0255800D03*
X0577251Y0255800D03*
X0577001Y0326800D03*
X0589599Y0326800D03*
X0589349Y0395800D03*
X0576751Y0395800D03*
D22*
X0290280Y0422550D03*
X0275320Y0422550D03*
X0272820Y0394050D03*
X0287780Y0394050D03*
D23*
X0314439Y0395902D03*
X0314439Y0405902D03*
X0314439Y0415902D03*
X0314439Y0425902D03*
X0324439Y0425902D03*
X0324439Y0415902D03*
X0324439Y0405902D03*
X0324439Y0395902D03*
X0324439Y0385902D03*
X0314439Y0385902D03*
D24*
X0254749Y0394300D03*
X0235851Y0394300D03*
X0234851Y0421550D03*
X0253749Y0421550D03*
D25*
X0247300Y0370800D03*
X0199300Y0362300D03*
X0189300Y0380300D03*
X0160300Y0368800D03*
X0134800Y0337300D03*
X0148300Y0312800D03*
X0153800Y0297300D03*
X0185800Y0296300D03*
X0198800Y0292800D03*
X0242300Y0290800D03*
X0250800Y0322300D03*
X0317300Y0340800D03*
X0317300Y0290800D03*
X0242300Y0243300D03*
X0213300Y0224300D03*
X0201300Y0219800D03*
X0172800Y0209800D03*
X0161300Y0209800D03*
X0146300Y0212300D03*
X0172800Y0191300D03*
X0128300Y0165800D03*
X0160300Y0155300D03*
X0172300Y0136300D03*
X0174800Y0118300D03*
X0161300Y0085300D03*
X0171800Y0065300D03*
X0201300Y0053300D03*
X0211800Y0053300D03*
X0223800Y0073300D03*
X0212300Y0081300D03*
X0201800Y0081300D03*
X0239300Y0111800D03*
X0201800Y0150300D03*
X0211800Y0154800D03*
X0233300Y0154800D03*
X0234800Y0176300D03*
X0287800Y0154800D03*
X0317300Y0155800D03*
X0317300Y0175800D03*
X0317300Y0215800D03*
X0242300Y0215800D03*
X0187300Y0258800D03*
X0176800Y0327800D03*
X0117300Y0399800D03*
X0157300Y0425800D03*
X0052300Y0375800D03*
X0052300Y0310800D03*
X0052300Y0240800D03*
X0052300Y0170800D03*
X0052300Y0095800D03*
X0127800Y0092300D03*
X0168300Y0038800D03*
X0167300Y0027300D03*
X0185800Y0027300D03*
X0138300Y0018300D03*
X0242300Y0055800D03*
X0317300Y0070800D03*
X0317300Y0100800D03*
X0361300Y0083800D03*
X0397300Y0055800D03*
X0397300Y0130800D03*
X0477300Y0130800D03*
X0477300Y0200800D03*
X0397300Y0200800D03*
X0397300Y0270800D03*
X0477300Y0270800D03*
X0477300Y0340800D03*
X0397300Y0340800D03*
X0397300Y0410800D03*
X0472300Y0410800D03*
X0567300Y0370800D03*
M02*
