G75*
%MOIN*%
%OFA0B0*%
%FSLAX25Y25*%
%IPPOS*%
%LPD*%
%AMOC8*
5,1,8,0,0,1.08239X$1,22.5*
%
%ADD10C,0.00000*%
%ADD11C,0.12611*%
%ADD12C,0.00600*%
%ADD13OC8,0.07800*%
%ADD14C,0.09461*%
%ADD15OC8,0.06000*%
%ADD16C,0.00200*%
%ADD17R,0.04737X0.05131*%
%ADD18R,0.05131X0.04737*%
%ADD19R,0.08200X0.08200*%
%ADD20OC8,0.10800*%
%ADD21OC8,0.08200*%
%ADD22C,0.05550*%
D10*
X0012394Y0019831D02*
X0012396Y0019984D01*
X0012402Y0020138D01*
X0012412Y0020291D01*
X0012426Y0020443D01*
X0012444Y0020596D01*
X0012466Y0020747D01*
X0012491Y0020898D01*
X0012521Y0021049D01*
X0012555Y0021199D01*
X0012592Y0021347D01*
X0012633Y0021495D01*
X0012678Y0021641D01*
X0012727Y0021787D01*
X0012780Y0021931D01*
X0012836Y0022073D01*
X0012896Y0022214D01*
X0012960Y0022354D01*
X0013027Y0022492D01*
X0013098Y0022628D01*
X0013173Y0022762D01*
X0013250Y0022894D01*
X0013332Y0023024D01*
X0013416Y0023152D01*
X0013504Y0023278D01*
X0013595Y0023401D01*
X0013689Y0023522D01*
X0013787Y0023640D01*
X0013887Y0023756D01*
X0013991Y0023869D01*
X0014097Y0023980D01*
X0014206Y0024088D01*
X0014318Y0024193D01*
X0014432Y0024294D01*
X0014550Y0024393D01*
X0014669Y0024489D01*
X0014791Y0024582D01*
X0014916Y0024671D01*
X0015043Y0024758D01*
X0015172Y0024840D01*
X0015303Y0024920D01*
X0015436Y0024996D01*
X0015571Y0025069D01*
X0015708Y0025138D01*
X0015847Y0025203D01*
X0015987Y0025265D01*
X0016129Y0025323D01*
X0016272Y0025378D01*
X0016417Y0025429D01*
X0016563Y0025476D01*
X0016710Y0025519D01*
X0016858Y0025558D01*
X0017007Y0025594D01*
X0017157Y0025625D01*
X0017308Y0025653D01*
X0017459Y0025677D01*
X0017612Y0025697D01*
X0017764Y0025713D01*
X0017917Y0025725D01*
X0018070Y0025733D01*
X0018223Y0025737D01*
X0018377Y0025737D01*
X0018530Y0025733D01*
X0018683Y0025725D01*
X0018836Y0025713D01*
X0018988Y0025697D01*
X0019141Y0025677D01*
X0019292Y0025653D01*
X0019443Y0025625D01*
X0019593Y0025594D01*
X0019742Y0025558D01*
X0019890Y0025519D01*
X0020037Y0025476D01*
X0020183Y0025429D01*
X0020328Y0025378D01*
X0020471Y0025323D01*
X0020613Y0025265D01*
X0020753Y0025203D01*
X0020892Y0025138D01*
X0021029Y0025069D01*
X0021164Y0024996D01*
X0021297Y0024920D01*
X0021428Y0024840D01*
X0021557Y0024758D01*
X0021684Y0024671D01*
X0021809Y0024582D01*
X0021931Y0024489D01*
X0022050Y0024393D01*
X0022168Y0024294D01*
X0022282Y0024193D01*
X0022394Y0024088D01*
X0022503Y0023980D01*
X0022609Y0023869D01*
X0022713Y0023756D01*
X0022813Y0023640D01*
X0022911Y0023522D01*
X0023005Y0023401D01*
X0023096Y0023278D01*
X0023184Y0023152D01*
X0023268Y0023024D01*
X0023350Y0022894D01*
X0023427Y0022762D01*
X0023502Y0022628D01*
X0023573Y0022492D01*
X0023640Y0022354D01*
X0023704Y0022214D01*
X0023764Y0022073D01*
X0023820Y0021931D01*
X0023873Y0021787D01*
X0023922Y0021641D01*
X0023967Y0021495D01*
X0024008Y0021347D01*
X0024045Y0021199D01*
X0024079Y0021049D01*
X0024109Y0020898D01*
X0024134Y0020747D01*
X0024156Y0020596D01*
X0024174Y0020443D01*
X0024188Y0020291D01*
X0024198Y0020138D01*
X0024204Y0019984D01*
X0024206Y0019831D01*
X0024204Y0019678D01*
X0024198Y0019524D01*
X0024188Y0019371D01*
X0024174Y0019219D01*
X0024156Y0019066D01*
X0024134Y0018915D01*
X0024109Y0018764D01*
X0024079Y0018613D01*
X0024045Y0018463D01*
X0024008Y0018315D01*
X0023967Y0018167D01*
X0023922Y0018021D01*
X0023873Y0017875D01*
X0023820Y0017731D01*
X0023764Y0017589D01*
X0023704Y0017448D01*
X0023640Y0017308D01*
X0023573Y0017170D01*
X0023502Y0017034D01*
X0023427Y0016900D01*
X0023350Y0016768D01*
X0023268Y0016638D01*
X0023184Y0016510D01*
X0023096Y0016384D01*
X0023005Y0016261D01*
X0022911Y0016140D01*
X0022813Y0016022D01*
X0022713Y0015906D01*
X0022609Y0015793D01*
X0022503Y0015682D01*
X0022394Y0015574D01*
X0022282Y0015469D01*
X0022168Y0015368D01*
X0022050Y0015269D01*
X0021931Y0015173D01*
X0021809Y0015080D01*
X0021684Y0014991D01*
X0021557Y0014904D01*
X0021428Y0014822D01*
X0021297Y0014742D01*
X0021164Y0014666D01*
X0021029Y0014593D01*
X0020892Y0014524D01*
X0020753Y0014459D01*
X0020613Y0014397D01*
X0020471Y0014339D01*
X0020328Y0014284D01*
X0020183Y0014233D01*
X0020037Y0014186D01*
X0019890Y0014143D01*
X0019742Y0014104D01*
X0019593Y0014068D01*
X0019443Y0014037D01*
X0019292Y0014009D01*
X0019141Y0013985D01*
X0018988Y0013965D01*
X0018836Y0013949D01*
X0018683Y0013937D01*
X0018530Y0013929D01*
X0018377Y0013925D01*
X0018223Y0013925D01*
X0018070Y0013929D01*
X0017917Y0013937D01*
X0017764Y0013949D01*
X0017612Y0013965D01*
X0017459Y0013985D01*
X0017308Y0014009D01*
X0017157Y0014037D01*
X0017007Y0014068D01*
X0016858Y0014104D01*
X0016710Y0014143D01*
X0016563Y0014186D01*
X0016417Y0014233D01*
X0016272Y0014284D01*
X0016129Y0014339D01*
X0015987Y0014397D01*
X0015847Y0014459D01*
X0015708Y0014524D01*
X0015571Y0014593D01*
X0015436Y0014666D01*
X0015303Y0014742D01*
X0015172Y0014822D01*
X0015043Y0014904D01*
X0014916Y0014991D01*
X0014791Y0015080D01*
X0014669Y0015173D01*
X0014550Y0015269D01*
X0014432Y0015368D01*
X0014318Y0015469D01*
X0014206Y0015574D01*
X0014097Y0015682D01*
X0013991Y0015793D01*
X0013887Y0015906D01*
X0013787Y0016022D01*
X0013689Y0016140D01*
X0013595Y0016261D01*
X0013504Y0016384D01*
X0013416Y0016510D01*
X0013332Y0016638D01*
X0013250Y0016768D01*
X0013173Y0016900D01*
X0013098Y0017034D01*
X0013027Y0017170D01*
X0012960Y0017308D01*
X0012896Y0017448D01*
X0012836Y0017589D01*
X0012780Y0017731D01*
X0012727Y0017875D01*
X0012678Y0018021D01*
X0012633Y0018167D01*
X0012592Y0018315D01*
X0012555Y0018463D01*
X0012521Y0018613D01*
X0012491Y0018764D01*
X0012466Y0018915D01*
X0012444Y0019066D01*
X0012426Y0019219D01*
X0012412Y0019371D01*
X0012402Y0019524D01*
X0012396Y0019678D01*
X0012394Y0019831D01*
X0047969Y0055800D02*
X0047971Y0055931D01*
X0047977Y0056063D01*
X0047987Y0056194D01*
X0048001Y0056325D01*
X0048019Y0056455D01*
X0048041Y0056584D01*
X0048066Y0056713D01*
X0048096Y0056841D01*
X0048130Y0056968D01*
X0048167Y0057095D01*
X0048208Y0057219D01*
X0048253Y0057343D01*
X0048302Y0057465D01*
X0048354Y0057586D01*
X0048410Y0057704D01*
X0048470Y0057822D01*
X0048533Y0057937D01*
X0048600Y0058050D01*
X0048670Y0058162D01*
X0048743Y0058271D01*
X0048819Y0058377D01*
X0048899Y0058482D01*
X0048982Y0058584D01*
X0049068Y0058683D01*
X0049157Y0058780D01*
X0049249Y0058874D01*
X0049344Y0058965D01*
X0049441Y0059054D01*
X0049541Y0059139D01*
X0049644Y0059221D01*
X0049749Y0059300D01*
X0049856Y0059376D01*
X0049966Y0059448D01*
X0050078Y0059517D01*
X0050192Y0059583D01*
X0050307Y0059645D01*
X0050425Y0059704D01*
X0050544Y0059759D01*
X0050665Y0059811D01*
X0050788Y0059858D01*
X0050912Y0059902D01*
X0051037Y0059943D01*
X0051163Y0059979D01*
X0051291Y0060012D01*
X0051419Y0060040D01*
X0051548Y0060065D01*
X0051678Y0060086D01*
X0051808Y0060103D01*
X0051939Y0060116D01*
X0052070Y0060125D01*
X0052201Y0060130D01*
X0052333Y0060131D01*
X0052464Y0060128D01*
X0052596Y0060121D01*
X0052727Y0060110D01*
X0052857Y0060095D01*
X0052987Y0060076D01*
X0053117Y0060053D01*
X0053245Y0060027D01*
X0053373Y0059996D01*
X0053500Y0059961D01*
X0053626Y0059923D01*
X0053750Y0059881D01*
X0053874Y0059835D01*
X0053995Y0059785D01*
X0054115Y0059732D01*
X0054234Y0059675D01*
X0054351Y0059615D01*
X0054465Y0059551D01*
X0054578Y0059483D01*
X0054689Y0059412D01*
X0054798Y0059338D01*
X0054904Y0059261D01*
X0055008Y0059180D01*
X0055109Y0059097D01*
X0055208Y0059010D01*
X0055304Y0058920D01*
X0055397Y0058827D01*
X0055488Y0058732D01*
X0055575Y0058634D01*
X0055660Y0058533D01*
X0055741Y0058430D01*
X0055819Y0058324D01*
X0055894Y0058216D01*
X0055966Y0058106D01*
X0056034Y0057994D01*
X0056099Y0057880D01*
X0056160Y0057763D01*
X0056218Y0057645D01*
X0056272Y0057525D01*
X0056323Y0057404D01*
X0056370Y0057281D01*
X0056413Y0057157D01*
X0056452Y0057032D01*
X0056488Y0056905D01*
X0056519Y0056777D01*
X0056547Y0056649D01*
X0056571Y0056520D01*
X0056591Y0056390D01*
X0056607Y0056259D01*
X0056619Y0056128D01*
X0056627Y0055997D01*
X0056631Y0055866D01*
X0056631Y0055734D01*
X0056627Y0055603D01*
X0056619Y0055472D01*
X0056607Y0055341D01*
X0056591Y0055210D01*
X0056571Y0055080D01*
X0056547Y0054951D01*
X0056519Y0054823D01*
X0056488Y0054695D01*
X0056452Y0054568D01*
X0056413Y0054443D01*
X0056370Y0054319D01*
X0056323Y0054196D01*
X0056272Y0054075D01*
X0056218Y0053955D01*
X0056160Y0053837D01*
X0056099Y0053720D01*
X0056034Y0053606D01*
X0055966Y0053494D01*
X0055894Y0053384D01*
X0055819Y0053276D01*
X0055741Y0053170D01*
X0055660Y0053067D01*
X0055575Y0052966D01*
X0055488Y0052868D01*
X0055397Y0052773D01*
X0055304Y0052680D01*
X0055208Y0052590D01*
X0055109Y0052503D01*
X0055008Y0052420D01*
X0054904Y0052339D01*
X0054798Y0052262D01*
X0054689Y0052188D01*
X0054578Y0052117D01*
X0054466Y0052049D01*
X0054351Y0051985D01*
X0054234Y0051925D01*
X0054115Y0051868D01*
X0053995Y0051815D01*
X0053874Y0051765D01*
X0053750Y0051719D01*
X0053626Y0051677D01*
X0053500Y0051639D01*
X0053373Y0051604D01*
X0053245Y0051573D01*
X0053117Y0051547D01*
X0052987Y0051524D01*
X0052857Y0051505D01*
X0052727Y0051490D01*
X0052596Y0051479D01*
X0052464Y0051472D01*
X0052333Y0051469D01*
X0052201Y0051470D01*
X0052070Y0051475D01*
X0051939Y0051484D01*
X0051808Y0051497D01*
X0051678Y0051514D01*
X0051548Y0051535D01*
X0051419Y0051560D01*
X0051291Y0051588D01*
X0051163Y0051621D01*
X0051037Y0051657D01*
X0050912Y0051698D01*
X0050788Y0051742D01*
X0050665Y0051789D01*
X0050544Y0051841D01*
X0050425Y0051896D01*
X0050307Y0051955D01*
X0050192Y0052017D01*
X0050078Y0052083D01*
X0049966Y0052152D01*
X0049856Y0052224D01*
X0049749Y0052300D01*
X0049644Y0052379D01*
X0049541Y0052461D01*
X0049441Y0052546D01*
X0049344Y0052635D01*
X0049249Y0052726D01*
X0049157Y0052820D01*
X0049068Y0052917D01*
X0048982Y0053016D01*
X0048899Y0053118D01*
X0048819Y0053223D01*
X0048743Y0053329D01*
X0048670Y0053438D01*
X0048600Y0053550D01*
X0048533Y0053663D01*
X0048470Y0053778D01*
X0048410Y0053896D01*
X0048354Y0054014D01*
X0048302Y0054135D01*
X0048253Y0054257D01*
X0048208Y0054381D01*
X0048167Y0054505D01*
X0048130Y0054632D01*
X0048096Y0054759D01*
X0048066Y0054887D01*
X0048041Y0055016D01*
X0048019Y0055145D01*
X0048001Y0055275D01*
X0047987Y0055406D01*
X0047977Y0055537D01*
X0047971Y0055669D01*
X0047969Y0055800D01*
X0047969Y0130800D02*
X0047971Y0130931D01*
X0047977Y0131063D01*
X0047987Y0131194D01*
X0048001Y0131325D01*
X0048019Y0131455D01*
X0048041Y0131584D01*
X0048066Y0131713D01*
X0048096Y0131841D01*
X0048130Y0131968D01*
X0048167Y0132095D01*
X0048208Y0132219D01*
X0048253Y0132343D01*
X0048302Y0132465D01*
X0048354Y0132586D01*
X0048410Y0132704D01*
X0048470Y0132822D01*
X0048533Y0132937D01*
X0048600Y0133050D01*
X0048670Y0133162D01*
X0048743Y0133271D01*
X0048819Y0133377D01*
X0048899Y0133482D01*
X0048982Y0133584D01*
X0049068Y0133683D01*
X0049157Y0133780D01*
X0049249Y0133874D01*
X0049344Y0133965D01*
X0049441Y0134054D01*
X0049541Y0134139D01*
X0049644Y0134221D01*
X0049749Y0134300D01*
X0049856Y0134376D01*
X0049966Y0134448D01*
X0050078Y0134517D01*
X0050192Y0134583D01*
X0050307Y0134645D01*
X0050425Y0134704D01*
X0050544Y0134759D01*
X0050665Y0134811D01*
X0050788Y0134858D01*
X0050912Y0134902D01*
X0051037Y0134943D01*
X0051163Y0134979D01*
X0051291Y0135012D01*
X0051419Y0135040D01*
X0051548Y0135065D01*
X0051678Y0135086D01*
X0051808Y0135103D01*
X0051939Y0135116D01*
X0052070Y0135125D01*
X0052201Y0135130D01*
X0052333Y0135131D01*
X0052464Y0135128D01*
X0052596Y0135121D01*
X0052727Y0135110D01*
X0052857Y0135095D01*
X0052987Y0135076D01*
X0053117Y0135053D01*
X0053245Y0135027D01*
X0053373Y0134996D01*
X0053500Y0134961D01*
X0053626Y0134923D01*
X0053750Y0134881D01*
X0053874Y0134835D01*
X0053995Y0134785D01*
X0054115Y0134732D01*
X0054234Y0134675D01*
X0054351Y0134615D01*
X0054465Y0134551D01*
X0054578Y0134483D01*
X0054689Y0134412D01*
X0054798Y0134338D01*
X0054904Y0134261D01*
X0055008Y0134180D01*
X0055109Y0134097D01*
X0055208Y0134010D01*
X0055304Y0133920D01*
X0055397Y0133827D01*
X0055488Y0133732D01*
X0055575Y0133634D01*
X0055660Y0133533D01*
X0055741Y0133430D01*
X0055819Y0133324D01*
X0055894Y0133216D01*
X0055966Y0133106D01*
X0056034Y0132994D01*
X0056099Y0132880D01*
X0056160Y0132763D01*
X0056218Y0132645D01*
X0056272Y0132525D01*
X0056323Y0132404D01*
X0056370Y0132281D01*
X0056413Y0132157D01*
X0056452Y0132032D01*
X0056488Y0131905D01*
X0056519Y0131777D01*
X0056547Y0131649D01*
X0056571Y0131520D01*
X0056591Y0131390D01*
X0056607Y0131259D01*
X0056619Y0131128D01*
X0056627Y0130997D01*
X0056631Y0130866D01*
X0056631Y0130734D01*
X0056627Y0130603D01*
X0056619Y0130472D01*
X0056607Y0130341D01*
X0056591Y0130210D01*
X0056571Y0130080D01*
X0056547Y0129951D01*
X0056519Y0129823D01*
X0056488Y0129695D01*
X0056452Y0129568D01*
X0056413Y0129443D01*
X0056370Y0129319D01*
X0056323Y0129196D01*
X0056272Y0129075D01*
X0056218Y0128955D01*
X0056160Y0128837D01*
X0056099Y0128720D01*
X0056034Y0128606D01*
X0055966Y0128494D01*
X0055894Y0128384D01*
X0055819Y0128276D01*
X0055741Y0128170D01*
X0055660Y0128067D01*
X0055575Y0127966D01*
X0055488Y0127868D01*
X0055397Y0127773D01*
X0055304Y0127680D01*
X0055208Y0127590D01*
X0055109Y0127503D01*
X0055008Y0127420D01*
X0054904Y0127339D01*
X0054798Y0127262D01*
X0054689Y0127188D01*
X0054578Y0127117D01*
X0054466Y0127049D01*
X0054351Y0126985D01*
X0054234Y0126925D01*
X0054115Y0126868D01*
X0053995Y0126815D01*
X0053874Y0126765D01*
X0053750Y0126719D01*
X0053626Y0126677D01*
X0053500Y0126639D01*
X0053373Y0126604D01*
X0053245Y0126573D01*
X0053117Y0126547D01*
X0052987Y0126524D01*
X0052857Y0126505D01*
X0052727Y0126490D01*
X0052596Y0126479D01*
X0052464Y0126472D01*
X0052333Y0126469D01*
X0052201Y0126470D01*
X0052070Y0126475D01*
X0051939Y0126484D01*
X0051808Y0126497D01*
X0051678Y0126514D01*
X0051548Y0126535D01*
X0051419Y0126560D01*
X0051291Y0126588D01*
X0051163Y0126621D01*
X0051037Y0126657D01*
X0050912Y0126698D01*
X0050788Y0126742D01*
X0050665Y0126789D01*
X0050544Y0126841D01*
X0050425Y0126896D01*
X0050307Y0126955D01*
X0050192Y0127017D01*
X0050078Y0127083D01*
X0049966Y0127152D01*
X0049856Y0127224D01*
X0049749Y0127300D01*
X0049644Y0127379D01*
X0049541Y0127461D01*
X0049441Y0127546D01*
X0049344Y0127635D01*
X0049249Y0127726D01*
X0049157Y0127820D01*
X0049068Y0127917D01*
X0048982Y0128016D01*
X0048899Y0128118D01*
X0048819Y0128223D01*
X0048743Y0128329D01*
X0048670Y0128438D01*
X0048600Y0128550D01*
X0048533Y0128663D01*
X0048470Y0128778D01*
X0048410Y0128896D01*
X0048354Y0129014D01*
X0048302Y0129135D01*
X0048253Y0129257D01*
X0048208Y0129381D01*
X0048167Y0129505D01*
X0048130Y0129632D01*
X0048096Y0129759D01*
X0048066Y0129887D01*
X0048041Y0130016D01*
X0048019Y0130145D01*
X0048001Y0130275D01*
X0047987Y0130406D01*
X0047977Y0130537D01*
X0047971Y0130669D01*
X0047969Y0130800D01*
X0047969Y0200800D02*
X0047971Y0200931D01*
X0047977Y0201063D01*
X0047987Y0201194D01*
X0048001Y0201325D01*
X0048019Y0201455D01*
X0048041Y0201584D01*
X0048066Y0201713D01*
X0048096Y0201841D01*
X0048130Y0201968D01*
X0048167Y0202095D01*
X0048208Y0202219D01*
X0048253Y0202343D01*
X0048302Y0202465D01*
X0048354Y0202586D01*
X0048410Y0202704D01*
X0048470Y0202822D01*
X0048533Y0202937D01*
X0048600Y0203050D01*
X0048670Y0203162D01*
X0048743Y0203271D01*
X0048819Y0203377D01*
X0048899Y0203482D01*
X0048982Y0203584D01*
X0049068Y0203683D01*
X0049157Y0203780D01*
X0049249Y0203874D01*
X0049344Y0203965D01*
X0049441Y0204054D01*
X0049541Y0204139D01*
X0049644Y0204221D01*
X0049749Y0204300D01*
X0049856Y0204376D01*
X0049966Y0204448D01*
X0050078Y0204517D01*
X0050192Y0204583D01*
X0050307Y0204645D01*
X0050425Y0204704D01*
X0050544Y0204759D01*
X0050665Y0204811D01*
X0050788Y0204858D01*
X0050912Y0204902D01*
X0051037Y0204943D01*
X0051163Y0204979D01*
X0051291Y0205012D01*
X0051419Y0205040D01*
X0051548Y0205065D01*
X0051678Y0205086D01*
X0051808Y0205103D01*
X0051939Y0205116D01*
X0052070Y0205125D01*
X0052201Y0205130D01*
X0052333Y0205131D01*
X0052464Y0205128D01*
X0052596Y0205121D01*
X0052727Y0205110D01*
X0052857Y0205095D01*
X0052987Y0205076D01*
X0053117Y0205053D01*
X0053245Y0205027D01*
X0053373Y0204996D01*
X0053500Y0204961D01*
X0053626Y0204923D01*
X0053750Y0204881D01*
X0053874Y0204835D01*
X0053995Y0204785D01*
X0054115Y0204732D01*
X0054234Y0204675D01*
X0054351Y0204615D01*
X0054465Y0204551D01*
X0054578Y0204483D01*
X0054689Y0204412D01*
X0054798Y0204338D01*
X0054904Y0204261D01*
X0055008Y0204180D01*
X0055109Y0204097D01*
X0055208Y0204010D01*
X0055304Y0203920D01*
X0055397Y0203827D01*
X0055488Y0203732D01*
X0055575Y0203634D01*
X0055660Y0203533D01*
X0055741Y0203430D01*
X0055819Y0203324D01*
X0055894Y0203216D01*
X0055966Y0203106D01*
X0056034Y0202994D01*
X0056099Y0202880D01*
X0056160Y0202763D01*
X0056218Y0202645D01*
X0056272Y0202525D01*
X0056323Y0202404D01*
X0056370Y0202281D01*
X0056413Y0202157D01*
X0056452Y0202032D01*
X0056488Y0201905D01*
X0056519Y0201777D01*
X0056547Y0201649D01*
X0056571Y0201520D01*
X0056591Y0201390D01*
X0056607Y0201259D01*
X0056619Y0201128D01*
X0056627Y0200997D01*
X0056631Y0200866D01*
X0056631Y0200734D01*
X0056627Y0200603D01*
X0056619Y0200472D01*
X0056607Y0200341D01*
X0056591Y0200210D01*
X0056571Y0200080D01*
X0056547Y0199951D01*
X0056519Y0199823D01*
X0056488Y0199695D01*
X0056452Y0199568D01*
X0056413Y0199443D01*
X0056370Y0199319D01*
X0056323Y0199196D01*
X0056272Y0199075D01*
X0056218Y0198955D01*
X0056160Y0198837D01*
X0056099Y0198720D01*
X0056034Y0198606D01*
X0055966Y0198494D01*
X0055894Y0198384D01*
X0055819Y0198276D01*
X0055741Y0198170D01*
X0055660Y0198067D01*
X0055575Y0197966D01*
X0055488Y0197868D01*
X0055397Y0197773D01*
X0055304Y0197680D01*
X0055208Y0197590D01*
X0055109Y0197503D01*
X0055008Y0197420D01*
X0054904Y0197339D01*
X0054798Y0197262D01*
X0054689Y0197188D01*
X0054578Y0197117D01*
X0054466Y0197049D01*
X0054351Y0196985D01*
X0054234Y0196925D01*
X0054115Y0196868D01*
X0053995Y0196815D01*
X0053874Y0196765D01*
X0053750Y0196719D01*
X0053626Y0196677D01*
X0053500Y0196639D01*
X0053373Y0196604D01*
X0053245Y0196573D01*
X0053117Y0196547D01*
X0052987Y0196524D01*
X0052857Y0196505D01*
X0052727Y0196490D01*
X0052596Y0196479D01*
X0052464Y0196472D01*
X0052333Y0196469D01*
X0052201Y0196470D01*
X0052070Y0196475D01*
X0051939Y0196484D01*
X0051808Y0196497D01*
X0051678Y0196514D01*
X0051548Y0196535D01*
X0051419Y0196560D01*
X0051291Y0196588D01*
X0051163Y0196621D01*
X0051037Y0196657D01*
X0050912Y0196698D01*
X0050788Y0196742D01*
X0050665Y0196789D01*
X0050544Y0196841D01*
X0050425Y0196896D01*
X0050307Y0196955D01*
X0050192Y0197017D01*
X0050078Y0197083D01*
X0049966Y0197152D01*
X0049856Y0197224D01*
X0049749Y0197300D01*
X0049644Y0197379D01*
X0049541Y0197461D01*
X0049441Y0197546D01*
X0049344Y0197635D01*
X0049249Y0197726D01*
X0049157Y0197820D01*
X0049068Y0197917D01*
X0048982Y0198016D01*
X0048899Y0198118D01*
X0048819Y0198223D01*
X0048743Y0198329D01*
X0048670Y0198438D01*
X0048600Y0198550D01*
X0048533Y0198663D01*
X0048470Y0198778D01*
X0048410Y0198896D01*
X0048354Y0199014D01*
X0048302Y0199135D01*
X0048253Y0199257D01*
X0048208Y0199381D01*
X0048167Y0199505D01*
X0048130Y0199632D01*
X0048096Y0199759D01*
X0048066Y0199887D01*
X0048041Y0200016D01*
X0048019Y0200145D01*
X0048001Y0200275D01*
X0047987Y0200406D01*
X0047977Y0200537D01*
X0047971Y0200669D01*
X0047969Y0200800D01*
X0047969Y0270800D02*
X0047971Y0270931D01*
X0047977Y0271063D01*
X0047987Y0271194D01*
X0048001Y0271325D01*
X0048019Y0271455D01*
X0048041Y0271584D01*
X0048066Y0271713D01*
X0048096Y0271841D01*
X0048130Y0271968D01*
X0048167Y0272095D01*
X0048208Y0272219D01*
X0048253Y0272343D01*
X0048302Y0272465D01*
X0048354Y0272586D01*
X0048410Y0272704D01*
X0048470Y0272822D01*
X0048533Y0272937D01*
X0048600Y0273050D01*
X0048670Y0273162D01*
X0048743Y0273271D01*
X0048819Y0273377D01*
X0048899Y0273482D01*
X0048982Y0273584D01*
X0049068Y0273683D01*
X0049157Y0273780D01*
X0049249Y0273874D01*
X0049344Y0273965D01*
X0049441Y0274054D01*
X0049541Y0274139D01*
X0049644Y0274221D01*
X0049749Y0274300D01*
X0049856Y0274376D01*
X0049966Y0274448D01*
X0050078Y0274517D01*
X0050192Y0274583D01*
X0050307Y0274645D01*
X0050425Y0274704D01*
X0050544Y0274759D01*
X0050665Y0274811D01*
X0050788Y0274858D01*
X0050912Y0274902D01*
X0051037Y0274943D01*
X0051163Y0274979D01*
X0051291Y0275012D01*
X0051419Y0275040D01*
X0051548Y0275065D01*
X0051678Y0275086D01*
X0051808Y0275103D01*
X0051939Y0275116D01*
X0052070Y0275125D01*
X0052201Y0275130D01*
X0052333Y0275131D01*
X0052464Y0275128D01*
X0052596Y0275121D01*
X0052727Y0275110D01*
X0052857Y0275095D01*
X0052987Y0275076D01*
X0053117Y0275053D01*
X0053245Y0275027D01*
X0053373Y0274996D01*
X0053500Y0274961D01*
X0053626Y0274923D01*
X0053750Y0274881D01*
X0053874Y0274835D01*
X0053995Y0274785D01*
X0054115Y0274732D01*
X0054234Y0274675D01*
X0054351Y0274615D01*
X0054465Y0274551D01*
X0054578Y0274483D01*
X0054689Y0274412D01*
X0054798Y0274338D01*
X0054904Y0274261D01*
X0055008Y0274180D01*
X0055109Y0274097D01*
X0055208Y0274010D01*
X0055304Y0273920D01*
X0055397Y0273827D01*
X0055488Y0273732D01*
X0055575Y0273634D01*
X0055660Y0273533D01*
X0055741Y0273430D01*
X0055819Y0273324D01*
X0055894Y0273216D01*
X0055966Y0273106D01*
X0056034Y0272994D01*
X0056099Y0272880D01*
X0056160Y0272763D01*
X0056218Y0272645D01*
X0056272Y0272525D01*
X0056323Y0272404D01*
X0056370Y0272281D01*
X0056413Y0272157D01*
X0056452Y0272032D01*
X0056488Y0271905D01*
X0056519Y0271777D01*
X0056547Y0271649D01*
X0056571Y0271520D01*
X0056591Y0271390D01*
X0056607Y0271259D01*
X0056619Y0271128D01*
X0056627Y0270997D01*
X0056631Y0270866D01*
X0056631Y0270734D01*
X0056627Y0270603D01*
X0056619Y0270472D01*
X0056607Y0270341D01*
X0056591Y0270210D01*
X0056571Y0270080D01*
X0056547Y0269951D01*
X0056519Y0269823D01*
X0056488Y0269695D01*
X0056452Y0269568D01*
X0056413Y0269443D01*
X0056370Y0269319D01*
X0056323Y0269196D01*
X0056272Y0269075D01*
X0056218Y0268955D01*
X0056160Y0268837D01*
X0056099Y0268720D01*
X0056034Y0268606D01*
X0055966Y0268494D01*
X0055894Y0268384D01*
X0055819Y0268276D01*
X0055741Y0268170D01*
X0055660Y0268067D01*
X0055575Y0267966D01*
X0055488Y0267868D01*
X0055397Y0267773D01*
X0055304Y0267680D01*
X0055208Y0267590D01*
X0055109Y0267503D01*
X0055008Y0267420D01*
X0054904Y0267339D01*
X0054798Y0267262D01*
X0054689Y0267188D01*
X0054578Y0267117D01*
X0054466Y0267049D01*
X0054351Y0266985D01*
X0054234Y0266925D01*
X0054115Y0266868D01*
X0053995Y0266815D01*
X0053874Y0266765D01*
X0053750Y0266719D01*
X0053626Y0266677D01*
X0053500Y0266639D01*
X0053373Y0266604D01*
X0053245Y0266573D01*
X0053117Y0266547D01*
X0052987Y0266524D01*
X0052857Y0266505D01*
X0052727Y0266490D01*
X0052596Y0266479D01*
X0052464Y0266472D01*
X0052333Y0266469D01*
X0052201Y0266470D01*
X0052070Y0266475D01*
X0051939Y0266484D01*
X0051808Y0266497D01*
X0051678Y0266514D01*
X0051548Y0266535D01*
X0051419Y0266560D01*
X0051291Y0266588D01*
X0051163Y0266621D01*
X0051037Y0266657D01*
X0050912Y0266698D01*
X0050788Y0266742D01*
X0050665Y0266789D01*
X0050544Y0266841D01*
X0050425Y0266896D01*
X0050307Y0266955D01*
X0050192Y0267017D01*
X0050078Y0267083D01*
X0049966Y0267152D01*
X0049856Y0267224D01*
X0049749Y0267300D01*
X0049644Y0267379D01*
X0049541Y0267461D01*
X0049441Y0267546D01*
X0049344Y0267635D01*
X0049249Y0267726D01*
X0049157Y0267820D01*
X0049068Y0267917D01*
X0048982Y0268016D01*
X0048899Y0268118D01*
X0048819Y0268223D01*
X0048743Y0268329D01*
X0048670Y0268438D01*
X0048600Y0268550D01*
X0048533Y0268663D01*
X0048470Y0268778D01*
X0048410Y0268896D01*
X0048354Y0269014D01*
X0048302Y0269135D01*
X0048253Y0269257D01*
X0048208Y0269381D01*
X0048167Y0269505D01*
X0048130Y0269632D01*
X0048096Y0269759D01*
X0048066Y0269887D01*
X0048041Y0270016D01*
X0048019Y0270145D01*
X0048001Y0270275D01*
X0047987Y0270406D01*
X0047977Y0270537D01*
X0047971Y0270669D01*
X0047969Y0270800D01*
X0047969Y0340800D02*
X0047971Y0340931D01*
X0047977Y0341063D01*
X0047987Y0341194D01*
X0048001Y0341325D01*
X0048019Y0341455D01*
X0048041Y0341584D01*
X0048066Y0341713D01*
X0048096Y0341841D01*
X0048130Y0341968D01*
X0048167Y0342095D01*
X0048208Y0342219D01*
X0048253Y0342343D01*
X0048302Y0342465D01*
X0048354Y0342586D01*
X0048410Y0342704D01*
X0048470Y0342822D01*
X0048533Y0342937D01*
X0048600Y0343050D01*
X0048670Y0343162D01*
X0048743Y0343271D01*
X0048819Y0343377D01*
X0048899Y0343482D01*
X0048982Y0343584D01*
X0049068Y0343683D01*
X0049157Y0343780D01*
X0049249Y0343874D01*
X0049344Y0343965D01*
X0049441Y0344054D01*
X0049541Y0344139D01*
X0049644Y0344221D01*
X0049749Y0344300D01*
X0049856Y0344376D01*
X0049966Y0344448D01*
X0050078Y0344517D01*
X0050192Y0344583D01*
X0050307Y0344645D01*
X0050425Y0344704D01*
X0050544Y0344759D01*
X0050665Y0344811D01*
X0050788Y0344858D01*
X0050912Y0344902D01*
X0051037Y0344943D01*
X0051163Y0344979D01*
X0051291Y0345012D01*
X0051419Y0345040D01*
X0051548Y0345065D01*
X0051678Y0345086D01*
X0051808Y0345103D01*
X0051939Y0345116D01*
X0052070Y0345125D01*
X0052201Y0345130D01*
X0052333Y0345131D01*
X0052464Y0345128D01*
X0052596Y0345121D01*
X0052727Y0345110D01*
X0052857Y0345095D01*
X0052987Y0345076D01*
X0053117Y0345053D01*
X0053245Y0345027D01*
X0053373Y0344996D01*
X0053500Y0344961D01*
X0053626Y0344923D01*
X0053750Y0344881D01*
X0053874Y0344835D01*
X0053995Y0344785D01*
X0054115Y0344732D01*
X0054234Y0344675D01*
X0054351Y0344615D01*
X0054465Y0344551D01*
X0054578Y0344483D01*
X0054689Y0344412D01*
X0054798Y0344338D01*
X0054904Y0344261D01*
X0055008Y0344180D01*
X0055109Y0344097D01*
X0055208Y0344010D01*
X0055304Y0343920D01*
X0055397Y0343827D01*
X0055488Y0343732D01*
X0055575Y0343634D01*
X0055660Y0343533D01*
X0055741Y0343430D01*
X0055819Y0343324D01*
X0055894Y0343216D01*
X0055966Y0343106D01*
X0056034Y0342994D01*
X0056099Y0342880D01*
X0056160Y0342763D01*
X0056218Y0342645D01*
X0056272Y0342525D01*
X0056323Y0342404D01*
X0056370Y0342281D01*
X0056413Y0342157D01*
X0056452Y0342032D01*
X0056488Y0341905D01*
X0056519Y0341777D01*
X0056547Y0341649D01*
X0056571Y0341520D01*
X0056591Y0341390D01*
X0056607Y0341259D01*
X0056619Y0341128D01*
X0056627Y0340997D01*
X0056631Y0340866D01*
X0056631Y0340734D01*
X0056627Y0340603D01*
X0056619Y0340472D01*
X0056607Y0340341D01*
X0056591Y0340210D01*
X0056571Y0340080D01*
X0056547Y0339951D01*
X0056519Y0339823D01*
X0056488Y0339695D01*
X0056452Y0339568D01*
X0056413Y0339443D01*
X0056370Y0339319D01*
X0056323Y0339196D01*
X0056272Y0339075D01*
X0056218Y0338955D01*
X0056160Y0338837D01*
X0056099Y0338720D01*
X0056034Y0338606D01*
X0055966Y0338494D01*
X0055894Y0338384D01*
X0055819Y0338276D01*
X0055741Y0338170D01*
X0055660Y0338067D01*
X0055575Y0337966D01*
X0055488Y0337868D01*
X0055397Y0337773D01*
X0055304Y0337680D01*
X0055208Y0337590D01*
X0055109Y0337503D01*
X0055008Y0337420D01*
X0054904Y0337339D01*
X0054798Y0337262D01*
X0054689Y0337188D01*
X0054578Y0337117D01*
X0054466Y0337049D01*
X0054351Y0336985D01*
X0054234Y0336925D01*
X0054115Y0336868D01*
X0053995Y0336815D01*
X0053874Y0336765D01*
X0053750Y0336719D01*
X0053626Y0336677D01*
X0053500Y0336639D01*
X0053373Y0336604D01*
X0053245Y0336573D01*
X0053117Y0336547D01*
X0052987Y0336524D01*
X0052857Y0336505D01*
X0052727Y0336490D01*
X0052596Y0336479D01*
X0052464Y0336472D01*
X0052333Y0336469D01*
X0052201Y0336470D01*
X0052070Y0336475D01*
X0051939Y0336484D01*
X0051808Y0336497D01*
X0051678Y0336514D01*
X0051548Y0336535D01*
X0051419Y0336560D01*
X0051291Y0336588D01*
X0051163Y0336621D01*
X0051037Y0336657D01*
X0050912Y0336698D01*
X0050788Y0336742D01*
X0050665Y0336789D01*
X0050544Y0336841D01*
X0050425Y0336896D01*
X0050307Y0336955D01*
X0050192Y0337017D01*
X0050078Y0337083D01*
X0049966Y0337152D01*
X0049856Y0337224D01*
X0049749Y0337300D01*
X0049644Y0337379D01*
X0049541Y0337461D01*
X0049441Y0337546D01*
X0049344Y0337635D01*
X0049249Y0337726D01*
X0049157Y0337820D01*
X0049068Y0337917D01*
X0048982Y0338016D01*
X0048899Y0338118D01*
X0048819Y0338223D01*
X0048743Y0338329D01*
X0048670Y0338438D01*
X0048600Y0338550D01*
X0048533Y0338663D01*
X0048470Y0338778D01*
X0048410Y0338896D01*
X0048354Y0339014D01*
X0048302Y0339135D01*
X0048253Y0339257D01*
X0048208Y0339381D01*
X0048167Y0339505D01*
X0048130Y0339632D01*
X0048096Y0339759D01*
X0048066Y0339887D01*
X0048041Y0340016D01*
X0048019Y0340145D01*
X0048001Y0340275D01*
X0047987Y0340406D01*
X0047977Y0340537D01*
X0047971Y0340669D01*
X0047969Y0340800D01*
X0047969Y0410800D02*
X0047971Y0410931D01*
X0047977Y0411063D01*
X0047987Y0411194D01*
X0048001Y0411325D01*
X0048019Y0411455D01*
X0048041Y0411584D01*
X0048066Y0411713D01*
X0048096Y0411841D01*
X0048130Y0411968D01*
X0048167Y0412095D01*
X0048208Y0412219D01*
X0048253Y0412343D01*
X0048302Y0412465D01*
X0048354Y0412586D01*
X0048410Y0412704D01*
X0048470Y0412822D01*
X0048533Y0412937D01*
X0048600Y0413050D01*
X0048670Y0413162D01*
X0048743Y0413271D01*
X0048819Y0413377D01*
X0048899Y0413482D01*
X0048982Y0413584D01*
X0049068Y0413683D01*
X0049157Y0413780D01*
X0049249Y0413874D01*
X0049344Y0413965D01*
X0049441Y0414054D01*
X0049541Y0414139D01*
X0049644Y0414221D01*
X0049749Y0414300D01*
X0049856Y0414376D01*
X0049966Y0414448D01*
X0050078Y0414517D01*
X0050192Y0414583D01*
X0050307Y0414645D01*
X0050425Y0414704D01*
X0050544Y0414759D01*
X0050665Y0414811D01*
X0050788Y0414858D01*
X0050912Y0414902D01*
X0051037Y0414943D01*
X0051163Y0414979D01*
X0051291Y0415012D01*
X0051419Y0415040D01*
X0051548Y0415065D01*
X0051678Y0415086D01*
X0051808Y0415103D01*
X0051939Y0415116D01*
X0052070Y0415125D01*
X0052201Y0415130D01*
X0052333Y0415131D01*
X0052464Y0415128D01*
X0052596Y0415121D01*
X0052727Y0415110D01*
X0052857Y0415095D01*
X0052987Y0415076D01*
X0053117Y0415053D01*
X0053245Y0415027D01*
X0053373Y0414996D01*
X0053500Y0414961D01*
X0053626Y0414923D01*
X0053750Y0414881D01*
X0053874Y0414835D01*
X0053995Y0414785D01*
X0054115Y0414732D01*
X0054234Y0414675D01*
X0054351Y0414615D01*
X0054465Y0414551D01*
X0054578Y0414483D01*
X0054689Y0414412D01*
X0054798Y0414338D01*
X0054904Y0414261D01*
X0055008Y0414180D01*
X0055109Y0414097D01*
X0055208Y0414010D01*
X0055304Y0413920D01*
X0055397Y0413827D01*
X0055488Y0413732D01*
X0055575Y0413634D01*
X0055660Y0413533D01*
X0055741Y0413430D01*
X0055819Y0413324D01*
X0055894Y0413216D01*
X0055966Y0413106D01*
X0056034Y0412994D01*
X0056099Y0412880D01*
X0056160Y0412763D01*
X0056218Y0412645D01*
X0056272Y0412525D01*
X0056323Y0412404D01*
X0056370Y0412281D01*
X0056413Y0412157D01*
X0056452Y0412032D01*
X0056488Y0411905D01*
X0056519Y0411777D01*
X0056547Y0411649D01*
X0056571Y0411520D01*
X0056591Y0411390D01*
X0056607Y0411259D01*
X0056619Y0411128D01*
X0056627Y0410997D01*
X0056631Y0410866D01*
X0056631Y0410734D01*
X0056627Y0410603D01*
X0056619Y0410472D01*
X0056607Y0410341D01*
X0056591Y0410210D01*
X0056571Y0410080D01*
X0056547Y0409951D01*
X0056519Y0409823D01*
X0056488Y0409695D01*
X0056452Y0409568D01*
X0056413Y0409443D01*
X0056370Y0409319D01*
X0056323Y0409196D01*
X0056272Y0409075D01*
X0056218Y0408955D01*
X0056160Y0408837D01*
X0056099Y0408720D01*
X0056034Y0408606D01*
X0055966Y0408494D01*
X0055894Y0408384D01*
X0055819Y0408276D01*
X0055741Y0408170D01*
X0055660Y0408067D01*
X0055575Y0407966D01*
X0055488Y0407868D01*
X0055397Y0407773D01*
X0055304Y0407680D01*
X0055208Y0407590D01*
X0055109Y0407503D01*
X0055008Y0407420D01*
X0054904Y0407339D01*
X0054798Y0407262D01*
X0054689Y0407188D01*
X0054578Y0407117D01*
X0054466Y0407049D01*
X0054351Y0406985D01*
X0054234Y0406925D01*
X0054115Y0406868D01*
X0053995Y0406815D01*
X0053874Y0406765D01*
X0053750Y0406719D01*
X0053626Y0406677D01*
X0053500Y0406639D01*
X0053373Y0406604D01*
X0053245Y0406573D01*
X0053117Y0406547D01*
X0052987Y0406524D01*
X0052857Y0406505D01*
X0052727Y0406490D01*
X0052596Y0406479D01*
X0052464Y0406472D01*
X0052333Y0406469D01*
X0052201Y0406470D01*
X0052070Y0406475D01*
X0051939Y0406484D01*
X0051808Y0406497D01*
X0051678Y0406514D01*
X0051548Y0406535D01*
X0051419Y0406560D01*
X0051291Y0406588D01*
X0051163Y0406621D01*
X0051037Y0406657D01*
X0050912Y0406698D01*
X0050788Y0406742D01*
X0050665Y0406789D01*
X0050544Y0406841D01*
X0050425Y0406896D01*
X0050307Y0406955D01*
X0050192Y0407017D01*
X0050078Y0407083D01*
X0049966Y0407152D01*
X0049856Y0407224D01*
X0049749Y0407300D01*
X0049644Y0407379D01*
X0049541Y0407461D01*
X0049441Y0407546D01*
X0049344Y0407635D01*
X0049249Y0407726D01*
X0049157Y0407820D01*
X0049068Y0407917D01*
X0048982Y0408016D01*
X0048899Y0408118D01*
X0048819Y0408223D01*
X0048743Y0408329D01*
X0048670Y0408438D01*
X0048600Y0408550D01*
X0048533Y0408663D01*
X0048470Y0408778D01*
X0048410Y0408896D01*
X0048354Y0409014D01*
X0048302Y0409135D01*
X0048253Y0409257D01*
X0048208Y0409381D01*
X0048167Y0409505D01*
X0048130Y0409632D01*
X0048096Y0409759D01*
X0048066Y0409887D01*
X0048041Y0410016D01*
X0048019Y0410145D01*
X0048001Y0410275D01*
X0047987Y0410406D01*
X0047977Y0410537D01*
X0047971Y0410669D01*
X0047969Y0410800D01*
X0012394Y0429800D02*
X0012396Y0429953D01*
X0012402Y0430107D01*
X0012412Y0430260D01*
X0012426Y0430412D01*
X0012444Y0430565D01*
X0012466Y0430716D01*
X0012491Y0430867D01*
X0012521Y0431018D01*
X0012555Y0431168D01*
X0012592Y0431316D01*
X0012633Y0431464D01*
X0012678Y0431610D01*
X0012727Y0431756D01*
X0012780Y0431900D01*
X0012836Y0432042D01*
X0012896Y0432183D01*
X0012960Y0432323D01*
X0013027Y0432461D01*
X0013098Y0432597D01*
X0013173Y0432731D01*
X0013250Y0432863D01*
X0013332Y0432993D01*
X0013416Y0433121D01*
X0013504Y0433247D01*
X0013595Y0433370D01*
X0013689Y0433491D01*
X0013787Y0433609D01*
X0013887Y0433725D01*
X0013991Y0433838D01*
X0014097Y0433949D01*
X0014206Y0434057D01*
X0014318Y0434162D01*
X0014432Y0434263D01*
X0014550Y0434362D01*
X0014669Y0434458D01*
X0014791Y0434551D01*
X0014916Y0434640D01*
X0015043Y0434727D01*
X0015172Y0434809D01*
X0015303Y0434889D01*
X0015436Y0434965D01*
X0015571Y0435038D01*
X0015708Y0435107D01*
X0015847Y0435172D01*
X0015987Y0435234D01*
X0016129Y0435292D01*
X0016272Y0435347D01*
X0016417Y0435398D01*
X0016563Y0435445D01*
X0016710Y0435488D01*
X0016858Y0435527D01*
X0017007Y0435563D01*
X0017157Y0435594D01*
X0017308Y0435622D01*
X0017459Y0435646D01*
X0017612Y0435666D01*
X0017764Y0435682D01*
X0017917Y0435694D01*
X0018070Y0435702D01*
X0018223Y0435706D01*
X0018377Y0435706D01*
X0018530Y0435702D01*
X0018683Y0435694D01*
X0018836Y0435682D01*
X0018988Y0435666D01*
X0019141Y0435646D01*
X0019292Y0435622D01*
X0019443Y0435594D01*
X0019593Y0435563D01*
X0019742Y0435527D01*
X0019890Y0435488D01*
X0020037Y0435445D01*
X0020183Y0435398D01*
X0020328Y0435347D01*
X0020471Y0435292D01*
X0020613Y0435234D01*
X0020753Y0435172D01*
X0020892Y0435107D01*
X0021029Y0435038D01*
X0021164Y0434965D01*
X0021297Y0434889D01*
X0021428Y0434809D01*
X0021557Y0434727D01*
X0021684Y0434640D01*
X0021809Y0434551D01*
X0021931Y0434458D01*
X0022050Y0434362D01*
X0022168Y0434263D01*
X0022282Y0434162D01*
X0022394Y0434057D01*
X0022503Y0433949D01*
X0022609Y0433838D01*
X0022713Y0433725D01*
X0022813Y0433609D01*
X0022911Y0433491D01*
X0023005Y0433370D01*
X0023096Y0433247D01*
X0023184Y0433121D01*
X0023268Y0432993D01*
X0023350Y0432863D01*
X0023427Y0432731D01*
X0023502Y0432597D01*
X0023573Y0432461D01*
X0023640Y0432323D01*
X0023704Y0432183D01*
X0023764Y0432042D01*
X0023820Y0431900D01*
X0023873Y0431756D01*
X0023922Y0431610D01*
X0023967Y0431464D01*
X0024008Y0431316D01*
X0024045Y0431168D01*
X0024079Y0431018D01*
X0024109Y0430867D01*
X0024134Y0430716D01*
X0024156Y0430565D01*
X0024174Y0430412D01*
X0024188Y0430260D01*
X0024198Y0430107D01*
X0024204Y0429953D01*
X0024206Y0429800D01*
X0024204Y0429647D01*
X0024198Y0429493D01*
X0024188Y0429340D01*
X0024174Y0429188D01*
X0024156Y0429035D01*
X0024134Y0428884D01*
X0024109Y0428733D01*
X0024079Y0428582D01*
X0024045Y0428432D01*
X0024008Y0428284D01*
X0023967Y0428136D01*
X0023922Y0427990D01*
X0023873Y0427844D01*
X0023820Y0427700D01*
X0023764Y0427558D01*
X0023704Y0427417D01*
X0023640Y0427277D01*
X0023573Y0427139D01*
X0023502Y0427003D01*
X0023427Y0426869D01*
X0023350Y0426737D01*
X0023268Y0426607D01*
X0023184Y0426479D01*
X0023096Y0426353D01*
X0023005Y0426230D01*
X0022911Y0426109D01*
X0022813Y0425991D01*
X0022713Y0425875D01*
X0022609Y0425762D01*
X0022503Y0425651D01*
X0022394Y0425543D01*
X0022282Y0425438D01*
X0022168Y0425337D01*
X0022050Y0425238D01*
X0021931Y0425142D01*
X0021809Y0425049D01*
X0021684Y0424960D01*
X0021557Y0424873D01*
X0021428Y0424791D01*
X0021297Y0424711D01*
X0021164Y0424635D01*
X0021029Y0424562D01*
X0020892Y0424493D01*
X0020753Y0424428D01*
X0020613Y0424366D01*
X0020471Y0424308D01*
X0020328Y0424253D01*
X0020183Y0424202D01*
X0020037Y0424155D01*
X0019890Y0424112D01*
X0019742Y0424073D01*
X0019593Y0424037D01*
X0019443Y0424006D01*
X0019292Y0423978D01*
X0019141Y0423954D01*
X0018988Y0423934D01*
X0018836Y0423918D01*
X0018683Y0423906D01*
X0018530Y0423898D01*
X0018377Y0423894D01*
X0018223Y0423894D01*
X0018070Y0423898D01*
X0017917Y0423906D01*
X0017764Y0423918D01*
X0017612Y0423934D01*
X0017459Y0423954D01*
X0017308Y0423978D01*
X0017157Y0424006D01*
X0017007Y0424037D01*
X0016858Y0424073D01*
X0016710Y0424112D01*
X0016563Y0424155D01*
X0016417Y0424202D01*
X0016272Y0424253D01*
X0016129Y0424308D01*
X0015987Y0424366D01*
X0015847Y0424428D01*
X0015708Y0424493D01*
X0015571Y0424562D01*
X0015436Y0424635D01*
X0015303Y0424711D01*
X0015172Y0424791D01*
X0015043Y0424873D01*
X0014916Y0424960D01*
X0014791Y0425049D01*
X0014669Y0425142D01*
X0014550Y0425238D01*
X0014432Y0425337D01*
X0014318Y0425438D01*
X0014206Y0425543D01*
X0014097Y0425651D01*
X0013991Y0425762D01*
X0013887Y0425875D01*
X0013787Y0425991D01*
X0013689Y0426109D01*
X0013595Y0426230D01*
X0013504Y0426353D01*
X0013416Y0426479D01*
X0013332Y0426607D01*
X0013250Y0426737D01*
X0013173Y0426869D01*
X0013098Y0427003D01*
X0013027Y0427139D01*
X0012960Y0427277D01*
X0012896Y0427417D01*
X0012836Y0427558D01*
X0012780Y0427700D01*
X0012727Y0427844D01*
X0012678Y0427990D01*
X0012633Y0428136D01*
X0012592Y0428284D01*
X0012555Y0428432D01*
X0012521Y0428582D01*
X0012491Y0428733D01*
X0012466Y0428884D01*
X0012444Y0429035D01*
X0012426Y0429188D01*
X0012412Y0429340D01*
X0012402Y0429493D01*
X0012396Y0429647D01*
X0012394Y0429800D01*
X0565817Y0410431D02*
X0565819Y0410562D01*
X0565825Y0410694D01*
X0565835Y0410825D01*
X0565849Y0410956D01*
X0565867Y0411086D01*
X0565889Y0411215D01*
X0565914Y0411344D01*
X0565944Y0411472D01*
X0565978Y0411599D01*
X0566015Y0411726D01*
X0566056Y0411850D01*
X0566101Y0411974D01*
X0566150Y0412096D01*
X0566202Y0412217D01*
X0566258Y0412335D01*
X0566318Y0412453D01*
X0566381Y0412568D01*
X0566448Y0412681D01*
X0566518Y0412793D01*
X0566591Y0412902D01*
X0566667Y0413008D01*
X0566747Y0413113D01*
X0566830Y0413215D01*
X0566916Y0413314D01*
X0567005Y0413411D01*
X0567097Y0413505D01*
X0567192Y0413596D01*
X0567289Y0413685D01*
X0567389Y0413770D01*
X0567492Y0413852D01*
X0567597Y0413931D01*
X0567704Y0414007D01*
X0567814Y0414079D01*
X0567926Y0414148D01*
X0568040Y0414214D01*
X0568155Y0414276D01*
X0568273Y0414335D01*
X0568392Y0414390D01*
X0568513Y0414442D01*
X0568636Y0414489D01*
X0568760Y0414533D01*
X0568885Y0414574D01*
X0569011Y0414610D01*
X0569139Y0414643D01*
X0569267Y0414671D01*
X0569396Y0414696D01*
X0569526Y0414717D01*
X0569656Y0414734D01*
X0569787Y0414747D01*
X0569918Y0414756D01*
X0570049Y0414761D01*
X0570181Y0414762D01*
X0570312Y0414759D01*
X0570444Y0414752D01*
X0570575Y0414741D01*
X0570705Y0414726D01*
X0570835Y0414707D01*
X0570965Y0414684D01*
X0571093Y0414658D01*
X0571221Y0414627D01*
X0571348Y0414592D01*
X0571474Y0414554D01*
X0571598Y0414512D01*
X0571722Y0414466D01*
X0571843Y0414416D01*
X0571963Y0414363D01*
X0572082Y0414306D01*
X0572199Y0414246D01*
X0572313Y0414182D01*
X0572426Y0414114D01*
X0572537Y0414043D01*
X0572646Y0413969D01*
X0572752Y0413892D01*
X0572856Y0413811D01*
X0572957Y0413728D01*
X0573056Y0413641D01*
X0573152Y0413551D01*
X0573245Y0413458D01*
X0573336Y0413363D01*
X0573423Y0413265D01*
X0573508Y0413164D01*
X0573589Y0413061D01*
X0573667Y0412955D01*
X0573742Y0412847D01*
X0573814Y0412737D01*
X0573882Y0412625D01*
X0573947Y0412511D01*
X0574008Y0412394D01*
X0574066Y0412276D01*
X0574120Y0412156D01*
X0574171Y0412035D01*
X0574218Y0411912D01*
X0574261Y0411788D01*
X0574300Y0411663D01*
X0574336Y0411536D01*
X0574367Y0411408D01*
X0574395Y0411280D01*
X0574419Y0411151D01*
X0574439Y0411021D01*
X0574455Y0410890D01*
X0574467Y0410759D01*
X0574475Y0410628D01*
X0574479Y0410497D01*
X0574479Y0410365D01*
X0574475Y0410234D01*
X0574467Y0410103D01*
X0574455Y0409972D01*
X0574439Y0409841D01*
X0574419Y0409711D01*
X0574395Y0409582D01*
X0574367Y0409454D01*
X0574336Y0409326D01*
X0574300Y0409199D01*
X0574261Y0409074D01*
X0574218Y0408950D01*
X0574171Y0408827D01*
X0574120Y0408706D01*
X0574066Y0408586D01*
X0574008Y0408468D01*
X0573947Y0408351D01*
X0573882Y0408237D01*
X0573814Y0408125D01*
X0573742Y0408015D01*
X0573667Y0407907D01*
X0573589Y0407801D01*
X0573508Y0407698D01*
X0573423Y0407597D01*
X0573336Y0407499D01*
X0573245Y0407404D01*
X0573152Y0407311D01*
X0573056Y0407221D01*
X0572957Y0407134D01*
X0572856Y0407051D01*
X0572752Y0406970D01*
X0572646Y0406893D01*
X0572537Y0406819D01*
X0572426Y0406748D01*
X0572314Y0406680D01*
X0572199Y0406616D01*
X0572082Y0406556D01*
X0571963Y0406499D01*
X0571843Y0406446D01*
X0571722Y0406396D01*
X0571598Y0406350D01*
X0571474Y0406308D01*
X0571348Y0406270D01*
X0571221Y0406235D01*
X0571093Y0406204D01*
X0570965Y0406178D01*
X0570835Y0406155D01*
X0570705Y0406136D01*
X0570575Y0406121D01*
X0570444Y0406110D01*
X0570312Y0406103D01*
X0570181Y0406100D01*
X0570049Y0406101D01*
X0569918Y0406106D01*
X0569787Y0406115D01*
X0569656Y0406128D01*
X0569526Y0406145D01*
X0569396Y0406166D01*
X0569267Y0406191D01*
X0569139Y0406219D01*
X0569011Y0406252D01*
X0568885Y0406288D01*
X0568760Y0406329D01*
X0568636Y0406373D01*
X0568513Y0406420D01*
X0568392Y0406472D01*
X0568273Y0406527D01*
X0568155Y0406586D01*
X0568040Y0406648D01*
X0567926Y0406714D01*
X0567814Y0406783D01*
X0567704Y0406855D01*
X0567597Y0406931D01*
X0567492Y0407010D01*
X0567389Y0407092D01*
X0567289Y0407177D01*
X0567192Y0407266D01*
X0567097Y0407357D01*
X0567005Y0407451D01*
X0566916Y0407548D01*
X0566830Y0407647D01*
X0566747Y0407749D01*
X0566667Y0407854D01*
X0566591Y0407960D01*
X0566518Y0408069D01*
X0566448Y0408181D01*
X0566381Y0408294D01*
X0566318Y0408409D01*
X0566258Y0408527D01*
X0566202Y0408645D01*
X0566150Y0408766D01*
X0566101Y0408888D01*
X0566056Y0409012D01*
X0566015Y0409136D01*
X0565978Y0409263D01*
X0565944Y0409390D01*
X0565914Y0409518D01*
X0565889Y0409647D01*
X0565867Y0409776D01*
X0565849Y0409906D01*
X0565835Y0410037D01*
X0565825Y0410168D01*
X0565819Y0410300D01*
X0565817Y0410431D01*
X0595394Y0429800D02*
X0595396Y0429953D01*
X0595402Y0430107D01*
X0595412Y0430260D01*
X0595426Y0430412D01*
X0595444Y0430565D01*
X0595466Y0430716D01*
X0595491Y0430867D01*
X0595521Y0431018D01*
X0595555Y0431168D01*
X0595592Y0431316D01*
X0595633Y0431464D01*
X0595678Y0431610D01*
X0595727Y0431756D01*
X0595780Y0431900D01*
X0595836Y0432042D01*
X0595896Y0432183D01*
X0595960Y0432323D01*
X0596027Y0432461D01*
X0596098Y0432597D01*
X0596173Y0432731D01*
X0596250Y0432863D01*
X0596332Y0432993D01*
X0596416Y0433121D01*
X0596504Y0433247D01*
X0596595Y0433370D01*
X0596689Y0433491D01*
X0596787Y0433609D01*
X0596887Y0433725D01*
X0596991Y0433838D01*
X0597097Y0433949D01*
X0597206Y0434057D01*
X0597318Y0434162D01*
X0597432Y0434263D01*
X0597550Y0434362D01*
X0597669Y0434458D01*
X0597791Y0434551D01*
X0597916Y0434640D01*
X0598043Y0434727D01*
X0598172Y0434809D01*
X0598303Y0434889D01*
X0598436Y0434965D01*
X0598571Y0435038D01*
X0598708Y0435107D01*
X0598847Y0435172D01*
X0598987Y0435234D01*
X0599129Y0435292D01*
X0599272Y0435347D01*
X0599417Y0435398D01*
X0599563Y0435445D01*
X0599710Y0435488D01*
X0599858Y0435527D01*
X0600007Y0435563D01*
X0600157Y0435594D01*
X0600308Y0435622D01*
X0600459Y0435646D01*
X0600612Y0435666D01*
X0600764Y0435682D01*
X0600917Y0435694D01*
X0601070Y0435702D01*
X0601223Y0435706D01*
X0601377Y0435706D01*
X0601530Y0435702D01*
X0601683Y0435694D01*
X0601836Y0435682D01*
X0601988Y0435666D01*
X0602141Y0435646D01*
X0602292Y0435622D01*
X0602443Y0435594D01*
X0602593Y0435563D01*
X0602742Y0435527D01*
X0602890Y0435488D01*
X0603037Y0435445D01*
X0603183Y0435398D01*
X0603328Y0435347D01*
X0603471Y0435292D01*
X0603613Y0435234D01*
X0603753Y0435172D01*
X0603892Y0435107D01*
X0604029Y0435038D01*
X0604164Y0434965D01*
X0604297Y0434889D01*
X0604428Y0434809D01*
X0604557Y0434727D01*
X0604684Y0434640D01*
X0604809Y0434551D01*
X0604931Y0434458D01*
X0605050Y0434362D01*
X0605168Y0434263D01*
X0605282Y0434162D01*
X0605394Y0434057D01*
X0605503Y0433949D01*
X0605609Y0433838D01*
X0605713Y0433725D01*
X0605813Y0433609D01*
X0605911Y0433491D01*
X0606005Y0433370D01*
X0606096Y0433247D01*
X0606184Y0433121D01*
X0606268Y0432993D01*
X0606350Y0432863D01*
X0606427Y0432731D01*
X0606502Y0432597D01*
X0606573Y0432461D01*
X0606640Y0432323D01*
X0606704Y0432183D01*
X0606764Y0432042D01*
X0606820Y0431900D01*
X0606873Y0431756D01*
X0606922Y0431610D01*
X0606967Y0431464D01*
X0607008Y0431316D01*
X0607045Y0431168D01*
X0607079Y0431018D01*
X0607109Y0430867D01*
X0607134Y0430716D01*
X0607156Y0430565D01*
X0607174Y0430412D01*
X0607188Y0430260D01*
X0607198Y0430107D01*
X0607204Y0429953D01*
X0607206Y0429800D01*
X0607204Y0429647D01*
X0607198Y0429493D01*
X0607188Y0429340D01*
X0607174Y0429188D01*
X0607156Y0429035D01*
X0607134Y0428884D01*
X0607109Y0428733D01*
X0607079Y0428582D01*
X0607045Y0428432D01*
X0607008Y0428284D01*
X0606967Y0428136D01*
X0606922Y0427990D01*
X0606873Y0427844D01*
X0606820Y0427700D01*
X0606764Y0427558D01*
X0606704Y0427417D01*
X0606640Y0427277D01*
X0606573Y0427139D01*
X0606502Y0427003D01*
X0606427Y0426869D01*
X0606350Y0426737D01*
X0606268Y0426607D01*
X0606184Y0426479D01*
X0606096Y0426353D01*
X0606005Y0426230D01*
X0605911Y0426109D01*
X0605813Y0425991D01*
X0605713Y0425875D01*
X0605609Y0425762D01*
X0605503Y0425651D01*
X0605394Y0425543D01*
X0605282Y0425438D01*
X0605168Y0425337D01*
X0605050Y0425238D01*
X0604931Y0425142D01*
X0604809Y0425049D01*
X0604684Y0424960D01*
X0604557Y0424873D01*
X0604428Y0424791D01*
X0604297Y0424711D01*
X0604164Y0424635D01*
X0604029Y0424562D01*
X0603892Y0424493D01*
X0603753Y0424428D01*
X0603613Y0424366D01*
X0603471Y0424308D01*
X0603328Y0424253D01*
X0603183Y0424202D01*
X0603037Y0424155D01*
X0602890Y0424112D01*
X0602742Y0424073D01*
X0602593Y0424037D01*
X0602443Y0424006D01*
X0602292Y0423978D01*
X0602141Y0423954D01*
X0601988Y0423934D01*
X0601836Y0423918D01*
X0601683Y0423906D01*
X0601530Y0423898D01*
X0601377Y0423894D01*
X0601223Y0423894D01*
X0601070Y0423898D01*
X0600917Y0423906D01*
X0600764Y0423918D01*
X0600612Y0423934D01*
X0600459Y0423954D01*
X0600308Y0423978D01*
X0600157Y0424006D01*
X0600007Y0424037D01*
X0599858Y0424073D01*
X0599710Y0424112D01*
X0599563Y0424155D01*
X0599417Y0424202D01*
X0599272Y0424253D01*
X0599129Y0424308D01*
X0598987Y0424366D01*
X0598847Y0424428D01*
X0598708Y0424493D01*
X0598571Y0424562D01*
X0598436Y0424635D01*
X0598303Y0424711D01*
X0598172Y0424791D01*
X0598043Y0424873D01*
X0597916Y0424960D01*
X0597791Y0425049D01*
X0597669Y0425142D01*
X0597550Y0425238D01*
X0597432Y0425337D01*
X0597318Y0425438D01*
X0597206Y0425543D01*
X0597097Y0425651D01*
X0596991Y0425762D01*
X0596887Y0425875D01*
X0596787Y0425991D01*
X0596689Y0426109D01*
X0596595Y0426230D01*
X0596504Y0426353D01*
X0596416Y0426479D01*
X0596332Y0426607D01*
X0596250Y0426737D01*
X0596173Y0426869D01*
X0596098Y0427003D01*
X0596027Y0427139D01*
X0595960Y0427277D01*
X0595896Y0427417D01*
X0595836Y0427558D01*
X0595780Y0427700D01*
X0595727Y0427844D01*
X0595678Y0427990D01*
X0595633Y0428136D01*
X0595592Y0428284D01*
X0595555Y0428432D01*
X0595521Y0428582D01*
X0595491Y0428733D01*
X0595466Y0428884D01*
X0595444Y0429035D01*
X0595426Y0429188D01*
X0595412Y0429340D01*
X0595402Y0429493D01*
X0595396Y0429647D01*
X0595394Y0429800D01*
X0565973Y0341583D02*
X0565975Y0341714D01*
X0565981Y0341846D01*
X0565991Y0341977D01*
X0566005Y0342108D01*
X0566023Y0342238D01*
X0566045Y0342367D01*
X0566070Y0342496D01*
X0566100Y0342624D01*
X0566134Y0342751D01*
X0566171Y0342878D01*
X0566212Y0343002D01*
X0566257Y0343126D01*
X0566306Y0343248D01*
X0566358Y0343369D01*
X0566414Y0343487D01*
X0566474Y0343605D01*
X0566537Y0343720D01*
X0566604Y0343833D01*
X0566674Y0343945D01*
X0566747Y0344054D01*
X0566823Y0344160D01*
X0566903Y0344265D01*
X0566986Y0344367D01*
X0567072Y0344466D01*
X0567161Y0344563D01*
X0567253Y0344657D01*
X0567348Y0344748D01*
X0567445Y0344837D01*
X0567545Y0344922D01*
X0567648Y0345004D01*
X0567753Y0345083D01*
X0567860Y0345159D01*
X0567970Y0345231D01*
X0568082Y0345300D01*
X0568196Y0345366D01*
X0568311Y0345428D01*
X0568429Y0345487D01*
X0568548Y0345542D01*
X0568669Y0345594D01*
X0568792Y0345641D01*
X0568916Y0345685D01*
X0569041Y0345726D01*
X0569167Y0345762D01*
X0569295Y0345795D01*
X0569423Y0345823D01*
X0569552Y0345848D01*
X0569682Y0345869D01*
X0569812Y0345886D01*
X0569943Y0345899D01*
X0570074Y0345908D01*
X0570205Y0345913D01*
X0570337Y0345914D01*
X0570468Y0345911D01*
X0570600Y0345904D01*
X0570731Y0345893D01*
X0570861Y0345878D01*
X0570991Y0345859D01*
X0571121Y0345836D01*
X0571249Y0345810D01*
X0571377Y0345779D01*
X0571504Y0345744D01*
X0571630Y0345706D01*
X0571754Y0345664D01*
X0571878Y0345618D01*
X0571999Y0345568D01*
X0572119Y0345515D01*
X0572238Y0345458D01*
X0572355Y0345398D01*
X0572469Y0345334D01*
X0572582Y0345266D01*
X0572693Y0345195D01*
X0572802Y0345121D01*
X0572908Y0345044D01*
X0573012Y0344963D01*
X0573113Y0344880D01*
X0573212Y0344793D01*
X0573308Y0344703D01*
X0573401Y0344610D01*
X0573492Y0344515D01*
X0573579Y0344417D01*
X0573664Y0344316D01*
X0573745Y0344213D01*
X0573823Y0344107D01*
X0573898Y0343999D01*
X0573970Y0343889D01*
X0574038Y0343777D01*
X0574103Y0343663D01*
X0574164Y0343546D01*
X0574222Y0343428D01*
X0574276Y0343308D01*
X0574327Y0343187D01*
X0574374Y0343064D01*
X0574417Y0342940D01*
X0574456Y0342815D01*
X0574492Y0342688D01*
X0574523Y0342560D01*
X0574551Y0342432D01*
X0574575Y0342303D01*
X0574595Y0342173D01*
X0574611Y0342042D01*
X0574623Y0341911D01*
X0574631Y0341780D01*
X0574635Y0341649D01*
X0574635Y0341517D01*
X0574631Y0341386D01*
X0574623Y0341255D01*
X0574611Y0341124D01*
X0574595Y0340993D01*
X0574575Y0340863D01*
X0574551Y0340734D01*
X0574523Y0340606D01*
X0574492Y0340478D01*
X0574456Y0340351D01*
X0574417Y0340226D01*
X0574374Y0340102D01*
X0574327Y0339979D01*
X0574276Y0339858D01*
X0574222Y0339738D01*
X0574164Y0339620D01*
X0574103Y0339503D01*
X0574038Y0339389D01*
X0573970Y0339277D01*
X0573898Y0339167D01*
X0573823Y0339059D01*
X0573745Y0338953D01*
X0573664Y0338850D01*
X0573579Y0338749D01*
X0573492Y0338651D01*
X0573401Y0338556D01*
X0573308Y0338463D01*
X0573212Y0338373D01*
X0573113Y0338286D01*
X0573012Y0338203D01*
X0572908Y0338122D01*
X0572802Y0338045D01*
X0572693Y0337971D01*
X0572582Y0337900D01*
X0572470Y0337832D01*
X0572355Y0337768D01*
X0572238Y0337708D01*
X0572119Y0337651D01*
X0571999Y0337598D01*
X0571878Y0337548D01*
X0571754Y0337502D01*
X0571630Y0337460D01*
X0571504Y0337422D01*
X0571377Y0337387D01*
X0571249Y0337356D01*
X0571121Y0337330D01*
X0570991Y0337307D01*
X0570861Y0337288D01*
X0570731Y0337273D01*
X0570600Y0337262D01*
X0570468Y0337255D01*
X0570337Y0337252D01*
X0570205Y0337253D01*
X0570074Y0337258D01*
X0569943Y0337267D01*
X0569812Y0337280D01*
X0569682Y0337297D01*
X0569552Y0337318D01*
X0569423Y0337343D01*
X0569295Y0337371D01*
X0569167Y0337404D01*
X0569041Y0337440D01*
X0568916Y0337481D01*
X0568792Y0337525D01*
X0568669Y0337572D01*
X0568548Y0337624D01*
X0568429Y0337679D01*
X0568311Y0337738D01*
X0568196Y0337800D01*
X0568082Y0337866D01*
X0567970Y0337935D01*
X0567860Y0338007D01*
X0567753Y0338083D01*
X0567648Y0338162D01*
X0567545Y0338244D01*
X0567445Y0338329D01*
X0567348Y0338418D01*
X0567253Y0338509D01*
X0567161Y0338603D01*
X0567072Y0338700D01*
X0566986Y0338799D01*
X0566903Y0338901D01*
X0566823Y0339006D01*
X0566747Y0339112D01*
X0566674Y0339221D01*
X0566604Y0339333D01*
X0566537Y0339446D01*
X0566474Y0339561D01*
X0566414Y0339679D01*
X0566358Y0339797D01*
X0566306Y0339918D01*
X0566257Y0340040D01*
X0566212Y0340164D01*
X0566171Y0340288D01*
X0566134Y0340415D01*
X0566100Y0340542D01*
X0566070Y0340670D01*
X0566045Y0340799D01*
X0566023Y0340928D01*
X0566005Y0341058D01*
X0565991Y0341189D01*
X0565981Y0341320D01*
X0565975Y0341452D01*
X0565973Y0341583D01*
X0565973Y0271033D02*
X0565975Y0271164D01*
X0565981Y0271296D01*
X0565991Y0271427D01*
X0566005Y0271558D01*
X0566023Y0271688D01*
X0566045Y0271817D01*
X0566070Y0271946D01*
X0566100Y0272074D01*
X0566134Y0272201D01*
X0566171Y0272328D01*
X0566212Y0272452D01*
X0566257Y0272576D01*
X0566306Y0272698D01*
X0566358Y0272819D01*
X0566414Y0272937D01*
X0566474Y0273055D01*
X0566537Y0273170D01*
X0566604Y0273283D01*
X0566674Y0273395D01*
X0566747Y0273504D01*
X0566823Y0273610D01*
X0566903Y0273715D01*
X0566986Y0273817D01*
X0567072Y0273916D01*
X0567161Y0274013D01*
X0567253Y0274107D01*
X0567348Y0274198D01*
X0567445Y0274287D01*
X0567545Y0274372D01*
X0567648Y0274454D01*
X0567753Y0274533D01*
X0567860Y0274609D01*
X0567970Y0274681D01*
X0568082Y0274750D01*
X0568196Y0274816D01*
X0568311Y0274878D01*
X0568429Y0274937D01*
X0568548Y0274992D01*
X0568669Y0275044D01*
X0568792Y0275091D01*
X0568916Y0275135D01*
X0569041Y0275176D01*
X0569167Y0275212D01*
X0569295Y0275245D01*
X0569423Y0275273D01*
X0569552Y0275298D01*
X0569682Y0275319D01*
X0569812Y0275336D01*
X0569943Y0275349D01*
X0570074Y0275358D01*
X0570205Y0275363D01*
X0570337Y0275364D01*
X0570468Y0275361D01*
X0570600Y0275354D01*
X0570731Y0275343D01*
X0570861Y0275328D01*
X0570991Y0275309D01*
X0571121Y0275286D01*
X0571249Y0275260D01*
X0571377Y0275229D01*
X0571504Y0275194D01*
X0571630Y0275156D01*
X0571754Y0275114D01*
X0571878Y0275068D01*
X0571999Y0275018D01*
X0572119Y0274965D01*
X0572238Y0274908D01*
X0572355Y0274848D01*
X0572469Y0274784D01*
X0572582Y0274716D01*
X0572693Y0274645D01*
X0572802Y0274571D01*
X0572908Y0274494D01*
X0573012Y0274413D01*
X0573113Y0274330D01*
X0573212Y0274243D01*
X0573308Y0274153D01*
X0573401Y0274060D01*
X0573492Y0273965D01*
X0573579Y0273867D01*
X0573664Y0273766D01*
X0573745Y0273663D01*
X0573823Y0273557D01*
X0573898Y0273449D01*
X0573970Y0273339D01*
X0574038Y0273227D01*
X0574103Y0273113D01*
X0574164Y0272996D01*
X0574222Y0272878D01*
X0574276Y0272758D01*
X0574327Y0272637D01*
X0574374Y0272514D01*
X0574417Y0272390D01*
X0574456Y0272265D01*
X0574492Y0272138D01*
X0574523Y0272010D01*
X0574551Y0271882D01*
X0574575Y0271753D01*
X0574595Y0271623D01*
X0574611Y0271492D01*
X0574623Y0271361D01*
X0574631Y0271230D01*
X0574635Y0271099D01*
X0574635Y0270967D01*
X0574631Y0270836D01*
X0574623Y0270705D01*
X0574611Y0270574D01*
X0574595Y0270443D01*
X0574575Y0270313D01*
X0574551Y0270184D01*
X0574523Y0270056D01*
X0574492Y0269928D01*
X0574456Y0269801D01*
X0574417Y0269676D01*
X0574374Y0269552D01*
X0574327Y0269429D01*
X0574276Y0269308D01*
X0574222Y0269188D01*
X0574164Y0269070D01*
X0574103Y0268953D01*
X0574038Y0268839D01*
X0573970Y0268727D01*
X0573898Y0268617D01*
X0573823Y0268509D01*
X0573745Y0268403D01*
X0573664Y0268300D01*
X0573579Y0268199D01*
X0573492Y0268101D01*
X0573401Y0268006D01*
X0573308Y0267913D01*
X0573212Y0267823D01*
X0573113Y0267736D01*
X0573012Y0267653D01*
X0572908Y0267572D01*
X0572802Y0267495D01*
X0572693Y0267421D01*
X0572582Y0267350D01*
X0572470Y0267282D01*
X0572355Y0267218D01*
X0572238Y0267158D01*
X0572119Y0267101D01*
X0571999Y0267048D01*
X0571878Y0266998D01*
X0571754Y0266952D01*
X0571630Y0266910D01*
X0571504Y0266872D01*
X0571377Y0266837D01*
X0571249Y0266806D01*
X0571121Y0266780D01*
X0570991Y0266757D01*
X0570861Y0266738D01*
X0570731Y0266723D01*
X0570600Y0266712D01*
X0570468Y0266705D01*
X0570337Y0266702D01*
X0570205Y0266703D01*
X0570074Y0266708D01*
X0569943Y0266717D01*
X0569812Y0266730D01*
X0569682Y0266747D01*
X0569552Y0266768D01*
X0569423Y0266793D01*
X0569295Y0266821D01*
X0569167Y0266854D01*
X0569041Y0266890D01*
X0568916Y0266931D01*
X0568792Y0266975D01*
X0568669Y0267022D01*
X0568548Y0267074D01*
X0568429Y0267129D01*
X0568311Y0267188D01*
X0568196Y0267250D01*
X0568082Y0267316D01*
X0567970Y0267385D01*
X0567860Y0267457D01*
X0567753Y0267533D01*
X0567648Y0267612D01*
X0567545Y0267694D01*
X0567445Y0267779D01*
X0567348Y0267868D01*
X0567253Y0267959D01*
X0567161Y0268053D01*
X0567072Y0268150D01*
X0566986Y0268249D01*
X0566903Y0268351D01*
X0566823Y0268456D01*
X0566747Y0268562D01*
X0566674Y0268671D01*
X0566604Y0268783D01*
X0566537Y0268896D01*
X0566474Y0269011D01*
X0566414Y0269129D01*
X0566358Y0269247D01*
X0566306Y0269368D01*
X0566257Y0269490D01*
X0566212Y0269614D01*
X0566171Y0269738D01*
X0566134Y0269865D01*
X0566100Y0269992D01*
X0566070Y0270120D01*
X0566045Y0270249D01*
X0566023Y0270378D01*
X0566005Y0270508D01*
X0565991Y0270639D01*
X0565981Y0270770D01*
X0565975Y0270902D01*
X0565973Y0271033D01*
X0565973Y0200356D02*
X0565975Y0200487D01*
X0565981Y0200619D01*
X0565991Y0200750D01*
X0566005Y0200881D01*
X0566023Y0201011D01*
X0566045Y0201140D01*
X0566070Y0201269D01*
X0566100Y0201397D01*
X0566134Y0201524D01*
X0566171Y0201651D01*
X0566212Y0201775D01*
X0566257Y0201899D01*
X0566306Y0202021D01*
X0566358Y0202142D01*
X0566414Y0202260D01*
X0566474Y0202378D01*
X0566537Y0202493D01*
X0566604Y0202606D01*
X0566674Y0202718D01*
X0566747Y0202827D01*
X0566823Y0202933D01*
X0566903Y0203038D01*
X0566986Y0203140D01*
X0567072Y0203239D01*
X0567161Y0203336D01*
X0567253Y0203430D01*
X0567348Y0203521D01*
X0567445Y0203610D01*
X0567545Y0203695D01*
X0567648Y0203777D01*
X0567753Y0203856D01*
X0567860Y0203932D01*
X0567970Y0204004D01*
X0568082Y0204073D01*
X0568196Y0204139D01*
X0568311Y0204201D01*
X0568429Y0204260D01*
X0568548Y0204315D01*
X0568669Y0204367D01*
X0568792Y0204414D01*
X0568916Y0204458D01*
X0569041Y0204499D01*
X0569167Y0204535D01*
X0569295Y0204568D01*
X0569423Y0204596D01*
X0569552Y0204621D01*
X0569682Y0204642D01*
X0569812Y0204659D01*
X0569943Y0204672D01*
X0570074Y0204681D01*
X0570205Y0204686D01*
X0570337Y0204687D01*
X0570468Y0204684D01*
X0570600Y0204677D01*
X0570731Y0204666D01*
X0570861Y0204651D01*
X0570991Y0204632D01*
X0571121Y0204609D01*
X0571249Y0204583D01*
X0571377Y0204552D01*
X0571504Y0204517D01*
X0571630Y0204479D01*
X0571754Y0204437D01*
X0571878Y0204391D01*
X0571999Y0204341D01*
X0572119Y0204288D01*
X0572238Y0204231D01*
X0572355Y0204171D01*
X0572469Y0204107D01*
X0572582Y0204039D01*
X0572693Y0203968D01*
X0572802Y0203894D01*
X0572908Y0203817D01*
X0573012Y0203736D01*
X0573113Y0203653D01*
X0573212Y0203566D01*
X0573308Y0203476D01*
X0573401Y0203383D01*
X0573492Y0203288D01*
X0573579Y0203190D01*
X0573664Y0203089D01*
X0573745Y0202986D01*
X0573823Y0202880D01*
X0573898Y0202772D01*
X0573970Y0202662D01*
X0574038Y0202550D01*
X0574103Y0202436D01*
X0574164Y0202319D01*
X0574222Y0202201D01*
X0574276Y0202081D01*
X0574327Y0201960D01*
X0574374Y0201837D01*
X0574417Y0201713D01*
X0574456Y0201588D01*
X0574492Y0201461D01*
X0574523Y0201333D01*
X0574551Y0201205D01*
X0574575Y0201076D01*
X0574595Y0200946D01*
X0574611Y0200815D01*
X0574623Y0200684D01*
X0574631Y0200553D01*
X0574635Y0200422D01*
X0574635Y0200290D01*
X0574631Y0200159D01*
X0574623Y0200028D01*
X0574611Y0199897D01*
X0574595Y0199766D01*
X0574575Y0199636D01*
X0574551Y0199507D01*
X0574523Y0199379D01*
X0574492Y0199251D01*
X0574456Y0199124D01*
X0574417Y0198999D01*
X0574374Y0198875D01*
X0574327Y0198752D01*
X0574276Y0198631D01*
X0574222Y0198511D01*
X0574164Y0198393D01*
X0574103Y0198276D01*
X0574038Y0198162D01*
X0573970Y0198050D01*
X0573898Y0197940D01*
X0573823Y0197832D01*
X0573745Y0197726D01*
X0573664Y0197623D01*
X0573579Y0197522D01*
X0573492Y0197424D01*
X0573401Y0197329D01*
X0573308Y0197236D01*
X0573212Y0197146D01*
X0573113Y0197059D01*
X0573012Y0196976D01*
X0572908Y0196895D01*
X0572802Y0196818D01*
X0572693Y0196744D01*
X0572582Y0196673D01*
X0572470Y0196605D01*
X0572355Y0196541D01*
X0572238Y0196481D01*
X0572119Y0196424D01*
X0571999Y0196371D01*
X0571878Y0196321D01*
X0571754Y0196275D01*
X0571630Y0196233D01*
X0571504Y0196195D01*
X0571377Y0196160D01*
X0571249Y0196129D01*
X0571121Y0196103D01*
X0570991Y0196080D01*
X0570861Y0196061D01*
X0570731Y0196046D01*
X0570600Y0196035D01*
X0570468Y0196028D01*
X0570337Y0196025D01*
X0570205Y0196026D01*
X0570074Y0196031D01*
X0569943Y0196040D01*
X0569812Y0196053D01*
X0569682Y0196070D01*
X0569552Y0196091D01*
X0569423Y0196116D01*
X0569295Y0196144D01*
X0569167Y0196177D01*
X0569041Y0196213D01*
X0568916Y0196254D01*
X0568792Y0196298D01*
X0568669Y0196345D01*
X0568548Y0196397D01*
X0568429Y0196452D01*
X0568311Y0196511D01*
X0568196Y0196573D01*
X0568082Y0196639D01*
X0567970Y0196708D01*
X0567860Y0196780D01*
X0567753Y0196856D01*
X0567648Y0196935D01*
X0567545Y0197017D01*
X0567445Y0197102D01*
X0567348Y0197191D01*
X0567253Y0197282D01*
X0567161Y0197376D01*
X0567072Y0197473D01*
X0566986Y0197572D01*
X0566903Y0197674D01*
X0566823Y0197779D01*
X0566747Y0197885D01*
X0566674Y0197994D01*
X0566604Y0198106D01*
X0566537Y0198219D01*
X0566474Y0198334D01*
X0566414Y0198452D01*
X0566358Y0198570D01*
X0566306Y0198691D01*
X0566257Y0198813D01*
X0566212Y0198937D01*
X0566171Y0199061D01*
X0566134Y0199188D01*
X0566100Y0199315D01*
X0566070Y0199443D01*
X0566045Y0199572D01*
X0566023Y0199701D01*
X0566005Y0199831D01*
X0565991Y0199962D01*
X0565981Y0200093D01*
X0565975Y0200225D01*
X0565973Y0200356D01*
X0566100Y0130568D02*
X0566102Y0130699D01*
X0566108Y0130831D01*
X0566118Y0130962D01*
X0566132Y0131093D01*
X0566150Y0131223D01*
X0566172Y0131352D01*
X0566197Y0131481D01*
X0566227Y0131609D01*
X0566261Y0131736D01*
X0566298Y0131863D01*
X0566339Y0131987D01*
X0566384Y0132111D01*
X0566433Y0132233D01*
X0566485Y0132354D01*
X0566541Y0132472D01*
X0566601Y0132590D01*
X0566664Y0132705D01*
X0566731Y0132818D01*
X0566801Y0132930D01*
X0566874Y0133039D01*
X0566950Y0133145D01*
X0567030Y0133250D01*
X0567113Y0133352D01*
X0567199Y0133451D01*
X0567288Y0133548D01*
X0567380Y0133642D01*
X0567475Y0133733D01*
X0567572Y0133822D01*
X0567672Y0133907D01*
X0567775Y0133989D01*
X0567880Y0134068D01*
X0567987Y0134144D01*
X0568097Y0134216D01*
X0568209Y0134285D01*
X0568323Y0134351D01*
X0568438Y0134413D01*
X0568556Y0134472D01*
X0568675Y0134527D01*
X0568796Y0134579D01*
X0568919Y0134626D01*
X0569043Y0134670D01*
X0569168Y0134711D01*
X0569294Y0134747D01*
X0569422Y0134780D01*
X0569550Y0134808D01*
X0569679Y0134833D01*
X0569809Y0134854D01*
X0569939Y0134871D01*
X0570070Y0134884D01*
X0570201Y0134893D01*
X0570332Y0134898D01*
X0570464Y0134899D01*
X0570595Y0134896D01*
X0570727Y0134889D01*
X0570858Y0134878D01*
X0570988Y0134863D01*
X0571118Y0134844D01*
X0571248Y0134821D01*
X0571376Y0134795D01*
X0571504Y0134764D01*
X0571631Y0134729D01*
X0571757Y0134691D01*
X0571881Y0134649D01*
X0572005Y0134603D01*
X0572126Y0134553D01*
X0572246Y0134500D01*
X0572365Y0134443D01*
X0572482Y0134383D01*
X0572596Y0134319D01*
X0572709Y0134251D01*
X0572820Y0134180D01*
X0572929Y0134106D01*
X0573035Y0134029D01*
X0573139Y0133948D01*
X0573240Y0133865D01*
X0573339Y0133778D01*
X0573435Y0133688D01*
X0573528Y0133595D01*
X0573619Y0133500D01*
X0573706Y0133402D01*
X0573791Y0133301D01*
X0573872Y0133198D01*
X0573950Y0133092D01*
X0574025Y0132984D01*
X0574097Y0132874D01*
X0574165Y0132762D01*
X0574230Y0132648D01*
X0574291Y0132531D01*
X0574349Y0132413D01*
X0574403Y0132293D01*
X0574454Y0132172D01*
X0574501Y0132049D01*
X0574544Y0131925D01*
X0574583Y0131800D01*
X0574619Y0131673D01*
X0574650Y0131545D01*
X0574678Y0131417D01*
X0574702Y0131288D01*
X0574722Y0131158D01*
X0574738Y0131027D01*
X0574750Y0130896D01*
X0574758Y0130765D01*
X0574762Y0130634D01*
X0574762Y0130502D01*
X0574758Y0130371D01*
X0574750Y0130240D01*
X0574738Y0130109D01*
X0574722Y0129978D01*
X0574702Y0129848D01*
X0574678Y0129719D01*
X0574650Y0129591D01*
X0574619Y0129463D01*
X0574583Y0129336D01*
X0574544Y0129211D01*
X0574501Y0129087D01*
X0574454Y0128964D01*
X0574403Y0128843D01*
X0574349Y0128723D01*
X0574291Y0128605D01*
X0574230Y0128488D01*
X0574165Y0128374D01*
X0574097Y0128262D01*
X0574025Y0128152D01*
X0573950Y0128044D01*
X0573872Y0127938D01*
X0573791Y0127835D01*
X0573706Y0127734D01*
X0573619Y0127636D01*
X0573528Y0127541D01*
X0573435Y0127448D01*
X0573339Y0127358D01*
X0573240Y0127271D01*
X0573139Y0127188D01*
X0573035Y0127107D01*
X0572929Y0127030D01*
X0572820Y0126956D01*
X0572709Y0126885D01*
X0572597Y0126817D01*
X0572482Y0126753D01*
X0572365Y0126693D01*
X0572246Y0126636D01*
X0572126Y0126583D01*
X0572005Y0126533D01*
X0571881Y0126487D01*
X0571757Y0126445D01*
X0571631Y0126407D01*
X0571504Y0126372D01*
X0571376Y0126341D01*
X0571248Y0126315D01*
X0571118Y0126292D01*
X0570988Y0126273D01*
X0570858Y0126258D01*
X0570727Y0126247D01*
X0570595Y0126240D01*
X0570464Y0126237D01*
X0570332Y0126238D01*
X0570201Y0126243D01*
X0570070Y0126252D01*
X0569939Y0126265D01*
X0569809Y0126282D01*
X0569679Y0126303D01*
X0569550Y0126328D01*
X0569422Y0126356D01*
X0569294Y0126389D01*
X0569168Y0126425D01*
X0569043Y0126466D01*
X0568919Y0126510D01*
X0568796Y0126557D01*
X0568675Y0126609D01*
X0568556Y0126664D01*
X0568438Y0126723D01*
X0568323Y0126785D01*
X0568209Y0126851D01*
X0568097Y0126920D01*
X0567987Y0126992D01*
X0567880Y0127068D01*
X0567775Y0127147D01*
X0567672Y0127229D01*
X0567572Y0127314D01*
X0567475Y0127403D01*
X0567380Y0127494D01*
X0567288Y0127588D01*
X0567199Y0127685D01*
X0567113Y0127784D01*
X0567030Y0127886D01*
X0566950Y0127991D01*
X0566874Y0128097D01*
X0566801Y0128206D01*
X0566731Y0128318D01*
X0566664Y0128431D01*
X0566601Y0128546D01*
X0566541Y0128664D01*
X0566485Y0128782D01*
X0566433Y0128903D01*
X0566384Y0129025D01*
X0566339Y0129149D01*
X0566298Y0129273D01*
X0566261Y0129400D01*
X0566227Y0129527D01*
X0566197Y0129655D01*
X0566172Y0129784D01*
X0566150Y0129913D01*
X0566132Y0130043D01*
X0566118Y0130174D01*
X0566108Y0130305D01*
X0566102Y0130437D01*
X0566100Y0130568D01*
X0566100Y0055799D02*
X0566102Y0055930D01*
X0566108Y0056062D01*
X0566118Y0056193D01*
X0566132Y0056324D01*
X0566150Y0056454D01*
X0566172Y0056583D01*
X0566197Y0056712D01*
X0566227Y0056840D01*
X0566261Y0056967D01*
X0566298Y0057094D01*
X0566339Y0057218D01*
X0566384Y0057342D01*
X0566433Y0057464D01*
X0566485Y0057585D01*
X0566541Y0057703D01*
X0566601Y0057821D01*
X0566664Y0057936D01*
X0566731Y0058049D01*
X0566801Y0058161D01*
X0566874Y0058270D01*
X0566950Y0058376D01*
X0567030Y0058481D01*
X0567113Y0058583D01*
X0567199Y0058682D01*
X0567288Y0058779D01*
X0567380Y0058873D01*
X0567475Y0058964D01*
X0567572Y0059053D01*
X0567672Y0059138D01*
X0567775Y0059220D01*
X0567880Y0059299D01*
X0567987Y0059375D01*
X0568097Y0059447D01*
X0568209Y0059516D01*
X0568323Y0059582D01*
X0568438Y0059644D01*
X0568556Y0059703D01*
X0568675Y0059758D01*
X0568796Y0059810D01*
X0568919Y0059857D01*
X0569043Y0059901D01*
X0569168Y0059942D01*
X0569294Y0059978D01*
X0569422Y0060011D01*
X0569550Y0060039D01*
X0569679Y0060064D01*
X0569809Y0060085D01*
X0569939Y0060102D01*
X0570070Y0060115D01*
X0570201Y0060124D01*
X0570332Y0060129D01*
X0570464Y0060130D01*
X0570595Y0060127D01*
X0570727Y0060120D01*
X0570858Y0060109D01*
X0570988Y0060094D01*
X0571118Y0060075D01*
X0571248Y0060052D01*
X0571376Y0060026D01*
X0571504Y0059995D01*
X0571631Y0059960D01*
X0571757Y0059922D01*
X0571881Y0059880D01*
X0572005Y0059834D01*
X0572126Y0059784D01*
X0572246Y0059731D01*
X0572365Y0059674D01*
X0572482Y0059614D01*
X0572596Y0059550D01*
X0572709Y0059482D01*
X0572820Y0059411D01*
X0572929Y0059337D01*
X0573035Y0059260D01*
X0573139Y0059179D01*
X0573240Y0059096D01*
X0573339Y0059009D01*
X0573435Y0058919D01*
X0573528Y0058826D01*
X0573619Y0058731D01*
X0573706Y0058633D01*
X0573791Y0058532D01*
X0573872Y0058429D01*
X0573950Y0058323D01*
X0574025Y0058215D01*
X0574097Y0058105D01*
X0574165Y0057993D01*
X0574230Y0057879D01*
X0574291Y0057762D01*
X0574349Y0057644D01*
X0574403Y0057524D01*
X0574454Y0057403D01*
X0574501Y0057280D01*
X0574544Y0057156D01*
X0574583Y0057031D01*
X0574619Y0056904D01*
X0574650Y0056776D01*
X0574678Y0056648D01*
X0574702Y0056519D01*
X0574722Y0056389D01*
X0574738Y0056258D01*
X0574750Y0056127D01*
X0574758Y0055996D01*
X0574762Y0055865D01*
X0574762Y0055733D01*
X0574758Y0055602D01*
X0574750Y0055471D01*
X0574738Y0055340D01*
X0574722Y0055209D01*
X0574702Y0055079D01*
X0574678Y0054950D01*
X0574650Y0054822D01*
X0574619Y0054694D01*
X0574583Y0054567D01*
X0574544Y0054442D01*
X0574501Y0054318D01*
X0574454Y0054195D01*
X0574403Y0054074D01*
X0574349Y0053954D01*
X0574291Y0053836D01*
X0574230Y0053719D01*
X0574165Y0053605D01*
X0574097Y0053493D01*
X0574025Y0053383D01*
X0573950Y0053275D01*
X0573872Y0053169D01*
X0573791Y0053066D01*
X0573706Y0052965D01*
X0573619Y0052867D01*
X0573528Y0052772D01*
X0573435Y0052679D01*
X0573339Y0052589D01*
X0573240Y0052502D01*
X0573139Y0052419D01*
X0573035Y0052338D01*
X0572929Y0052261D01*
X0572820Y0052187D01*
X0572709Y0052116D01*
X0572597Y0052048D01*
X0572482Y0051984D01*
X0572365Y0051924D01*
X0572246Y0051867D01*
X0572126Y0051814D01*
X0572005Y0051764D01*
X0571881Y0051718D01*
X0571757Y0051676D01*
X0571631Y0051638D01*
X0571504Y0051603D01*
X0571376Y0051572D01*
X0571248Y0051546D01*
X0571118Y0051523D01*
X0570988Y0051504D01*
X0570858Y0051489D01*
X0570727Y0051478D01*
X0570595Y0051471D01*
X0570464Y0051468D01*
X0570332Y0051469D01*
X0570201Y0051474D01*
X0570070Y0051483D01*
X0569939Y0051496D01*
X0569809Y0051513D01*
X0569679Y0051534D01*
X0569550Y0051559D01*
X0569422Y0051587D01*
X0569294Y0051620D01*
X0569168Y0051656D01*
X0569043Y0051697D01*
X0568919Y0051741D01*
X0568796Y0051788D01*
X0568675Y0051840D01*
X0568556Y0051895D01*
X0568438Y0051954D01*
X0568323Y0052016D01*
X0568209Y0052082D01*
X0568097Y0052151D01*
X0567987Y0052223D01*
X0567880Y0052299D01*
X0567775Y0052378D01*
X0567672Y0052460D01*
X0567572Y0052545D01*
X0567475Y0052634D01*
X0567380Y0052725D01*
X0567288Y0052819D01*
X0567199Y0052916D01*
X0567113Y0053015D01*
X0567030Y0053117D01*
X0566950Y0053222D01*
X0566874Y0053328D01*
X0566801Y0053437D01*
X0566731Y0053549D01*
X0566664Y0053662D01*
X0566601Y0053777D01*
X0566541Y0053895D01*
X0566485Y0054013D01*
X0566433Y0054134D01*
X0566384Y0054256D01*
X0566339Y0054380D01*
X0566298Y0054504D01*
X0566261Y0054631D01*
X0566227Y0054758D01*
X0566197Y0054886D01*
X0566172Y0055015D01*
X0566150Y0055144D01*
X0566132Y0055274D01*
X0566118Y0055405D01*
X0566108Y0055536D01*
X0566102Y0055668D01*
X0566100Y0055799D01*
X0595394Y0019831D02*
X0595396Y0019984D01*
X0595402Y0020138D01*
X0595412Y0020291D01*
X0595426Y0020443D01*
X0595444Y0020596D01*
X0595466Y0020747D01*
X0595491Y0020898D01*
X0595521Y0021049D01*
X0595555Y0021199D01*
X0595592Y0021347D01*
X0595633Y0021495D01*
X0595678Y0021641D01*
X0595727Y0021787D01*
X0595780Y0021931D01*
X0595836Y0022073D01*
X0595896Y0022214D01*
X0595960Y0022354D01*
X0596027Y0022492D01*
X0596098Y0022628D01*
X0596173Y0022762D01*
X0596250Y0022894D01*
X0596332Y0023024D01*
X0596416Y0023152D01*
X0596504Y0023278D01*
X0596595Y0023401D01*
X0596689Y0023522D01*
X0596787Y0023640D01*
X0596887Y0023756D01*
X0596991Y0023869D01*
X0597097Y0023980D01*
X0597206Y0024088D01*
X0597318Y0024193D01*
X0597432Y0024294D01*
X0597550Y0024393D01*
X0597669Y0024489D01*
X0597791Y0024582D01*
X0597916Y0024671D01*
X0598043Y0024758D01*
X0598172Y0024840D01*
X0598303Y0024920D01*
X0598436Y0024996D01*
X0598571Y0025069D01*
X0598708Y0025138D01*
X0598847Y0025203D01*
X0598987Y0025265D01*
X0599129Y0025323D01*
X0599272Y0025378D01*
X0599417Y0025429D01*
X0599563Y0025476D01*
X0599710Y0025519D01*
X0599858Y0025558D01*
X0600007Y0025594D01*
X0600157Y0025625D01*
X0600308Y0025653D01*
X0600459Y0025677D01*
X0600612Y0025697D01*
X0600764Y0025713D01*
X0600917Y0025725D01*
X0601070Y0025733D01*
X0601223Y0025737D01*
X0601377Y0025737D01*
X0601530Y0025733D01*
X0601683Y0025725D01*
X0601836Y0025713D01*
X0601988Y0025697D01*
X0602141Y0025677D01*
X0602292Y0025653D01*
X0602443Y0025625D01*
X0602593Y0025594D01*
X0602742Y0025558D01*
X0602890Y0025519D01*
X0603037Y0025476D01*
X0603183Y0025429D01*
X0603328Y0025378D01*
X0603471Y0025323D01*
X0603613Y0025265D01*
X0603753Y0025203D01*
X0603892Y0025138D01*
X0604029Y0025069D01*
X0604164Y0024996D01*
X0604297Y0024920D01*
X0604428Y0024840D01*
X0604557Y0024758D01*
X0604684Y0024671D01*
X0604809Y0024582D01*
X0604931Y0024489D01*
X0605050Y0024393D01*
X0605168Y0024294D01*
X0605282Y0024193D01*
X0605394Y0024088D01*
X0605503Y0023980D01*
X0605609Y0023869D01*
X0605713Y0023756D01*
X0605813Y0023640D01*
X0605911Y0023522D01*
X0606005Y0023401D01*
X0606096Y0023278D01*
X0606184Y0023152D01*
X0606268Y0023024D01*
X0606350Y0022894D01*
X0606427Y0022762D01*
X0606502Y0022628D01*
X0606573Y0022492D01*
X0606640Y0022354D01*
X0606704Y0022214D01*
X0606764Y0022073D01*
X0606820Y0021931D01*
X0606873Y0021787D01*
X0606922Y0021641D01*
X0606967Y0021495D01*
X0607008Y0021347D01*
X0607045Y0021199D01*
X0607079Y0021049D01*
X0607109Y0020898D01*
X0607134Y0020747D01*
X0607156Y0020596D01*
X0607174Y0020443D01*
X0607188Y0020291D01*
X0607198Y0020138D01*
X0607204Y0019984D01*
X0607206Y0019831D01*
X0607204Y0019678D01*
X0607198Y0019524D01*
X0607188Y0019371D01*
X0607174Y0019219D01*
X0607156Y0019066D01*
X0607134Y0018915D01*
X0607109Y0018764D01*
X0607079Y0018613D01*
X0607045Y0018463D01*
X0607008Y0018315D01*
X0606967Y0018167D01*
X0606922Y0018021D01*
X0606873Y0017875D01*
X0606820Y0017731D01*
X0606764Y0017589D01*
X0606704Y0017448D01*
X0606640Y0017308D01*
X0606573Y0017170D01*
X0606502Y0017034D01*
X0606427Y0016900D01*
X0606350Y0016768D01*
X0606268Y0016638D01*
X0606184Y0016510D01*
X0606096Y0016384D01*
X0606005Y0016261D01*
X0605911Y0016140D01*
X0605813Y0016022D01*
X0605713Y0015906D01*
X0605609Y0015793D01*
X0605503Y0015682D01*
X0605394Y0015574D01*
X0605282Y0015469D01*
X0605168Y0015368D01*
X0605050Y0015269D01*
X0604931Y0015173D01*
X0604809Y0015080D01*
X0604684Y0014991D01*
X0604557Y0014904D01*
X0604428Y0014822D01*
X0604297Y0014742D01*
X0604164Y0014666D01*
X0604029Y0014593D01*
X0603892Y0014524D01*
X0603753Y0014459D01*
X0603613Y0014397D01*
X0603471Y0014339D01*
X0603328Y0014284D01*
X0603183Y0014233D01*
X0603037Y0014186D01*
X0602890Y0014143D01*
X0602742Y0014104D01*
X0602593Y0014068D01*
X0602443Y0014037D01*
X0602292Y0014009D01*
X0602141Y0013985D01*
X0601988Y0013965D01*
X0601836Y0013949D01*
X0601683Y0013937D01*
X0601530Y0013929D01*
X0601377Y0013925D01*
X0601223Y0013925D01*
X0601070Y0013929D01*
X0600917Y0013937D01*
X0600764Y0013949D01*
X0600612Y0013965D01*
X0600459Y0013985D01*
X0600308Y0014009D01*
X0600157Y0014037D01*
X0600007Y0014068D01*
X0599858Y0014104D01*
X0599710Y0014143D01*
X0599563Y0014186D01*
X0599417Y0014233D01*
X0599272Y0014284D01*
X0599129Y0014339D01*
X0598987Y0014397D01*
X0598847Y0014459D01*
X0598708Y0014524D01*
X0598571Y0014593D01*
X0598436Y0014666D01*
X0598303Y0014742D01*
X0598172Y0014822D01*
X0598043Y0014904D01*
X0597916Y0014991D01*
X0597791Y0015080D01*
X0597669Y0015173D01*
X0597550Y0015269D01*
X0597432Y0015368D01*
X0597318Y0015469D01*
X0597206Y0015574D01*
X0597097Y0015682D01*
X0596991Y0015793D01*
X0596887Y0015906D01*
X0596787Y0016022D01*
X0596689Y0016140D01*
X0596595Y0016261D01*
X0596504Y0016384D01*
X0596416Y0016510D01*
X0596332Y0016638D01*
X0596250Y0016768D01*
X0596173Y0016900D01*
X0596098Y0017034D01*
X0596027Y0017170D01*
X0595960Y0017308D01*
X0595896Y0017448D01*
X0595836Y0017589D01*
X0595780Y0017731D01*
X0595727Y0017875D01*
X0595678Y0018021D01*
X0595633Y0018167D01*
X0595592Y0018315D01*
X0595555Y0018463D01*
X0595521Y0018613D01*
X0595491Y0018764D01*
X0595466Y0018915D01*
X0595444Y0019066D01*
X0595426Y0019219D01*
X0595412Y0019371D01*
X0595402Y0019524D01*
X0595396Y0019678D01*
X0595394Y0019831D01*
D11*
X0601300Y0019831D03*
X0601300Y0429800D03*
X0018300Y0429800D03*
X0018300Y0019831D03*
D12*
X0018300Y0010800D02*
X0601800Y0010800D01*
X0602005Y0010802D01*
X0602211Y0010810D01*
X0602416Y0010822D01*
X0602620Y0010840D01*
X0602825Y0010862D01*
X0603028Y0010889D01*
X0603231Y0010921D01*
X0603433Y0010958D01*
X0603634Y0011000D01*
X0603834Y0011047D01*
X0604033Y0011099D01*
X0604231Y0011155D01*
X0604427Y0011216D01*
X0604621Y0011282D01*
X0604814Y0011352D01*
X0605005Y0011428D01*
X0605195Y0011507D01*
X0605382Y0011592D01*
X0605567Y0011680D01*
X0605750Y0011774D01*
X0605931Y0011871D01*
X0606109Y0011973D01*
X0606285Y0012080D01*
X0606458Y0012190D01*
X0606629Y0012305D01*
X0606796Y0012423D01*
X0606961Y0012546D01*
X0607123Y0012673D01*
X0607281Y0012803D01*
X0607437Y0012938D01*
X0607589Y0013076D01*
X0607737Y0013217D01*
X0607883Y0013363D01*
X0608024Y0013511D01*
X0608162Y0013663D01*
X0608297Y0013819D01*
X0608427Y0013977D01*
X0608554Y0014139D01*
X0608677Y0014304D01*
X0608795Y0014471D01*
X0608910Y0014642D01*
X0609020Y0014815D01*
X0609127Y0014991D01*
X0609229Y0015169D01*
X0609326Y0015350D01*
X0609420Y0015533D01*
X0609508Y0015718D01*
X0609593Y0015905D01*
X0609672Y0016095D01*
X0609748Y0016286D01*
X0609818Y0016479D01*
X0609884Y0016673D01*
X0609945Y0016869D01*
X0610001Y0017067D01*
X0610053Y0017266D01*
X0610100Y0017466D01*
X0610142Y0017667D01*
X0610179Y0017869D01*
X0610211Y0018072D01*
X0610238Y0018275D01*
X0610260Y0018480D01*
X0610278Y0018684D01*
X0610290Y0018889D01*
X0610298Y0019095D01*
X0610300Y0019300D01*
X0610300Y0431300D01*
X0610298Y0431481D01*
X0610291Y0431662D01*
X0610280Y0431843D01*
X0610265Y0432024D01*
X0610245Y0432204D01*
X0610221Y0432384D01*
X0610193Y0432563D01*
X0610160Y0432741D01*
X0610123Y0432918D01*
X0610082Y0433095D01*
X0610037Y0433270D01*
X0609987Y0433445D01*
X0609933Y0433618D01*
X0609875Y0433789D01*
X0609813Y0433960D01*
X0609746Y0434128D01*
X0609676Y0434295D01*
X0609602Y0434461D01*
X0609523Y0434624D01*
X0609441Y0434785D01*
X0609355Y0434945D01*
X0609265Y0435102D01*
X0609171Y0435257D01*
X0609074Y0435410D01*
X0608972Y0435560D01*
X0608868Y0435708D01*
X0608759Y0435854D01*
X0608648Y0435996D01*
X0608532Y0436136D01*
X0608414Y0436273D01*
X0608292Y0436408D01*
X0608167Y0436539D01*
X0608039Y0436667D01*
X0607908Y0436792D01*
X0607773Y0436914D01*
X0607636Y0437032D01*
X0607496Y0437148D01*
X0607354Y0437259D01*
X0607208Y0437368D01*
X0607060Y0437472D01*
X0606910Y0437574D01*
X0606757Y0437671D01*
X0606602Y0437765D01*
X0606445Y0437855D01*
X0606285Y0437941D01*
X0606124Y0438023D01*
X0605961Y0438102D01*
X0605795Y0438176D01*
X0605628Y0438246D01*
X0605460Y0438313D01*
X0605289Y0438375D01*
X0605118Y0438433D01*
X0604945Y0438487D01*
X0604770Y0438537D01*
X0604595Y0438582D01*
X0604418Y0438623D01*
X0604241Y0438660D01*
X0604063Y0438693D01*
X0603884Y0438721D01*
X0603704Y0438745D01*
X0603524Y0438765D01*
X0603343Y0438780D01*
X0603162Y0438791D01*
X0602981Y0438798D01*
X0602800Y0438800D01*
X0017800Y0438800D01*
X0017595Y0438798D01*
X0017389Y0438790D01*
X0017184Y0438778D01*
X0016980Y0438760D01*
X0016775Y0438738D01*
X0016572Y0438711D01*
X0016369Y0438679D01*
X0016167Y0438642D01*
X0015966Y0438600D01*
X0015766Y0438553D01*
X0015567Y0438501D01*
X0015369Y0438445D01*
X0015173Y0438384D01*
X0014979Y0438318D01*
X0014786Y0438248D01*
X0014595Y0438172D01*
X0014405Y0438093D01*
X0014218Y0438008D01*
X0014033Y0437920D01*
X0013850Y0437826D01*
X0013669Y0437729D01*
X0013491Y0437627D01*
X0013315Y0437520D01*
X0013142Y0437410D01*
X0012971Y0437295D01*
X0012804Y0437177D01*
X0012639Y0437054D01*
X0012477Y0436927D01*
X0012319Y0436797D01*
X0012163Y0436662D01*
X0012011Y0436524D01*
X0011863Y0436383D01*
X0011717Y0436237D01*
X0011576Y0436089D01*
X0011438Y0435937D01*
X0011303Y0435781D01*
X0011173Y0435623D01*
X0011046Y0435461D01*
X0010923Y0435296D01*
X0010805Y0435129D01*
X0010690Y0434958D01*
X0010580Y0434785D01*
X0010473Y0434609D01*
X0010371Y0434431D01*
X0010274Y0434250D01*
X0010180Y0434067D01*
X0010092Y0433882D01*
X0010007Y0433695D01*
X0009928Y0433505D01*
X0009852Y0433314D01*
X0009782Y0433121D01*
X0009716Y0432927D01*
X0009655Y0432731D01*
X0009599Y0432533D01*
X0009547Y0432334D01*
X0009500Y0432134D01*
X0009458Y0431933D01*
X0009421Y0431731D01*
X0009389Y0431528D01*
X0009362Y0431325D01*
X0009340Y0431120D01*
X0009322Y0430916D01*
X0009310Y0430711D01*
X0009302Y0430505D01*
X0009300Y0430300D01*
X0009300Y0019800D01*
X0009303Y0019583D01*
X0009311Y0019365D01*
X0009324Y0019148D01*
X0009342Y0018931D01*
X0009366Y0018715D01*
X0009394Y0018500D01*
X0009428Y0018285D01*
X0009468Y0018071D01*
X0009512Y0017858D01*
X0009562Y0017646D01*
X0009616Y0017436D01*
X0009676Y0017226D01*
X0009740Y0017019D01*
X0009810Y0016813D01*
X0009885Y0016609D01*
X0009964Y0016406D01*
X0010049Y0016206D01*
X0010138Y0016007D01*
X0010232Y0015811D01*
X0010331Y0015617D01*
X0010434Y0015426D01*
X0010542Y0015237D01*
X0010655Y0015051D01*
X0010772Y0014868D01*
X0010893Y0014687D01*
X0011019Y0014510D01*
X0011149Y0014336D01*
X0011283Y0014164D01*
X0011421Y0013996D01*
X0011563Y0013832D01*
X0011710Y0013671D01*
X0011860Y0013513D01*
X0012013Y0013360D01*
X0012171Y0013210D01*
X0012332Y0013063D01*
X0012496Y0012921D01*
X0012664Y0012783D01*
X0012836Y0012649D01*
X0013010Y0012519D01*
X0013187Y0012393D01*
X0013368Y0012272D01*
X0013551Y0012155D01*
X0013737Y0012042D01*
X0013926Y0011934D01*
X0014117Y0011831D01*
X0014311Y0011732D01*
X0014507Y0011638D01*
X0014706Y0011549D01*
X0014906Y0011464D01*
X0015109Y0011385D01*
X0015313Y0011310D01*
X0015519Y0011240D01*
X0015726Y0011176D01*
X0015936Y0011116D01*
X0016146Y0011062D01*
X0016358Y0011012D01*
X0016571Y0010968D01*
X0016785Y0010928D01*
X0017000Y0010894D01*
X0017215Y0010866D01*
X0017431Y0010842D01*
X0017648Y0010824D01*
X0017865Y0010811D01*
X0018083Y0010803D01*
X0018300Y0010800D01*
D13*
X0034800Y0055800D03*
X0064800Y0055800D03*
X0074800Y0055800D03*
X0074800Y0130800D03*
X0064800Y0130800D03*
X0034800Y0130800D03*
X0034800Y0200800D03*
X0064800Y0200800D03*
X0074800Y0200800D03*
X0074800Y0270800D03*
X0064800Y0270800D03*
X0034800Y0270800D03*
X0034800Y0340800D03*
X0064800Y0340800D03*
X0074800Y0340800D03*
X0074800Y0410800D03*
X0064800Y0410800D03*
X0034800Y0410800D03*
X0547648Y0410431D03*
X0557648Y0410431D03*
X0587648Y0410431D03*
X0587804Y0341583D03*
X0557804Y0341583D03*
X0547804Y0341583D03*
X0547804Y0271033D03*
X0557804Y0271033D03*
X0587804Y0271033D03*
X0587804Y0200356D03*
X0557804Y0200356D03*
X0547804Y0200356D03*
X0547931Y0130568D03*
X0557931Y0130568D03*
X0587931Y0130568D03*
X0587931Y0055799D03*
X0557931Y0055799D03*
X0547931Y0055799D03*
D14*
X0570431Y0055799D03*
X0570431Y0130568D03*
X0570304Y0200356D03*
X0570304Y0271033D03*
X0570304Y0341583D03*
X0570148Y0410431D03*
X0052300Y0410800D03*
X0052300Y0340800D03*
X0052300Y0270800D03*
X0052300Y0200800D03*
X0052300Y0130800D03*
X0052300Y0055800D03*
D15*
X0085250Y0055750D03*
X0095250Y0055750D03*
X0095300Y0130750D03*
X0085300Y0130750D03*
X0085300Y0200850D03*
X0095300Y0200850D03*
X0095300Y0270850D03*
X0085300Y0270850D03*
X0085350Y0340850D03*
X0095350Y0340850D03*
X0095300Y0410750D03*
X0085300Y0410750D03*
D16*
X0101430Y0402099D02*
X0109170Y0402099D01*
X0109170Y0390501D01*
X0101430Y0390501D01*
X0101430Y0402099D01*
X0203430Y0379099D02*
X0203430Y0367501D01*
X0211170Y0367501D01*
X0211170Y0379099D01*
X0203430Y0379099D01*
X0278430Y0379099D02*
X0278430Y0367501D01*
X0286170Y0367501D01*
X0286170Y0379099D01*
X0278430Y0379099D01*
X0353430Y0379099D02*
X0353430Y0367501D01*
X0361170Y0367501D01*
X0361170Y0379099D01*
X0353430Y0379099D01*
X0433430Y0379099D02*
X0433430Y0367501D01*
X0441170Y0367501D01*
X0441170Y0379099D01*
X0433430Y0379099D01*
X0508430Y0379099D02*
X0508430Y0367501D01*
X0516170Y0367501D01*
X0516170Y0379099D01*
X0508430Y0379099D01*
X0508430Y0309099D02*
X0516170Y0309099D01*
X0516170Y0297501D01*
X0508430Y0297501D01*
X0508430Y0309099D01*
X0441170Y0309099D02*
X0441170Y0297501D01*
X0433430Y0297501D01*
X0433430Y0309099D01*
X0441170Y0309099D01*
X0361170Y0309099D02*
X0361170Y0297501D01*
X0353430Y0297501D01*
X0353430Y0309099D01*
X0361170Y0309099D01*
X0286170Y0309099D02*
X0286170Y0297501D01*
X0278430Y0297501D01*
X0278430Y0309099D01*
X0286170Y0309099D01*
X0211170Y0309099D02*
X0211170Y0297501D01*
X0203430Y0297501D01*
X0203430Y0309099D01*
X0211170Y0309099D01*
X0211170Y0239099D02*
X0203430Y0239099D01*
X0203430Y0227501D01*
X0211170Y0227501D01*
X0211170Y0239099D01*
X0278430Y0239099D02*
X0278430Y0227501D01*
X0286170Y0227501D01*
X0286170Y0239099D01*
X0278430Y0239099D01*
X0353430Y0239099D02*
X0353430Y0227501D01*
X0361170Y0227501D01*
X0361170Y0239099D01*
X0353430Y0239099D01*
X0433430Y0239099D02*
X0433430Y0227501D01*
X0441170Y0227501D01*
X0441170Y0239099D01*
X0433430Y0239099D01*
X0508430Y0239099D02*
X0508430Y0227501D01*
X0516170Y0227501D01*
X0516170Y0239099D01*
X0508430Y0239099D01*
X0508430Y0169099D02*
X0516170Y0169099D01*
X0516170Y0157501D01*
X0508430Y0157501D01*
X0508430Y0169099D01*
X0441170Y0169099D02*
X0441170Y0157501D01*
X0433430Y0157501D01*
X0433430Y0169099D01*
X0441170Y0169099D01*
X0361170Y0169099D02*
X0361170Y0157501D01*
X0353430Y0157501D01*
X0353430Y0169099D01*
X0361170Y0169099D01*
X0286170Y0169099D02*
X0286170Y0157501D01*
X0278430Y0157501D01*
X0278430Y0169099D01*
X0286170Y0169099D01*
X0211170Y0169099D02*
X0211170Y0157501D01*
X0203430Y0157501D01*
X0203430Y0169099D01*
X0211170Y0169099D01*
X0211170Y0099099D02*
X0203430Y0099099D01*
X0203430Y0087501D01*
X0211170Y0087501D01*
X0211170Y0099099D01*
X0278430Y0099099D02*
X0278430Y0087501D01*
X0286170Y0087501D01*
X0286170Y0099099D01*
X0278430Y0099099D01*
X0353430Y0099099D02*
X0353430Y0087501D01*
X0361170Y0087501D01*
X0361170Y0099099D01*
X0353430Y0099099D01*
X0433430Y0099099D02*
X0433430Y0087501D01*
X0441170Y0087501D01*
X0441170Y0099099D01*
X0433430Y0099099D01*
X0508430Y0099099D02*
X0508430Y0087501D01*
X0516170Y0087501D01*
X0516170Y0099099D01*
X0508430Y0099099D01*
X0504001Y0024670D02*
X0504001Y0016930D01*
X0515599Y0016930D01*
X0515599Y0024670D01*
X0504001Y0024670D01*
X0445849Y0024670D02*
X0445849Y0016930D01*
X0434251Y0016930D01*
X0434251Y0024670D01*
X0445849Y0024670D01*
X0366349Y0024670D02*
X0366349Y0016930D01*
X0354751Y0016930D01*
X0354751Y0024670D01*
X0366349Y0024670D01*
X0289349Y0024670D02*
X0289349Y0016930D01*
X0277751Y0016930D01*
X0277751Y0024670D01*
X0289349Y0024670D01*
X0215599Y0024670D02*
X0215599Y0016930D01*
X0204001Y0016930D01*
X0204001Y0024670D01*
X0215599Y0024670D01*
X0109170Y0026001D02*
X0101430Y0026001D01*
X0101430Y0037599D01*
X0109170Y0037599D01*
X0109170Y0026001D01*
X0109170Y0101001D02*
X0101430Y0101001D01*
X0101430Y0112599D01*
X0109170Y0112599D01*
X0109170Y0101001D01*
X0109170Y0171001D02*
X0101430Y0171001D01*
X0101430Y0182599D01*
X0109170Y0182599D01*
X0109170Y0171001D01*
X0109170Y0241001D02*
X0101430Y0241001D01*
X0101430Y0252599D01*
X0109170Y0252599D01*
X0109170Y0241001D01*
X0109170Y0311001D02*
X0101430Y0311001D01*
X0101430Y0322599D01*
X0109170Y0322599D01*
X0109170Y0311001D01*
D17*
X0206454Y0020800D03*
X0213146Y0020800D03*
X0280204Y0020800D03*
X0286896Y0020800D03*
X0357204Y0020800D03*
X0363896Y0020800D03*
X0436704Y0020800D03*
X0443396Y0020800D03*
X0506454Y0020800D03*
X0513146Y0020800D03*
D18*
X0512300Y0089954D03*
X0512300Y0096646D03*
X0437300Y0096646D03*
X0437300Y0089954D03*
X0357300Y0089954D03*
X0357300Y0096646D03*
X0282300Y0096646D03*
X0282300Y0089954D03*
X0207300Y0089954D03*
X0207300Y0096646D03*
X0207300Y0159954D03*
X0207300Y0166646D03*
X0282300Y0166646D03*
X0282300Y0159954D03*
X0357300Y0159954D03*
X0357300Y0166646D03*
X0437300Y0166646D03*
X0437300Y0159954D03*
X0512300Y0159954D03*
X0512300Y0166646D03*
X0512300Y0229954D03*
X0512300Y0236646D03*
X0437300Y0236646D03*
X0437300Y0229954D03*
X0357300Y0229954D03*
X0357300Y0236646D03*
X0282300Y0236646D03*
X0282300Y0229954D03*
X0207300Y0229954D03*
X0207300Y0236646D03*
X0207300Y0299954D03*
X0207300Y0306646D03*
X0282300Y0306646D03*
X0282300Y0299954D03*
X0357300Y0299954D03*
X0357300Y0306646D03*
X0437300Y0306646D03*
X0437300Y0299954D03*
X0512300Y0299954D03*
X0512300Y0306646D03*
X0512300Y0369954D03*
X0512300Y0376646D03*
X0437300Y0376646D03*
X0437300Y0369954D03*
X0357300Y0369954D03*
X0357300Y0376646D03*
X0282300Y0376646D03*
X0282300Y0369954D03*
X0207300Y0369954D03*
X0207300Y0376646D03*
X0105300Y0392954D03*
X0105300Y0399646D03*
X0105300Y0320146D03*
X0105300Y0313454D03*
X0105300Y0250146D03*
X0105300Y0243454D03*
X0105300Y0180146D03*
X0105300Y0173454D03*
X0105300Y0110146D03*
X0105300Y0103454D03*
X0105300Y0035146D03*
X0105300Y0028454D03*
D19*
X0117457Y0028241D03*
X0127300Y0028241D03*
X0137143Y0028241D03*
X0197457Y0028241D03*
X0207300Y0028241D03*
X0217143Y0028241D03*
X0272457Y0028241D03*
X0282300Y0028241D03*
X0292143Y0028241D03*
X0347457Y0028241D03*
X0357300Y0028241D03*
X0367143Y0028241D03*
X0427457Y0028241D03*
X0437300Y0028241D03*
X0447143Y0028241D03*
X0502457Y0028241D03*
X0512300Y0028241D03*
X0522143Y0028241D03*
X0522143Y0103241D03*
X0512300Y0103241D03*
X0502457Y0103241D03*
X0447143Y0103241D03*
X0437300Y0103241D03*
X0427457Y0103241D03*
X0367143Y0103241D03*
X0357300Y0103241D03*
X0347457Y0103241D03*
X0292143Y0103241D03*
X0282300Y0103241D03*
X0272457Y0103241D03*
X0217143Y0103241D03*
X0207300Y0103241D03*
X0197457Y0103241D03*
X0137143Y0103241D03*
X0127300Y0103241D03*
X0117457Y0103241D03*
X0117457Y0173241D03*
X0127300Y0173241D03*
X0137143Y0173241D03*
X0197457Y0173241D03*
X0207300Y0173241D03*
X0217143Y0173241D03*
X0272457Y0173241D03*
X0282300Y0173241D03*
X0292143Y0173241D03*
X0347457Y0173241D03*
X0357300Y0173241D03*
X0367143Y0173241D03*
X0427457Y0173241D03*
X0437300Y0173241D03*
X0447143Y0173241D03*
X0502457Y0173241D03*
X0512300Y0173241D03*
X0522143Y0173241D03*
X0522143Y0243241D03*
X0512300Y0243241D03*
X0502457Y0243241D03*
X0447143Y0243241D03*
X0437300Y0243241D03*
X0427457Y0243241D03*
X0367143Y0243241D03*
X0357300Y0243241D03*
X0347457Y0243241D03*
X0292143Y0243241D03*
X0282300Y0243241D03*
X0272457Y0243241D03*
X0217143Y0243241D03*
X0207300Y0243241D03*
X0197457Y0243241D03*
X0137143Y0243241D03*
X0127300Y0243241D03*
X0117457Y0243241D03*
X0117457Y0313241D03*
X0127300Y0313241D03*
X0137143Y0313241D03*
X0197457Y0313241D03*
X0207300Y0313241D03*
X0217143Y0313241D03*
X0272457Y0313241D03*
X0282300Y0313241D03*
X0292143Y0313241D03*
X0347457Y0313241D03*
X0357300Y0313241D03*
X0367143Y0313241D03*
X0427457Y0313241D03*
X0437300Y0313241D03*
X0447143Y0313241D03*
X0502457Y0313241D03*
X0512300Y0313241D03*
X0522143Y0313241D03*
X0522143Y0383241D03*
X0512300Y0383241D03*
X0502457Y0383241D03*
X0447143Y0383241D03*
X0437300Y0383241D03*
X0427457Y0383241D03*
X0367143Y0383241D03*
X0357300Y0383241D03*
X0347457Y0383241D03*
X0292143Y0383241D03*
X0282300Y0383241D03*
X0272457Y0383241D03*
X0217143Y0383241D03*
X0207300Y0383241D03*
X0197457Y0383241D03*
X0137143Y0383241D03*
X0127300Y0383241D03*
X0117457Y0383241D03*
D20*
X0108796Y0410800D03*
X0145804Y0410800D03*
X0188796Y0410800D03*
X0225804Y0410800D03*
X0263796Y0410800D03*
X0300804Y0410800D03*
X0338796Y0410800D03*
X0375804Y0410800D03*
X0418796Y0410800D03*
X0455804Y0410800D03*
X0493796Y0410800D03*
X0530804Y0410800D03*
X0530804Y0340800D03*
X0493796Y0340800D03*
X0455804Y0340800D03*
X0418796Y0340800D03*
X0375804Y0340800D03*
X0338796Y0340800D03*
X0300804Y0340800D03*
X0263796Y0340800D03*
X0225804Y0340800D03*
X0188796Y0340800D03*
X0145804Y0340800D03*
X0108796Y0340800D03*
X0108796Y0270800D03*
X0145804Y0270800D03*
X0188796Y0270800D03*
X0225804Y0270800D03*
X0263796Y0270800D03*
X0300804Y0270800D03*
X0338796Y0270800D03*
X0375804Y0270800D03*
X0418796Y0270800D03*
X0455804Y0270800D03*
X0493796Y0270800D03*
X0530804Y0270800D03*
X0530804Y0200800D03*
X0493796Y0200800D03*
X0455804Y0200800D03*
X0418796Y0200800D03*
X0375804Y0200800D03*
X0338796Y0200800D03*
X0300804Y0200800D03*
X0263796Y0200800D03*
X0225804Y0200800D03*
X0188796Y0200800D03*
X0145804Y0200800D03*
X0108796Y0200800D03*
X0108796Y0130800D03*
X0145804Y0130800D03*
X0188796Y0130800D03*
X0225804Y0130800D03*
X0263796Y0130800D03*
X0300804Y0130800D03*
X0338796Y0130800D03*
X0375804Y0130800D03*
X0418796Y0130800D03*
X0455804Y0130800D03*
X0493796Y0130800D03*
X0530804Y0130800D03*
X0530804Y0055800D03*
X0493796Y0055800D03*
X0455804Y0055800D03*
X0418796Y0055800D03*
X0375804Y0055800D03*
X0338796Y0055800D03*
X0300804Y0055800D03*
X0263796Y0055800D03*
X0225804Y0055800D03*
X0188796Y0055800D03*
X0145804Y0055800D03*
X0108796Y0055800D03*
D21*
X0314439Y0385902D03*
X0314439Y0395902D03*
X0314439Y0405902D03*
X0314439Y0415902D03*
X0314439Y0425902D03*
X0324439Y0425902D03*
X0324439Y0415902D03*
X0324439Y0405902D03*
X0324439Y0395902D03*
X0324439Y0385902D03*
D22*
X0317300Y0340800D03*
X0317300Y0290800D03*
X0250800Y0322300D03*
X0242300Y0290800D03*
X0198800Y0292800D03*
X0185800Y0296300D03*
X0153800Y0297300D03*
X0148300Y0312800D03*
X0176800Y0327800D03*
X0199300Y0362300D03*
X0189300Y0380300D03*
X0160300Y0368800D03*
X0134800Y0337300D03*
X0052300Y0310800D03*
X0052300Y0375800D03*
X0117300Y0399800D03*
X0157300Y0425800D03*
X0247300Y0370800D03*
X0397300Y0340800D03*
X0477300Y0340800D03*
X0567300Y0370800D03*
X0472300Y0410800D03*
X0397300Y0410800D03*
X0397300Y0270800D03*
X0477300Y0270800D03*
X0477300Y0200800D03*
X0397300Y0200800D03*
X0317300Y0215800D03*
X0317300Y0175800D03*
X0317300Y0155800D03*
X0287800Y0154800D03*
X0234800Y0176300D03*
X0233300Y0154800D03*
X0211800Y0154800D03*
X0201800Y0150300D03*
X0172300Y0136300D03*
X0174800Y0118300D03*
X0161300Y0085300D03*
X0171800Y0065300D03*
X0201300Y0053300D03*
X0211800Y0053300D03*
X0223800Y0073300D03*
X0212300Y0081300D03*
X0201800Y0081300D03*
X0239300Y0111800D03*
X0242300Y0055800D03*
X0185800Y0027300D03*
X0167300Y0027300D03*
X0168300Y0038800D03*
X0138300Y0018300D03*
X0127800Y0092300D03*
X0052300Y0095800D03*
X0128300Y0165800D03*
X0160300Y0155300D03*
X0172800Y0191300D03*
X0172800Y0209800D03*
X0161300Y0209800D03*
X0146300Y0212300D03*
X0201300Y0219800D03*
X0213300Y0224300D03*
X0242300Y0215800D03*
X0242300Y0243300D03*
X0187300Y0258800D03*
X0052300Y0240800D03*
X0052300Y0170800D03*
X0317300Y0100800D03*
X0317300Y0070800D03*
X0361300Y0083800D03*
X0397300Y0055800D03*
X0397300Y0130800D03*
X0477300Y0130800D03*
M02*
