%
M48
M72
T01C0.03150
T02C0.03200
T03C0.03937
T04C0.04000
T05C0.05906
T06C0.08661
T07C0.11811
%
T01
X127800Y92300
X161300Y85300
X171800Y65300
X201300Y53300
X211800Y53300
X223800Y73300
X212300Y81300
X201800Y81300
X239300Y111800
X201800Y150300
X211800Y154800
X233300Y154800
X234800Y176300
X287800Y154800
X317300Y155800
X317300Y175800
X317300Y215800
X242300Y215800
X213300Y224300
X201300Y219800
X172800Y209800
X161300Y209800
X146300Y212300
X172800Y191300
X128300Y165800
X160300Y155300
X172300Y136300
X174800Y118300
X242300Y55800
X185800Y27300
X167300Y27300
X168300Y38800
X138300Y18300
X52300Y95800
X52300Y170800
X52300Y240800
X52300Y310800
X134800Y337300
X148300Y312800
X153800Y297300
X185800Y296300
X198800Y292800
X242300Y290800
X250800Y322300
X199300Y362300
X189300Y380300
X160300Y368800
X117300Y399800
X157300Y425800
X247300Y370800
X317300Y340800
X317300Y290800
X242300Y243300
X187300Y258800
X176800Y327800
X52300Y375800
X397300Y340800
X477300Y340800
X567300Y370800
X472300Y410800
X397300Y410800
X397300Y270800
X477300Y270800
X477300Y200800
X397300Y200800
X397300Y130800
X361300Y83800
X397300Y55800
X317300Y70800
X317300Y100800
X477300Y130800
T02
X95300Y130750
X85300Y130750
X85300Y200850
X95300Y200850
X95300Y270850
X85300Y270850
X85350Y340850
X95350Y340850
X95300Y410750
X85300Y410750
X85250Y55750
X95250Y55750
T03
X117457Y28241
X127300Y28241
X137143Y28241
X197457Y28241
X207300Y28241
X217143Y28241
X272457Y28241
X282300Y28241
X292143Y28241
X347457Y28241
X357300Y28241
X367143Y28241
X427457Y28241
X437300Y28241
X447143Y28241
X502457Y28241
X512300Y28241
X522143Y28241
X522143Y103241
X512300Y103241
X502457Y103241
X447143Y103241
X437300Y103241
X427457Y103241
X367143Y103241
X357300Y103241
X347457Y103241
X292143Y103241
X282300Y103241
X272457Y103241
X217143Y103241
X207300Y103241
X197457Y103241
X137143Y103241
X127300Y103241
X117457Y103241
X117457Y173241
X127300Y173241
X137143Y173241
X197457Y173241
X207300Y173241
X217143Y173241
X272457Y173241
X282300Y173241
X292143Y173241
X347457Y173241
X357300Y173241
X367143Y173241
X427457Y173241
X437300Y173241
X447143Y173241
X502457Y173241
X512300Y173241
X522143Y173241
X522143Y243241
X512300Y243241
X502457Y243241
X447143Y243241
X437300Y243241
X427457Y243241
X367143Y243241
X357300Y243241
X347457Y243241
X292143Y243241
X282300Y243241
X272457Y243241
X217143Y243241
X207300Y243241
X197457Y243241
X137143Y243241
X127300Y243241
X117457Y243241
X117457Y313241
X127300Y313241
X137143Y313241
X197457Y313241
X207300Y313241
X217143Y313241
X272457Y313241
X282300Y313241
X292143Y313241
X347457Y313241
X357300Y313241
X367143Y313241
X427457Y313241
X437300Y313241
X447143Y313241
X502457Y313241
X512300Y313241
X522143Y313241
X522143Y383241
X512300Y383241
X502457Y383241
X447143Y383241
X437300Y383241
X427457Y383241
X367143Y383241
X357300Y383241
X347457Y383241
X292143Y383241
X282300Y383241
X272457Y383241
X217143Y383241
X207300Y383241
X197457Y383241
X137143Y383241
X127300Y383241
X117457Y383241
T04
X74800Y410800
X64800Y410800
X34800Y410800
X34800Y340800
X64800Y340800
X74800Y340800
X74800Y270800
X64800Y270800
X34800Y270800
X34800Y200800
X64800Y200800
X74800Y200800
X74800Y130800
X64800Y130800
X34800Y130800
X34800Y55800
X64800Y55800
X74800Y55800
X314439Y385902
X314439Y395902
X314439Y405902
X314439Y415902
X314439Y425902
X324439Y425902
X324439Y415902
X324439Y405902
X324439Y395902
X324439Y385902
X547648Y410431
X557648Y410431
X587648Y410431
X587804Y341583
X557804Y341583
X547804Y341583
X547804Y271033
X557804Y271033
X587804Y271033
X587804Y200356
X557804Y200356
X547804Y200356
X547931Y130568
X557931Y130568
X587931Y130568
X587931Y55799
X557931Y55799
X547931Y55799
T05
X530804Y55800
X493796Y55800
X455804Y55800
X418796Y55800
X375804Y55800
X338796Y55800
X300804Y55800
X263796Y55800
X225804Y55800
X188796Y55800
X145804Y55800
X108796Y55800
X108796Y130800
X145804Y130800
X188796Y130800
X225804Y130800
X263796Y130800
X300804Y130800
X338796Y130800
X375804Y130800
X418796Y130800
X455804Y130800
X493796Y130800
X530804Y130800
X530804Y200800
X493796Y200800
X455804Y200800
X418796Y200800
X375804Y200800
X338796Y200800
X300804Y200800
X263796Y200800
X225804Y200800
X188796Y200800
X145804Y200800
X108796Y200800
X108796Y270800
X145804Y270800
X188796Y270800
X225804Y270800
X263796Y270800
X300804Y270800
X338796Y270800
X375804Y270800
X418796Y270800
X455804Y270800
X493796Y270800
X530804Y270800
X530804Y340800
X493796Y340800
X455804Y340800
X418796Y340800
X375804Y340800
X338796Y340800
X300804Y340800
X263796Y340800
X225804Y340800
X188796Y340800
X145804Y340800
X108796Y340800
X108796Y410800
X145804Y410800
X188796Y410800
X225804Y410800
X263796Y410800
X300804Y410800
X338796Y410800
X375804Y410800
X418796Y410800
X455804Y410800
X493796Y410800
X530804Y410800
T06
X570148Y410431
X570304Y341583
X570304Y271033
X570304Y200356
X570431Y130568
X570431Y55799
X52300Y55800
X52300Y130800
X52300Y200800
X52300Y270800
X52300Y340800
X52300Y410800
T07
X18300Y19831
X18300Y429800
X601300Y429800
X601300Y19831
M30
